%TF.GenerationSoftware,KiCad,Pcbnew,(5.1.9)-1*%
%TF.CreationDate,2021-06-08T13:47:19+02:00*%
%TF.ProjectId,19_WIFI_Generic,31395f57-4946-4495-9f47-656e65726963,rev?*%
%TF.SameCoordinates,Original*%
%TF.FileFunction,Paste,Bot*%
%TF.FilePolarity,Positive*%
%FSLAX46Y46*%
G04 Gerber Fmt 4.6, Leading zero omitted, Abs format (unit mm)*
G04 Created by KiCad (PCBNEW (5.1.9)-1) date 2021-06-08 13:47:19*
%MOMM*%
%LPD*%
G01*
G04 APERTURE LIST*
%TA.AperFunction,Profile*%
%ADD10C,0.150000*%
%TD*%
%ADD11R,0.800000X0.900000*%
%ADD12R,0.900000X1.200000*%
G04 APERTURE END LIST*
D10*
X175000000Y-80000000D02*
G75*
G02*
X180000000Y-85000000I0J-5000000D01*
G01*
X180000000Y-135000000D02*
G75*
G02*
X175000000Y-140000000I-5000000J0D01*
G01*
X120000000Y-140000000D02*
G75*
G02*
X115000000Y-135000000I0J5000000D01*
G01*
X115000000Y-85000000D02*
G75*
G02*
X120000000Y-80000000I5000000J0D01*
G01*
X115000000Y-135000000D02*
X115000000Y-85000000D01*
X175000000Y-140000000D02*
X120000000Y-140000000D01*
X180000000Y-85000000D02*
X180000000Y-135000000D01*
X120000000Y-80000000D02*
X175000000Y-80000000D01*
%TO.C,R7*%
G36*
G01*
X145262500Y-101475000D02*
X145737500Y-101475000D01*
G75*
G02*
X145975000Y-101712500I0J-237500D01*
G01*
X145975000Y-102287500D01*
G75*
G02*
X145737500Y-102525000I-237500J0D01*
G01*
X145262500Y-102525000D01*
G75*
G02*
X145025000Y-102287500I0J237500D01*
G01*
X145025000Y-101712500D01*
G75*
G02*
X145262500Y-101475000I237500J0D01*
G01*
G37*
G36*
G01*
X145262500Y-99725000D02*
X145737500Y-99725000D01*
G75*
G02*
X145975000Y-99962500I0J-237500D01*
G01*
X145975000Y-100537500D01*
G75*
G02*
X145737500Y-100775000I-237500J0D01*
G01*
X145262500Y-100775000D01*
G75*
G02*
X145025000Y-100537500I0J237500D01*
G01*
X145025000Y-99962500D01*
G75*
G02*
X145262500Y-99725000I237500J0D01*
G01*
G37*
%TD*%
%TO.C,R6*%
G36*
G01*
X147829500Y-101475000D02*
X148304500Y-101475000D01*
G75*
G02*
X148542000Y-101712500I0J-237500D01*
G01*
X148542000Y-102287500D01*
G75*
G02*
X148304500Y-102525000I-237500J0D01*
G01*
X147829500Y-102525000D01*
G75*
G02*
X147592000Y-102287500I0J237500D01*
G01*
X147592000Y-101712500D01*
G75*
G02*
X147829500Y-101475000I237500J0D01*
G01*
G37*
G36*
G01*
X147829500Y-99725000D02*
X148304500Y-99725000D01*
G75*
G02*
X148542000Y-99962500I0J-237500D01*
G01*
X148542000Y-100537500D01*
G75*
G02*
X148304500Y-100775000I-237500J0D01*
G01*
X147829500Y-100775000D01*
G75*
G02*
X147592000Y-100537500I0J237500D01*
G01*
X147592000Y-99962500D01*
G75*
G02*
X147829500Y-99725000I237500J0D01*
G01*
G37*
%TD*%
%TO.C,R2*%
G36*
G01*
X169762500Y-113725000D02*
X170237500Y-113725000D01*
G75*
G02*
X170475000Y-113962500I0J-237500D01*
G01*
X170475000Y-114537500D01*
G75*
G02*
X170237500Y-114775000I-237500J0D01*
G01*
X169762500Y-114775000D01*
G75*
G02*
X169525000Y-114537500I0J237500D01*
G01*
X169525000Y-113962500D01*
G75*
G02*
X169762500Y-113725000I237500J0D01*
G01*
G37*
G36*
G01*
X169762500Y-111975000D02*
X170237500Y-111975000D01*
G75*
G02*
X170475000Y-112212500I0J-237500D01*
G01*
X170475000Y-112787500D01*
G75*
G02*
X170237500Y-113025000I-237500J0D01*
G01*
X169762500Y-113025000D01*
G75*
G02*
X169525000Y-112787500I0J237500D01*
G01*
X169525000Y-112212500D01*
G75*
G02*
X169762500Y-111975000I237500J0D01*
G01*
G37*
%TD*%
D11*
%TO.C,Q1*%
X165892000Y-128894000D03*
X166842000Y-126894000D03*
X164942000Y-126894000D03*
%TD*%
%TO.C,R13*%
G36*
G01*
X171262500Y-98850000D02*
X171737500Y-98850000D01*
G75*
G02*
X171975000Y-99087500I0J-237500D01*
G01*
X171975000Y-99662500D01*
G75*
G02*
X171737500Y-99900000I-237500J0D01*
G01*
X171262500Y-99900000D01*
G75*
G02*
X171025000Y-99662500I0J237500D01*
G01*
X171025000Y-99087500D01*
G75*
G02*
X171262500Y-98850000I237500J0D01*
G01*
G37*
G36*
G01*
X171262500Y-97100000D02*
X171737500Y-97100000D01*
G75*
G02*
X171975000Y-97337500I0J-237500D01*
G01*
X171975000Y-97912500D01*
G75*
G02*
X171737500Y-98150000I-237500J0D01*
G01*
X171262500Y-98150000D01*
G75*
G02*
X171025000Y-97912500I0J237500D01*
G01*
X171025000Y-97337500D01*
G75*
G02*
X171262500Y-97100000I237500J0D01*
G01*
G37*
%TD*%
%TO.C,R1*%
G36*
G01*
X169762500Y-117225000D02*
X170237500Y-117225000D01*
G75*
G02*
X170475000Y-117462500I0J-237500D01*
G01*
X170475000Y-118037500D01*
G75*
G02*
X170237500Y-118275000I-237500J0D01*
G01*
X169762500Y-118275000D01*
G75*
G02*
X169525000Y-118037500I0J237500D01*
G01*
X169525000Y-117462500D01*
G75*
G02*
X169762500Y-117225000I237500J0D01*
G01*
G37*
G36*
G01*
X169762500Y-115475000D02*
X170237500Y-115475000D01*
G75*
G02*
X170475000Y-115712500I0J-237500D01*
G01*
X170475000Y-116287500D01*
G75*
G02*
X170237500Y-116525000I-237500J0D01*
G01*
X169762500Y-116525000D01*
G75*
G02*
X169525000Y-116287500I0J237500D01*
G01*
X169525000Y-115712500D01*
G75*
G02*
X169762500Y-115475000I237500J0D01*
G01*
G37*
%TD*%
%TO.C,R14*%
G36*
G01*
X165654500Y-131869000D02*
X166129500Y-131869000D01*
G75*
G02*
X166367000Y-132106500I0J-237500D01*
G01*
X166367000Y-132681500D01*
G75*
G02*
X166129500Y-132919000I-237500J0D01*
G01*
X165654500Y-132919000D01*
G75*
G02*
X165417000Y-132681500I0J237500D01*
G01*
X165417000Y-132106500D01*
G75*
G02*
X165654500Y-131869000I237500J0D01*
G01*
G37*
G36*
G01*
X165654500Y-130119000D02*
X166129500Y-130119000D01*
G75*
G02*
X166367000Y-130356500I0J-237500D01*
G01*
X166367000Y-130931500D01*
G75*
G02*
X166129500Y-131169000I-237500J0D01*
G01*
X165654500Y-131169000D01*
G75*
G02*
X165417000Y-130931500I0J237500D01*
G01*
X165417000Y-130356500D01*
G75*
G02*
X165654500Y-130119000I237500J0D01*
G01*
G37*
%TD*%
%TO.C,R15*%
G36*
G01*
X164762500Y-124600000D02*
X165237500Y-124600000D01*
G75*
G02*
X165475000Y-124837500I0J-237500D01*
G01*
X165475000Y-125412500D01*
G75*
G02*
X165237500Y-125650000I-237500J0D01*
G01*
X164762500Y-125650000D01*
G75*
G02*
X164525000Y-125412500I0J237500D01*
G01*
X164525000Y-124837500D01*
G75*
G02*
X164762500Y-124600000I237500J0D01*
G01*
G37*
G36*
G01*
X164762500Y-122850000D02*
X165237500Y-122850000D01*
G75*
G02*
X165475000Y-123087500I0J-237500D01*
G01*
X165475000Y-123662500D01*
G75*
G02*
X165237500Y-123900000I-237500J0D01*
G01*
X164762500Y-123900000D01*
G75*
G02*
X164525000Y-123662500I0J237500D01*
G01*
X164525000Y-123087500D01*
G75*
G02*
X164762500Y-122850000I237500J0D01*
G01*
G37*
%TD*%
%TO.C,R16*%
G36*
G01*
X166987500Y-123900000D02*
X166512500Y-123900000D01*
G75*
G02*
X166275000Y-123662500I0J237500D01*
G01*
X166275000Y-123087500D01*
G75*
G02*
X166512500Y-122850000I237500J0D01*
G01*
X166987500Y-122850000D01*
G75*
G02*
X167225000Y-123087500I0J-237500D01*
G01*
X167225000Y-123662500D01*
G75*
G02*
X166987500Y-123900000I-237500J0D01*
G01*
G37*
G36*
G01*
X166987500Y-125650000D02*
X166512500Y-125650000D01*
G75*
G02*
X166275000Y-125412500I0J237500D01*
G01*
X166275000Y-124837500D01*
G75*
G02*
X166512500Y-124600000I237500J0D01*
G01*
X166987500Y-124600000D01*
G75*
G02*
X167225000Y-124837500I0J-237500D01*
G01*
X167225000Y-125412500D01*
G75*
G02*
X166987500Y-125650000I-237500J0D01*
G01*
G37*
%TD*%
%TO.C,R10*%
G36*
G01*
X134262500Y-93600000D02*
X134737500Y-93600000D01*
G75*
G02*
X134975000Y-93837500I0J-237500D01*
G01*
X134975000Y-94412500D01*
G75*
G02*
X134737500Y-94650000I-237500J0D01*
G01*
X134262500Y-94650000D01*
G75*
G02*
X134025000Y-94412500I0J237500D01*
G01*
X134025000Y-93837500D01*
G75*
G02*
X134262500Y-93600000I237500J0D01*
G01*
G37*
G36*
G01*
X134262500Y-95350000D02*
X134737500Y-95350000D01*
G75*
G02*
X134975000Y-95587500I0J-237500D01*
G01*
X134975000Y-96162500D01*
G75*
G02*
X134737500Y-96400000I-237500J0D01*
G01*
X134262500Y-96400000D01*
G75*
G02*
X134025000Y-96162500I0J237500D01*
G01*
X134025000Y-95587500D01*
G75*
G02*
X134262500Y-95350000I237500J0D01*
G01*
G37*
%TD*%
D12*
%TO.C,D1*%
X128850000Y-137500000D03*
X132150000Y-137500000D03*
%TD*%
%TO.C,D2*%
X141150000Y-137500000D03*
X137850000Y-137500000D03*
%TD*%
%TO.C,D3*%
X146850000Y-137500000D03*
X150150000Y-137500000D03*
%TD*%
%TO.C,D4*%
X159150000Y-137500000D03*
X155850000Y-137500000D03*
%TD*%
D11*
%TO.C,Q2*%
X129500000Y-133000000D03*
X130450000Y-131000000D03*
X128550000Y-131000000D03*
%TD*%
%TO.C,Q3*%
X137050000Y-131000000D03*
X138950000Y-131000000D03*
X138000000Y-133000000D03*
%TD*%
%TO.C,Q4*%
X147000000Y-133000000D03*
X147950000Y-131000000D03*
X146050000Y-131000000D03*
%TD*%
%TO.C,Q5*%
X155050000Y-131000000D03*
X156950000Y-131000000D03*
X156000000Y-133000000D03*
%TD*%
%TO.C,R3*%
G36*
G01*
X139262500Y-122475000D02*
X139737500Y-122475000D01*
G75*
G02*
X139975000Y-122712500I0J-237500D01*
G01*
X139975000Y-123287500D01*
G75*
G02*
X139737500Y-123525000I-237500J0D01*
G01*
X139262500Y-123525000D01*
G75*
G02*
X139025000Y-123287500I0J237500D01*
G01*
X139025000Y-122712500D01*
G75*
G02*
X139262500Y-122475000I237500J0D01*
G01*
G37*
G36*
G01*
X139262500Y-124225000D02*
X139737500Y-124225000D01*
G75*
G02*
X139975000Y-124462500I0J-237500D01*
G01*
X139975000Y-125037500D01*
G75*
G02*
X139737500Y-125275000I-237500J0D01*
G01*
X139262500Y-125275000D01*
G75*
G02*
X139025000Y-125037500I0J237500D01*
G01*
X139025000Y-124462500D01*
G75*
G02*
X139262500Y-124225000I237500J0D01*
G01*
G37*
%TD*%
%TO.C,R4*%
G36*
G01*
X163737500Y-111900000D02*
X163262500Y-111900000D01*
G75*
G02*
X163025000Y-111662500I0J237500D01*
G01*
X163025000Y-111087500D01*
G75*
G02*
X163262500Y-110850000I237500J0D01*
G01*
X163737500Y-110850000D01*
G75*
G02*
X163975000Y-111087500I0J-237500D01*
G01*
X163975000Y-111662500D01*
G75*
G02*
X163737500Y-111900000I-237500J0D01*
G01*
G37*
G36*
G01*
X163737500Y-110150000D02*
X163262500Y-110150000D01*
G75*
G02*
X163025000Y-109912500I0J237500D01*
G01*
X163025000Y-109337500D01*
G75*
G02*
X163262500Y-109100000I237500J0D01*
G01*
X163737500Y-109100000D01*
G75*
G02*
X163975000Y-109337500I0J-237500D01*
G01*
X163975000Y-109912500D01*
G75*
G02*
X163737500Y-110150000I-237500J0D01*
G01*
G37*
%TD*%
%TO.C,R5*%
G36*
G01*
X163737500Y-106275000D02*
X163262500Y-106275000D01*
G75*
G02*
X163025000Y-106037500I0J237500D01*
G01*
X163025000Y-105462500D01*
G75*
G02*
X163262500Y-105225000I237500J0D01*
G01*
X163737500Y-105225000D01*
G75*
G02*
X163975000Y-105462500I0J-237500D01*
G01*
X163975000Y-106037500D01*
G75*
G02*
X163737500Y-106275000I-237500J0D01*
G01*
G37*
G36*
G01*
X163737500Y-108025000D02*
X163262500Y-108025000D01*
G75*
G02*
X163025000Y-107787500I0J237500D01*
G01*
X163025000Y-107212500D01*
G75*
G02*
X163262500Y-106975000I237500J0D01*
G01*
X163737500Y-106975000D01*
G75*
G02*
X163975000Y-107212500I0J-237500D01*
G01*
X163975000Y-107787500D01*
G75*
G02*
X163737500Y-108025000I-237500J0D01*
G01*
G37*
%TD*%
%TO.C,R17*%
G36*
G01*
X146850000Y-117862500D02*
X146850000Y-118337500D01*
G75*
G02*
X146612500Y-118575000I-237500J0D01*
G01*
X146037500Y-118575000D01*
G75*
G02*
X145800000Y-118337500I0J237500D01*
G01*
X145800000Y-117862500D01*
G75*
G02*
X146037500Y-117625000I237500J0D01*
G01*
X146612500Y-117625000D01*
G75*
G02*
X146850000Y-117862500I0J-237500D01*
G01*
G37*
G36*
G01*
X148600000Y-117862500D02*
X148600000Y-118337500D01*
G75*
G02*
X148362500Y-118575000I-237500J0D01*
G01*
X147787500Y-118575000D01*
G75*
G02*
X147550000Y-118337500I0J237500D01*
G01*
X147550000Y-117862500D01*
G75*
G02*
X147787500Y-117625000I237500J0D01*
G01*
X148362500Y-117625000D01*
G75*
G02*
X148600000Y-117862500I0J-237500D01*
G01*
G37*
%TD*%
%TO.C,R18*%
G36*
G01*
X129150000Y-129262500D02*
X129150000Y-129737500D01*
G75*
G02*
X128912500Y-129975000I-237500J0D01*
G01*
X128337500Y-129975000D01*
G75*
G02*
X128100000Y-129737500I0J237500D01*
G01*
X128100000Y-129262500D01*
G75*
G02*
X128337500Y-129025000I237500J0D01*
G01*
X128912500Y-129025000D01*
G75*
G02*
X129150000Y-129262500I0J-237500D01*
G01*
G37*
G36*
G01*
X130900000Y-129262500D02*
X130900000Y-129737500D01*
G75*
G02*
X130662500Y-129975000I-237500J0D01*
G01*
X130087500Y-129975000D01*
G75*
G02*
X129850000Y-129737500I0J237500D01*
G01*
X129850000Y-129262500D01*
G75*
G02*
X130087500Y-129025000I237500J0D01*
G01*
X130662500Y-129025000D01*
G75*
G02*
X130900000Y-129262500I0J-237500D01*
G01*
G37*
%TD*%
%TO.C,R19*%
G36*
G01*
X150775000Y-124262500D02*
X150775000Y-124737500D01*
G75*
G02*
X150537500Y-124975000I-237500J0D01*
G01*
X149962500Y-124975000D01*
G75*
G02*
X149725000Y-124737500I0J237500D01*
G01*
X149725000Y-124262500D01*
G75*
G02*
X149962500Y-124025000I237500J0D01*
G01*
X150537500Y-124025000D01*
G75*
G02*
X150775000Y-124262500I0J-237500D01*
G01*
G37*
G36*
G01*
X149025000Y-124262500D02*
X149025000Y-124737500D01*
G75*
G02*
X148787500Y-124975000I-237500J0D01*
G01*
X148212500Y-124975000D01*
G75*
G02*
X147975000Y-124737500I0J237500D01*
G01*
X147975000Y-124262500D01*
G75*
G02*
X148212500Y-124025000I237500J0D01*
G01*
X148787500Y-124025000D01*
G75*
G02*
X149025000Y-124262500I0J-237500D01*
G01*
G37*
%TD*%
%TO.C,R20*%
G36*
G01*
X137650000Y-129262500D02*
X137650000Y-129737500D01*
G75*
G02*
X137412500Y-129975000I-237500J0D01*
G01*
X136837500Y-129975000D01*
G75*
G02*
X136600000Y-129737500I0J237500D01*
G01*
X136600000Y-129262500D01*
G75*
G02*
X136837500Y-129025000I237500J0D01*
G01*
X137412500Y-129025000D01*
G75*
G02*
X137650000Y-129262500I0J-237500D01*
G01*
G37*
G36*
G01*
X139400000Y-129262500D02*
X139400000Y-129737500D01*
G75*
G02*
X139162500Y-129975000I-237500J0D01*
G01*
X138587500Y-129975000D01*
G75*
G02*
X138350000Y-129737500I0J237500D01*
G01*
X138350000Y-129262500D01*
G75*
G02*
X138587500Y-129025000I237500J0D01*
G01*
X139162500Y-129025000D01*
G75*
G02*
X139400000Y-129262500I0J-237500D01*
G01*
G37*
%TD*%
%TO.C,R21*%
G36*
G01*
X152762500Y-130350000D02*
X153237500Y-130350000D01*
G75*
G02*
X153475000Y-130587500I0J-237500D01*
G01*
X153475000Y-131162500D01*
G75*
G02*
X153237500Y-131400000I-237500J0D01*
G01*
X152762500Y-131400000D01*
G75*
G02*
X152525000Y-131162500I0J237500D01*
G01*
X152525000Y-130587500D01*
G75*
G02*
X152762500Y-130350000I237500J0D01*
G01*
G37*
G36*
G01*
X152762500Y-128600000D02*
X153237500Y-128600000D01*
G75*
G02*
X153475000Y-128837500I0J-237500D01*
G01*
X153475000Y-129412500D01*
G75*
G02*
X153237500Y-129650000I-237500J0D01*
G01*
X152762500Y-129650000D01*
G75*
G02*
X152525000Y-129412500I0J237500D01*
G01*
X152525000Y-128837500D01*
G75*
G02*
X152762500Y-128600000I237500J0D01*
G01*
G37*
%TD*%
%TO.C,R22*%
G36*
G01*
X146650000Y-129262500D02*
X146650000Y-129737500D01*
G75*
G02*
X146412500Y-129975000I-237500J0D01*
G01*
X145837500Y-129975000D01*
G75*
G02*
X145600000Y-129737500I0J237500D01*
G01*
X145600000Y-129262500D01*
G75*
G02*
X145837500Y-129025000I237500J0D01*
G01*
X146412500Y-129025000D01*
G75*
G02*
X146650000Y-129262500I0J-237500D01*
G01*
G37*
G36*
G01*
X148400000Y-129262500D02*
X148400000Y-129737500D01*
G75*
G02*
X148162500Y-129975000I-237500J0D01*
G01*
X147587500Y-129975000D01*
G75*
G02*
X147350000Y-129737500I0J237500D01*
G01*
X147350000Y-129262500D01*
G75*
G02*
X147587500Y-129025000I237500J0D01*
G01*
X148162500Y-129025000D01*
G75*
G02*
X148400000Y-129262500I0J-237500D01*
G01*
G37*
%TD*%
%TO.C,R23*%
G36*
G01*
X159725000Y-127237500D02*
X159725000Y-126762500D01*
G75*
G02*
X159962500Y-126525000I237500J0D01*
G01*
X160537500Y-126525000D01*
G75*
G02*
X160775000Y-126762500I0J-237500D01*
G01*
X160775000Y-127237500D01*
G75*
G02*
X160537500Y-127475000I-237500J0D01*
G01*
X159962500Y-127475000D01*
G75*
G02*
X159725000Y-127237500I0J237500D01*
G01*
G37*
G36*
G01*
X161475000Y-127237500D02*
X161475000Y-126762500D01*
G75*
G02*
X161712500Y-126525000I237500J0D01*
G01*
X162287500Y-126525000D01*
G75*
G02*
X162525000Y-126762500I0J-237500D01*
G01*
X162525000Y-127237500D01*
G75*
G02*
X162287500Y-127475000I-237500J0D01*
G01*
X161712500Y-127475000D01*
G75*
G02*
X161475000Y-127237500I0J237500D01*
G01*
G37*
%TD*%
%TO.C,R24*%
G36*
G01*
X157400000Y-129262500D02*
X157400000Y-129737500D01*
G75*
G02*
X157162500Y-129975000I-237500J0D01*
G01*
X156587500Y-129975000D01*
G75*
G02*
X156350000Y-129737500I0J237500D01*
G01*
X156350000Y-129262500D01*
G75*
G02*
X156587500Y-129025000I237500J0D01*
G01*
X157162500Y-129025000D01*
G75*
G02*
X157400000Y-129262500I0J-237500D01*
G01*
G37*
G36*
G01*
X155650000Y-129262500D02*
X155650000Y-129737500D01*
G75*
G02*
X155412500Y-129975000I-237500J0D01*
G01*
X154837500Y-129975000D01*
G75*
G02*
X154600000Y-129737500I0J237500D01*
G01*
X154600000Y-129262500D01*
G75*
G02*
X154837500Y-129025000I237500J0D01*
G01*
X155412500Y-129025000D01*
G75*
G02*
X155650000Y-129262500I0J-237500D01*
G01*
G37*
%TD*%
%TO.C,R25*%
G36*
G01*
X132737500Y-132400000D02*
X132262500Y-132400000D01*
G75*
G02*
X132025000Y-132162500I0J237500D01*
G01*
X132025000Y-131587500D01*
G75*
G02*
X132262500Y-131350000I237500J0D01*
G01*
X132737500Y-131350000D01*
G75*
G02*
X132975000Y-131587500I0J-237500D01*
G01*
X132975000Y-132162500D01*
G75*
G02*
X132737500Y-132400000I-237500J0D01*
G01*
G37*
G36*
G01*
X132737500Y-130650000D02*
X132262500Y-130650000D01*
G75*
G02*
X132025000Y-130412500I0J237500D01*
G01*
X132025000Y-129837500D01*
G75*
G02*
X132262500Y-129600000I237500J0D01*
G01*
X132737500Y-129600000D01*
G75*
G02*
X132975000Y-129837500I0J-237500D01*
G01*
X132975000Y-130412500D01*
G75*
G02*
X132737500Y-130650000I-237500J0D01*
G01*
G37*
%TD*%
%TO.C,R26*%
G36*
G01*
X141237500Y-130650000D02*
X140762500Y-130650000D01*
G75*
G02*
X140525000Y-130412500I0J237500D01*
G01*
X140525000Y-129837500D01*
G75*
G02*
X140762500Y-129600000I237500J0D01*
G01*
X141237500Y-129600000D01*
G75*
G02*
X141475000Y-129837500I0J-237500D01*
G01*
X141475000Y-130412500D01*
G75*
G02*
X141237500Y-130650000I-237500J0D01*
G01*
G37*
G36*
G01*
X141237500Y-132400000D02*
X140762500Y-132400000D01*
G75*
G02*
X140525000Y-132162500I0J237500D01*
G01*
X140525000Y-131587500D01*
G75*
G02*
X140762500Y-131350000I237500J0D01*
G01*
X141237500Y-131350000D01*
G75*
G02*
X141475000Y-131587500I0J-237500D01*
G01*
X141475000Y-132162500D01*
G75*
G02*
X141237500Y-132400000I-237500J0D01*
G01*
G37*
%TD*%
%TO.C,R27*%
G36*
G01*
X150237500Y-132400000D02*
X149762500Y-132400000D01*
G75*
G02*
X149525000Y-132162500I0J237500D01*
G01*
X149525000Y-131587500D01*
G75*
G02*
X149762500Y-131350000I237500J0D01*
G01*
X150237500Y-131350000D01*
G75*
G02*
X150475000Y-131587500I0J-237500D01*
G01*
X150475000Y-132162500D01*
G75*
G02*
X150237500Y-132400000I-237500J0D01*
G01*
G37*
G36*
G01*
X150237500Y-130650000D02*
X149762500Y-130650000D01*
G75*
G02*
X149525000Y-130412500I0J237500D01*
G01*
X149525000Y-129837500D01*
G75*
G02*
X149762500Y-129600000I237500J0D01*
G01*
X150237500Y-129600000D01*
G75*
G02*
X150475000Y-129837500I0J-237500D01*
G01*
X150475000Y-130412500D01*
G75*
G02*
X150237500Y-130650000I-237500J0D01*
G01*
G37*
%TD*%
%TO.C,R28*%
G36*
G01*
X159237500Y-130650000D02*
X158762500Y-130650000D01*
G75*
G02*
X158525000Y-130412500I0J237500D01*
G01*
X158525000Y-129837500D01*
G75*
G02*
X158762500Y-129600000I237500J0D01*
G01*
X159237500Y-129600000D01*
G75*
G02*
X159475000Y-129837500I0J-237500D01*
G01*
X159475000Y-130412500D01*
G75*
G02*
X159237500Y-130650000I-237500J0D01*
G01*
G37*
G36*
G01*
X159237500Y-132400000D02*
X158762500Y-132400000D01*
G75*
G02*
X158525000Y-132162500I0J237500D01*
G01*
X158525000Y-131587500D01*
G75*
G02*
X158762500Y-131350000I237500J0D01*
G01*
X159237500Y-131350000D01*
G75*
G02*
X159475000Y-131587500I0J-237500D01*
G01*
X159475000Y-132162500D01*
G75*
G02*
X159237500Y-132400000I-237500J0D01*
G01*
G37*
%TD*%
%TO.C,C1*%
G36*
G01*
X159775000Y-85799999D02*
X159775000Y-88000001D01*
G75*
G02*
X159525001Y-88250000I-249999J0D01*
G01*
X158874999Y-88250000D01*
G75*
G02*
X158625000Y-88000001I0J249999D01*
G01*
X158625000Y-85799999D01*
G75*
G02*
X158874999Y-85550000I249999J0D01*
G01*
X159525001Y-85550000D01*
G75*
G02*
X159775000Y-85799999I0J-249999D01*
G01*
G37*
G36*
G01*
X156825000Y-85799999D02*
X156825000Y-88000001D01*
G75*
G02*
X156575001Y-88250000I-249999J0D01*
G01*
X155924999Y-88250000D01*
G75*
G02*
X155675000Y-88000001I0J249999D01*
G01*
X155675000Y-85799999D01*
G75*
G02*
X155924999Y-85550000I249999J0D01*
G01*
X156575001Y-85550000D01*
G75*
G02*
X156825000Y-85799999I0J-249999D01*
G01*
G37*
%TD*%
%TO.C,C2*%
G36*
G01*
X141599999Y-86200000D02*
X143800001Y-86200000D01*
G75*
G02*
X144050000Y-86449999I0J-249999D01*
G01*
X144050000Y-87100001D01*
G75*
G02*
X143800001Y-87350000I-249999J0D01*
G01*
X141599999Y-87350000D01*
G75*
G02*
X141350000Y-87100001I0J249999D01*
G01*
X141350000Y-86449999D01*
G75*
G02*
X141599999Y-86200000I249999J0D01*
G01*
G37*
G36*
G01*
X141599999Y-83250000D02*
X143800001Y-83250000D01*
G75*
G02*
X144050000Y-83499999I0J-249999D01*
G01*
X144050000Y-84150001D01*
G75*
G02*
X143800001Y-84400000I-249999J0D01*
G01*
X141599999Y-84400000D01*
G75*
G02*
X141350000Y-84150001I0J249999D01*
G01*
X141350000Y-83499999D01*
G75*
G02*
X141599999Y-83250000I249999J0D01*
G01*
G37*
%TD*%
D12*
%TO.C,D5*%
X164450000Y-86300000D03*
X161150000Y-86300000D03*
%TD*%
%TO.C,D6*%
X148450000Y-83400000D03*
X151750000Y-83400000D03*
%TD*%
M02*
