%TF.GenerationSoftware,KiCad,Pcbnew,(5.1.9)-1*%
%TF.CreationDate,2021-06-08T16:49:57+02:00*%
%TF.ProjectId,19_WIFI_Generic,31395f57-4946-4495-9f47-656e65726963,rev?*%
%TF.SameCoordinates,Original*%
%TF.FileFunction,Copper,L1,Top*%
%TF.FilePolarity,Positive*%
%FSLAX46Y46*%
G04 Gerber Fmt 4.6, Leading zero omitted, Abs format (unit mm)*
G04 Created by KiCad (PCBNEW (5.1.9)-1) date 2021-06-08 16:49:57*
%MOMM*%
%LPD*%
G01*
G04 APERTURE LIST*
%TA.AperFunction,Profile*%
%ADD10C,0.150000*%
%TD*%
%TA.AperFunction,ComponentPad*%
%ADD11C,0.800000*%
%TD*%
%TA.AperFunction,ComponentPad*%
%ADD12C,6.400000*%
%TD*%
%TA.AperFunction,ComponentPad*%
%ADD13O,1.600000X2.000000*%
%TD*%
%TA.AperFunction,ComponentPad*%
%ADD14R,2.000000X2.000000*%
%TD*%
%TA.AperFunction,ComponentPad*%
%ADD15R,1.500000X2.500000*%
%TD*%
%TA.AperFunction,ComponentPad*%
%ADD16O,1.500000X2.500000*%
%TD*%
%TA.AperFunction,ComponentPad*%
%ADD17O,1.950000X1.700000*%
%TD*%
%TA.AperFunction,ComponentPad*%
%ADD18O,2.000000X1.700000*%
%TD*%
%TA.AperFunction,ComponentPad*%
%ADD19O,1.700000X1.950000*%
%TD*%
%TA.AperFunction,ComponentPad*%
%ADD20O,1.700000X2.000000*%
%TD*%
%TA.AperFunction,ViaPad*%
%ADD21C,1.000000*%
%TD*%
%TA.AperFunction,Conductor*%
%ADD22C,0.300000*%
%TD*%
%TA.AperFunction,Conductor*%
%ADD23C,1.000000*%
%TD*%
%TA.AperFunction,Conductor*%
%ADD24C,0.500000*%
%TD*%
%TA.AperFunction,Conductor*%
%ADD25C,0.254000*%
%TD*%
%TA.AperFunction,Conductor*%
%ADD26C,0.100000*%
%TD*%
G04 APERTURE END LIST*
D10*
X175000000Y-80000000D02*
G75*
G02*
X180000000Y-85000000I0J-5000000D01*
G01*
X180000000Y-135000000D02*
G75*
G02*
X175000000Y-140000000I-5000000J0D01*
G01*
X120000000Y-140000000D02*
G75*
G02*
X115000000Y-135000000I0J5000000D01*
G01*
X115000000Y-85000000D02*
G75*
G02*
X120000000Y-80000000I5000000J0D01*
G01*
X115000000Y-135000000D02*
X115000000Y-85000000D01*
X175000000Y-140000000D02*
X120000000Y-140000000D01*
X180000000Y-85000000D02*
X180000000Y-135000000D01*
X120000000Y-80000000D02*
X175000000Y-80000000D01*
D11*
%TO.P,H3,1*%
%TO.N,GND*%
X176697056Y-133302944D03*
X175000000Y-132600000D03*
X173302944Y-133302944D03*
X172600000Y-135000000D03*
X173302944Y-136697056D03*
X175000000Y-137400000D03*
X176697056Y-136697056D03*
X177400000Y-135000000D03*
D12*
X175000000Y-135000000D03*
%TD*%
D11*
%TO.P,H1,1*%
%TO.N,GND*%
X121697056Y-83302944D03*
X120000000Y-82600000D03*
X118302944Y-83302944D03*
X117600000Y-85000000D03*
X118302944Y-86697056D03*
X120000000Y-87400000D03*
X121697056Y-86697056D03*
X122400000Y-85000000D03*
D12*
X120000000Y-85000000D03*
%TD*%
D11*
%TO.P,H2,1*%
%TO.N,GND*%
X176697056Y-83302944D03*
X175000000Y-82600000D03*
X173302944Y-83302944D03*
X172600000Y-85000000D03*
X173302944Y-86697056D03*
X175000000Y-87400000D03*
X176697056Y-86697056D03*
X177400000Y-85000000D03*
D12*
X175000000Y-85000000D03*
%TD*%
D11*
%TO.P,H4,1*%
%TO.N,GND*%
X121697056Y-133302944D03*
X120000000Y-132600000D03*
X118302944Y-133302944D03*
X117600000Y-135000000D03*
X118302944Y-136697056D03*
X120000000Y-137400000D03*
X121697056Y-136697056D03*
X122400000Y-135000000D03*
D12*
X120000000Y-135000000D03*
%TD*%
D13*
%TO.P,U1,2*%
%TO.N,Net-(J3-Pad2)*%
X143040000Y-120500000D03*
D14*
%TO.P,U1,1*%
%TO.N,Net-(R3-Pad1)*%
X140500000Y-120500000D03*
D13*
%TO.P,U1,3*%
%TO.N,S0*%
X145580000Y-120500000D03*
%TO.P,U1,4*%
%TO.N,SCK*%
X148120000Y-120500000D03*
%TO.P,U1,5*%
%TO.N,MISO*%
X150660000Y-120500000D03*
%TO.P,U1,6*%
%TO.N,MOSI*%
X153200000Y-120500000D03*
%TO.P,U1,7*%
%TO.N,CS*%
X155740000Y-120500000D03*
%TO.P,U1,8*%
%TO.N,3V3*%
X158280000Y-120500000D03*
%TO.P,U1,9*%
%TO.N,5V*%
X158280000Y-97640000D03*
%TO.P,U1,10*%
%TO.N,GND*%
X155740000Y-97640000D03*
%TO.P,U1,11*%
%TO.N,LED_out*%
X153200000Y-97640000D03*
%TO.P,U1,12*%
%TO.N,Net-(R4-Pad2)*%
X150660000Y-97640000D03*
%TO.P,U1,13*%
%TO.N,SDA*%
X148120000Y-97640000D03*
%TO.P,U1,14*%
%TO.N,SCL*%
X145580000Y-97640000D03*
%TO.P,U1,15*%
%TO.N,Net-(U1-Pad15)*%
X143040000Y-97640000D03*
%TO.P,U1,16*%
%TO.N,Net-(U1-Pad16)*%
X140500000Y-97640000D03*
%TD*%
D15*
%TO.P,U2,1*%
%TO.N,Net-(C1-Pad1)*%
X158900000Y-83400000D03*
D16*
%TO.P,U2,2*%
%TO.N,GND*%
X156360000Y-83400000D03*
%TO.P,U2,3*%
%TO.N,Net-(D6-Pad2)*%
X153820000Y-83400000D03*
%TD*%
%TO.P,J1,1*%
%TO.N,GND*%
%TA.AperFunction,ComponentPad*%
G36*
G01*
X170725000Y-128350000D02*
X169275000Y-128350000D01*
G75*
G02*
X169025000Y-128100000I0J250000D01*
G01*
X169025000Y-126900000D01*
G75*
G02*
X169275000Y-126650000I250000J0D01*
G01*
X170725000Y-126650000D01*
G75*
G02*
X170975000Y-126900000I0J-250000D01*
G01*
X170975000Y-128100000D01*
G75*
G02*
X170725000Y-128350000I-250000J0D01*
G01*
G37*
%TD.AperFunction*%
D17*
%TO.P,J1,2*%
%TO.N,5V*%
X170000000Y-125000000D03*
%TO.P,J1,3*%
%TO.N,S0*%
X170000000Y-122500000D03*
%TO.P,J1,4*%
%TO.N,back0*%
X170000000Y-120000000D03*
%TD*%
D18*
%TO.P,J2,2*%
%TO.N,Vin*%
X167100000Y-86400000D03*
%TO.P,J2,1*%
%TO.N,GND*%
%TA.AperFunction,ComponentPad*%
G36*
G01*
X166350000Y-83050000D02*
X167850000Y-83050000D01*
G75*
G02*
X168100000Y-83300000I0J-250000D01*
G01*
X168100000Y-84500000D01*
G75*
G02*
X167850000Y-84750000I-250000J0D01*
G01*
X166350000Y-84750000D01*
G75*
G02*
X166100000Y-84500000I0J250000D01*
G01*
X166100000Y-83300000D01*
G75*
G02*
X166350000Y-83050000I250000J0D01*
G01*
G37*
%TD.AperFunction*%
%TD*%
%TO.P,J5,1*%
%TO.N,CS*%
%TA.AperFunction,ComponentPad*%
G36*
G01*
X158850000Y-126275000D02*
X158850000Y-127725000D01*
G75*
G02*
X158600000Y-127975000I-250000J0D01*
G01*
X157400000Y-127975000D01*
G75*
G02*
X157150000Y-127725000I0J250000D01*
G01*
X157150000Y-126275000D01*
G75*
G02*
X157400000Y-126025000I250000J0D01*
G01*
X158600000Y-126025000D01*
G75*
G02*
X158850000Y-126275000I0J-250000D01*
G01*
G37*
%TD.AperFunction*%
D19*
%TO.P,J5,2*%
%TO.N,SCK*%
X155500000Y-127000000D03*
%TO.P,J5,3*%
%TO.N,MOSI*%
X153000000Y-127000000D03*
%TO.P,J5,4*%
%TO.N,MISO*%
X150500000Y-127000000D03*
%TD*%
%TO.P,J6,4*%
%TO.N,SDA*%
X139300000Y-91500000D03*
%TO.P,J6,3*%
%TO.N,SCL*%
X136800000Y-91500000D03*
%TO.P,J6,2*%
%TO.N,Net-(J6-Pad2)*%
X134300000Y-91500000D03*
%TO.P,J6,1*%
%TO.N,GND*%
%TA.AperFunction,ComponentPad*%
G36*
G01*
X130950000Y-92225000D02*
X130950000Y-90775000D01*
G75*
G02*
X131200000Y-90525000I250000J0D01*
G01*
X132400000Y-90525000D01*
G75*
G02*
X132650000Y-90775000I0J-250000D01*
G01*
X132650000Y-92225000D01*
G75*
G02*
X132400000Y-92475000I-250000J0D01*
G01*
X131200000Y-92475000D01*
G75*
G02*
X130950000Y-92225000I0J250000D01*
G01*
G37*
%TD.AperFunction*%
%TD*%
%TO.P,J7,1*%
%TO.N,GND*%
%TA.AperFunction,ComponentPad*%
G36*
G01*
X145350000Y-126275000D02*
X145350000Y-127725000D01*
G75*
G02*
X145100000Y-127975000I-250000J0D01*
G01*
X143900000Y-127975000D01*
G75*
G02*
X143650000Y-127725000I0J250000D01*
G01*
X143650000Y-126275000D01*
G75*
G02*
X143900000Y-126025000I250000J0D01*
G01*
X145100000Y-126025000D01*
G75*
G02*
X145350000Y-126275000I0J-250000D01*
G01*
G37*
%TD.AperFunction*%
%TO.P,J7,2*%
%TO.N,Net-(J7-Pad2)*%
X142000000Y-127000000D03*
%TO.P,J7,3*%
%TO.N,3V3*%
X139500000Y-127000000D03*
%TD*%
%TO.P,J8,1*%
%TO.N,GND*%
%TA.AperFunction,ComponentPad*%
G36*
G01*
X170350000Y-91850000D02*
X171850000Y-91850000D01*
G75*
G02*
X172100000Y-92100000I0J-250000D01*
G01*
X172100000Y-93300000D01*
G75*
G02*
X171850000Y-93550000I-250000J0D01*
G01*
X170350000Y-93550000D01*
G75*
G02*
X170100000Y-93300000I0J250000D01*
G01*
X170100000Y-92100000D01*
G75*
G02*
X170350000Y-91850000I250000J0D01*
G01*
G37*
%TD.AperFunction*%
D18*
%TO.P,J8,2*%
%TO.N,bouton1*%
X171100000Y-95200000D03*
%TD*%
%TO.P,J9,1*%
%TO.N,Net-(J9-Pad1)*%
%TA.AperFunction,ComponentPad*%
G36*
G01*
X164150000Y-135750000D02*
X164150000Y-134250000D01*
G75*
G02*
X164400000Y-134000000I250000J0D01*
G01*
X165600000Y-134000000D01*
G75*
G02*
X165850000Y-134250000I0J-250000D01*
G01*
X165850000Y-135750000D01*
G75*
G02*
X165600000Y-136000000I-250000J0D01*
G01*
X164400000Y-136000000D01*
G75*
G02*
X164150000Y-135750000I0J250000D01*
G01*
G37*
%TD.AperFunction*%
D20*
%TO.P,J9,2*%
%TO.N,5V*%
X167500000Y-135000000D03*
%TD*%
%TO.P,J10,2*%
%TO.N,5V*%
X131500000Y-135000000D03*
%TO.P,J10,1*%
%TO.N,Net-(D1-Pad2)*%
%TA.AperFunction,ComponentPad*%
G36*
G01*
X128150000Y-135750000D02*
X128150000Y-134250000D01*
G75*
G02*
X128400000Y-134000000I250000J0D01*
G01*
X129600000Y-134000000D01*
G75*
G02*
X129850000Y-134250000I0J-250000D01*
G01*
X129850000Y-135750000D01*
G75*
G02*
X129600000Y-136000000I-250000J0D01*
G01*
X128400000Y-136000000D01*
G75*
G02*
X128150000Y-135750000I0J250000D01*
G01*
G37*
%TD.AperFunction*%
%TD*%
%TO.P,J11,1*%
%TO.N,Net-(D2-Pad2)*%
%TA.AperFunction,ComponentPad*%
G36*
G01*
X137150000Y-135750000D02*
X137150000Y-134250000D01*
G75*
G02*
X137400000Y-134000000I250000J0D01*
G01*
X138600000Y-134000000D01*
G75*
G02*
X138850000Y-134250000I0J-250000D01*
G01*
X138850000Y-135750000D01*
G75*
G02*
X138600000Y-136000000I-250000J0D01*
G01*
X137400000Y-136000000D01*
G75*
G02*
X137150000Y-135750000I0J250000D01*
G01*
G37*
%TD.AperFunction*%
%TO.P,J11,2*%
%TO.N,5V*%
X140500000Y-135000000D03*
%TD*%
%TO.P,J12,1*%
%TO.N,Net-(D3-Pad2)*%
%TA.AperFunction,ComponentPad*%
G36*
G01*
X146150000Y-135750000D02*
X146150000Y-134250000D01*
G75*
G02*
X146400000Y-134000000I250000J0D01*
G01*
X147600000Y-134000000D01*
G75*
G02*
X147850000Y-134250000I0J-250000D01*
G01*
X147850000Y-135750000D01*
G75*
G02*
X147600000Y-136000000I-250000J0D01*
G01*
X146400000Y-136000000D01*
G75*
G02*
X146150000Y-135750000I0J250000D01*
G01*
G37*
%TD.AperFunction*%
%TO.P,J12,2*%
%TO.N,5V*%
X149500000Y-135000000D03*
%TD*%
%TO.P,J13,2*%
%TO.N,5V*%
X158500000Y-135000000D03*
%TO.P,J13,1*%
%TO.N,Net-(D4-Pad2)*%
%TA.AperFunction,ComponentPad*%
G36*
G01*
X155150000Y-135750000D02*
X155150000Y-134250000D01*
G75*
G02*
X155400000Y-134000000I250000J0D01*
G01*
X156600000Y-134000000D01*
G75*
G02*
X156850000Y-134250000I0J-250000D01*
G01*
X156850000Y-135750000D01*
G75*
G02*
X156600000Y-136000000I-250000J0D01*
G01*
X155400000Y-136000000D01*
G75*
G02*
X155150000Y-135750000I0J250000D01*
G01*
G37*
%TD.AperFunction*%
%TD*%
%TO.P,J15,1*%
%TO.N,GND*%
%TA.AperFunction,ComponentPad*%
G36*
G01*
X146750000Y-87350000D02*
X145250000Y-87350000D01*
G75*
G02*
X145000000Y-87100000I0J250000D01*
G01*
X145000000Y-85900000D01*
G75*
G02*
X145250000Y-85650000I250000J0D01*
G01*
X146750000Y-85650000D01*
G75*
G02*
X147000000Y-85900000I0J-250000D01*
G01*
X147000000Y-87100000D01*
G75*
G02*
X146750000Y-87350000I-250000J0D01*
G01*
G37*
%TD.AperFunction*%
D18*
%TO.P,J15,2*%
%TO.N,5V*%
X146000000Y-84000000D03*
%TD*%
%TO.P,J3,1*%
%TO.N,GND*%
%TA.AperFunction,ComponentPad*%
G36*
G01*
X134350000Y-126275000D02*
X134350000Y-127725000D01*
G75*
G02*
X134100000Y-127975000I-250000J0D01*
G01*
X132900000Y-127975000D01*
G75*
G02*
X132650000Y-127725000I0J250000D01*
G01*
X132650000Y-126275000D01*
G75*
G02*
X132900000Y-126025000I250000J0D01*
G01*
X134100000Y-126025000D01*
G75*
G02*
X134350000Y-126275000I0J-250000D01*
G01*
G37*
%TD.AperFunction*%
D19*
%TO.P,J3,2*%
%TO.N,Net-(J3-Pad2)*%
X131000000Y-127000000D03*
%TO.P,J3,3*%
%TO.N,3V3*%
X128500000Y-127000000D03*
%TD*%
D21*
%TO.N,GND*%
X160500000Y-133100000D03*
X151200000Y-133100000D03*
X142000000Y-133100000D03*
X133200000Y-133100000D03*
X151000000Y-112000000D03*
%TO.N,3V3*%
X167500000Y-108600000D03*
X158280000Y-113646000D03*
%TO.N,LED_out*%
X153200000Y-106000000D03*
%TO.N,Net-(R17-Pad2)*%
X135400000Y-118300000D03*
X131700000Y-129100000D03*
%TO.N,Net-(R19-Pad2)*%
X146700000Y-124600000D03*
X140500000Y-129000000D03*
%TD*%
D22*
%TO.N,GND*%
X164400000Y-133100000D02*
X170000000Y-127500000D01*
X160500000Y-133100000D02*
X164400000Y-133100000D01*
X160500000Y-133100000D02*
X151200000Y-133100000D01*
X151200000Y-133100000D02*
X142000000Y-133100000D01*
X142000000Y-133100000D02*
X133200000Y-133100000D01*
X121900000Y-133100000D02*
X120000000Y-135000000D01*
X133200000Y-133100000D02*
X121900000Y-133100000D01*
X155740000Y-97640000D02*
X155740000Y-107260000D01*
X155740000Y-107260000D02*
X151000000Y-112000000D01*
D23*
%TO.N,5V*%
X167500000Y-136600000D02*
X167500000Y-135000000D01*
X166600000Y-137500000D02*
X167500000Y-136600000D01*
X158500000Y-137300000D02*
X158300000Y-137500000D01*
X158500000Y-135000000D02*
X158500000Y-137300000D01*
X158300000Y-137500000D02*
X166600000Y-137500000D01*
X149500000Y-137000000D02*
X149000000Y-137500000D01*
X149500000Y-135000000D02*
X149500000Y-137000000D01*
X149000000Y-137500000D02*
X158300000Y-137500000D01*
X140500000Y-137000000D02*
X140000000Y-137500000D01*
X140500000Y-135000000D02*
X140500000Y-137000000D01*
X140000000Y-137500000D02*
X149000000Y-137500000D01*
X134000000Y-137500000D02*
X131500000Y-135000000D01*
X140000000Y-137500000D02*
X134000000Y-137500000D01*
X146000000Y-84000000D02*
X149100000Y-84000000D01*
X158280000Y-93180000D02*
X158280000Y-97640000D01*
X149100000Y-84000000D02*
X158280000Y-93180000D01*
X158280000Y-97640000D02*
X163940000Y-97640000D01*
X163940000Y-97640000D02*
X174300000Y-108000000D01*
X174300000Y-108000000D02*
X174300000Y-123700000D01*
X167500000Y-135000000D02*
X174300000Y-128200000D01*
X174200000Y-125000000D02*
X174300000Y-125100000D01*
X172500000Y-125000000D02*
X174200000Y-125000000D01*
X174300000Y-128200000D02*
X174300000Y-125100000D01*
X174300000Y-125100000D02*
X174300000Y-123700000D01*
X173000000Y-125000000D02*
X172500000Y-125000000D01*
X172500000Y-125000000D02*
X170000000Y-125000000D01*
D24*
%TO.N,S0*%
X145580000Y-120500000D02*
X145580000Y-118920000D01*
X145580000Y-118920000D02*
X147900000Y-116600000D01*
X147900000Y-116600000D02*
X161900000Y-116600000D01*
X167800000Y-122500000D02*
X170000000Y-122500000D01*
X161900000Y-116600000D02*
X167800000Y-122500000D01*
%TO.N,3V3*%
X162454000Y-113646000D02*
X158280000Y-113646000D01*
X167500000Y-108600000D02*
X162454000Y-113646000D01*
X128500000Y-127000000D02*
X128500000Y-128600000D01*
X128500000Y-128600000D02*
X130500000Y-130600000D01*
X130500000Y-130600000D02*
X136900000Y-130600000D01*
X139500000Y-128000000D02*
X139500000Y-127000000D01*
X158280000Y-120500000D02*
X159700000Y-120500000D01*
X159700000Y-120500000D02*
X162000000Y-122800000D01*
X162000000Y-122800000D02*
X162000000Y-128000000D01*
X162000000Y-128000000D02*
X159300000Y-130700000D01*
X159300000Y-130700000D02*
X140000000Y-130700000D01*
X140000000Y-130700000D02*
X139500000Y-130200000D01*
X138800000Y-130600000D02*
X139500000Y-129900000D01*
X136900000Y-130600000D02*
X138800000Y-130600000D01*
X139500000Y-129900000D02*
X139500000Y-127000000D01*
X139500000Y-130200000D02*
X139500000Y-129900000D01*
%TO.N,LED_out*%
X153200000Y-106000000D02*
X153200000Y-97640000D01*
%TO.N,SCK*%
X148120000Y-120500000D02*
X148120000Y-121020000D01*
X148120000Y-121020000D02*
X150900000Y-123800000D01*
X150900000Y-123800000D02*
X155000000Y-123800000D01*
X155500000Y-124300000D02*
X155500000Y-127000000D01*
X155000000Y-123800000D02*
X155500000Y-124300000D01*
%TO.N,Net-(R17-Pad2)*%
X135400000Y-118300000D02*
X135400000Y-128800000D01*
X135100000Y-129100000D02*
X131700000Y-129100000D01*
X135400000Y-128800000D02*
X135100000Y-129100000D01*
%TO.N,Net-(R19-Pad2)*%
X146700000Y-127900000D02*
X146700000Y-124600000D01*
X145600000Y-129000000D02*
X146700000Y-127900000D01*
X140500000Y-129000000D02*
X145600000Y-129000000D01*
%TD*%
D25*
%TO.N,GND*%
X175759192Y-80780578D02*
X176494389Y-80981705D01*
X177182351Y-81309846D01*
X177801331Y-81754628D01*
X178331761Y-82301988D01*
X178756884Y-82934639D01*
X179063251Y-83632561D01*
X179242499Y-84379183D01*
X179290000Y-85026030D01*
X179290001Y-134968370D01*
X179219422Y-135759193D01*
X179018295Y-136494389D01*
X178690152Y-137182355D01*
X178245374Y-137801328D01*
X177698012Y-138331761D01*
X177065362Y-138756883D01*
X176367439Y-139063251D01*
X175620819Y-139242499D01*
X174973970Y-139290000D01*
X140127000Y-139290000D01*
X140127000Y-138635000D01*
X148944249Y-138635000D01*
X149000000Y-138640491D01*
X149055751Y-138635000D01*
X158244249Y-138635000D01*
X158300000Y-138640491D01*
X158355751Y-138635000D01*
X166544249Y-138635000D01*
X166600000Y-138640491D01*
X166655751Y-138635000D01*
X166655752Y-138635000D01*
X166822499Y-138618577D01*
X167036447Y-138553676D01*
X167233623Y-138448284D01*
X167406449Y-138306449D01*
X167441995Y-138263136D01*
X168004250Y-137700881D01*
X172478724Y-137700881D01*
X172838912Y-138190548D01*
X173502882Y-138550849D01*
X174224385Y-138774694D01*
X174975695Y-138853480D01*
X175727938Y-138784178D01*
X176452208Y-138569452D01*
X177120670Y-138217555D01*
X177161088Y-138190548D01*
X177521276Y-137700881D01*
X175000000Y-135179605D01*
X172478724Y-137700881D01*
X168004250Y-137700881D01*
X168263140Y-137441992D01*
X168306449Y-137406449D01*
X168448284Y-137233623D01*
X168553676Y-137036447D01*
X168618577Y-136822499D01*
X168635000Y-136655752D01*
X168635000Y-136655745D01*
X168640490Y-136600001D01*
X168635000Y-136544257D01*
X168635000Y-136107817D01*
X168740706Y-135979014D01*
X168878599Y-135721033D01*
X168963513Y-135441110D01*
X168985000Y-135222949D01*
X168985000Y-135120131D01*
X169129436Y-134975695D01*
X171146520Y-134975695D01*
X171215822Y-135727938D01*
X171430548Y-136452208D01*
X171782445Y-137120670D01*
X171809452Y-137161088D01*
X172299119Y-137521276D01*
X174820395Y-135000000D01*
X175179605Y-135000000D01*
X177700881Y-137521276D01*
X178190548Y-137161088D01*
X178550849Y-136497118D01*
X178774694Y-135775615D01*
X178853480Y-135024305D01*
X178784178Y-134272062D01*
X178569452Y-133547792D01*
X178217555Y-132879330D01*
X178190548Y-132838912D01*
X177700881Y-132478724D01*
X175179605Y-135000000D01*
X174820395Y-135000000D01*
X172299119Y-132478724D01*
X171809452Y-132838912D01*
X171449151Y-133502882D01*
X171225306Y-134224385D01*
X171146520Y-134975695D01*
X169129436Y-134975695D01*
X171806012Y-132299119D01*
X172478724Y-132299119D01*
X175000000Y-134820395D01*
X177521276Y-132299119D01*
X177161088Y-131809452D01*
X176497118Y-131449151D01*
X175775615Y-131225306D01*
X175024305Y-131146520D01*
X174272062Y-131215822D01*
X173547792Y-131430548D01*
X172879330Y-131782445D01*
X172838912Y-131809452D01*
X172478724Y-132299119D01*
X171806012Y-132299119D01*
X175063141Y-129041991D01*
X175106449Y-129006449D01*
X175248284Y-128833623D01*
X175353676Y-128636447D01*
X175406480Y-128462376D01*
X175418577Y-128422500D01*
X175423631Y-128371183D01*
X175435000Y-128255752D01*
X175435000Y-128255745D01*
X175440490Y-128200001D01*
X175435000Y-128144257D01*
X175435000Y-125155741D01*
X175440490Y-125099999D01*
X175435000Y-125044258D01*
X175435000Y-108055752D01*
X175440491Y-108000000D01*
X175418577Y-107777501D01*
X175353676Y-107563553D01*
X175248284Y-107366377D01*
X175141989Y-107236856D01*
X175141987Y-107236854D01*
X175106449Y-107193551D01*
X175063146Y-107158013D01*
X164781996Y-96876865D01*
X164746449Y-96833551D01*
X164573623Y-96691716D01*
X164376447Y-96586324D01*
X164162499Y-96521423D01*
X163995752Y-96505000D01*
X163995751Y-96505000D01*
X163940000Y-96499509D01*
X163884249Y-96505000D01*
X159415000Y-96505000D01*
X159415000Y-95200000D01*
X169457815Y-95200000D01*
X169486487Y-95491111D01*
X169571401Y-95771034D01*
X169709294Y-96029014D01*
X169894866Y-96255134D01*
X170120986Y-96440706D01*
X170378966Y-96578599D01*
X170658889Y-96663513D01*
X170877050Y-96685000D01*
X171322950Y-96685000D01*
X171541111Y-96663513D01*
X171821034Y-96578599D01*
X172079014Y-96440706D01*
X172305134Y-96255134D01*
X172490706Y-96029014D01*
X172628599Y-95771034D01*
X172713513Y-95491111D01*
X172742185Y-95200000D01*
X172713513Y-94908889D01*
X172628599Y-94628966D01*
X172490706Y-94370986D01*
X172309392Y-94150055D01*
X172344180Y-94139502D01*
X172454494Y-94080537D01*
X172551185Y-94001185D01*
X172630537Y-93904494D01*
X172689502Y-93794180D01*
X172725812Y-93674482D01*
X172738072Y-93550000D01*
X172735000Y-92985750D01*
X172576250Y-92827000D01*
X171227000Y-92827000D01*
X171227000Y-92847000D01*
X170973000Y-92847000D01*
X170973000Y-92827000D01*
X169623750Y-92827000D01*
X169465000Y-92985750D01*
X169461928Y-93550000D01*
X169474188Y-93674482D01*
X169510498Y-93794180D01*
X169569463Y-93904494D01*
X169648815Y-94001185D01*
X169745506Y-94080537D01*
X169855820Y-94139502D01*
X169890608Y-94150055D01*
X169709294Y-94370986D01*
X169571401Y-94628966D01*
X169486487Y-94908889D01*
X169457815Y-95200000D01*
X159415000Y-95200000D01*
X159415000Y-93235752D01*
X159420491Y-93180000D01*
X159398577Y-92957501D01*
X159333676Y-92743553D01*
X159228284Y-92546377D01*
X159121989Y-92416856D01*
X159121987Y-92416854D01*
X159086449Y-92373551D01*
X159043146Y-92338013D01*
X158555133Y-91850000D01*
X169461928Y-91850000D01*
X169465000Y-92414250D01*
X169623750Y-92573000D01*
X170973000Y-92573000D01*
X170973000Y-91373750D01*
X171227000Y-91373750D01*
X171227000Y-92573000D01*
X172576250Y-92573000D01*
X172735000Y-92414250D01*
X172738072Y-91850000D01*
X172725812Y-91725518D01*
X172689502Y-91605820D01*
X172630537Y-91495506D01*
X172551185Y-91398815D01*
X172454494Y-91319463D01*
X172344180Y-91260498D01*
X172224482Y-91224188D01*
X172100000Y-91211928D01*
X171385750Y-91215000D01*
X171227000Y-91373750D01*
X170973000Y-91373750D01*
X170814250Y-91215000D01*
X170100000Y-91211928D01*
X169975518Y-91224188D01*
X169855820Y-91260498D01*
X169745506Y-91319463D01*
X169648815Y-91398815D01*
X169569463Y-91495506D01*
X169510498Y-91605820D01*
X169474188Y-91725518D01*
X169461928Y-91850000D01*
X158555133Y-91850000D01*
X153105132Y-86400000D01*
X165457815Y-86400000D01*
X165486487Y-86691111D01*
X165571401Y-86971034D01*
X165709294Y-87229014D01*
X165894866Y-87455134D01*
X166120986Y-87640706D01*
X166378966Y-87778599D01*
X166658889Y-87863513D01*
X166877050Y-87885000D01*
X167322950Y-87885000D01*
X167541111Y-87863513D01*
X167821034Y-87778599D01*
X167966434Y-87700881D01*
X172478724Y-87700881D01*
X172838912Y-88190548D01*
X173502882Y-88550849D01*
X174224385Y-88774694D01*
X174975695Y-88853480D01*
X175727938Y-88784178D01*
X176452208Y-88569452D01*
X177120670Y-88217555D01*
X177161088Y-88190548D01*
X177521276Y-87700881D01*
X175000000Y-85179605D01*
X172478724Y-87700881D01*
X167966434Y-87700881D01*
X168079014Y-87640706D01*
X168305134Y-87455134D01*
X168490706Y-87229014D01*
X168628599Y-86971034D01*
X168713513Y-86691111D01*
X168742185Y-86400000D01*
X168713513Y-86108889D01*
X168628599Y-85828966D01*
X168490706Y-85570986D01*
X168309392Y-85350055D01*
X168344180Y-85339502D01*
X168454494Y-85280537D01*
X168551185Y-85201185D01*
X168630537Y-85104494D01*
X168689502Y-84994180D01*
X168695109Y-84975695D01*
X171146520Y-84975695D01*
X171215822Y-85727938D01*
X171430548Y-86452208D01*
X171782445Y-87120670D01*
X171809452Y-87161088D01*
X172299119Y-87521276D01*
X174820395Y-85000000D01*
X175179605Y-85000000D01*
X177700881Y-87521276D01*
X178190548Y-87161088D01*
X178550849Y-86497118D01*
X178774694Y-85775615D01*
X178853480Y-85024305D01*
X178784178Y-84272062D01*
X178569452Y-83547792D01*
X178217555Y-82879330D01*
X178190548Y-82838912D01*
X177700881Y-82478724D01*
X175179605Y-85000000D01*
X174820395Y-85000000D01*
X172299119Y-82478724D01*
X171809452Y-82838912D01*
X171449151Y-83502882D01*
X171225306Y-84224385D01*
X171146520Y-84975695D01*
X168695109Y-84975695D01*
X168725812Y-84874482D01*
X168738072Y-84750000D01*
X168735000Y-84185750D01*
X168576250Y-84027000D01*
X167227000Y-84027000D01*
X167227000Y-84047000D01*
X166973000Y-84047000D01*
X166973000Y-84027000D01*
X165623750Y-84027000D01*
X165465000Y-84185750D01*
X165461928Y-84750000D01*
X165474188Y-84874482D01*
X165510498Y-84994180D01*
X165569463Y-85104494D01*
X165648815Y-85201185D01*
X165745506Y-85280537D01*
X165855820Y-85339502D01*
X165890608Y-85350055D01*
X165709294Y-85570986D01*
X165571401Y-85828966D01*
X165486487Y-86108889D01*
X165457815Y-86400000D01*
X153105132Y-86400000D01*
X149941996Y-83236865D01*
X149906449Y-83193551D01*
X149733623Y-83051716D01*
X149536447Y-82946324D01*
X149322499Y-82881423D01*
X149155752Y-82865000D01*
X149155751Y-82865000D01*
X149100000Y-82859509D01*
X149044249Y-82865000D01*
X147107817Y-82865000D01*
X147067562Y-82831963D01*
X152435000Y-82831963D01*
X152435000Y-83968036D01*
X152455040Y-84171506D01*
X152534236Y-84432580D01*
X152662843Y-84673187D01*
X152835919Y-84884080D01*
X153046812Y-85057157D01*
X153287419Y-85185764D01*
X153548493Y-85264960D01*
X153820000Y-85291701D01*
X154091506Y-85264960D01*
X154352580Y-85185764D01*
X154593187Y-85057157D01*
X154804080Y-84884081D01*
X154977157Y-84673188D01*
X155092486Y-84457422D01*
X155129028Y-84547349D01*
X155278972Y-84775061D01*
X155470460Y-84969145D01*
X155696132Y-85122142D01*
X155947316Y-85228173D01*
X156018815Y-85242318D01*
X156233000Y-85119656D01*
X156233000Y-83527000D01*
X156213000Y-83527000D01*
X156213000Y-83273000D01*
X156233000Y-83273000D01*
X156233000Y-81680344D01*
X156487000Y-81680344D01*
X156487000Y-83273000D01*
X156507000Y-83273000D01*
X156507000Y-83527000D01*
X156487000Y-83527000D01*
X156487000Y-85119656D01*
X156701185Y-85242318D01*
X156772684Y-85228173D01*
X157023868Y-85122142D01*
X157249540Y-84969145D01*
X157441028Y-84775061D01*
X157513418Y-84665126D01*
X157524188Y-84774482D01*
X157560498Y-84894180D01*
X157619463Y-85004494D01*
X157698815Y-85101185D01*
X157795506Y-85180537D01*
X157905820Y-85239502D01*
X158025518Y-85275812D01*
X158150000Y-85288072D01*
X159650000Y-85288072D01*
X159774482Y-85275812D01*
X159894180Y-85239502D01*
X160004494Y-85180537D01*
X160101185Y-85101185D01*
X160180537Y-85004494D01*
X160239502Y-84894180D01*
X160275812Y-84774482D01*
X160288072Y-84650000D01*
X160288072Y-83050000D01*
X165461928Y-83050000D01*
X165465000Y-83614250D01*
X165623750Y-83773000D01*
X166973000Y-83773000D01*
X166973000Y-82573750D01*
X167227000Y-82573750D01*
X167227000Y-83773000D01*
X168576250Y-83773000D01*
X168735000Y-83614250D01*
X168738072Y-83050000D01*
X168725812Y-82925518D01*
X168689502Y-82805820D01*
X168630537Y-82695506D01*
X168551185Y-82598815D01*
X168454494Y-82519463D01*
X168344180Y-82460498D01*
X168224482Y-82424188D01*
X168100000Y-82411928D01*
X167385750Y-82415000D01*
X167227000Y-82573750D01*
X166973000Y-82573750D01*
X166814250Y-82415000D01*
X166100000Y-82411928D01*
X165975518Y-82424188D01*
X165855820Y-82460498D01*
X165745506Y-82519463D01*
X165648815Y-82598815D01*
X165569463Y-82695506D01*
X165510498Y-82805820D01*
X165474188Y-82925518D01*
X165461928Y-83050000D01*
X160288072Y-83050000D01*
X160288072Y-82299119D01*
X172478724Y-82299119D01*
X175000000Y-84820395D01*
X177521276Y-82299119D01*
X177161088Y-81809452D01*
X176497118Y-81449151D01*
X175775615Y-81225306D01*
X175024305Y-81146520D01*
X174272062Y-81215822D01*
X173547792Y-81430548D01*
X172879330Y-81782445D01*
X172838912Y-81809452D01*
X172478724Y-82299119D01*
X160288072Y-82299119D01*
X160288072Y-82150000D01*
X160275812Y-82025518D01*
X160239502Y-81905820D01*
X160180537Y-81795506D01*
X160101185Y-81698815D01*
X160004494Y-81619463D01*
X159894180Y-81560498D01*
X159774482Y-81524188D01*
X159650000Y-81511928D01*
X158150000Y-81511928D01*
X158025518Y-81524188D01*
X157905820Y-81560498D01*
X157795506Y-81619463D01*
X157698815Y-81698815D01*
X157619463Y-81795506D01*
X157560498Y-81905820D01*
X157524188Y-82025518D01*
X157513418Y-82134874D01*
X157441028Y-82024939D01*
X157249540Y-81830855D01*
X157023868Y-81677858D01*
X156772684Y-81571827D01*
X156701185Y-81557682D01*
X156487000Y-81680344D01*
X156233000Y-81680344D01*
X156018815Y-81557682D01*
X155947316Y-81571827D01*
X155696132Y-81677858D01*
X155470460Y-81830855D01*
X155278972Y-82024939D01*
X155129028Y-82252651D01*
X155092486Y-82342578D01*
X154977157Y-82126812D01*
X154804081Y-81915919D01*
X154593188Y-81742843D01*
X154352581Y-81614236D01*
X154091507Y-81535040D01*
X153820000Y-81508299D01*
X153548494Y-81535040D01*
X153287420Y-81614236D01*
X153046813Y-81742843D01*
X152835920Y-81915919D01*
X152662843Y-82126812D01*
X152534236Y-82367419D01*
X152455040Y-82628493D01*
X152435000Y-82831963D01*
X147067562Y-82831963D01*
X146979014Y-82759294D01*
X146721034Y-82621401D01*
X146441111Y-82536487D01*
X146222950Y-82515000D01*
X145777050Y-82515000D01*
X145558889Y-82536487D01*
X145278966Y-82621401D01*
X145020986Y-82759294D01*
X144794866Y-82944866D01*
X144609294Y-83170986D01*
X144471401Y-83428966D01*
X144386487Y-83708889D01*
X144357815Y-84000000D01*
X144386487Y-84291111D01*
X144471401Y-84571034D01*
X144609294Y-84829014D01*
X144790608Y-85049945D01*
X144755820Y-85060498D01*
X144645506Y-85119463D01*
X144548815Y-85198815D01*
X144469463Y-85295506D01*
X144410498Y-85405820D01*
X144374188Y-85525518D01*
X144361928Y-85650000D01*
X144365000Y-86214250D01*
X144523750Y-86373000D01*
X145873000Y-86373000D01*
X145873000Y-86353000D01*
X146127000Y-86353000D01*
X146127000Y-86373000D01*
X147476250Y-86373000D01*
X147635000Y-86214250D01*
X147638072Y-85650000D01*
X147625812Y-85525518D01*
X147589502Y-85405820D01*
X147530537Y-85295506D01*
X147451185Y-85198815D01*
X147373426Y-85135000D01*
X148629869Y-85135000D01*
X157145000Y-93650133D01*
X157145001Y-96560998D01*
X157081068Y-96638900D01*
X157011878Y-96768345D01*
X157004430Y-96750773D01*
X156845673Y-96517338D01*
X156644425Y-96319361D01*
X156408421Y-96164449D01*
X156146730Y-96058556D01*
X156089039Y-96048096D01*
X155867000Y-96170085D01*
X155867000Y-97513000D01*
X155887000Y-97513000D01*
X155887000Y-97767000D01*
X155867000Y-97767000D01*
X155867000Y-99109915D01*
X156089039Y-99231904D01*
X156146730Y-99221444D01*
X156408421Y-99115551D01*
X156644425Y-98960639D01*
X156845673Y-98762662D01*
X157004430Y-98529227D01*
X157011878Y-98511655D01*
X157081068Y-98641101D01*
X157260393Y-98859608D01*
X157478900Y-99038932D01*
X157728193Y-99172182D01*
X157998692Y-99254236D01*
X158280000Y-99281943D01*
X158561309Y-99254236D01*
X158831808Y-99172182D01*
X159081101Y-99038932D01*
X159299608Y-98859608D01*
X159369044Y-98775000D01*
X163469869Y-98775000D01*
X173165000Y-108470133D01*
X173165001Y-123644238D01*
X173165000Y-123644248D01*
X173165000Y-123865000D01*
X171082817Y-123865000D01*
X170954014Y-123759294D01*
X170936626Y-123750000D01*
X170954014Y-123740706D01*
X171180134Y-123555134D01*
X171365706Y-123329014D01*
X171503599Y-123071034D01*
X171588513Y-122791111D01*
X171617185Y-122500000D01*
X171588513Y-122208889D01*
X171503599Y-121928966D01*
X171365706Y-121670986D01*
X171180134Y-121444866D01*
X170954014Y-121259294D01*
X170936626Y-121250000D01*
X170954014Y-121240706D01*
X171180134Y-121055134D01*
X171365706Y-120829014D01*
X171503599Y-120571034D01*
X171588513Y-120291111D01*
X171617185Y-120000000D01*
X171588513Y-119708889D01*
X171503599Y-119428966D01*
X171365706Y-119170986D01*
X171180134Y-118944866D01*
X170954014Y-118759294D01*
X170696034Y-118621401D01*
X170416111Y-118536487D01*
X170197950Y-118515000D01*
X169802050Y-118515000D01*
X169583889Y-118536487D01*
X169303966Y-118621401D01*
X169045986Y-118759294D01*
X168819866Y-118944866D01*
X168634294Y-119170986D01*
X168496401Y-119428966D01*
X168411487Y-119708889D01*
X168382815Y-120000000D01*
X168411487Y-120291111D01*
X168496401Y-120571034D01*
X168634294Y-120829014D01*
X168819866Y-121055134D01*
X169045986Y-121240706D01*
X169063374Y-121250000D01*
X169045986Y-121259294D01*
X168819866Y-121444866D01*
X168680241Y-121615000D01*
X168166579Y-121615000D01*
X162556534Y-116004956D01*
X162528817Y-115971183D01*
X162394059Y-115860589D01*
X162240313Y-115778411D01*
X162073490Y-115727805D01*
X161943477Y-115715000D01*
X161943469Y-115715000D01*
X161900000Y-115710719D01*
X161856531Y-115715000D01*
X147943465Y-115715000D01*
X147899999Y-115710719D01*
X147856533Y-115715000D01*
X147856523Y-115715000D01*
X147726510Y-115727805D01*
X147559687Y-115778411D01*
X147405941Y-115860589D01*
X147405939Y-115860590D01*
X147405940Y-115860590D01*
X147304953Y-115943468D01*
X147304951Y-115943470D01*
X147271183Y-115971183D01*
X147243470Y-116004951D01*
X144984951Y-118263471D01*
X144951184Y-118291183D01*
X144923471Y-118324951D01*
X144923468Y-118324954D01*
X144840590Y-118425941D01*
X144758412Y-118579687D01*
X144707805Y-118746510D01*
X144690719Y-118920000D01*
X144695001Y-118963479D01*
X144695001Y-119169922D01*
X144560392Y-119280393D01*
X144381068Y-119498900D01*
X144310000Y-119631858D01*
X144238932Y-119498899D01*
X144059607Y-119280392D01*
X143841100Y-119101068D01*
X143591807Y-118967818D01*
X143321308Y-118885764D01*
X143040000Y-118858057D01*
X142758691Y-118885764D01*
X142488192Y-118967818D01*
X142238899Y-119101068D01*
X142077559Y-119233477D01*
X142030537Y-119145506D01*
X141951185Y-119048815D01*
X141854494Y-118969463D01*
X141744180Y-118910498D01*
X141624482Y-118874188D01*
X141500000Y-118861928D01*
X140127000Y-118861928D01*
X140127000Y-113534212D01*
X157145000Y-113534212D01*
X157145000Y-113757788D01*
X157188617Y-113977067D01*
X157274176Y-114183624D01*
X157398388Y-114369520D01*
X157556480Y-114527612D01*
X157742376Y-114651824D01*
X157948933Y-114737383D01*
X158168212Y-114781000D01*
X158391788Y-114781000D01*
X158611067Y-114737383D01*
X158817624Y-114651824D01*
X158998450Y-114531000D01*
X162410531Y-114531000D01*
X162454000Y-114535281D01*
X162497469Y-114531000D01*
X162497477Y-114531000D01*
X162627490Y-114518195D01*
X162794313Y-114467589D01*
X162948059Y-114385411D01*
X163082817Y-114274817D01*
X163110534Y-114241044D01*
X167617768Y-109733810D01*
X167831067Y-109691383D01*
X168037624Y-109605824D01*
X168223520Y-109481612D01*
X168381612Y-109323520D01*
X168505824Y-109137624D01*
X168591383Y-108931067D01*
X168635000Y-108711788D01*
X168635000Y-108488212D01*
X168591383Y-108268933D01*
X168505824Y-108062376D01*
X168381612Y-107876480D01*
X168223520Y-107718388D01*
X168037624Y-107594176D01*
X167831067Y-107508617D01*
X167611788Y-107465000D01*
X167388212Y-107465000D01*
X167168933Y-107508617D01*
X166962376Y-107594176D01*
X166776480Y-107718388D01*
X166618388Y-107876480D01*
X166494176Y-108062376D01*
X166408617Y-108268933D01*
X166366190Y-108482232D01*
X162087422Y-112761000D01*
X158998450Y-112761000D01*
X158817624Y-112640176D01*
X158611067Y-112554617D01*
X158391788Y-112511000D01*
X158168212Y-112511000D01*
X157948933Y-112554617D01*
X157742376Y-112640176D01*
X157556480Y-112764388D01*
X157398388Y-112922480D01*
X157274176Y-113108376D01*
X157188617Y-113314933D01*
X157145000Y-113534212D01*
X140127000Y-113534212D01*
X140127000Y-99226422D01*
X140218692Y-99254236D01*
X140500000Y-99281943D01*
X140781309Y-99254236D01*
X141051808Y-99172182D01*
X141301101Y-99038932D01*
X141519608Y-98859608D01*
X141698932Y-98641101D01*
X141770000Y-98508142D01*
X141841068Y-98641101D01*
X142020393Y-98859608D01*
X142238900Y-99038932D01*
X142488193Y-99172182D01*
X142758692Y-99254236D01*
X143040000Y-99281943D01*
X143321309Y-99254236D01*
X143591808Y-99172182D01*
X143841101Y-99038932D01*
X144059608Y-98859608D01*
X144238932Y-98641101D01*
X144310000Y-98508142D01*
X144381068Y-98641101D01*
X144560393Y-98859608D01*
X144778900Y-99038932D01*
X145028193Y-99172182D01*
X145298692Y-99254236D01*
X145580000Y-99281943D01*
X145861309Y-99254236D01*
X146131808Y-99172182D01*
X146381101Y-99038932D01*
X146599608Y-98859608D01*
X146778932Y-98641101D01*
X146850000Y-98508142D01*
X146921068Y-98641101D01*
X147100393Y-98859608D01*
X147318900Y-99038932D01*
X147568193Y-99172182D01*
X147838692Y-99254236D01*
X148120000Y-99281943D01*
X148401309Y-99254236D01*
X148671808Y-99172182D01*
X148921101Y-99038932D01*
X149139608Y-98859608D01*
X149318932Y-98641101D01*
X149390000Y-98508142D01*
X149461068Y-98641101D01*
X149640393Y-98859608D01*
X149858900Y-99038932D01*
X150108193Y-99172182D01*
X150378692Y-99254236D01*
X150660000Y-99281943D01*
X150941309Y-99254236D01*
X151211808Y-99172182D01*
X151461101Y-99038932D01*
X151679608Y-98859608D01*
X151858932Y-98641101D01*
X151930000Y-98508142D01*
X152001068Y-98641101D01*
X152180393Y-98859608D01*
X152315001Y-98970078D01*
X152315000Y-105281550D01*
X152194176Y-105462376D01*
X152108617Y-105668933D01*
X152065000Y-105888212D01*
X152065000Y-106111788D01*
X152108617Y-106331067D01*
X152194176Y-106537624D01*
X152318388Y-106723520D01*
X152476480Y-106881612D01*
X152662376Y-107005824D01*
X152868933Y-107091383D01*
X153088212Y-107135000D01*
X153311788Y-107135000D01*
X153531067Y-107091383D01*
X153737624Y-107005824D01*
X153923520Y-106881612D01*
X154081612Y-106723520D01*
X154205824Y-106537624D01*
X154291383Y-106331067D01*
X154335000Y-106111788D01*
X154335000Y-105888212D01*
X154291383Y-105668933D01*
X154205824Y-105462376D01*
X154085000Y-105281550D01*
X154085000Y-98970078D01*
X154219608Y-98859608D01*
X154398932Y-98641101D01*
X154468122Y-98511655D01*
X154475570Y-98529227D01*
X154634327Y-98762662D01*
X154835575Y-98960639D01*
X155071579Y-99115551D01*
X155333270Y-99221444D01*
X155390961Y-99231904D01*
X155613000Y-99109915D01*
X155613000Y-97767000D01*
X155593000Y-97767000D01*
X155593000Y-97513000D01*
X155613000Y-97513000D01*
X155613000Y-96170085D01*
X155390961Y-96048096D01*
X155333270Y-96058556D01*
X155071579Y-96164449D01*
X154835575Y-96319361D01*
X154634327Y-96517338D01*
X154475570Y-96750773D01*
X154468122Y-96768345D01*
X154398932Y-96638899D01*
X154219607Y-96420392D01*
X154001100Y-96241068D01*
X153751807Y-96107818D01*
X153481308Y-96025764D01*
X153200000Y-95998057D01*
X152918691Y-96025764D01*
X152648192Y-96107818D01*
X152398899Y-96241068D01*
X152180392Y-96420393D01*
X152001068Y-96638900D01*
X151930000Y-96771858D01*
X151858932Y-96638899D01*
X151679607Y-96420392D01*
X151461100Y-96241068D01*
X151211807Y-96107818D01*
X150941308Y-96025764D01*
X150660000Y-95998057D01*
X150378691Y-96025764D01*
X150108192Y-96107818D01*
X149858899Y-96241068D01*
X149640392Y-96420393D01*
X149461068Y-96638900D01*
X149390000Y-96771858D01*
X149318932Y-96638899D01*
X149139607Y-96420392D01*
X148921100Y-96241068D01*
X148671807Y-96107818D01*
X148401308Y-96025764D01*
X148120000Y-95998057D01*
X147838691Y-96025764D01*
X147568192Y-96107818D01*
X147318899Y-96241068D01*
X147100392Y-96420393D01*
X146921068Y-96638900D01*
X146850000Y-96771858D01*
X146778932Y-96638899D01*
X146599607Y-96420392D01*
X146381100Y-96241068D01*
X146131807Y-96107818D01*
X145861308Y-96025764D01*
X145580000Y-95998057D01*
X145298691Y-96025764D01*
X145028192Y-96107818D01*
X144778899Y-96241068D01*
X144560392Y-96420393D01*
X144381068Y-96638900D01*
X144310000Y-96771858D01*
X144238932Y-96638899D01*
X144059607Y-96420392D01*
X143841100Y-96241068D01*
X143591807Y-96107818D01*
X143321308Y-96025764D01*
X143040000Y-95998057D01*
X142758691Y-96025764D01*
X142488192Y-96107818D01*
X142238899Y-96241068D01*
X142020392Y-96420393D01*
X141841068Y-96638900D01*
X141770000Y-96771858D01*
X141698932Y-96638899D01*
X141519607Y-96420392D01*
X141301100Y-96241068D01*
X141051807Y-96107818D01*
X140781308Y-96025764D01*
X140500000Y-95998057D01*
X140218691Y-96025764D01*
X140127000Y-96053578D01*
X140127000Y-92866783D01*
X140129014Y-92865706D01*
X140355134Y-92680134D01*
X140540706Y-92454014D01*
X140678599Y-92196033D01*
X140763513Y-91916110D01*
X140785000Y-91697949D01*
X140785000Y-91302050D01*
X140763513Y-91083889D01*
X140678599Y-90803966D01*
X140540706Y-90545986D01*
X140355134Y-90319866D01*
X140129013Y-90134294D01*
X140127000Y-90133218D01*
X140127000Y-87350000D01*
X144361928Y-87350000D01*
X144374188Y-87474482D01*
X144410498Y-87594180D01*
X144469463Y-87704494D01*
X144548815Y-87801185D01*
X144645506Y-87880537D01*
X144755820Y-87939502D01*
X144875518Y-87975812D01*
X145000000Y-87988072D01*
X145714250Y-87985000D01*
X145873000Y-87826250D01*
X145873000Y-86627000D01*
X146127000Y-86627000D01*
X146127000Y-87826250D01*
X146285750Y-87985000D01*
X147000000Y-87988072D01*
X147124482Y-87975812D01*
X147244180Y-87939502D01*
X147354494Y-87880537D01*
X147451185Y-87801185D01*
X147530537Y-87704494D01*
X147589502Y-87594180D01*
X147625812Y-87474482D01*
X147638072Y-87350000D01*
X147635000Y-86785750D01*
X147476250Y-86627000D01*
X146127000Y-86627000D01*
X145873000Y-86627000D01*
X144523750Y-86627000D01*
X144365000Y-86785750D01*
X144361928Y-87350000D01*
X140127000Y-87350000D01*
X140127000Y-80710000D01*
X174968382Y-80710000D01*
X175759192Y-80780578D01*
%TA.AperFunction,Conductor*%
D26*
G36*
X175759192Y-80780578D02*
G01*
X176494389Y-80981705D01*
X177182351Y-81309846D01*
X177801331Y-81754628D01*
X178331761Y-82301988D01*
X178756884Y-82934639D01*
X179063251Y-83632561D01*
X179242499Y-84379183D01*
X179290000Y-85026030D01*
X179290001Y-134968370D01*
X179219422Y-135759193D01*
X179018295Y-136494389D01*
X178690152Y-137182355D01*
X178245374Y-137801328D01*
X177698012Y-138331761D01*
X177065362Y-138756883D01*
X176367439Y-139063251D01*
X175620819Y-139242499D01*
X174973970Y-139290000D01*
X140127000Y-139290000D01*
X140127000Y-138635000D01*
X148944249Y-138635000D01*
X149000000Y-138640491D01*
X149055751Y-138635000D01*
X158244249Y-138635000D01*
X158300000Y-138640491D01*
X158355751Y-138635000D01*
X166544249Y-138635000D01*
X166600000Y-138640491D01*
X166655751Y-138635000D01*
X166655752Y-138635000D01*
X166822499Y-138618577D01*
X167036447Y-138553676D01*
X167233623Y-138448284D01*
X167406449Y-138306449D01*
X167441995Y-138263136D01*
X168004250Y-137700881D01*
X172478724Y-137700881D01*
X172838912Y-138190548D01*
X173502882Y-138550849D01*
X174224385Y-138774694D01*
X174975695Y-138853480D01*
X175727938Y-138784178D01*
X176452208Y-138569452D01*
X177120670Y-138217555D01*
X177161088Y-138190548D01*
X177521276Y-137700881D01*
X175000000Y-135179605D01*
X172478724Y-137700881D01*
X168004250Y-137700881D01*
X168263140Y-137441992D01*
X168306449Y-137406449D01*
X168448284Y-137233623D01*
X168553676Y-137036447D01*
X168618577Y-136822499D01*
X168635000Y-136655752D01*
X168635000Y-136655745D01*
X168640490Y-136600001D01*
X168635000Y-136544257D01*
X168635000Y-136107817D01*
X168740706Y-135979014D01*
X168878599Y-135721033D01*
X168963513Y-135441110D01*
X168985000Y-135222949D01*
X168985000Y-135120131D01*
X169129436Y-134975695D01*
X171146520Y-134975695D01*
X171215822Y-135727938D01*
X171430548Y-136452208D01*
X171782445Y-137120670D01*
X171809452Y-137161088D01*
X172299119Y-137521276D01*
X174820395Y-135000000D01*
X175179605Y-135000000D01*
X177700881Y-137521276D01*
X178190548Y-137161088D01*
X178550849Y-136497118D01*
X178774694Y-135775615D01*
X178853480Y-135024305D01*
X178784178Y-134272062D01*
X178569452Y-133547792D01*
X178217555Y-132879330D01*
X178190548Y-132838912D01*
X177700881Y-132478724D01*
X175179605Y-135000000D01*
X174820395Y-135000000D01*
X172299119Y-132478724D01*
X171809452Y-132838912D01*
X171449151Y-133502882D01*
X171225306Y-134224385D01*
X171146520Y-134975695D01*
X169129436Y-134975695D01*
X171806012Y-132299119D01*
X172478724Y-132299119D01*
X175000000Y-134820395D01*
X177521276Y-132299119D01*
X177161088Y-131809452D01*
X176497118Y-131449151D01*
X175775615Y-131225306D01*
X175024305Y-131146520D01*
X174272062Y-131215822D01*
X173547792Y-131430548D01*
X172879330Y-131782445D01*
X172838912Y-131809452D01*
X172478724Y-132299119D01*
X171806012Y-132299119D01*
X175063141Y-129041991D01*
X175106449Y-129006449D01*
X175248284Y-128833623D01*
X175353676Y-128636447D01*
X175406480Y-128462376D01*
X175418577Y-128422500D01*
X175423631Y-128371183D01*
X175435000Y-128255752D01*
X175435000Y-128255745D01*
X175440490Y-128200001D01*
X175435000Y-128144257D01*
X175435000Y-125155741D01*
X175440490Y-125099999D01*
X175435000Y-125044258D01*
X175435000Y-108055752D01*
X175440491Y-108000000D01*
X175418577Y-107777501D01*
X175353676Y-107563553D01*
X175248284Y-107366377D01*
X175141989Y-107236856D01*
X175141987Y-107236854D01*
X175106449Y-107193551D01*
X175063146Y-107158013D01*
X164781996Y-96876865D01*
X164746449Y-96833551D01*
X164573623Y-96691716D01*
X164376447Y-96586324D01*
X164162499Y-96521423D01*
X163995752Y-96505000D01*
X163995751Y-96505000D01*
X163940000Y-96499509D01*
X163884249Y-96505000D01*
X159415000Y-96505000D01*
X159415000Y-95200000D01*
X169457815Y-95200000D01*
X169486487Y-95491111D01*
X169571401Y-95771034D01*
X169709294Y-96029014D01*
X169894866Y-96255134D01*
X170120986Y-96440706D01*
X170378966Y-96578599D01*
X170658889Y-96663513D01*
X170877050Y-96685000D01*
X171322950Y-96685000D01*
X171541111Y-96663513D01*
X171821034Y-96578599D01*
X172079014Y-96440706D01*
X172305134Y-96255134D01*
X172490706Y-96029014D01*
X172628599Y-95771034D01*
X172713513Y-95491111D01*
X172742185Y-95200000D01*
X172713513Y-94908889D01*
X172628599Y-94628966D01*
X172490706Y-94370986D01*
X172309392Y-94150055D01*
X172344180Y-94139502D01*
X172454494Y-94080537D01*
X172551185Y-94001185D01*
X172630537Y-93904494D01*
X172689502Y-93794180D01*
X172725812Y-93674482D01*
X172738072Y-93550000D01*
X172735000Y-92985750D01*
X172576250Y-92827000D01*
X171227000Y-92827000D01*
X171227000Y-92847000D01*
X170973000Y-92847000D01*
X170973000Y-92827000D01*
X169623750Y-92827000D01*
X169465000Y-92985750D01*
X169461928Y-93550000D01*
X169474188Y-93674482D01*
X169510498Y-93794180D01*
X169569463Y-93904494D01*
X169648815Y-94001185D01*
X169745506Y-94080537D01*
X169855820Y-94139502D01*
X169890608Y-94150055D01*
X169709294Y-94370986D01*
X169571401Y-94628966D01*
X169486487Y-94908889D01*
X169457815Y-95200000D01*
X159415000Y-95200000D01*
X159415000Y-93235752D01*
X159420491Y-93180000D01*
X159398577Y-92957501D01*
X159333676Y-92743553D01*
X159228284Y-92546377D01*
X159121989Y-92416856D01*
X159121987Y-92416854D01*
X159086449Y-92373551D01*
X159043146Y-92338013D01*
X158555133Y-91850000D01*
X169461928Y-91850000D01*
X169465000Y-92414250D01*
X169623750Y-92573000D01*
X170973000Y-92573000D01*
X170973000Y-91373750D01*
X171227000Y-91373750D01*
X171227000Y-92573000D01*
X172576250Y-92573000D01*
X172735000Y-92414250D01*
X172738072Y-91850000D01*
X172725812Y-91725518D01*
X172689502Y-91605820D01*
X172630537Y-91495506D01*
X172551185Y-91398815D01*
X172454494Y-91319463D01*
X172344180Y-91260498D01*
X172224482Y-91224188D01*
X172100000Y-91211928D01*
X171385750Y-91215000D01*
X171227000Y-91373750D01*
X170973000Y-91373750D01*
X170814250Y-91215000D01*
X170100000Y-91211928D01*
X169975518Y-91224188D01*
X169855820Y-91260498D01*
X169745506Y-91319463D01*
X169648815Y-91398815D01*
X169569463Y-91495506D01*
X169510498Y-91605820D01*
X169474188Y-91725518D01*
X169461928Y-91850000D01*
X158555133Y-91850000D01*
X153105132Y-86400000D01*
X165457815Y-86400000D01*
X165486487Y-86691111D01*
X165571401Y-86971034D01*
X165709294Y-87229014D01*
X165894866Y-87455134D01*
X166120986Y-87640706D01*
X166378966Y-87778599D01*
X166658889Y-87863513D01*
X166877050Y-87885000D01*
X167322950Y-87885000D01*
X167541111Y-87863513D01*
X167821034Y-87778599D01*
X167966434Y-87700881D01*
X172478724Y-87700881D01*
X172838912Y-88190548D01*
X173502882Y-88550849D01*
X174224385Y-88774694D01*
X174975695Y-88853480D01*
X175727938Y-88784178D01*
X176452208Y-88569452D01*
X177120670Y-88217555D01*
X177161088Y-88190548D01*
X177521276Y-87700881D01*
X175000000Y-85179605D01*
X172478724Y-87700881D01*
X167966434Y-87700881D01*
X168079014Y-87640706D01*
X168305134Y-87455134D01*
X168490706Y-87229014D01*
X168628599Y-86971034D01*
X168713513Y-86691111D01*
X168742185Y-86400000D01*
X168713513Y-86108889D01*
X168628599Y-85828966D01*
X168490706Y-85570986D01*
X168309392Y-85350055D01*
X168344180Y-85339502D01*
X168454494Y-85280537D01*
X168551185Y-85201185D01*
X168630537Y-85104494D01*
X168689502Y-84994180D01*
X168695109Y-84975695D01*
X171146520Y-84975695D01*
X171215822Y-85727938D01*
X171430548Y-86452208D01*
X171782445Y-87120670D01*
X171809452Y-87161088D01*
X172299119Y-87521276D01*
X174820395Y-85000000D01*
X175179605Y-85000000D01*
X177700881Y-87521276D01*
X178190548Y-87161088D01*
X178550849Y-86497118D01*
X178774694Y-85775615D01*
X178853480Y-85024305D01*
X178784178Y-84272062D01*
X178569452Y-83547792D01*
X178217555Y-82879330D01*
X178190548Y-82838912D01*
X177700881Y-82478724D01*
X175179605Y-85000000D01*
X174820395Y-85000000D01*
X172299119Y-82478724D01*
X171809452Y-82838912D01*
X171449151Y-83502882D01*
X171225306Y-84224385D01*
X171146520Y-84975695D01*
X168695109Y-84975695D01*
X168725812Y-84874482D01*
X168738072Y-84750000D01*
X168735000Y-84185750D01*
X168576250Y-84027000D01*
X167227000Y-84027000D01*
X167227000Y-84047000D01*
X166973000Y-84047000D01*
X166973000Y-84027000D01*
X165623750Y-84027000D01*
X165465000Y-84185750D01*
X165461928Y-84750000D01*
X165474188Y-84874482D01*
X165510498Y-84994180D01*
X165569463Y-85104494D01*
X165648815Y-85201185D01*
X165745506Y-85280537D01*
X165855820Y-85339502D01*
X165890608Y-85350055D01*
X165709294Y-85570986D01*
X165571401Y-85828966D01*
X165486487Y-86108889D01*
X165457815Y-86400000D01*
X153105132Y-86400000D01*
X149941996Y-83236865D01*
X149906449Y-83193551D01*
X149733623Y-83051716D01*
X149536447Y-82946324D01*
X149322499Y-82881423D01*
X149155752Y-82865000D01*
X149155751Y-82865000D01*
X149100000Y-82859509D01*
X149044249Y-82865000D01*
X147107817Y-82865000D01*
X147067562Y-82831963D01*
X152435000Y-82831963D01*
X152435000Y-83968036D01*
X152455040Y-84171506D01*
X152534236Y-84432580D01*
X152662843Y-84673187D01*
X152835919Y-84884080D01*
X153046812Y-85057157D01*
X153287419Y-85185764D01*
X153548493Y-85264960D01*
X153820000Y-85291701D01*
X154091506Y-85264960D01*
X154352580Y-85185764D01*
X154593187Y-85057157D01*
X154804080Y-84884081D01*
X154977157Y-84673188D01*
X155092486Y-84457422D01*
X155129028Y-84547349D01*
X155278972Y-84775061D01*
X155470460Y-84969145D01*
X155696132Y-85122142D01*
X155947316Y-85228173D01*
X156018815Y-85242318D01*
X156233000Y-85119656D01*
X156233000Y-83527000D01*
X156213000Y-83527000D01*
X156213000Y-83273000D01*
X156233000Y-83273000D01*
X156233000Y-81680344D01*
X156487000Y-81680344D01*
X156487000Y-83273000D01*
X156507000Y-83273000D01*
X156507000Y-83527000D01*
X156487000Y-83527000D01*
X156487000Y-85119656D01*
X156701185Y-85242318D01*
X156772684Y-85228173D01*
X157023868Y-85122142D01*
X157249540Y-84969145D01*
X157441028Y-84775061D01*
X157513418Y-84665126D01*
X157524188Y-84774482D01*
X157560498Y-84894180D01*
X157619463Y-85004494D01*
X157698815Y-85101185D01*
X157795506Y-85180537D01*
X157905820Y-85239502D01*
X158025518Y-85275812D01*
X158150000Y-85288072D01*
X159650000Y-85288072D01*
X159774482Y-85275812D01*
X159894180Y-85239502D01*
X160004494Y-85180537D01*
X160101185Y-85101185D01*
X160180537Y-85004494D01*
X160239502Y-84894180D01*
X160275812Y-84774482D01*
X160288072Y-84650000D01*
X160288072Y-83050000D01*
X165461928Y-83050000D01*
X165465000Y-83614250D01*
X165623750Y-83773000D01*
X166973000Y-83773000D01*
X166973000Y-82573750D01*
X167227000Y-82573750D01*
X167227000Y-83773000D01*
X168576250Y-83773000D01*
X168735000Y-83614250D01*
X168738072Y-83050000D01*
X168725812Y-82925518D01*
X168689502Y-82805820D01*
X168630537Y-82695506D01*
X168551185Y-82598815D01*
X168454494Y-82519463D01*
X168344180Y-82460498D01*
X168224482Y-82424188D01*
X168100000Y-82411928D01*
X167385750Y-82415000D01*
X167227000Y-82573750D01*
X166973000Y-82573750D01*
X166814250Y-82415000D01*
X166100000Y-82411928D01*
X165975518Y-82424188D01*
X165855820Y-82460498D01*
X165745506Y-82519463D01*
X165648815Y-82598815D01*
X165569463Y-82695506D01*
X165510498Y-82805820D01*
X165474188Y-82925518D01*
X165461928Y-83050000D01*
X160288072Y-83050000D01*
X160288072Y-82299119D01*
X172478724Y-82299119D01*
X175000000Y-84820395D01*
X177521276Y-82299119D01*
X177161088Y-81809452D01*
X176497118Y-81449151D01*
X175775615Y-81225306D01*
X175024305Y-81146520D01*
X174272062Y-81215822D01*
X173547792Y-81430548D01*
X172879330Y-81782445D01*
X172838912Y-81809452D01*
X172478724Y-82299119D01*
X160288072Y-82299119D01*
X160288072Y-82150000D01*
X160275812Y-82025518D01*
X160239502Y-81905820D01*
X160180537Y-81795506D01*
X160101185Y-81698815D01*
X160004494Y-81619463D01*
X159894180Y-81560498D01*
X159774482Y-81524188D01*
X159650000Y-81511928D01*
X158150000Y-81511928D01*
X158025518Y-81524188D01*
X157905820Y-81560498D01*
X157795506Y-81619463D01*
X157698815Y-81698815D01*
X157619463Y-81795506D01*
X157560498Y-81905820D01*
X157524188Y-82025518D01*
X157513418Y-82134874D01*
X157441028Y-82024939D01*
X157249540Y-81830855D01*
X157023868Y-81677858D01*
X156772684Y-81571827D01*
X156701185Y-81557682D01*
X156487000Y-81680344D01*
X156233000Y-81680344D01*
X156018815Y-81557682D01*
X155947316Y-81571827D01*
X155696132Y-81677858D01*
X155470460Y-81830855D01*
X155278972Y-82024939D01*
X155129028Y-82252651D01*
X155092486Y-82342578D01*
X154977157Y-82126812D01*
X154804081Y-81915919D01*
X154593188Y-81742843D01*
X154352581Y-81614236D01*
X154091507Y-81535040D01*
X153820000Y-81508299D01*
X153548494Y-81535040D01*
X153287420Y-81614236D01*
X153046813Y-81742843D01*
X152835920Y-81915919D01*
X152662843Y-82126812D01*
X152534236Y-82367419D01*
X152455040Y-82628493D01*
X152435000Y-82831963D01*
X147067562Y-82831963D01*
X146979014Y-82759294D01*
X146721034Y-82621401D01*
X146441111Y-82536487D01*
X146222950Y-82515000D01*
X145777050Y-82515000D01*
X145558889Y-82536487D01*
X145278966Y-82621401D01*
X145020986Y-82759294D01*
X144794866Y-82944866D01*
X144609294Y-83170986D01*
X144471401Y-83428966D01*
X144386487Y-83708889D01*
X144357815Y-84000000D01*
X144386487Y-84291111D01*
X144471401Y-84571034D01*
X144609294Y-84829014D01*
X144790608Y-85049945D01*
X144755820Y-85060498D01*
X144645506Y-85119463D01*
X144548815Y-85198815D01*
X144469463Y-85295506D01*
X144410498Y-85405820D01*
X144374188Y-85525518D01*
X144361928Y-85650000D01*
X144365000Y-86214250D01*
X144523750Y-86373000D01*
X145873000Y-86373000D01*
X145873000Y-86353000D01*
X146127000Y-86353000D01*
X146127000Y-86373000D01*
X147476250Y-86373000D01*
X147635000Y-86214250D01*
X147638072Y-85650000D01*
X147625812Y-85525518D01*
X147589502Y-85405820D01*
X147530537Y-85295506D01*
X147451185Y-85198815D01*
X147373426Y-85135000D01*
X148629869Y-85135000D01*
X157145000Y-93650133D01*
X157145001Y-96560998D01*
X157081068Y-96638900D01*
X157011878Y-96768345D01*
X157004430Y-96750773D01*
X156845673Y-96517338D01*
X156644425Y-96319361D01*
X156408421Y-96164449D01*
X156146730Y-96058556D01*
X156089039Y-96048096D01*
X155867000Y-96170085D01*
X155867000Y-97513000D01*
X155887000Y-97513000D01*
X155887000Y-97767000D01*
X155867000Y-97767000D01*
X155867000Y-99109915D01*
X156089039Y-99231904D01*
X156146730Y-99221444D01*
X156408421Y-99115551D01*
X156644425Y-98960639D01*
X156845673Y-98762662D01*
X157004430Y-98529227D01*
X157011878Y-98511655D01*
X157081068Y-98641101D01*
X157260393Y-98859608D01*
X157478900Y-99038932D01*
X157728193Y-99172182D01*
X157998692Y-99254236D01*
X158280000Y-99281943D01*
X158561309Y-99254236D01*
X158831808Y-99172182D01*
X159081101Y-99038932D01*
X159299608Y-98859608D01*
X159369044Y-98775000D01*
X163469869Y-98775000D01*
X173165000Y-108470133D01*
X173165001Y-123644238D01*
X173165000Y-123644248D01*
X173165000Y-123865000D01*
X171082817Y-123865000D01*
X170954014Y-123759294D01*
X170936626Y-123750000D01*
X170954014Y-123740706D01*
X171180134Y-123555134D01*
X171365706Y-123329014D01*
X171503599Y-123071034D01*
X171588513Y-122791111D01*
X171617185Y-122500000D01*
X171588513Y-122208889D01*
X171503599Y-121928966D01*
X171365706Y-121670986D01*
X171180134Y-121444866D01*
X170954014Y-121259294D01*
X170936626Y-121250000D01*
X170954014Y-121240706D01*
X171180134Y-121055134D01*
X171365706Y-120829014D01*
X171503599Y-120571034D01*
X171588513Y-120291111D01*
X171617185Y-120000000D01*
X171588513Y-119708889D01*
X171503599Y-119428966D01*
X171365706Y-119170986D01*
X171180134Y-118944866D01*
X170954014Y-118759294D01*
X170696034Y-118621401D01*
X170416111Y-118536487D01*
X170197950Y-118515000D01*
X169802050Y-118515000D01*
X169583889Y-118536487D01*
X169303966Y-118621401D01*
X169045986Y-118759294D01*
X168819866Y-118944866D01*
X168634294Y-119170986D01*
X168496401Y-119428966D01*
X168411487Y-119708889D01*
X168382815Y-120000000D01*
X168411487Y-120291111D01*
X168496401Y-120571034D01*
X168634294Y-120829014D01*
X168819866Y-121055134D01*
X169045986Y-121240706D01*
X169063374Y-121250000D01*
X169045986Y-121259294D01*
X168819866Y-121444866D01*
X168680241Y-121615000D01*
X168166579Y-121615000D01*
X162556534Y-116004956D01*
X162528817Y-115971183D01*
X162394059Y-115860589D01*
X162240313Y-115778411D01*
X162073490Y-115727805D01*
X161943477Y-115715000D01*
X161943469Y-115715000D01*
X161900000Y-115710719D01*
X161856531Y-115715000D01*
X147943465Y-115715000D01*
X147899999Y-115710719D01*
X147856533Y-115715000D01*
X147856523Y-115715000D01*
X147726510Y-115727805D01*
X147559687Y-115778411D01*
X147405941Y-115860589D01*
X147405939Y-115860590D01*
X147405940Y-115860590D01*
X147304953Y-115943468D01*
X147304951Y-115943470D01*
X147271183Y-115971183D01*
X147243470Y-116004951D01*
X144984951Y-118263471D01*
X144951184Y-118291183D01*
X144923471Y-118324951D01*
X144923468Y-118324954D01*
X144840590Y-118425941D01*
X144758412Y-118579687D01*
X144707805Y-118746510D01*
X144690719Y-118920000D01*
X144695001Y-118963479D01*
X144695001Y-119169922D01*
X144560392Y-119280393D01*
X144381068Y-119498900D01*
X144310000Y-119631858D01*
X144238932Y-119498899D01*
X144059607Y-119280392D01*
X143841100Y-119101068D01*
X143591807Y-118967818D01*
X143321308Y-118885764D01*
X143040000Y-118858057D01*
X142758691Y-118885764D01*
X142488192Y-118967818D01*
X142238899Y-119101068D01*
X142077559Y-119233477D01*
X142030537Y-119145506D01*
X141951185Y-119048815D01*
X141854494Y-118969463D01*
X141744180Y-118910498D01*
X141624482Y-118874188D01*
X141500000Y-118861928D01*
X140127000Y-118861928D01*
X140127000Y-113534212D01*
X157145000Y-113534212D01*
X157145000Y-113757788D01*
X157188617Y-113977067D01*
X157274176Y-114183624D01*
X157398388Y-114369520D01*
X157556480Y-114527612D01*
X157742376Y-114651824D01*
X157948933Y-114737383D01*
X158168212Y-114781000D01*
X158391788Y-114781000D01*
X158611067Y-114737383D01*
X158817624Y-114651824D01*
X158998450Y-114531000D01*
X162410531Y-114531000D01*
X162454000Y-114535281D01*
X162497469Y-114531000D01*
X162497477Y-114531000D01*
X162627490Y-114518195D01*
X162794313Y-114467589D01*
X162948059Y-114385411D01*
X163082817Y-114274817D01*
X163110534Y-114241044D01*
X167617768Y-109733810D01*
X167831067Y-109691383D01*
X168037624Y-109605824D01*
X168223520Y-109481612D01*
X168381612Y-109323520D01*
X168505824Y-109137624D01*
X168591383Y-108931067D01*
X168635000Y-108711788D01*
X168635000Y-108488212D01*
X168591383Y-108268933D01*
X168505824Y-108062376D01*
X168381612Y-107876480D01*
X168223520Y-107718388D01*
X168037624Y-107594176D01*
X167831067Y-107508617D01*
X167611788Y-107465000D01*
X167388212Y-107465000D01*
X167168933Y-107508617D01*
X166962376Y-107594176D01*
X166776480Y-107718388D01*
X166618388Y-107876480D01*
X166494176Y-108062376D01*
X166408617Y-108268933D01*
X166366190Y-108482232D01*
X162087422Y-112761000D01*
X158998450Y-112761000D01*
X158817624Y-112640176D01*
X158611067Y-112554617D01*
X158391788Y-112511000D01*
X158168212Y-112511000D01*
X157948933Y-112554617D01*
X157742376Y-112640176D01*
X157556480Y-112764388D01*
X157398388Y-112922480D01*
X157274176Y-113108376D01*
X157188617Y-113314933D01*
X157145000Y-113534212D01*
X140127000Y-113534212D01*
X140127000Y-99226422D01*
X140218692Y-99254236D01*
X140500000Y-99281943D01*
X140781309Y-99254236D01*
X141051808Y-99172182D01*
X141301101Y-99038932D01*
X141519608Y-98859608D01*
X141698932Y-98641101D01*
X141770000Y-98508142D01*
X141841068Y-98641101D01*
X142020393Y-98859608D01*
X142238900Y-99038932D01*
X142488193Y-99172182D01*
X142758692Y-99254236D01*
X143040000Y-99281943D01*
X143321309Y-99254236D01*
X143591808Y-99172182D01*
X143841101Y-99038932D01*
X144059608Y-98859608D01*
X144238932Y-98641101D01*
X144310000Y-98508142D01*
X144381068Y-98641101D01*
X144560393Y-98859608D01*
X144778900Y-99038932D01*
X145028193Y-99172182D01*
X145298692Y-99254236D01*
X145580000Y-99281943D01*
X145861309Y-99254236D01*
X146131808Y-99172182D01*
X146381101Y-99038932D01*
X146599608Y-98859608D01*
X146778932Y-98641101D01*
X146850000Y-98508142D01*
X146921068Y-98641101D01*
X147100393Y-98859608D01*
X147318900Y-99038932D01*
X147568193Y-99172182D01*
X147838692Y-99254236D01*
X148120000Y-99281943D01*
X148401309Y-99254236D01*
X148671808Y-99172182D01*
X148921101Y-99038932D01*
X149139608Y-98859608D01*
X149318932Y-98641101D01*
X149390000Y-98508142D01*
X149461068Y-98641101D01*
X149640393Y-98859608D01*
X149858900Y-99038932D01*
X150108193Y-99172182D01*
X150378692Y-99254236D01*
X150660000Y-99281943D01*
X150941309Y-99254236D01*
X151211808Y-99172182D01*
X151461101Y-99038932D01*
X151679608Y-98859608D01*
X151858932Y-98641101D01*
X151930000Y-98508142D01*
X152001068Y-98641101D01*
X152180393Y-98859608D01*
X152315001Y-98970078D01*
X152315000Y-105281550D01*
X152194176Y-105462376D01*
X152108617Y-105668933D01*
X152065000Y-105888212D01*
X152065000Y-106111788D01*
X152108617Y-106331067D01*
X152194176Y-106537624D01*
X152318388Y-106723520D01*
X152476480Y-106881612D01*
X152662376Y-107005824D01*
X152868933Y-107091383D01*
X153088212Y-107135000D01*
X153311788Y-107135000D01*
X153531067Y-107091383D01*
X153737624Y-107005824D01*
X153923520Y-106881612D01*
X154081612Y-106723520D01*
X154205824Y-106537624D01*
X154291383Y-106331067D01*
X154335000Y-106111788D01*
X154335000Y-105888212D01*
X154291383Y-105668933D01*
X154205824Y-105462376D01*
X154085000Y-105281550D01*
X154085000Y-98970078D01*
X154219608Y-98859608D01*
X154398932Y-98641101D01*
X154468122Y-98511655D01*
X154475570Y-98529227D01*
X154634327Y-98762662D01*
X154835575Y-98960639D01*
X155071579Y-99115551D01*
X155333270Y-99221444D01*
X155390961Y-99231904D01*
X155613000Y-99109915D01*
X155613000Y-97767000D01*
X155593000Y-97767000D01*
X155593000Y-97513000D01*
X155613000Y-97513000D01*
X155613000Y-96170085D01*
X155390961Y-96048096D01*
X155333270Y-96058556D01*
X155071579Y-96164449D01*
X154835575Y-96319361D01*
X154634327Y-96517338D01*
X154475570Y-96750773D01*
X154468122Y-96768345D01*
X154398932Y-96638899D01*
X154219607Y-96420392D01*
X154001100Y-96241068D01*
X153751807Y-96107818D01*
X153481308Y-96025764D01*
X153200000Y-95998057D01*
X152918691Y-96025764D01*
X152648192Y-96107818D01*
X152398899Y-96241068D01*
X152180392Y-96420393D01*
X152001068Y-96638900D01*
X151930000Y-96771858D01*
X151858932Y-96638899D01*
X151679607Y-96420392D01*
X151461100Y-96241068D01*
X151211807Y-96107818D01*
X150941308Y-96025764D01*
X150660000Y-95998057D01*
X150378691Y-96025764D01*
X150108192Y-96107818D01*
X149858899Y-96241068D01*
X149640392Y-96420393D01*
X149461068Y-96638900D01*
X149390000Y-96771858D01*
X149318932Y-96638899D01*
X149139607Y-96420392D01*
X148921100Y-96241068D01*
X148671807Y-96107818D01*
X148401308Y-96025764D01*
X148120000Y-95998057D01*
X147838691Y-96025764D01*
X147568192Y-96107818D01*
X147318899Y-96241068D01*
X147100392Y-96420393D01*
X146921068Y-96638900D01*
X146850000Y-96771858D01*
X146778932Y-96638899D01*
X146599607Y-96420392D01*
X146381100Y-96241068D01*
X146131807Y-96107818D01*
X145861308Y-96025764D01*
X145580000Y-95998057D01*
X145298691Y-96025764D01*
X145028192Y-96107818D01*
X144778899Y-96241068D01*
X144560392Y-96420393D01*
X144381068Y-96638900D01*
X144310000Y-96771858D01*
X144238932Y-96638899D01*
X144059607Y-96420392D01*
X143841100Y-96241068D01*
X143591807Y-96107818D01*
X143321308Y-96025764D01*
X143040000Y-95998057D01*
X142758691Y-96025764D01*
X142488192Y-96107818D01*
X142238899Y-96241068D01*
X142020392Y-96420393D01*
X141841068Y-96638900D01*
X141770000Y-96771858D01*
X141698932Y-96638899D01*
X141519607Y-96420392D01*
X141301100Y-96241068D01*
X141051807Y-96107818D01*
X140781308Y-96025764D01*
X140500000Y-95998057D01*
X140218691Y-96025764D01*
X140127000Y-96053578D01*
X140127000Y-92866783D01*
X140129014Y-92865706D01*
X140355134Y-92680134D01*
X140540706Y-92454014D01*
X140678599Y-92196033D01*
X140763513Y-91916110D01*
X140785000Y-91697949D01*
X140785000Y-91302050D01*
X140763513Y-91083889D01*
X140678599Y-90803966D01*
X140540706Y-90545986D01*
X140355134Y-90319866D01*
X140129013Y-90134294D01*
X140127000Y-90133218D01*
X140127000Y-87350000D01*
X144361928Y-87350000D01*
X144374188Y-87474482D01*
X144410498Y-87594180D01*
X144469463Y-87704494D01*
X144548815Y-87801185D01*
X144645506Y-87880537D01*
X144755820Y-87939502D01*
X144875518Y-87975812D01*
X145000000Y-87988072D01*
X145714250Y-87985000D01*
X145873000Y-87826250D01*
X145873000Y-86627000D01*
X146127000Y-86627000D01*
X146127000Y-87826250D01*
X146285750Y-87985000D01*
X147000000Y-87988072D01*
X147124482Y-87975812D01*
X147244180Y-87939502D01*
X147354494Y-87880537D01*
X147451185Y-87801185D01*
X147530537Y-87704494D01*
X147589502Y-87594180D01*
X147625812Y-87474482D01*
X147638072Y-87350000D01*
X147635000Y-86785750D01*
X147476250Y-86627000D01*
X146127000Y-86627000D01*
X145873000Y-86627000D01*
X144523750Y-86627000D01*
X144365000Y-86785750D01*
X144361928Y-87350000D01*
X140127000Y-87350000D01*
X140127000Y-80710000D01*
X174968382Y-80710000D01*
X175759192Y-80780578D01*
G37*
%TD.AperFunction*%
D25*
X167143470Y-123095049D02*
X167171183Y-123128817D01*
X167204951Y-123156530D01*
X167204953Y-123156532D01*
X167263954Y-123204953D01*
X167305941Y-123239411D01*
X167459687Y-123321589D01*
X167626510Y-123372195D01*
X167756523Y-123385000D01*
X167756533Y-123385000D01*
X167799999Y-123389281D01*
X167843466Y-123385000D01*
X168680241Y-123385000D01*
X168819866Y-123555134D01*
X169045986Y-123740706D01*
X169063374Y-123750000D01*
X169045986Y-123759294D01*
X168819866Y-123944866D01*
X168634294Y-124170986D01*
X168496401Y-124428966D01*
X168411487Y-124708889D01*
X168382815Y-125000000D01*
X168411487Y-125291111D01*
X168496401Y-125571034D01*
X168634294Y-125829014D01*
X168815608Y-126049945D01*
X168780820Y-126060498D01*
X168670506Y-126119463D01*
X168573815Y-126198815D01*
X168494463Y-126295506D01*
X168435498Y-126405820D01*
X168399188Y-126525518D01*
X168386928Y-126650000D01*
X168390000Y-127214250D01*
X168548750Y-127373000D01*
X169873000Y-127373000D01*
X169873000Y-127353000D01*
X170127000Y-127353000D01*
X170127000Y-127373000D01*
X171451250Y-127373000D01*
X171610000Y-127214250D01*
X171613072Y-126650000D01*
X171600812Y-126525518D01*
X171564502Y-126405820D01*
X171505537Y-126295506D01*
X171426185Y-126198815D01*
X171348426Y-126135000D01*
X173165001Y-126135000D01*
X173165000Y-127729868D01*
X167533732Y-133361137D01*
X167500000Y-133357815D01*
X167208889Y-133386487D01*
X166928966Y-133471401D01*
X166670986Y-133609294D01*
X166444866Y-133794866D01*
X166392777Y-133858337D01*
X166338405Y-133756614D01*
X166227962Y-133622038D01*
X166093386Y-133511595D01*
X165939850Y-133429528D01*
X165773254Y-133378992D01*
X165600000Y-133361928D01*
X164400000Y-133361928D01*
X164226746Y-133378992D01*
X164060150Y-133429528D01*
X163906614Y-133511595D01*
X163772038Y-133622038D01*
X163661595Y-133756614D01*
X163579528Y-133910150D01*
X163528992Y-134076746D01*
X163511928Y-134250000D01*
X163511928Y-135750000D01*
X163528992Y-135923254D01*
X163579528Y-136089850D01*
X163661595Y-136243386D01*
X163761400Y-136365000D01*
X159635000Y-136365000D01*
X159635000Y-136107817D01*
X159740706Y-135979014D01*
X159878599Y-135721033D01*
X159963513Y-135441110D01*
X159985000Y-135222949D01*
X159985000Y-134777050D01*
X159963513Y-134558889D01*
X159878599Y-134278966D01*
X159740706Y-134020986D01*
X159555134Y-133794866D01*
X159329013Y-133609294D01*
X159071033Y-133471401D01*
X158791110Y-133386487D01*
X158500000Y-133357815D01*
X158208889Y-133386487D01*
X157928966Y-133471401D01*
X157670986Y-133609294D01*
X157444866Y-133794866D01*
X157392777Y-133858337D01*
X157338405Y-133756614D01*
X157227962Y-133622038D01*
X157093386Y-133511595D01*
X156939850Y-133429528D01*
X156773254Y-133378992D01*
X156600000Y-133361928D01*
X155400000Y-133361928D01*
X155226746Y-133378992D01*
X155060150Y-133429528D01*
X154906614Y-133511595D01*
X154772038Y-133622038D01*
X154661595Y-133756614D01*
X154579528Y-133910150D01*
X154528992Y-134076746D01*
X154511928Y-134250000D01*
X154511928Y-135750000D01*
X154528992Y-135923254D01*
X154579528Y-136089850D01*
X154661595Y-136243386D01*
X154761400Y-136365000D01*
X150635000Y-136365000D01*
X150635000Y-136107817D01*
X150740706Y-135979014D01*
X150878599Y-135721033D01*
X150963513Y-135441110D01*
X150985000Y-135222949D01*
X150985000Y-134777050D01*
X150963513Y-134558889D01*
X150878599Y-134278966D01*
X150740706Y-134020986D01*
X150555134Y-133794866D01*
X150329013Y-133609294D01*
X150071033Y-133471401D01*
X149791110Y-133386487D01*
X149500000Y-133357815D01*
X149208889Y-133386487D01*
X148928966Y-133471401D01*
X148670986Y-133609294D01*
X148444866Y-133794866D01*
X148392777Y-133858337D01*
X148338405Y-133756614D01*
X148227962Y-133622038D01*
X148093386Y-133511595D01*
X147939850Y-133429528D01*
X147773254Y-133378992D01*
X147600000Y-133361928D01*
X146400000Y-133361928D01*
X146226746Y-133378992D01*
X146060150Y-133429528D01*
X145906614Y-133511595D01*
X145772038Y-133622038D01*
X145661595Y-133756614D01*
X145579528Y-133910150D01*
X145528992Y-134076746D01*
X145511928Y-134250000D01*
X145511928Y-135750000D01*
X145528992Y-135923254D01*
X145579528Y-136089850D01*
X145661595Y-136243386D01*
X145761400Y-136365000D01*
X141635000Y-136365000D01*
X141635000Y-136107817D01*
X141740706Y-135979014D01*
X141878599Y-135721033D01*
X141963513Y-135441110D01*
X141985000Y-135222949D01*
X141985000Y-134777050D01*
X141963513Y-134558889D01*
X141878599Y-134278966D01*
X141740706Y-134020986D01*
X141555134Y-133794866D01*
X141329013Y-133609294D01*
X141071033Y-133471401D01*
X140791110Y-133386487D01*
X140500000Y-133357815D01*
X140208889Y-133386487D01*
X140127000Y-133411328D01*
X140127000Y-131585000D01*
X159256531Y-131585000D01*
X159300000Y-131589281D01*
X159343469Y-131585000D01*
X159343477Y-131585000D01*
X159473490Y-131572195D01*
X159640313Y-131521589D01*
X159794059Y-131439411D01*
X159928817Y-131328817D01*
X159956534Y-131295044D01*
X162595049Y-128656530D01*
X162628817Y-128628817D01*
X162657244Y-128594180D01*
X162739411Y-128494059D01*
X162816411Y-128350000D01*
X168386928Y-128350000D01*
X168399188Y-128474482D01*
X168435498Y-128594180D01*
X168494463Y-128704494D01*
X168573815Y-128801185D01*
X168670506Y-128880537D01*
X168780820Y-128939502D01*
X168900518Y-128975812D01*
X169025000Y-128988072D01*
X169714250Y-128985000D01*
X169873000Y-128826250D01*
X169873000Y-127627000D01*
X170127000Y-127627000D01*
X170127000Y-128826250D01*
X170285750Y-128985000D01*
X170975000Y-128988072D01*
X171099482Y-128975812D01*
X171219180Y-128939502D01*
X171329494Y-128880537D01*
X171426185Y-128801185D01*
X171505537Y-128704494D01*
X171564502Y-128594180D01*
X171600812Y-128474482D01*
X171613072Y-128350000D01*
X171610000Y-127785750D01*
X171451250Y-127627000D01*
X170127000Y-127627000D01*
X169873000Y-127627000D01*
X168548750Y-127627000D01*
X168390000Y-127785750D01*
X168386928Y-128350000D01*
X162816411Y-128350000D01*
X162821589Y-128340314D01*
X162872195Y-128173490D01*
X162872195Y-128173489D01*
X162885000Y-128043477D01*
X162885000Y-128043469D01*
X162889281Y-128000000D01*
X162885000Y-127956531D01*
X162885000Y-122843465D01*
X162889281Y-122799999D01*
X162885000Y-122756533D01*
X162885000Y-122756523D01*
X162872195Y-122626510D01*
X162821589Y-122459687D01*
X162739411Y-122305941D01*
X162628817Y-122171183D01*
X162595050Y-122143471D01*
X160356534Y-119904956D01*
X160328817Y-119871183D01*
X160194059Y-119760589D01*
X160040313Y-119678411D01*
X159873490Y-119627805D01*
X159743477Y-119615000D01*
X159743469Y-119615000D01*
X159700000Y-119610719D01*
X159656531Y-119615000D01*
X159540989Y-119615000D01*
X159478932Y-119498899D01*
X159299607Y-119280392D01*
X159081100Y-119101068D01*
X158831807Y-118967818D01*
X158561308Y-118885764D01*
X158280000Y-118858057D01*
X157998691Y-118885764D01*
X157728192Y-118967818D01*
X157478899Y-119101068D01*
X157260392Y-119280393D01*
X157081068Y-119498900D01*
X157010000Y-119631858D01*
X156938932Y-119498899D01*
X156759607Y-119280392D01*
X156541100Y-119101068D01*
X156291807Y-118967818D01*
X156021308Y-118885764D01*
X155740000Y-118858057D01*
X155458691Y-118885764D01*
X155188192Y-118967818D01*
X154938899Y-119101068D01*
X154720392Y-119280393D01*
X154541068Y-119498900D01*
X154470000Y-119631858D01*
X154398932Y-119498899D01*
X154219607Y-119280392D01*
X154001100Y-119101068D01*
X153751807Y-118967818D01*
X153481308Y-118885764D01*
X153200000Y-118858057D01*
X152918691Y-118885764D01*
X152648192Y-118967818D01*
X152398899Y-119101068D01*
X152180392Y-119280393D01*
X152001068Y-119498900D01*
X151930000Y-119631858D01*
X151858932Y-119498899D01*
X151679607Y-119280392D01*
X151461100Y-119101068D01*
X151211807Y-118967818D01*
X150941308Y-118885764D01*
X150660000Y-118858057D01*
X150378691Y-118885764D01*
X150108192Y-118967818D01*
X149858899Y-119101068D01*
X149640392Y-119280393D01*
X149461068Y-119498900D01*
X149390000Y-119631858D01*
X149318932Y-119498899D01*
X149139607Y-119280392D01*
X148921100Y-119101068D01*
X148671807Y-118967818D01*
X148401308Y-118885764D01*
X148120000Y-118858057D01*
X147838691Y-118885764D01*
X147568192Y-118967818D01*
X147318899Y-119101068D01*
X147100392Y-119280393D01*
X146921068Y-119498900D01*
X146850000Y-119631858D01*
X146778932Y-119498899D01*
X146599607Y-119280392D01*
X146529072Y-119222506D01*
X148266579Y-117485000D01*
X161533422Y-117485000D01*
X167143470Y-123095049D01*
%TA.AperFunction,Conductor*%
D26*
G36*
X167143470Y-123095049D02*
G01*
X167171183Y-123128817D01*
X167204951Y-123156530D01*
X167204953Y-123156532D01*
X167263954Y-123204953D01*
X167305941Y-123239411D01*
X167459687Y-123321589D01*
X167626510Y-123372195D01*
X167756523Y-123385000D01*
X167756533Y-123385000D01*
X167799999Y-123389281D01*
X167843466Y-123385000D01*
X168680241Y-123385000D01*
X168819866Y-123555134D01*
X169045986Y-123740706D01*
X169063374Y-123750000D01*
X169045986Y-123759294D01*
X168819866Y-123944866D01*
X168634294Y-124170986D01*
X168496401Y-124428966D01*
X168411487Y-124708889D01*
X168382815Y-125000000D01*
X168411487Y-125291111D01*
X168496401Y-125571034D01*
X168634294Y-125829014D01*
X168815608Y-126049945D01*
X168780820Y-126060498D01*
X168670506Y-126119463D01*
X168573815Y-126198815D01*
X168494463Y-126295506D01*
X168435498Y-126405820D01*
X168399188Y-126525518D01*
X168386928Y-126650000D01*
X168390000Y-127214250D01*
X168548750Y-127373000D01*
X169873000Y-127373000D01*
X169873000Y-127353000D01*
X170127000Y-127353000D01*
X170127000Y-127373000D01*
X171451250Y-127373000D01*
X171610000Y-127214250D01*
X171613072Y-126650000D01*
X171600812Y-126525518D01*
X171564502Y-126405820D01*
X171505537Y-126295506D01*
X171426185Y-126198815D01*
X171348426Y-126135000D01*
X173165001Y-126135000D01*
X173165000Y-127729868D01*
X167533732Y-133361137D01*
X167500000Y-133357815D01*
X167208889Y-133386487D01*
X166928966Y-133471401D01*
X166670986Y-133609294D01*
X166444866Y-133794866D01*
X166392777Y-133858337D01*
X166338405Y-133756614D01*
X166227962Y-133622038D01*
X166093386Y-133511595D01*
X165939850Y-133429528D01*
X165773254Y-133378992D01*
X165600000Y-133361928D01*
X164400000Y-133361928D01*
X164226746Y-133378992D01*
X164060150Y-133429528D01*
X163906614Y-133511595D01*
X163772038Y-133622038D01*
X163661595Y-133756614D01*
X163579528Y-133910150D01*
X163528992Y-134076746D01*
X163511928Y-134250000D01*
X163511928Y-135750000D01*
X163528992Y-135923254D01*
X163579528Y-136089850D01*
X163661595Y-136243386D01*
X163761400Y-136365000D01*
X159635000Y-136365000D01*
X159635000Y-136107817D01*
X159740706Y-135979014D01*
X159878599Y-135721033D01*
X159963513Y-135441110D01*
X159985000Y-135222949D01*
X159985000Y-134777050D01*
X159963513Y-134558889D01*
X159878599Y-134278966D01*
X159740706Y-134020986D01*
X159555134Y-133794866D01*
X159329013Y-133609294D01*
X159071033Y-133471401D01*
X158791110Y-133386487D01*
X158500000Y-133357815D01*
X158208889Y-133386487D01*
X157928966Y-133471401D01*
X157670986Y-133609294D01*
X157444866Y-133794866D01*
X157392777Y-133858337D01*
X157338405Y-133756614D01*
X157227962Y-133622038D01*
X157093386Y-133511595D01*
X156939850Y-133429528D01*
X156773254Y-133378992D01*
X156600000Y-133361928D01*
X155400000Y-133361928D01*
X155226746Y-133378992D01*
X155060150Y-133429528D01*
X154906614Y-133511595D01*
X154772038Y-133622038D01*
X154661595Y-133756614D01*
X154579528Y-133910150D01*
X154528992Y-134076746D01*
X154511928Y-134250000D01*
X154511928Y-135750000D01*
X154528992Y-135923254D01*
X154579528Y-136089850D01*
X154661595Y-136243386D01*
X154761400Y-136365000D01*
X150635000Y-136365000D01*
X150635000Y-136107817D01*
X150740706Y-135979014D01*
X150878599Y-135721033D01*
X150963513Y-135441110D01*
X150985000Y-135222949D01*
X150985000Y-134777050D01*
X150963513Y-134558889D01*
X150878599Y-134278966D01*
X150740706Y-134020986D01*
X150555134Y-133794866D01*
X150329013Y-133609294D01*
X150071033Y-133471401D01*
X149791110Y-133386487D01*
X149500000Y-133357815D01*
X149208889Y-133386487D01*
X148928966Y-133471401D01*
X148670986Y-133609294D01*
X148444866Y-133794866D01*
X148392777Y-133858337D01*
X148338405Y-133756614D01*
X148227962Y-133622038D01*
X148093386Y-133511595D01*
X147939850Y-133429528D01*
X147773254Y-133378992D01*
X147600000Y-133361928D01*
X146400000Y-133361928D01*
X146226746Y-133378992D01*
X146060150Y-133429528D01*
X145906614Y-133511595D01*
X145772038Y-133622038D01*
X145661595Y-133756614D01*
X145579528Y-133910150D01*
X145528992Y-134076746D01*
X145511928Y-134250000D01*
X145511928Y-135750000D01*
X145528992Y-135923254D01*
X145579528Y-136089850D01*
X145661595Y-136243386D01*
X145761400Y-136365000D01*
X141635000Y-136365000D01*
X141635000Y-136107817D01*
X141740706Y-135979014D01*
X141878599Y-135721033D01*
X141963513Y-135441110D01*
X141985000Y-135222949D01*
X141985000Y-134777050D01*
X141963513Y-134558889D01*
X141878599Y-134278966D01*
X141740706Y-134020986D01*
X141555134Y-133794866D01*
X141329013Y-133609294D01*
X141071033Y-133471401D01*
X140791110Y-133386487D01*
X140500000Y-133357815D01*
X140208889Y-133386487D01*
X140127000Y-133411328D01*
X140127000Y-131585000D01*
X159256531Y-131585000D01*
X159300000Y-131589281D01*
X159343469Y-131585000D01*
X159343477Y-131585000D01*
X159473490Y-131572195D01*
X159640313Y-131521589D01*
X159794059Y-131439411D01*
X159928817Y-131328817D01*
X159956534Y-131295044D01*
X162595049Y-128656530D01*
X162628817Y-128628817D01*
X162657244Y-128594180D01*
X162739411Y-128494059D01*
X162816411Y-128350000D01*
X168386928Y-128350000D01*
X168399188Y-128474482D01*
X168435498Y-128594180D01*
X168494463Y-128704494D01*
X168573815Y-128801185D01*
X168670506Y-128880537D01*
X168780820Y-128939502D01*
X168900518Y-128975812D01*
X169025000Y-128988072D01*
X169714250Y-128985000D01*
X169873000Y-128826250D01*
X169873000Y-127627000D01*
X170127000Y-127627000D01*
X170127000Y-128826250D01*
X170285750Y-128985000D01*
X170975000Y-128988072D01*
X171099482Y-128975812D01*
X171219180Y-128939502D01*
X171329494Y-128880537D01*
X171426185Y-128801185D01*
X171505537Y-128704494D01*
X171564502Y-128594180D01*
X171600812Y-128474482D01*
X171613072Y-128350000D01*
X171610000Y-127785750D01*
X171451250Y-127627000D01*
X170127000Y-127627000D01*
X169873000Y-127627000D01*
X168548750Y-127627000D01*
X168390000Y-127785750D01*
X168386928Y-128350000D01*
X162816411Y-128350000D01*
X162821589Y-128340314D01*
X162872195Y-128173490D01*
X162872195Y-128173489D01*
X162885000Y-128043477D01*
X162885000Y-128043469D01*
X162889281Y-128000000D01*
X162885000Y-127956531D01*
X162885000Y-122843465D01*
X162889281Y-122799999D01*
X162885000Y-122756533D01*
X162885000Y-122756523D01*
X162872195Y-122626510D01*
X162821589Y-122459687D01*
X162739411Y-122305941D01*
X162628817Y-122171183D01*
X162595050Y-122143471D01*
X160356534Y-119904956D01*
X160328817Y-119871183D01*
X160194059Y-119760589D01*
X160040313Y-119678411D01*
X159873490Y-119627805D01*
X159743477Y-119615000D01*
X159743469Y-119615000D01*
X159700000Y-119610719D01*
X159656531Y-119615000D01*
X159540989Y-119615000D01*
X159478932Y-119498899D01*
X159299607Y-119280392D01*
X159081100Y-119101068D01*
X158831807Y-118967818D01*
X158561308Y-118885764D01*
X158280000Y-118858057D01*
X157998691Y-118885764D01*
X157728192Y-118967818D01*
X157478899Y-119101068D01*
X157260392Y-119280393D01*
X157081068Y-119498900D01*
X157010000Y-119631858D01*
X156938932Y-119498899D01*
X156759607Y-119280392D01*
X156541100Y-119101068D01*
X156291807Y-118967818D01*
X156021308Y-118885764D01*
X155740000Y-118858057D01*
X155458691Y-118885764D01*
X155188192Y-118967818D01*
X154938899Y-119101068D01*
X154720392Y-119280393D01*
X154541068Y-119498900D01*
X154470000Y-119631858D01*
X154398932Y-119498899D01*
X154219607Y-119280392D01*
X154001100Y-119101068D01*
X153751807Y-118967818D01*
X153481308Y-118885764D01*
X153200000Y-118858057D01*
X152918691Y-118885764D01*
X152648192Y-118967818D01*
X152398899Y-119101068D01*
X152180392Y-119280393D01*
X152001068Y-119498900D01*
X151930000Y-119631858D01*
X151858932Y-119498899D01*
X151679607Y-119280392D01*
X151461100Y-119101068D01*
X151211807Y-118967818D01*
X150941308Y-118885764D01*
X150660000Y-118858057D01*
X150378691Y-118885764D01*
X150108192Y-118967818D01*
X149858899Y-119101068D01*
X149640392Y-119280393D01*
X149461068Y-119498900D01*
X149390000Y-119631858D01*
X149318932Y-119498899D01*
X149139607Y-119280392D01*
X148921100Y-119101068D01*
X148671807Y-118967818D01*
X148401308Y-118885764D01*
X148120000Y-118858057D01*
X147838691Y-118885764D01*
X147568192Y-118967818D01*
X147318899Y-119101068D01*
X147100392Y-119280393D01*
X146921068Y-119498900D01*
X146850000Y-119631858D01*
X146778932Y-119498899D01*
X146599607Y-119280392D01*
X146529072Y-119222506D01*
X148266579Y-117485000D01*
X161533422Y-117485000D01*
X167143470Y-123095049D01*
G37*
%TD.AperFunction*%
D25*
X157081068Y-121501101D02*
X157260393Y-121719608D01*
X157478900Y-121898932D01*
X157728193Y-122032182D01*
X157998692Y-122114236D01*
X158280000Y-122141943D01*
X158561309Y-122114236D01*
X158831808Y-122032182D01*
X159081101Y-121898932D01*
X159299608Y-121719608D01*
X159465676Y-121517254D01*
X161115000Y-123166579D01*
X161115001Y-127633420D01*
X158933422Y-129815000D01*
X145952640Y-129815000D01*
X146094059Y-129739411D01*
X146228817Y-129628817D01*
X146256534Y-129595044D01*
X147295050Y-128556529D01*
X147328817Y-128528817D01*
X147357343Y-128494059D01*
X147439411Y-128394059D01*
X147454566Y-128365706D01*
X147521589Y-128240313D01*
X147572195Y-128073490D01*
X147585000Y-127943477D01*
X147585000Y-127943469D01*
X147589281Y-127900000D01*
X147585000Y-127856531D01*
X147585000Y-125318450D01*
X147705824Y-125137624D01*
X147791383Y-124931067D01*
X147835000Y-124711788D01*
X147835000Y-124488212D01*
X147791383Y-124268933D01*
X147705824Y-124062376D01*
X147581612Y-123876480D01*
X147423520Y-123718388D01*
X147237624Y-123594176D01*
X147031067Y-123508617D01*
X146811788Y-123465000D01*
X146588212Y-123465000D01*
X146368933Y-123508617D01*
X146162376Y-123594176D01*
X145976480Y-123718388D01*
X145818388Y-123876480D01*
X145694176Y-124062376D01*
X145608617Y-124268933D01*
X145565000Y-124488212D01*
X145565000Y-124711788D01*
X145608617Y-124931067D01*
X145694176Y-125137624D01*
X145815001Y-125318451D01*
X145815001Y-125590650D01*
X145801185Y-125573815D01*
X145704494Y-125494463D01*
X145594180Y-125435498D01*
X145474482Y-125399188D01*
X145350000Y-125386928D01*
X144785750Y-125390000D01*
X144627000Y-125548750D01*
X144627000Y-126873000D01*
X144647000Y-126873000D01*
X144647000Y-127127000D01*
X144627000Y-127127000D01*
X144627000Y-127147000D01*
X144373000Y-127147000D01*
X144373000Y-127127000D01*
X144353000Y-127127000D01*
X144353000Y-126873000D01*
X144373000Y-126873000D01*
X144373000Y-125548750D01*
X144214250Y-125390000D01*
X143650000Y-125386928D01*
X143525518Y-125399188D01*
X143405820Y-125435498D01*
X143295506Y-125494463D01*
X143198815Y-125573815D01*
X143119463Y-125670506D01*
X143060498Y-125780820D01*
X143049945Y-125815608D01*
X142829014Y-125634294D01*
X142571034Y-125496401D01*
X142291111Y-125411487D01*
X142000000Y-125382815D01*
X141708890Y-125411487D01*
X141428967Y-125496401D01*
X141170987Y-125634294D01*
X140944866Y-125819866D01*
X140759294Y-126045986D01*
X140750000Y-126063374D01*
X140740706Y-126045986D01*
X140555134Y-125819866D01*
X140329014Y-125634294D01*
X140127000Y-125526315D01*
X140127000Y-122138072D01*
X141500000Y-122138072D01*
X141624482Y-122125812D01*
X141744180Y-122089502D01*
X141854494Y-122030537D01*
X141951185Y-121951185D01*
X142030537Y-121854494D01*
X142077559Y-121766523D01*
X142238900Y-121898932D01*
X142488193Y-122032182D01*
X142758692Y-122114236D01*
X143040000Y-122141943D01*
X143321309Y-122114236D01*
X143591808Y-122032182D01*
X143841101Y-121898932D01*
X144059608Y-121719608D01*
X144238932Y-121501101D01*
X144310000Y-121368142D01*
X144381068Y-121501101D01*
X144560393Y-121719608D01*
X144778900Y-121898932D01*
X145028193Y-122032182D01*
X145298692Y-122114236D01*
X145580000Y-122141943D01*
X145861309Y-122114236D01*
X146131808Y-122032182D01*
X146381101Y-121898932D01*
X146599608Y-121719608D01*
X146778932Y-121501101D01*
X146850000Y-121368142D01*
X146921068Y-121501101D01*
X147100393Y-121719608D01*
X147318900Y-121898932D01*
X147568193Y-122032182D01*
X147838692Y-122114236D01*
X147976202Y-122127780D01*
X150243470Y-124395049D01*
X150271183Y-124428817D01*
X150304951Y-124456530D01*
X150304953Y-124456532D01*
X150343555Y-124488212D01*
X150405941Y-124539411D01*
X150559687Y-124621589D01*
X150726510Y-124672195D01*
X150856523Y-124685000D01*
X150856531Y-124685000D01*
X150900000Y-124689281D01*
X150943469Y-124685000D01*
X154615000Y-124685000D01*
X154615001Y-125680241D01*
X154444866Y-125819866D01*
X154259294Y-126045986D01*
X154250000Y-126063374D01*
X154240706Y-126045986D01*
X154055134Y-125819866D01*
X153829014Y-125634294D01*
X153571034Y-125496401D01*
X153291111Y-125411487D01*
X153000000Y-125382815D01*
X152708890Y-125411487D01*
X152428967Y-125496401D01*
X152170987Y-125634294D01*
X151944866Y-125819866D01*
X151759294Y-126045986D01*
X151750000Y-126063374D01*
X151740706Y-126045986D01*
X151555134Y-125819866D01*
X151329014Y-125634294D01*
X151071034Y-125496401D01*
X150791111Y-125411487D01*
X150500000Y-125382815D01*
X150208890Y-125411487D01*
X149928967Y-125496401D01*
X149670987Y-125634294D01*
X149444866Y-125819866D01*
X149259294Y-126045986D01*
X149121401Y-126303966D01*
X149036487Y-126583889D01*
X149015000Y-126802050D01*
X149015000Y-127197949D01*
X149036487Y-127416110D01*
X149121401Y-127696033D01*
X149259294Y-127954013D01*
X149444866Y-128180134D01*
X149670986Y-128365706D01*
X149928966Y-128503599D01*
X150208889Y-128588513D01*
X150500000Y-128617185D01*
X150791110Y-128588513D01*
X151071033Y-128503599D01*
X151329013Y-128365706D01*
X151555134Y-128180134D01*
X151740706Y-127954014D01*
X151750000Y-127936626D01*
X151759294Y-127954013D01*
X151944866Y-128180134D01*
X152170986Y-128365706D01*
X152428966Y-128503599D01*
X152708889Y-128588513D01*
X153000000Y-128617185D01*
X153291110Y-128588513D01*
X153571033Y-128503599D01*
X153829013Y-128365706D01*
X154055134Y-128180134D01*
X154240706Y-127954014D01*
X154250000Y-127936626D01*
X154259294Y-127954013D01*
X154444866Y-128180134D01*
X154670986Y-128365706D01*
X154928966Y-128503599D01*
X155208889Y-128588513D01*
X155500000Y-128617185D01*
X155791110Y-128588513D01*
X156071033Y-128503599D01*
X156329013Y-128365706D01*
X156555134Y-128180134D01*
X156607223Y-128116663D01*
X156661595Y-128218386D01*
X156772038Y-128352962D01*
X156906614Y-128463405D01*
X157060150Y-128545472D01*
X157226746Y-128596008D01*
X157400000Y-128613072D01*
X158600000Y-128613072D01*
X158773254Y-128596008D01*
X158939850Y-128545472D01*
X159093386Y-128463405D01*
X159227962Y-128352962D01*
X159338405Y-128218386D01*
X159420472Y-128064850D01*
X159471008Y-127898254D01*
X159488072Y-127725000D01*
X159488072Y-126275000D01*
X159471008Y-126101746D01*
X159420472Y-125935150D01*
X159338405Y-125781614D01*
X159227962Y-125647038D01*
X159093386Y-125536595D01*
X158939850Y-125454528D01*
X158773254Y-125403992D01*
X158600000Y-125386928D01*
X157400000Y-125386928D01*
X157226746Y-125403992D01*
X157060150Y-125454528D01*
X156906614Y-125536595D01*
X156772038Y-125647038D01*
X156661595Y-125781614D01*
X156607223Y-125883337D01*
X156555134Y-125819866D01*
X156385000Y-125680241D01*
X156385000Y-124343469D01*
X156389281Y-124300000D01*
X156385000Y-124256531D01*
X156385000Y-124256523D01*
X156372195Y-124126510D01*
X156321589Y-123959687D01*
X156239411Y-123805941D01*
X156128817Y-123671183D01*
X156095045Y-123643467D01*
X155656534Y-123204956D01*
X155628817Y-123171183D01*
X155494059Y-123060589D01*
X155340313Y-122978411D01*
X155173490Y-122927805D01*
X155043477Y-122915000D01*
X155043469Y-122915000D01*
X155000000Y-122910719D01*
X154956531Y-122915000D01*
X151266579Y-122915000D01*
X150475333Y-122123755D01*
X150660000Y-122141943D01*
X150941309Y-122114236D01*
X151211808Y-122032182D01*
X151461101Y-121898932D01*
X151679608Y-121719608D01*
X151858932Y-121501101D01*
X151930000Y-121368142D01*
X152001068Y-121501101D01*
X152180393Y-121719608D01*
X152398900Y-121898932D01*
X152648193Y-122032182D01*
X152918692Y-122114236D01*
X153200000Y-122141943D01*
X153481309Y-122114236D01*
X153751808Y-122032182D01*
X154001101Y-121898932D01*
X154219608Y-121719608D01*
X154398932Y-121501101D01*
X154470000Y-121368142D01*
X154541068Y-121501101D01*
X154720393Y-121719608D01*
X154938900Y-121898932D01*
X155188193Y-122032182D01*
X155458692Y-122114236D01*
X155740000Y-122141943D01*
X156021309Y-122114236D01*
X156291808Y-122032182D01*
X156541101Y-121898932D01*
X156759608Y-121719608D01*
X156938932Y-121501101D01*
X157010000Y-121368142D01*
X157081068Y-121501101D01*
%TA.AperFunction,Conductor*%
D26*
G36*
X157081068Y-121501101D02*
G01*
X157260393Y-121719608D01*
X157478900Y-121898932D01*
X157728193Y-122032182D01*
X157998692Y-122114236D01*
X158280000Y-122141943D01*
X158561309Y-122114236D01*
X158831808Y-122032182D01*
X159081101Y-121898932D01*
X159299608Y-121719608D01*
X159465676Y-121517254D01*
X161115000Y-123166579D01*
X161115001Y-127633420D01*
X158933422Y-129815000D01*
X145952640Y-129815000D01*
X146094059Y-129739411D01*
X146228817Y-129628817D01*
X146256534Y-129595044D01*
X147295050Y-128556529D01*
X147328817Y-128528817D01*
X147357343Y-128494059D01*
X147439411Y-128394059D01*
X147454566Y-128365706D01*
X147521589Y-128240313D01*
X147572195Y-128073490D01*
X147585000Y-127943477D01*
X147585000Y-127943469D01*
X147589281Y-127900000D01*
X147585000Y-127856531D01*
X147585000Y-125318450D01*
X147705824Y-125137624D01*
X147791383Y-124931067D01*
X147835000Y-124711788D01*
X147835000Y-124488212D01*
X147791383Y-124268933D01*
X147705824Y-124062376D01*
X147581612Y-123876480D01*
X147423520Y-123718388D01*
X147237624Y-123594176D01*
X147031067Y-123508617D01*
X146811788Y-123465000D01*
X146588212Y-123465000D01*
X146368933Y-123508617D01*
X146162376Y-123594176D01*
X145976480Y-123718388D01*
X145818388Y-123876480D01*
X145694176Y-124062376D01*
X145608617Y-124268933D01*
X145565000Y-124488212D01*
X145565000Y-124711788D01*
X145608617Y-124931067D01*
X145694176Y-125137624D01*
X145815001Y-125318451D01*
X145815001Y-125590650D01*
X145801185Y-125573815D01*
X145704494Y-125494463D01*
X145594180Y-125435498D01*
X145474482Y-125399188D01*
X145350000Y-125386928D01*
X144785750Y-125390000D01*
X144627000Y-125548750D01*
X144627000Y-126873000D01*
X144647000Y-126873000D01*
X144647000Y-127127000D01*
X144627000Y-127127000D01*
X144627000Y-127147000D01*
X144373000Y-127147000D01*
X144373000Y-127127000D01*
X144353000Y-127127000D01*
X144353000Y-126873000D01*
X144373000Y-126873000D01*
X144373000Y-125548750D01*
X144214250Y-125390000D01*
X143650000Y-125386928D01*
X143525518Y-125399188D01*
X143405820Y-125435498D01*
X143295506Y-125494463D01*
X143198815Y-125573815D01*
X143119463Y-125670506D01*
X143060498Y-125780820D01*
X143049945Y-125815608D01*
X142829014Y-125634294D01*
X142571034Y-125496401D01*
X142291111Y-125411487D01*
X142000000Y-125382815D01*
X141708890Y-125411487D01*
X141428967Y-125496401D01*
X141170987Y-125634294D01*
X140944866Y-125819866D01*
X140759294Y-126045986D01*
X140750000Y-126063374D01*
X140740706Y-126045986D01*
X140555134Y-125819866D01*
X140329014Y-125634294D01*
X140127000Y-125526315D01*
X140127000Y-122138072D01*
X141500000Y-122138072D01*
X141624482Y-122125812D01*
X141744180Y-122089502D01*
X141854494Y-122030537D01*
X141951185Y-121951185D01*
X142030537Y-121854494D01*
X142077559Y-121766523D01*
X142238900Y-121898932D01*
X142488193Y-122032182D01*
X142758692Y-122114236D01*
X143040000Y-122141943D01*
X143321309Y-122114236D01*
X143591808Y-122032182D01*
X143841101Y-121898932D01*
X144059608Y-121719608D01*
X144238932Y-121501101D01*
X144310000Y-121368142D01*
X144381068Y-121501101D01*
X144560393Y-121719608D01*
X144778900Y-121898932D01*
X145028193Y-122032182D01*
X145298692Y-122114236D01*
X145580000Y-122141943D01*
X145861309Y-122114236D01*
X146131808Y-122032182D01*
X146381101Y-121898932D01*
X146599608Y-121719608D01*
X146778932Y-121501101D01*
X146850000Y-121368142D01*
X146921068Y-121501101D01*
X147100393Y-121719608D01*
X147318900Y-121898932D01*
X147568193Y-122032182D01*
X147838692Y-122114236D01*
X147976202Y-122127780D01*
X150243470Y-124395049D01*
X150271183Y-124428817D01*
X150304951Y-124456530D01*
X150304953Y-124456532D01*
X150343555Y-124488212D01*
X150405941Y-124539411D01*
X150559687Y-124621589D01*
X150726510Y-124672195D01*
X150856523Y-124685000D01*
X150856531Y-124685000D01*
X150900000Y-124689281D01*
X150943469Y-124685000D01*
X154615000Y-124685000D01*
X154615001Y-125680241D01*
X154444866Y-125819866D01*
X154259294Y-126045986D01*
X154250000Y-126063374D01*
X154240706Y-126045986D01*
X154055134Y-125819866D01*
X153829014Y-125634294D01*
X153571034Y-125496401D01*
X153291111Y-125411487D01*
X153000000Y-125382815D01*
X152708890Y-125411487D01*
X152428967Y-125496401D01*
X152170987Y-125634294D01*
X151944866Y-125819866D01*
X151759294Y-126045986D01*
X151750000Y-126063374D01*
X151740706Y-126045986D01*
X151555134Y-125819866D01*
X151329014Y-125634294D01*
X151071034Y-125496401D01*
X150791111Y-125411487D01*
X150500000Y-125382815D01*
X150208890Y-125411487D01*
X149928967Y-125496401D01*
X149670987Y-125634294D01*
X149444866Y-125819866D01*
X149259294Y-126045986D01*
X149121401Y-126303966D01*
X149036487Y-126583889D01*
X149015000Y-126802050D01*
X149015000Y-127197949D01*
X149036487Y-127416110D01*
X149121401Y-127696033D01*
X149259294Y-127954013D01*
X149444866Y-128180134D01*
X149670986Y-128365706D01*
X149928966Y-128503599D01*
X150208889Y-128588513D01*
X150500000Y-128617185D01*
X150791110Y-128588513D01*
X151071033Y-128503599D01*
X151329013Y-128365706D01*
X151555134Y-128180134D01*
X151740706Y-127954014D01*
X151750000Y-127936626D01*
X151759294Y-127954013D01*
X151944866Y-128180134D01*
X152170986Y-128365706D01*
X152428966Y-128503599D01*
X152708889Y-128588513D01*
X153000000Y-128617185D01*
X153291110Y-128588513D01*
X153571033Y-128503599D01*
X153829013Y-128365706D01*
X154055134Y-128180134D01*
X154240706Y-127954014D01*
X154250000Y-127936626D01*
X154259294Y-127954013D01*
X154444866Y-128180134D01*
X154670986Y-128365706D01*
X154928966Y-128503599D01*
X155208889Y-128588513D01*
X155500000Y-128617185D01*
X155791110Y-128588513D01*
X156071033Y-128503599D01*
X156329013Y-128365706D01*
X156555134Y-128180134D01*
X156607223Y-128116663D01*
X156661595Y-128218386D01*
X156772038Y-128352962D01*
X156906614Y-128463405D01*
X157060150Y-128545472D01*
X157226746Y-128596008D01*
X157400000Y-128613072D01*
X158600000Y-128613072D01*
X158773254Y-128596008D01*
X158939850Y-128545472D01*
X159093386Y-128463405D01*
X159227962Y-128352962D01*
X159338405Y-128218386D01*
X159420472Y-128064850D01*
X159471008Y-127898254D01*
X159488072Y-127725000D01*
X159488072Y-126275000D01*
X159471008Y-126101746D01*
X159420472Y-125935150D01*
X159338405Y-125781614D01*
X159227962Y-125647038D01*
X159093386Y-125536595D01*
X158939850Y-125454528D01*
X158773254Y-125403992D01*
X158600000Y-125386928D01*
X157400000Y-125386928D01*
X157226746Y-125403992D01*
X157060150Y-125454528D01*
X156906614Y-125536595D01*
X156772038Y-125647038D01*
X156661595Y-125781614D01*
X156607223Y-125883337D01*
X156555134Y-125819866D01*
X156385000Y-125680241D01*
X156385000Y-124343469D01*
X156389281Y-124300000D01*
X156385000Y-124256531D01*
X156385000Y-124256523D01*
X156372195Y-124126510D01*
X156321589Y-123959687D01*
X156239411Y-123805941D01*
X156128817Y-123671183D01*
X156095045Y-123643467D01*
X155656534Y-123204956D01*
X155628817Y-123171183D01*
X155494059Y-123060589D01*
X155340313Y-122978411D01*
X155173490Y-122927805D01*
X155043477Y-122915000D01*
X155043469Y-122915000D01*
X155000000Y-122910719D01*
X154956531Y-122915000D01*
X151266579Y-122915000D01*
X150475333Y-122123755D01*
X150660000Y-122141943D01*
X150941309Y-122114236D01*
X151211808Y-122032182D01*
X151461101Y-121898932D01*
X151679608Y-121719608D01*
X151858932Y-121501101D01*
X151930000Y-121368142D01*
X152001068Y-121501101D01*
X152180393Y-121719608D01*
X152398900Y-121898932D01*
X152648193Y-122032182D01*
X152918692Y-122114236D01*
X153200000Y-122141943D01*
X153481309Y-122114236D01*
X153751808Y-122032182D01*
X154001101Y-121898932D01*
X154219608Y-121719608D01*
X154398932Y-121501101D01*
X154470000Y-121368142D01*
X154541068Y-121501101D01*
X154720393Y-121719608D01*
X154938900Y-121898932D01*
X155188193Y-122032182D01*
X155458692Y-122114236D01*
X155740000Y-122141943D01*
X156021309Y-122114236D01*
X156291808Y-122032182D01*
X156541101Y-121898932D01*
X156759608Y-121719608D01*
X156938932Y-121501101D01*
X157010000Y-121368142D01*
X157081068Y-121501101D01*
G37*
%TD.AperFunction*%
%TD*%
D25*
%TO.N,GND*%
X140373000Y-133370323D02*
X140345824Y-133373000D01*
X138712416Y-133373000D01*
X138600000Y-133361928D01*
X137400000Y-133361928D01*
X137287584Y-133373000D01*
X131654175Y-133373000D01*
X131627000Y-133370323D01*
X131627000Y-132127000D01*
X140373000Y-132127000D01*
X140373000Y-133370323D01*
%TA.AperFunction,Conductor*%
D26*
G36*
X140373000Y-133370323D02*
G01*
X140345824Y-133373000D01*
X138712416Y-133373000D01*
X138600000Y-133361928D01*
X137400000Y-133361928D01*
X137287584Y-133373000D01*
X131654175Y-133373000D01*
X131627000Y-133370323D01*
X131627000Y-132127000D01*
X140373000Y-132127000D01*
X140373000Y-133370323D01*
G37*
%TD.AperFunction*%
%TD*%
M02*
