%TF.GenerationSoftware,KiCad,Pcbnew,(5.1.9)-1*%
%TF.CreationDate,2021-06-08T16:49:58+02:00*%
%TF.ProjectId,19_WIFI_Generic,31395f57-4946-4495-9f47-656e65726963,rev?*%
%TF.SameCoordinates,Original*%
%TF.FileFunction,Soldermask,Top*%
%TF.FilePolarity,Negative*%
%FSLAX46Y46*%
G04 Gerber Fmt 4.6, Leading zero omitted, Abs format (unit mm)*
G04 Created by KiCad (PCBNEW (5.1.9)-1) date 2021-06-08 16:49:58*
%MOMM*%
%LPD*%
G01*
G04 APERTURE LIST*
%TA.AperFunction,Profile*%
%ADD10C,0.150000*%
%TD*%
%ADD11C,0.900000*%
%ADD12C,6.500000*%
%ADD13O,1.700000X2.100000*%
%ADD14O,1.600000X2.600000*%
%ADD15O,2.050000X1.800000*%
%ADD16O,2.100000X1.800000*%
%ADD17O,1.800000X2.050000*%
%ADD18O,1.800000X2.100000*%
G04 APERTURE END LIST*
D10*
X175000000Y-80000000D02*
G75*
G02*
X180000000Y-85000000I0J-5000000D01*
G01*
X180000000Y-135000000D02*
G75*
G02*
X175000000Y-140000000I-5000000J0D01*
G01*
X120000000Y-140000000D02*
G75*
G02*
X115000000Y-135000000I0J5000000D01*
G01*
X115000000Y-85000000D02*
G75*
G02*
X120000000Y-80000000I5000000J0D01*
G01*
X115000000Y-135000000D02*
X115000000Y-85000000D01*
X175000000Y-140000000D02*
X120000000Y-140000000D01*
X180000000Y-85000000D02*
X180000000Y-135000000D01*
X120000000Y-80000000D02*
X175000000Y-80000000D01*
D11*
%TO.C,H3*%
X176697056Y-133302944D03*
X175000000Y-132600000D03*
X173302944Y-133302944D03*
X172600000Y-135000000D03*
X173302944Y-136697056D03*
X175000000Y-137400000D03*
X176697056Y-136697056D03*
X177400000Y-135000000D03*
D12*
X175000000Y-135000000D03*
%TD*%
D11*
%TO.C,H1*%
X121697056Y-83302944D03*
X120000000Y-82600000D03*
X118302944Y-83302944D03*
X117600000Y-85000000D03*
X118302944Y-86697056D03*
X120000000Y-87400000D03*
X121697056Y-86697056D03*
X122400000Y-85000000D03*
D12*
X120000000Y-85000000D03*
%TD*%
D11*
%TO.C,H2*%
X176697056Y-83302944D03*
X175000000Y-82600000D03*
X173302944Y-83302944D03*
X172600000Y-85000000D03*
X173302944Y-86697056D03*
X175000000Y-87400000D03*
X176697056Y-86697056D03*
X177400000Y-85000000D03*
D12*
X175000000Y-85000000D03*
%TD*%
D11*
%TO.C,H4*%
X121697056Y-133302944D03*
X120000000Y-132600000D03*
X118302944Y-133302944D03*
X117600000Y-135000000D03*
X118302944Y-136697056D03*
X120000000Y-137400000D03*
X121697056Y-136697056D03*
X122400000Y-135000000D03*
D12*
X120000000Y-135000000D03*
%TD*%
D13*
%TO.C,U1*%
X143040000Y-120500000D03*
G36*
G01*
X141500000Y-121550000D02*
X139500000Y-121550000D01*
G75*
G02*
X139450000Y-121500000I0J50000D01*
G01*
X139450000Y-119500000D01*
G75*
G02*
X139500000Y-119450000I50000J0D01*
G01*
X141500000Y-119450000D01*
G75*
G02*
X141550000Y-119500000I0J-50000D01*
G01*
X141550000Y-121500000D01*
G75*
G02*
X141500000Y-121550000I-50000J0D01*
G01*
G37*
X145580000Y-120500000D03*
X148120000Y-120500000D03*
X150660000Y-120500000D03*
X153200000Y-120500000D03*
X155740000Y-120500000D03*
X158280000Y-120500000D03*
X158280000Y-97640000D03*
X155740000Y-97640000D03*
X153200000Y-97640000D03*
X150660000Y-97640000D03*
X148120000Y-97640000D03*
X145580000Y-97640000D03*
X143040000Y-97640000D03*
X140500000Y-97640000D03*
%TD*%
%TO.C,U2*%
G36*
G01*
X159700000Y-82150000D02*
X159700000Y-84650000D01*
G75*
G02*
X159650000Y-84700000I-50000J0D01*
G01*
X158150000Y-84700000D01*
G75*
G02*
X158100000Y-84650000I0J50000D01*
G01*
X158100000Y-82150000D01*
G75*
G02*
X158150000Y-82100000I50000J0D01*
G01*
X159650000Y-82100000D01*
G75*
G02*
X159700000Y-82150000I0J-50000D01*
G01*
G37*
D14*
X156360000Y-83400000D03*
X153820000Y-83400000D03*
%TD*%
%TO.C,J1*%
G36*
G01*
X170760295Y-128400000D02*
X169239705Y-128400000D01*
G75*
G02*
X168975000Y-128135295I0J264705D01*
G01*
X168975000Y-126864705D01*
G75*
G02*
X169239705Y-126600000I264705J0D01*
G01*
X170760295Y-126600000D01*
G75*
G02*
X171025000Y-126864705I0J-264705D01*
G01*
X171025000Y-128135295D01*
G75*
G02*
X170760295Y-128400000I-264705J0D01*
G01*
G37*
D15*
X170000000Y-125000000D03*
X170000000Y-122500000D03*
X170000000Y-120000000D03*
%TD*%
D16*
%TO.C,J2*%
X167100000Y-86400000D03*
G36*
G01*
X166314705Y-83000000D02*
X167885295Y-83000000D01*
G75*
G02*
X168150000Y-83264705I0J-264705D01*
G01*
X168150000Y-84535295D01*
G75*
G02*
X167885295Y-84800000I-264705J0D01*
G01*
X166314705Y-84800000D01*
G75*
G02*
X166050000Y-84535295I0J264705D01*
G01*
X166050000Y-83264705D01*
G75*
G02*
X166314705Y-83000000I264705J0D01*
G01*
G37*
%TD*%
%TO.C,J5*%
G36*
G01*
X158900000Y-126239705D02*
X158900000Y-127760295D01*
G75*
G02*
X158635295Y-128025000I-264705J0D01*
G01*
X157364705Y-128025000D01*
G75*
G02*
X157100000Y-127760295I0J264705D01*
G01*
X157100000Y-126239705D01*
G75*
G02*
X157364705Y-125975000I264705J0D01*
G01*
X158635295Y-125975000D01*
G75*
G02*
X158900000Y-126239705I0J-264705D01*
G01*
G37*
D17*
X155500000Y-127000000D03*
X153000000Y-127000000D03*
X150500000Y-127000000D03*
%TD*%
%TO.C,J6*%
X139300000Y-91500000D03*
X136800000Y-91500000D03*
X134300000Y-91500000D03*
G36*
G01*
X130900000Y-92260295D02*
X130900000Y-90739705D01*
G75*
G02*
X131164705Y-90475000I264705J0D01*
G01*
X132435295Y-90475000D01*
G75*
G02*
X132700000Y-90739705I0J-264705D01*
G01*
X132700000Y-92260295D01*
G75*
G02*
X132435295Y-92525000I-264705J0D01*
G01*
X131164705Y-92525000D01*
G75*
G02*
X130900000Y-92260295I0J264705D01*
G01*
G37*
%TD*%
%TO.C,J7*%
G36*
G01*
X145400000Y-126239705D02*
X145400000Y-127760295D01*
G75*
G02*
X145135295Y-128025000I-264705J0D01*
G01*
X143864705Y-128025000D01*
G75*
G02*
X143600000Y-127760295I0J264705D01*
G01*
X143600000Y-126239705D01*
G75*
G02*
X143864705Y-125975000I264705J0D01*
G01*
X145135295Y-125975000D01*
G75*
G02*
X145400000Y-126239705I0J-264705D01*
G01*
G37*
X142000000Y-127000000D03*
X139500000Y-127000000D03*
%TD*%
%TO.C,J8*%
G36*
G01*
X170314705Y-91800000D02*
X171885295Y-91800000D01*
G75*
G02*
X172150000Y-92064705I0J-264705D01*
G01*
X172150000Y-93335295D01*
G75*
G02*
X171885295Y-93600000I-264705J0D01*
G01*
X170314705Y-93600000D01*
G75*
G02*
X170050000Y-93335295I0J264705D01*
G01*
X170050000Y-92064705D01*
G75*
G02*
X170314705Y-91800000I264705J0D01*
G01*
G37*
D16*
X171100000Y-95200000D03*
%TD*%
%TO.C,J9*%
G36*
G01*
X164100000Y-135785295D02*
X164100000Y-134214705D01*
G75*
G02*
X164364705Y-133950000I264705J0D01*
G01*
X165635295Y-133950000D01*
G75*
G02*
X165900000Y-134214705I0J-264705D01*
G01*
X165900000Y-135785295D01*
G75*
G02*
X165635295Y-136050000I-264705J0D01*
G01*
X164364705Y-136050000D01*
G75*
G02*
X164100000Y-135785295I0J264705D01*
G01*
G37*
D18*
X167500000Y-135000000D03*
%TD*%
%TO.C,J10*%
X131500000Y-135000000D03*
G36*
G01*
X128100000Y-135785295D02*
X128100000Y-134214705D01*
G75*
G02*
X128364705Y-133950000I264705J0D01*
G01*
X129635295Y-133950000D01*
G75*
G02*
X129900000Y-134214705I0J-264705D01*
G01*
X129900000Y-135785295D01*
G75*
G02*
X129635295Y-136050000I-264705J0D01*
G01*
X128364705Y-136050000D01*
G75*
G02*
X128100000Y-135785295I0J264705D01*
G01*
G37*
%TD*%
%TO.C,J11*%
G36*
G01*
X137100000Y-135785295D02*
X137100000Y-134214705D01*
G75*
G02*
X137364705Y-133950000I264705J0D01*
G01*
X138635295Y-133950000D01*
G75*
G02*
X138900000Y-134214705I0J-264705D01*
G01*
X138900000Y-135785295D01*
G75*
G02*
X138635295Y-136050000I-264705J0D01*
G01*
X137364705Y-136050000D01*
G75*
G02*
X137100000Y-135785295I0J264705D01*
G01*
G37*
X140500000Y-135000000D03*
%TD*%
%TO.C,J12*%
G36*
G01*
X146100000Y-135785295D02*
X146100000Y-134214705D01*
G75*
G02*
X146364705Y-133950000I264705J0D01*
G01*
X147635295Y-133950000D01*
G75*
G02*
X147900000Y-134214705I0J-264705D01*
G01*
X147900000Y-135785295D01*
G75*
G02*
X147635295Y-136050000I-264705J0D01*
G01*
X146364705Y-136050000D01*
G75*
G02*
X146100000Y-135785295I0J264705D01*
G01*
G37*
X149500000Y-135000000D03*
%TD*%
%TO.C,J13*%
X158500000Y-135000000D03*
G36*
G01*
X155100000Y-135785295D02*
X155100000Y-134214705D01*
G75*
G02*
X155364705Y-133950000I264705J0D01*
G01*
X156635295Y-133950000D01*
G75*
G02*
X156900000Y-134214705I0J-264705D01*
G01*
X156900000Y-135785295D01*
G75*
G02*
X156635295Y-136050000I-264705J0D01*
G01*
X155364705Y-136050000D01*
G75*
G02*
X155100000Y-135785295I0J264705D01*
G01*
G37*
%TD*%
%TO.C,J15*%
G36*
G01*
X146785295Y-87400000D02*
X145214705Y-87400000D01*
G75*
G02*
X144950000Y-87135295I0J264705D01*
G01*
X144950000Y-85864705D01*
G75*
G02*
X145214705Y-85600000I264705J0D01*
G01*
X146785295Y-85600000D01*
G75*
G02*
X147050000Y-85864705I0J-264705D01*
G01*
X147050000Y-87135295D01*
G75*
G02*
X146785295Y-87400000I-264705J0D01*
G01*
G37*
D16*
X146000000Y-84000000D03*
%TD*%
%TO.C,J3*%
G36*
G01*
X134400000Y-126239705D02*
X134400000Y-127760295D01*
G75*
G02*
X134135295Y-128025000I-264705J0D01*
G01*
X132864705Y-128025000D01*
G75*
G02*
X132600000Y-127760295I0J264705D01*
G01*
X132600000Y-126239705D01*
G75*
G02*
X132864705Y-125975000I264705J0D01*
G01*
X134135295Y-125975000D01*
G75*
G02*
X134400000Y-126239705I0J-264705D01*
G01*
G37*
D17*
X131000000Y-127000000D03*
X128500000Y-127000000D03*
%TD*%
M02*
