%TF.GenerationSoftware,KiCad,Pcbnew,(5.1.9)-1*%
%TF.CreationDate,2021-06-08T16:49:58+02:00*%
%TF.ProjectId,19_WIFI_Generic,31395f57-4946-4495-9f47-656e65726963,rev?*%
%TF.SameCoordinates,Original*%
%TF.FileFunction,Other,Fab,Top*%
%FSLAX46Y46*%
G04 Gerber Fmt 4.6, Leading zero omitted, Abs format (unit mm)*
G04 Created by KiCad (PCBNEW (5.1.9)-1) date 2021-06-08 16:49:58*
%MOMM*%
%LPD*%
G01*
G04 APERTURE LIST*
%TA.AperFunction,Profile*%
%ADD10C,0.150000*%
%TD*%
%ADD11C,0.100000*%
%ADD12C,0.150000*%
G04 APERTURE END LIST*
D10*
X175000000Y-80000000D02*
G75*
G02*
X180000000Y-85000000I0J-5000000D01*
G01*
X180000000Y-135000000D02*
G75*
G02*
X175000000Y-140000000I-5000000J0D01*
G01*
X120000000Y-140000000D02*
G75*
G02*
X115000000Y-135000000I0J5000000D01*
G01*
X115000000Y-85000000D02*
G75*
G02*
X120000000Y-80000000I5000000J0D01*
G01*
X115000000Y-135000000D02*
X115000000Y-85000000D01*
X175000000Y-140000000D02*
X120000000Y-140000000D01*
X180000000Y-85000000D02*
X180000000Y-135000000D01*
X120000000Y-80000000D02*
X175000000Y-80000000D01*
D11*
%TO.C,U1*%
X166490000Y-119330000D02*
X166490000Y-96270000D01*
X166490000Y-96270000D02*
X134290000Y-96270000D01*
X132290000Y-98270000D02*
X132290000Y-119870000D01*
X141500000Y-121870000D02*
X159590000Y-121870000D01*
X159590000Y-121870000D02*
X159590000Y-119330000D01*
X159590000Y-119330000D02*
X166490000Y-119330000D01*
X134290000Y-121870000D02*
X139500000Y-121870000D01*
X141500000Y-121870000D02*
X140500000Y-120870000D01*
X140500000Y-120870000D02*
X139500000Y-121870000D01*
X134290000Y-121870000D02*
G75*
G02*
X132290000Y-119870000I0J2000000D01*
G01*
X132290000Y-98250000D02*
G75*
G02*
X134310000Y-96270000I2000000J-20000D01*
G01*
%TO.C,U2*%
X161200000Y-81400000D02*
X150500000Y-81400000D01*
X162200000Y-89000000D02*
X150500000Y-89000000D01*
X150500000Y-81400000D02*
X150500000Y-89000000D01*
X162200000Y-82400000D02*
X162200000Y-89000000D01*
X162200000Y-82400000D02*
X161200000Y-81400000D01*
%TO.C,J1*%
X168650000Y-127500000D02*
X167650000Y-126875000D01*
X167650000Y-128125000D02*
X168650000Y-127500000D01*
X167650000Y-117550000D02*
X167650000Y-129950000D01*
X173400000Y-117550000D02*
X167650000Y-117550000D01*
X173400000Y-129950000D02*
X173400000Y-117550000D01*
X167650000Y-129950000D02*
X173400000Y-129950000D01*
%TO.C,J2*%
X169450000Y-81450000D02*
X163700000Y-81450000D01*
X163700000Y-81450000D02*
X163700000Y-88850000D01*
X163700000Y-88850000D02*
X169450000Y-88850000D01*
X169450000Y-88850000D02*
X169450000Y-81450000D01*
X169450000Y-83275000D02*
X168450000Y-83900000D01*
X168450000Y-83900000D02*
X169450000Y-84525000D01*
%TO.C,J5*%
X158000000Y-128350000D02*
X157375000Y-129350000D01*
X158625000Y-129350000D02*
X158000000Y-128350000D01*
X148050000Y-129350000D02*
X160450000Y-129350000D01*
X148050000Y-123600000D02*
X148050000Y-129350000D01*
X160450000Y-123600000D02*
X148050000Y-123600000D01*
X160450000Y-129350000D02*
X160450000Y-123600000D01*
%TO.C,J6*%
X129350000Y-89150000D02*
X129350000Y-94900000D01*
X129350000Y-94900000D02*
X141750000Y-94900000D01*
X141750000Y-94900000D02*
X141750000Y-89150000D01*
X141750000Y-89150000D02*
X129350000Y-89150000D01*
X131175000Y-89150000D02*
X131800000Y-90150000D01*
X131800000Y-90150000D02*
X132425000Y-89150000D01*
%TO.C,J7*%
X144500000Y-128350000D02*
X143875000Y-129350000D01*
X145125000Y-129350000D02*
X144500000Y-128350000D01*
X137050000Y-129350000D02*
X146950000Y-129350000D01*
X137050000Y-123600000D02*
X137050000Y-129350000D01*
X146950000Y-123600000D02*
X137050000Y-123600000D01*
X146950000Y-129350000D02*
X146950000Y-123600000D01*
%TO.C,J8*%
X172450000Y-92700000D02*
X173450000Y-93325000D01*
X173450000Y-92075000D02*
X172450000Y-92700000D01*
X173450000Y-97650000D02*
X173450000Y-90250000D01*
X167700000Y-97650000D02*
X173450000Y-97650000D01*
X167700000Y-90250000D02*
X167700000Y-97650000D01*
X173450000Y-90250000D02*
X167700000Y-90250000D01*
%TO.C,J9*%
X165000000Y-133650000D02*
X165625000Y-132650000D01*
X164375000Y-132650000D02*
X165000000Y-133650000D01*
X169950000Y-132650000D02*
X162550000Y-132650000D01*
X169950000Y-138400000D02*
X169950000Y-132650000D01*
X162550000Y-138400000D02*
X169950000Y-138400000D01*
X162550000Y-132650000D02*
X162550000Y-138400000D01*
%TO.C,J10*%
X126550000Y-132650000D02*
X126550000Y-138400000D01*
X126550000Y-138400000D02*
X133950000Y-138400000D01*
X133950000Y-138400000D02*
X133950000Y-132650000D01*
X133950000Y-132650000D02*
X126550000Y-132650000D01*
X128375000Y-132650000D02*
X129000000Y-133650000D01*
X129000000Y-133650000D02*
X129625000Y-132650000D01*
%TO.C,J11*%
X138000000Y-133650000D02*
X138625000Y-132650000D01*
X137375000Y-132650000D02*
X138000000Y-133650000D01*
X142950000Y-132650000D02*
X135550000Y-132650000D01*
X142950000Y-138400000D02*
X142950000Y-132650000D01*
X135550000Y-138400000D02*
X142950000Y-138400000D01*
X135550000Y-132650000D02*
X135550000Y-138400000D01*
%TO.C,J12*%
X147000000Y-133650000D02*
X147625000Y-132650000D01*
X146375000Y-132650000D02*
X147000000Y-133650000D01*
X151950000Y-132650000D02*
X144550000Y-132650000D01*
X151950000Y-138400000D02*
X151950000Y-132650000D01*
X144550000Y-138400000D02*
X151950000Y-138400000D01*
X144550000Y-132650000D02*
X144550000Y-138400000D01*
%TO.C,J13*%
X153550000Y-132650000D02*
X153550000Y-138400000D01*
X153550000Y-138400000D02*
X160950000Y-138400000D01*
X160950000Y-138400000D02*
X160950000Y-132650000D01*
X160950000Y-132650000D02*
X153550000Y-132650000D01*
X155375000Y-132650000D02*
X156000000Y-133650000D01*
X156000000Y-133650000D02*
X156625000Y-132650000D01*
%TO.C,J15*%
X144650000Y-86500000D02*
X143650000Y-85875000D01*
X143650000Y-87125000D02*
X144650000Y-86500000D01*
X143650000Y-81550000D02*
X143650000Y-88950000D01*
X149400000Y-81550000D02*
X143650000Y-81550000D01*
X149400000Y-88950000D02*
X149400000Y-81550000D01*
X143650000Y-88950000D02*
X149400000Y-88950000D01*
%TO.C,J3*%
X133500000Y-128350000D02*
X132875000Y-129350000D01*
X134125000Y-129350000D02*
X133500000Y-128350000D01*
X126050000Y-129350000D02*
X135950000Y-129350000D01*
X126050000Y-123600000D02*
X126050000Y-129350000D01*
X135950000Y-123600000D02*
X126050000Y-123600000D01*
X135950000Y-129350000D02*
X135950000Y-123600000D01*
%TD*%
%TO.C,H3*%
D12*
X168428571Y-139652380D02*
X168428571Y-138652380D01*
X168761904Y-139366666D01*
X169095238Y-138652380D01*
X169095238Y-139652380D01*
X169714285Y-139652380D02*
X169619047Y-139604761D01*
X169571428Y-139557142D01*
X169523809Y-139461904D01*
X169523809Y-139176190D01*
X169571428Y-139080952D01*
X169619047Y-139033333D01*
X169714285Y-138985714D01*
X169857142Y-138985714D01*
X169952380Y-139033333D01*
X170000000Y-139080952D01*
X170047619Y-139176190D01*
X170047619Y-139461904D01*
X170000000Y-139557142D01*
X169952380Y-139604761D01*
X169857142Y-139652380D01*
X169714285Y-139652380D01*
X170904761Y-138985714D02*
X170904761Y-139652380D01*
X170476190Y-138985714D02*
X170476190Y-139509523D01*
X170523809Y-139604761D01*
X170619047Y-139652380D01*
X170761904Y-139652380D01*
X170857142Y-139604761D01*
X170904761Y-139557142D01*
X171380952Y-138985714D02*
X171380952Y-139652380D01*
X171380952Y-139080952D02*
X171428571Y-139033333D01*
X171523809Y-138985714D01*
X171666666Y-138985714D01*
X171761904Y-139033333D01*
X171809523Y-139128571D01*
X171809523Y-139652380D01*
X172142857Y-138985714D02*
X172523809Y-138985714D01*
X172285714Y-138652380D02*
X172285714Y-139509523D01*
X172333333Y-139604761D01*
X172428571Y-139652380D01*
X172523809Y-139652380D01*
X172857142Y-139652380D02*
X172857142Y-138985714D01*
X172857142Y-138652380D02*
X172809523Y-138700000D01*
X172857142Y-138747619D01*
X172904761Y-138700000D01*
X172857142Y-138652380D01*
X172857142Y-138747619D01*
X173333333Y-138985714D02*
X173333333Y-139652380D01*
X173333333Y-139080952D02*
X173380952Y-139033333D01*
X173476190Y-138985714D01*
X173619047Y-138985714D01*
X173714285Y-139033333D01*
X173761904Y-139128571D01*
X173761904Y-139652380D01*
X174666666Y-138985714D02*
X174666666Y-139795238D01*
X174619047Y-139890476D01*
X174571428Y-139938095D01*
X174476190Y-139985714D01*
X174333333Y-139985714D01*
X174238095Y-139938095D01*
X174666666Y-139604761D02*
X174571428Y-139652380D01*
X174380952Y-139652380D01*
X174285714Y-139604761D01*
X174238095Y-139557142D01*
X174190476Y-139461904D01*
X174190476Y-139176190D01*
X174238095Y-139080952D01*
X174285714Y-139033333D01*
X174380952Y-138985714D01*
X174571428Y-138985714D01*
X174666666Y-139033333D01*
X175142857Y-139652380D02*
X175142857Y-138652380D01*
X175142857Y-139128571D02*
X175714285Y-139128571D01*
X175714285Y-139652380D02*
X175714285Y-138652380D01*
X176333333Y-139652380D02*
X176238095Y-139604761D01*
X176190476Y-139557142D01*
X176142857Y-139461904D01*
X176142857Y-139176190D01*
X176190476Y-139080952D01*
X176238095Y-139033333D01*
X176333333Y-138985714D01*
X176476190Y-138985714D01*
X176571428Y-139033333D01*
X176619047Y-139080952D01*
X176666666Y-139176190D01*
X176666666Y-139461904D01*
X176619047Y-139557142D01*
X176571428Y-139604761D01*
X176476190Y-139652380D01*
X176333333Y-139652380D01*
X177238095Y-139652380D02*
X177142857Y-139604761D01*
X177095238Y-139509523D01*
X177095238Y-138652380D01*
X178000000Y-139604761D02*
X177904761Y-139652380D01*
X177714285Y-139652380D01*
X177619047Y-139604761D01*
X177571428Y-139509523D01*
X177571428Y-139128571D01*
X177619047Y-139033333D01*
X177714285Y-138985714D01*
X177904761Y-138985714D01*
X178000000Y-139033333D01*
X178047619Y-139128571D01*
X178047619Y-139223809D01*
X177571428Y-139319047D01*
X178238095Y-139747619D02*
X179000000Y-139747619D01*
X179238095Y-139652380D02*
X179238095Y-138652380D01*
X179619047Y-138652380D01*
X179714285Y-138700000D01*
X179761904Y-138747619D01*
X179809523Y-138842857D01*
X179809523Y-138985714D01*
X179761904Y-139080952D01*
X179714285Y-139128571D01*
X179619047Y-139176190D01*
X179238095Y-139176190D01*
X180666666Y-139652380D02*
X180666666Y-139128571D01*
X180619047Y-139033333D01*
X180523809Y-138985714D01*
X180333333Y-138985714D01*
X180238095Y-139033333D01*
X180666666Y-139604761D02*
X180571428Y-139652380D01*
X180333333Y-139652380D01*
X180238095Y-139604761D01*
X180190476Y-139509523D01*
X180190476Y-139414285D01*
X180238095Y-139319047D01*
X180333333Y-139271428D01*
X180571428Y-139271428D01*
X180666666Y-139223809D01*
X181571428Y-139652380D02*
X181571428Y-138652380D01*
X181571428Y-139604761D02*
X181476190Y-139652380D01*
X181285714Y-139652380D01*
X181190476Y-139604761D01*
X181142857Y-139557142D01*
X181095238Y-139461904D01*
X181095238Y-139176190D01*
X181142857Y-139080952D01*
X181190476Y-139033333D01*
X181285714Y-138985714D01*
X181476190Y-138985714D01*
X181571428Y-139033333D01*
X174538095Y-135452380D02*
X174538095Y-134452380D01*
X174538095Y-134928571D02*
X175109523Y-134928571D01*
X175109523Y-135452380D02*
X175109523Y-134452380D01*
X175490476Y-134452380D02*
X176109523Y-134452380D01*
X175776190Y-134833333D01*
X175919047Y-134833333D01*
X176014285Y-134880952D01*
X176061904Y-134928571D01*
X176109523Y-135023809D01*
X176109523Y-135261904D01*
X176061904Y-135357142D01*
X176014285Y-135404761D01*
X175919047Y-135452380D01*
X175633333Y-135452380D01*
X175538095Y-135404761D01*
X175490476Y-135357142D01*
%TO.C,H1*%
X113428571Y-89652380D02*
X113428571Y-88652380D01*
X113761904Y-89366666D01*
X114095238Y-88652380D01*
X114095238Y-89652380D01*
X114714285Y-89652380D02*
X114619047Y-89604761D01*
X114571428Y-89557142D01*
X114523809Y-89461904D01*
X114523809Y-89176190D01*
X114571428Y-89080952D01*
X114619047Y-89033333D01*
X114714285Y-88985714D01*
X114857142Y-88985714D01*
X114952380Y-89033333D01*
X115000000Y-89080952D01*
X115047619Y-89176190D01*
X115047619Y-89461904D01*
X115000000Y-89557142D01*
X114952380Y-89604761D01*
X114857142Y-89652380D01*
X114714285Y-89652380D01*
X115904761Y-88985714D02*
X115904761Y-89652380D01*
X115476190Y-88985714D02*
X115476190Y-89509523D01*
X115523809Y-89604761D01*
X115619047Y-89652380D01*
X115761904Y-89652380D01*
X115857142Y-89604761D01*
X115904761Y-89557142D01*
X116380952Y-88985714D02*
X116380952Y-89652380D01*
X116380952Y-89080952D02*
X116428571Y-89033333D01*
X116523809Y-88985714D01*
X116666666Y-88985714D01*
X116761904Y-89033333D01*
X116809523Y-89128571D01*
X116809523Y-89652380D01*
X117142857Y-88985714D02*
X117523809Y-88985714D01*
X117285714Y-88652380D02*
X117285714Y-89509523D01*
X117333333Y-89604761D01*
X117428571Y-89652380D01*
X117523809Y-89652380D01*
X117857142Y-89652380D02*
X117857142Y-88985714D01*
X117857142Y-88652380D02*
X117809523Y-88700000D01*
X117857142Y-88747619D01*
X117904761Y-88700000D01*
X117857142Y-88652380D01*
X117857142Y-88747619D01*
X118333333Y-88985714D02*
X118333333Y-89652380D01*
X118333333Y-89080952D02*
X118380952Y-89033333D01*
X118476190Y-88985714D01*
X118619047Y-88985714D01*
X118714285Y-89033333D01*
X118761904Y-89128571D01*
X118761904Y-89652380D01*
X119666666Y-88985714D02*
X119666666Y-89795238D01*
X119619047Y-89890476D01*
X119571428Y-89938095D01*
X119476190Y-89985714D01*
X119333333Y-89985714D01*
X119238095Y-89938095D01*
X119666666Y-89604761D02*
X119571428Y-89652380D01*
X119380952Y-89652380D01*
X119285714Y-89604761D01*
X119238095Y-89557142D01*
X119190476Y-89461904D01*
X119190476Y-89176190D01*
X119238095Y-89080952D01*
X119285714Y-89033333D01*
X119380952Y-88985714D01*
X119571428Y-88985714D01*
X119666666Y-89033333D01*
X120142857Y-89652380D02*
X120142857Y-88652380D01*
X120142857Y-89128571D02*
X120714285Y-89128571D01*
X120714285Y-89652380D02*
X120714285Y-88652380D01*
X121333333Y-89652380D02*
X121238095Y-89604761D01*
X121190476Y-89557142D01*
X121142857Y-89461904D01*
X121142857Y-89176190D01*
X121190476Y-89080952D01*
X121238095Y-89033333D01*
X121333333Y-88985714D01*
X121476190Y-88985714D01*
X121571428Y-89033333D01*
X121619047Y-89080952D01*
X121666666Y-89176190D01*
X121666666Y-89461904D01*
X121619047Y-89557142D01*
X121571428Y-89604761D01*
X121476190Y-89652380D01*
X121333333Y-89652380D01*
X122238095Y-89652380D02*
X122142857Y-89604761D01*
X122095238Y-89509523D01*
X122095238Y-88652380D01*
X123000000Y-89604761D02*
X122904761Y-89652380D01*
X122714285Y-89652380D01*
X122619047Y-89604761D01*
X122571428Y-89509523D01*
X122571428Y-89128571D01*
X122619047Y-89033333D01*
X122714285Y-88985714D01*
X122904761Y-88985714D01*
X123000000Y-89033333D01*
X123047619Y-89128571D01*
X123047619Y-89223809D01*
X122571428Y-89319047D01*
X123238095Y-89747619D02*
X124000000Y-89747619D01*
X124238095Y-89652380D02*
X124238095Y-88652380D01*
X124619047Y-88652380D01*
X124714285Y-88700000D01*
X124761904Y-88747619D01*
X124809523Y-88842857D01*
X124809523Y-88985714D01*
X124761904Y-89080952D01*
X124714285Y-89128571D01*
X124619047Y-89176190D01*
X124238095Y-89176190D01*
X125666666Y-89652380D02*
X125666666Y-89128571D01*
X125619047Y-89033333D01*
X125523809Y-88985714D01*
X125333333Y-88985714D01*
X125238095Y-89033333D01*
X125666666Y-89604761D02*
X125571428Y-89652380D01*
X125333333Y-89652380D01*
X125238095Y-89604761D01*
X125190476Y-89509523D01*
X125190476Y-89414285D01*
X125238095Y-89319047D01*
X125333333Y-89271428D01*
X125571428Y-89271428D01*
X125666666Y-89223809D01*
X126571428Y-89652380D02*
X126571428Y-88652380D01*
X126571428Y-89604761D02*
X126476190Y-89652380D01*
X126285714Y-89652380D01*
X126190476Y-89604761D01*
X126142857Y-89557142D01*
X126095238Y-89461904D01*
X126095238Y-89176190D01*
X126142857Y-89080952D01*
X126190476Y-89033333D01*
X126285714Y-88985714D01*
X126476190Y-88985714D01*
X126571428Y-89033333D01*
X119538095Y-85452380D02*
X119538095Y-84452380D01*
X119538095Y-84928571D02*
X120109523Y-84928571D01*
X120109523Y-85452380D02*
X120109523Y-84452380D01*
X121109523Y-85452380D02*
X120538095Y-85452380D01*
X120823809Y-85452380D02*
X120823809Y-84452380D01*
X120728571Y-84595238D01*
X120633333Y-84690476D01*
X120538095Y-84738095D01*
%TO.C,H2*%
X168428571Y-89652380D02*
X168428571Y-88652380D01*
X168761904Y-89366666D01*
X169095238Y-88652380D01*
X169095238Y-89652380D01*
X169714285Y-89652380D02*
X169619047Y-89604761D01*
X169571428Y-89557142D01*
X169523809Y-89461904D01*
X169523809Y-89176190D01*
X169571428Y-89080952D01*
X169619047Y-89033333D01*
X169714285Y-88985714D01*
X169857142Y-88985714D01*
X169952380Y-89033333D01*
X170000000Y-89080952D01*
X170047619Y-89176190D01*
X170047619Y-89461904D01*
X170000000Y-89557142D01*
X169952380Y-89604761D01*
X169857142Y-89652380D01*
X169714285Y-89652380D01*
X170904761Y-88985714D02*
X170904761Y-89652380D01*
X170476190Y-88985714D02*
X170476190Y-89509523D01*
X170523809Y-89604761D01*
X170619047Y-89652380D01*
X170761904Y-89652380D01*
X170857142Y-89604761D01*
X170904761Y-89557142D01*
X171380952Y-88985714D02*
X171380952Y-89652380D01*
X171380952Y-89080952D02*
X171428571Y-89033333D01*
X171523809Y-88985714D01*
X171666666Y-88985714D01*
X171761904Y-89033333D01*
X171809523Y-89128571D01*
X171809523Y-89652380D01*
X172142857Y-88985714D02*
X172523809Y-88985714D01*
X172285714Y-88652380D02*
X172285714Y-89509523D01*
X172333333Y-89604761D01*
X172428571Y-89652380D01*
X172523809Y-89652380D01*
X172857142Y-89652380D02*
X172857142Y-88985714D01*
X172857142Y-88652380D02*
X172809523Y-88700000D01*
X172857142Y-88747619D01*
X172904761Y-88700000D01*
X172857142Y-88652380D01*
X172857142Y-88747619D01*
X173333333Y-88985714D02*
X173333333Y-89652380D01*
X173333333Y-89080952D02*
X173380952Y-89033333D01*
X173476190Y-88985714D01*
X173619047Y-88985714D01*
X173714285Y-89033333D01*
X173761904Y-89128571D01*
X173761904Y-89652380D01*
X174666666Y-88985714D02*
X174666666Y-89795238D01*
X174619047Y-89890476D01*
X174571428Y-89938095D01*
X174476190Y-89985714D01*
X174333333Y-89985714D01*
X174238095Y-89938095D01*
X174666666Y-89604761D02*
X174571428Y-89652380D01*
X174380952Y-89652380D01*
X174285714Y-89604761D01*
X174238095Y-89557142D01*
X174190476Y-89461904D01*
X174190476Y-89176190D01*
X174238095Y-89080952D01*
X174285714Y-89033333D01*
X174380952Y-88985714D01*
X174571428Y-88985714D01*
X174666666Y-89033333D01*
X175142857Y-89652380D02*
X175142857Y-88652380D01*
X175142857Y-89128571D02*
X175714285Y-89128571D01*
X175714285Y-89652380D02*
X175714285Y-88652380D01*
X176333333Y-89652380D02*
X176238095Y-89604761D01*
X176190476Y-89557142D01*
X176142857Y-89461904D01*
X176142857Y-89176190D01*
X176190476Y-89080952D01*
X176238095Y-89033333D01*
X176333333Y-88985714D01*
X176476190Y-88985714D01*
X176571428Y-89033333D01*
X176619047Y-89080952D01*
X176666666Y-89176190D01*
X176666666Y-89461904D01*
X176619047Y-89557142D01*
X176571428Y-89604761D01*
X176476190Y-89652380D01*
X176333333Y-89652380D01*
X177238095Y-89652380D02*
X177142857Y-89604761D01*
X177095238Y-89509523D01*
X177095238Y-88652380D01*
X178000000Y-89604761D02*
X177904761Y-89652380D01*
X177714285Y-89652380D01*
X177619047Y-89604761D01*
X177571428Y-89509523D01*
X177571428Y-89128571D01*
X177619047Y-89033333D01*
X177714285Y-88985714D01*
X177904761Y-88985714D01*
X178000000Y-89033333D01*
X178047619Y-89128571D01*
X178047619Y-89223809D01*
X177571428Y-89319047D01*
X178238095Y-89747619D02*
X179000000Y-89747619D01*
X179238095Y-89652380D02*
X179238095Y-88652380D01*
X179619047Y-88652380D01*
X179714285Y-88700000D01*
X179761904Y-88747619D01*
X179809523Y-88842857D01*
X179809523Y-88985714D01*
X179761904Y-89080952D01*
X179714285Y-89128571D01*
X179619047Y-89176190D01*
X179238095Y-89176190D01*
X180666666Y-89652380D02*
X180666666Y-89128571D01*
X180619047Y-89033333D01*
X180523809Y-88985714D01*
X180333333Y-88985714D01*
X180238095Y-89033333D01*
X180666666Y-89604761D02*
X180571428Y-89652380D01*
X180333333Y-89652380D01*
X180238095Y-89604761D01*
X180190476Y-89509523D01*
X180190476Y-89414285D01*
X180238095Y-89319047D01*
X180333333Y-89271428D01*
X180571428Y-89271428D01*
X180666666Y-89223809D01*
X181571428Y-89652380D02*
X181571428Y-88652380D01*
X181571428Y-89604761D02*
X181476190Y-89652380D01*
X181285714Y-89652380D01*
X181190476Y-89604761D01*
X181142857Y-89557142D01*
X181095238Y-89461904D01*
X181095238Y-89176190D01*
X181142857Y-89080952D01*
X181190476Y-89033333D01*
X181285714Y-88985714D01*
X181476190Y-88985714D01*
X181571428Y-89033333D01*
X174538095Y-85452380D02*
X174538095Y-84452380D01*
X174538095Y-84928571D02*
X175109523Y-84928571D01*
X175109523Y-85452380D02*
X175109523Y-84452380D01*
X175538095Y-84547619D02*
X175585714Y-84500000D01*
X175680952Y-84452380D01*
X175919047Y-84452380D01*
X176014285Y-84500000D01*
X176061904Y-84547619D01*
X176109523Y-84642857D01*
X176109523Y-84738095D01*
X176061904Y-84880952D01*
X175490476Y-85452380D01*
X176109523Y-85452380D01*
%TO.C,H4*%
X113428571Y-139652380D02*
X113428571Y-138652380D01*
X113761904Y-139366666D01*
X114095238Y-138652380D01*
X114095238Y-139652380D01*
X114714285Y-139652380D02*
X114619047Y-139604761D01*
X114571428Y-139557142D01*
X114523809Y-139461904D01*
X114523809Y-139176190D01*
X114571428Y-139080952D01*
X114619047Y-139033333D01*
X114714285Y-138985714D01*
X114857142Y-138985714D01*
X114952380Y-139033333D01*
X115000000Y-139080952D01*
X115047619Y-139176190D01*
X115047619Y-139461904D01*
X115000000Y-139557142D01*
X114952380Y-139604761D01*
X114857142Y-139652380D01*
X114714285Y-139652380D01*
X115904761Y-138985714D02*
X115904761Y-139652380D01*
X115476190Y-138985714D02*
X115476190Y-139509523D01*
X115523809Y-139604761D01*
X115619047Y-139652380D01*
X115761904Y-139652380D01*
X115857142Y-139604761D01*
X115904761Y-139557142D01*
X116380952Y-138985714D02*
X116380952Y-139652380D01*
X116380952Y-139080952D02*
X116428571Y-139033333D01*
X116523809Y-138985714D01*
X116666666Y-138985714D01*
X116761904Y-139033333D01*
X116809523Y-139128571D01*
X116809523Y-139652380D01*
X117142857Y-138985714D02*
X117523809Y-138985714D01*
X117285714Y-138652380D02*
X117285714Y-139509523D01*
X117333333Y-139604761D01*
X117428571Y-139652380D01*
X117523809Y-139652380D01*
X117857142Y-139652380D02*
X117857142Y-138985714D01*
X117857142Y-138652380D02*
X117809523Y-138700000D01*
X117857142Y-138747619D01*
X117904761Y-138700000D01*
X117857142Y-138652380D01*
X117857142Y-138747619D01*
X118333333Y-138985714D02*
X118333333Y-139652380D01*
X118333333Y-139080952D02*
X118380952Y-139033333D01*
X118476190Y-138985714D01*
X118619047Y-138985714D01*
X118714285Y-139033333D01*
X118761904Y-139128571D01*
X118761904Y-139652380D01*
X119666666Y-138985714D02*
X119666666Y-139795238D01*
X119619047Y-139890476D01*
X119571428Y-139938095D01*
X119476190Y-139985714D01*
X119333333Y-139985714D01*
X119238095Y-139938095D01*
X119666666Y-139604761D02*
X119571428Y-139652380D01*
X119380952Y-139652380D01*
X119285714Y-139604761D01*
X119238095Y-139557142D01*
X119190476Y-139461904D01*
X119190476Y-139176190D01*
X119238095Y-139080952D01*
X119285714Y-139033333D01*
X119380952Y-138985714D01*
X119571428Y-138985714D01*
X119666666Y-139033333D01*
X120142857Y-139652380D02*
X120142857Y-138652380D01*
X120142857Y-139128571D02*
X120714285Y-139128571D01*
X120714285Y-139652380D02*
X120714285Y-138652380D01*
X121333333Y-139652380D02*
X121238095Y-139604761D01*
X121190476Y-139557142D01*
X121142857Y-139461904D01*
X121142857Y-139176190D01*
X121190476Y-139080952D01*
X121238095Y-139033333D01*
X121333333Y-138985714D01*
X121476190Y-138985714D01*
X121571428Y-139033333D01*
X121619047Y-139080952D01*
X121666666Y-139176190D01*
X121666666Y-139461904D01*
X121619047Y-139557142D01*
X121571428Y-139604761D01*
X121476190Y-139652380D01*
X121333333Y-139652380D01*
X122238095Y-139652380D02*
X122142857Y-139604761D01*
X122095238Y-139509523D01*
X122095238Y-138652380D01*
X123000000Y-139604761D02*
X122904761Y-139652380D01*
X122714285Y-139652380D01*
X122619047Y-139604761D01*
X122571428Y-139509523D01*
X122571428Y-139128571D01*
X122619047Y-139033333D01*
X122714285Y-138985714D01*
X122904761Y-138985714D01*
X123000000Y-139033333D01*
X123047619Y-139128571D01*
X123047619Y-139223809D01*
X122571428Y-139319047D01*
X123238095Y-139747619D02*
X124000000Y-139747619D01*
X124238095Y-139652380D02*
X124238095Y-138652380D01*
X124619047Y-138652380D01*
X124714285Y-138700000D01*
X124761904Y-138747619D01*
X124809523Y-138842857D01*
X124809523Y-138985714D01*
X124761904Y-139080952D01*
X124714285Y-139128571D01*
X124619047Y-139176190D01*
X124238095Y-139176190D01*
X125666666Y-139652380D02*
X125666666Y-139128571D01*
X125619047Y-139033333D01*
X125523809Y-138985714D01*
X125333333Y-138985714D01*
X125238095Y-139033333D01*
X125666666Y-139604761D02*
X125571428Y-139652380D01*
X125333333Y-139652380D01*
X125238095Y-139604761D01*
X125190476Y-139509523D01*
X125190476Y-139414285D01*
X125238095Y-139319047D01*
X125333333Y-139271428D01*
X125571428Y-139271428D01*
X125666666Y-139223809D01*
X126571428Y-139652380D02*
X126571428Y-138652380D01*
X126571428Y-139604761D02*
X126476190Y-139652380D01*
X126285714Y-139652380D01*
X126190476Y-139604761D01*
X126142857Y-139557142D01*
X126095238Y-139461904D01*
X126095238Y-139176190D01*
X126142857Y-139080952D01*
X126190476Y-139033333D01*
X126285714Y-138985714D01*
X126476190Y-138985714D01*
X126571428Y-139033333D01*
X119538095Y-135452380D02*
X119538095Y-134452380D01*
X119538095Y-134928571D02*
X120109523Y-134928571D01*
X120109523Y-135452380D02*
X120109523Y-134452380D01*
X121014285Y-134785714D02*
X121014285Y-135452380D01*
X120776190Y-134404761D02*
X120538095Y-135119047D01*
X121157142Y-135119047D01*
%TO.C,U1*%
X139952380Y-114419047D02*
X140952380Y-114180952D01*
X140238095Y-113990476D01*
X140952380Y-113800000D01*
X139952380Y-113561904D01*
X140904761Y-112800000D02*
X140952380Y-112895238D01*
X140952380Y-113085714D01*
X140904761Y-113180952D01*
X140809523Y-113228571D01*
X140428571Y-113228571D01*
X140333333Y-113180952D01*
X140285714Y-113085714D01*
X140285714Y-112895238D01*
X140333333Y-112800000D01*
X140428571Y-112752380D01*
X140523809Y-112752380D01*
X140619047Y-113228571D01*
X140952380Y-112323809D02*
X139952380Y-112323809D01*
X140666666Y-111990476D01*
X139952380Y-111657142D01*
X140952380Y-111657142D01*
X140952380Y-111038095D02*
X140904761Y-111133333D01*
X140857142Y-111180952D01*
X140761904Y-111228571D01*
X140476190Y-111228571D01*
X140380952Y-111180952D01*
X140333333Y-111133333D01*
X140285714Y-111038095D01*
X140285714Y-110895238D01*
X140333333Y-110800000D01*
X140380952Y-110752380D01*
X140476190Y-110704761D01*
X140761904Y-110704761D01*
X140857142Y-110752380D01*
X140904761Y-110800000D01*
X140952380Y-110895238D01*
X140952380Y-111038095D01*
X140904761Y-110323809D02*
X140952380Y-110228571D01*
X140952380Y-110038095D01*
X140904761Y-109942857D01*
X140809523Y-109895238D01*
X140761904Y-109895238D01*
X140666666Y-109942857D01*
X140619047Y-110038095D01*
X140619047Y-110180952D01*
X140571428Y-110276190D01*
X140476190Y-110323809D01*
X140428571Y-110323809D01*
X140333333Y-110276190D01*
X140285714Y-110180952D01*
X140285714Y-110038095D01*
X140333333Y-109942857D01*
X141047619Y-109704761D02*
X141047619Y-108942857D01*
X140952380Y-108704761D02*
X139952380Y-108704761D01*
X139952380Y-108466666D01*
X140000000Y-108323809D01*
X140095238Y-108228571D01*
X140190476Y-108180952D01*
X140380952Y-108133333D01*
X140523809Y-108133333D01*
X140714285Y-108180952D01*
X140809523Y-108228571D01*
X140904761Y-108323809D01*
X140952380Y-108466666D01*
X140952380Y-108704761D01*
X140952380Y-107180952D02*
X140952380Y-107752380D01*
X140952380Y-107466666D02*
X139952380Y-107466666D01*
X140095238Y-107561904D01*
X140190476Y-107657142D01*
X140238095Y-107752380D01*
X141047619Y-106990476D02*
X141047619Y-106228571D01*
X140952380Y-105990476D02*
X140285714Y-105990476D01*
X140380952Y-105990476D02*
X140333333Y-105942857D01*
X140285714Y-105847619D01*
X140285714Y-105704761D01*
X140333333Y-105609523D01*
X140428571Y-105561904D01*
X140952380Y-105561904D01*
X140428571Y-105561904D02*
X140333333Y-105514285D01*
X140285714Y-105419047D01*
X140285714Y-105276190D01*
X140333333Y-105180952D01*
X140428571Y-105133333D01*
X140952380Y-105133333D01*
X140952380Y-104657142D02*
X140285714Y-104657142D01*
X139952380Y-104657142D02*
X140000000Y-104704761D01*
X140047619Y-104657142D01*
X140000000Y-104609523D01*
X139952380Y-104657142D01*
X140047619Y-104657142D01*
X140285714Y-104180952D02*
X140952380Y-104180952D01*
X140380952Y-104180952D02*
X140333333Y-104133333D01*
X140285714Y-104038095D01*
X140285714Y-103895238D01*
X140333333Y-103800000D01*
X140428571Y-103752380D01*
X140952380Y-103752380D01*
X140952380Y-103276190D02*
X140285714Y-103276190D01*
X139952380Y-103276190D02*
X140000000Y-103323809D01*
X140047619Y-103276190D01*
X140000000Y-103228571D01*
X139952380Y-103276190D01*
X140047619Y-103276190D01*
X149952380Y-109831904D02*
X150761904Y-109831904D01*
X150857142Y-109784285D01*
X150904761Y-109736666D01*
X150952380Y-109641428D01*
X150952380Y-109450952D01*
X150904761Y-109355714D01*
X150857142Y-109308095D01*
X150761904Y-109260476D01*
X149952380Y-109260476D01*
X150952380Y-108260476D02*
X150952380Y-108831904D01*
X150952380Y-108546190D02*
X149952380Y-108546190D01*
X150095238Y-108641428D01*
X150190476Y-108736666D01*
X150238095Y-108831904D01*
%TO.C,U2*%
X151757142Y-79602380D02*
X152328571Y-79602380D01*
X152042857Y-80602380D02*
X152042857Y-79602380D01*
X152614285Y-80554761D02*
X152757142Y-80602380D01*
X152995238Y-80602380D01*
X153090476Y-80554761D01*
X153138095Y-80507142D01*
X153185714Y-80411904D01*
X153185714Y-80316666D01*
X153138095Y-80221428D01*
X153090476Y-80173809D01*
X152995238Y-80126190D01*
X152804761Y-80078571D01*
X152709523Y-80030952D01*
X152661904Y-79983333D01*
X152614285Y-79888095D01*
X152614285Y-79792857D01*
X152661904Y-79697619D01*
X152709523Y-79650000D01*
X152804761Y-79602380D01*
X153042857Y-79602380D01*
X153185714Y-79650000D01*
X154185714Y-80602380D02*
X153852380Y-80126190D01*
X153614285Y-80602380D02*
X153614285Y-79602380D01*
X153995238Y-79602380D01*
X154090476Y-79650000D01*
X154138095Y-79697619D01*
X154185714Y-79792857D01*
X154185714Y-79935714D01*
X154138095Y-80030952D01*
X154090476Y-80078571D01*
X153995238Y-80126190D01*
X153614285Y-80126190D01*
X154376190Y-80697619D02*
X155138095Y-80697619D01*
X155900000Y-80602380D02*
X155328571Y-80602380D01*
X155614285Y-80602380D02*
X155614285Y-79602380D01*
X155519047Y-79745238D01*
X155423809Y-79840476D01*
X155328571Y-79888095D01*
X156328571Y-80221428D02*
X157090476Y-80221428D01*
X157519047Y-79697619D02*
X157566666Y-79650000D01*
X157661904Y-79602380D01*
X157900000Y-79602380D01*
X157995238Y-79650000D01*
X158042857Y-79697619D01*
X158090476Y-79792857D01*
X158090476Y-79888095D01*
X158042857Y-80030952D01*
X157471428Y-80602380D01*
X158090476Y-80602380D01*
X158947619Y-79935714D02*
X158947619Y-80602380D01*
X158709523Y-79554761D02*
X158471428Y-80269047D01*
X159090476Y-80269047D01*
X159947619Y-79602380D02*
X159471428Y-79602380D01*
X159423809Y-80078571D01*
X159471428Y-80030952D01*
X159566666Y-79983333D01*
X159804761Y-79983333D01*
X159900000Y-80030952D01*
X159947619Y-80078571D01*
X159995238Y-80173809D01*
X159995238Y-80411904D01*
X159947619Y-80507142D01*
X159900000Y-80554761D01*
X159804761Y-80602380D01*
X159566666Y-80602380D01*
X159471428Y-80554761D01*
X159423809Y-80507142D01*
X160614285Y-79602380D02*
X160709523Y-79602380D01*
X160804761Y-79650000D01*
X160852380Y-79697619D01*
X160900000Y-79792857D01*
X160947619Y-79983333D01*
X160947619Y-80221428D01*
X160900000Y-80411904D01*
X160852380Y-80507142D01*
X160804761Y-80554761D01*
X160709523Y-80602380D01*
X160614285Y-80602380D01*
X160519047Y-80554761D01*
X160471428Y-80507142D01*
X160423809Y-80411904D01*
X160376190Y-80221428D01*
X160376190Y-79983333D01*
X160423809Y-79792857D01*
X160471428Y-79697619D01*
X160519047Y-79650000D01*
X160614285Y-79602380D01*
X155138095Y-85852380D02*
X155138095Y-86661904D01*
X155185714Y-86757142D01*
X155233333Y-86804761D01*
X155328571Y-86852380D01*
X155519047Y-86852380D01*
X155614285Y-86804761D01*
X155661904Y-86757142D01*
X155709523Y-86661904D01*
X155709523Y-85852380D01*
X156138095Y-85947619D02*
X156185714Y-85900000D01*
X156280952Y-85852380D01*
X156519047Y-85852380D01*
X156614285Y-85900000D01*
X156661904Y-85947619D01*
X156709523Y-86042857D01*
X156709523Y-86138095D01*
X156661904Y-86280952D01*
X156090476Y-86852380D01*
X156709523Y-86852380D01*
%TO.C,J1*%
X174957142Y-127488095D02*
X175004761Y-127535714D01*
X175052380Y-127678571D01*
X175052380Y-127773809D01*
X175004761Y-127916666D01*
X174909523Y-128011904D01*
X174814285Y-128059523D01*
X174623809Y-128107142D01*
X174480952Y-128107142D01*
X174290476Y-128059523D01*
X174195238Y-128011904D01*
X174100000Y-127916666D01*
X174052380Y-127773809D01*
X174052380Y-127678571D01*
X174100000Y-127535714D01*
X174147619Y-127488095D01*
X175052380Y-126916666D02*
X175004761Y-127011904D01*
X174957142Y-127059523D01*
X174861904Y-127107142D01*
X174576190Y-127107142D01*
X174480952Y-127059523D01*
X174433333Y-127011904D01*
X174385714Y-126916666D01*
X174385714Y-126773809D01*
X174433333Y-126678571D01*
X174480952Y-126630952D01*
X174576190Y-126583333D01*
X174861904Y-126583333D01*
X174957142Y-126630952D01*
X175004761Y-126678571D01*
X175052380Y-126773809D01*
X175052380Y-126916666D01*
X174385714Y-126154761D02*
X175052380Y-126154761D01*
X174480952Y-126154761D02*
X174433333Y-126107142D01*
X174385714Y-126011904D01*
X174385714Y-125869047D01*
X174433333Y-125773809D01*
X174528571Y-125726190D01*
X175052380Y-125726190D01*
X174385714Y-125250000D02*
X175052380Y-125250000D01*
X174480952Y-125250000D02*
X174433333Y-125202380D01*
X174385714Y-125107142D01*
X174385714Y-124964285D01*
X174433333Y-124869047D01*
X174528571Y-124821428D01*
X175052380Y-124821428D01*
X175147619Y-124583333D02*
X175147619Y-123821428D01*
X174052380Y-123392857D02*
X174052380Y-123297619D01*
X174100000Y-123202380D01*
X174147619Y-123154761D01*
X174242857Y-123107142D01*
X174433333Y-123059523D01*
X174671428Y-123059523D01*
X174861904Y-123107142D01*
X174957142Y-123154761D01*
X175004761Y-123202380D01*
X175052380Y-123297619D01*
X175052380Y-123392857D01*
X175004761Y-123488095D01*
X174957142Y-123535714D01*
X174861904Y-123583333D01*
X174671428Y-123630952D01*
X174433333Y-123630952D01*
X174242857Y-123583333D01*
X174147619Y-123535714D01*
X174100000Y-123488095D01*
X174052380Y-123392857D01*
X175052380Y-122107142D02*
X175052380Y-122678571D01*
X175052380Y-122392857D02*
X174052380Y-122392857D01*
X174195238Y-122488095D01*
X174290476Y-122583333D01*
X174338095Y-122678571D01*
X175052380Y-121773809D02*
X174385714Y-121250000D01*
X174385714Y-121773809D02*
X175052380Y-121250000D01*
X174052380Y-120678571D02*
X174052380Y-120583333D01*
X174100000Y-120488095D01*
X174147619Y-120440476D01*
X174242857Y-120392857D01*
X174433333Y-120345238D01*
X174671428Y-120345238D01*
X174861904Y-120392857D01*
X174957142Y-120440476D01*
X175004761Y-120488095D01*
X175052380Y-120583333D01*
X175052380Y-120678571D01*
X175004761Y-120773809D01*
X174957142Y-120821428D01*
X174861904Y-120869047D01*
X174671428Y-120916666D01*
X174433333Y-120916666D01*
X174242857Y-120869047D01*
X174147619Y-120821428D01*
X174100000Y-120773809D01*
X174052380Y-120678571D01*
X174385714Y-119488095D02*
X175052380Y-119488095D01*
X174004761Y-119726190D02*
X174719047Y-119964285D01*
X174719047Y-119345238D01*
X172152380Y-124083333D02*
X172866666Y-124083333D01*
X173009523Y-124130952D01*
X173104761Y-124226190D01*
X173152380Y-124369047D01*
X173152380Y-124464285D01*
X173152380Y-123083333D02*
X173152380Y-123654761D01*
X173152380Y-123369047D02*
X172152380Y-123369047D01*
X172295238Y-123464285D01*
X172390476Y-123559523D01*
X172438095Y-123654761D01*
%TO.C,J2*%
X162857142Y-88888095D02*
X162904761Y-88935714D01*
X162952380Y-89078571D01*
X162952380Y-89173809D01*
X162904761Y-89316666D01*
X162809523Y-89411904D01*
X162714285Y-89459523D01*
X162523809Y-89507142D01*
X162380952Y-89507142D01*
X162190476Y-89459523D01*
X162095238Y-89411904D01*
X162000000Y-89316666D01*
X161952380Y-89173809D01*
X161952380Y-89078571D01*
X162000000Y-88935714D01*
X162047619Y-88888095D01*
X162952380Y-88316666D02*
X162904761Y-88411904D01*
X162857142Y-88459523D01*
X162761904Y-88507142D01*
X162476190Y-88507142D01*
X162380952Y-88459523D01*
X162333333Y-88411904D01*
X162285714Y-88316666D01*
X162285714Y-88173809D01*
X162333333Y-88078571D01*
X162380952Y-88030952D01*
X162476190Y-87983333D01*
X162761904Y-87983333D01*
X162857142Y-88030952D01*
X162904761Y-88078571D01*
X162952380Y-88173809D01*
X162952380Y-88316666D01*
X162285714Y-87554761D02*
X162952380Y-87554761D01*
X162380952Y-87554761D02*
X162333333Y-87507142D01*
X162285714Y-87411904D01*
X162285714Y-87269047D01*
X162333333Y-87173809D01*
X162428571Y-87126190D01*
X162952380Y-87126190D01*
X162285714Y-86650000D02*
X162952380Y-86650000D01*
X162380952Y-86650000D02*
X162333333Y-86602380D01*
X162285714Y-86507142D01*
X162285714Y-86364285D01*
X162333333Y-86269047D01*
X162428571Y-86221428D01*
X162952380Y-86221428D01*
X163047619Y-85983333D02*
X163047619Y-85221428D01*
X161952380Y-84792857D02*
X161952380Y-84697619D01*
X162000000Y-84602380D01*
X162047619Y-84554761D01*
X162142857Y-84507142D01*
X162333333Y-84459523D01*
X162571428Y-84459523D01*
X162761904Y-84507142D01*
X162857142Y-84554761D01*
X162904761Y-84602380D01*
X162952380Y-84697619D01*
X162952380Y-84792857D01*
X162904761Y-84888095D01*
X162857142Y-84935714D01*
X162761904Y-84983333D01*
X162571428Y-85030952D01*
X162333333Y-85030952D01*
X162142857Y-84983333D01*
X162047619Y-84935714D01*
X162000000Y-84888095D01*
X161952380Y-84792857D01*
X162952380Y-83507142D02*
X162952380Y-84078571D01*
X162952380Y-83792857D02*
X161952380Y-83792857D01*
X162095238Y-83888095D01*
X162190476Y-83983333D01*
X162238095Y-84078571D01*
X162952380Y-83173809D02*
X162285714Y-82650000D01*
X162285714Y-83173809D02*
X162952380Y-82650000D01*
X161952380Y-82078571D02*
X161952380Y-81983333D01*
X162000000Y-81888095D01*
X162047619Y-81840476D01*
X162142857Y-81792857D01*
X162333333Y-81745238D01*
X162571428Y-81745238D01*
X162761904Y-81792857D01*
X162857142Y-81840476D01*
X162904761Y-81888095D01*
X162952380Y-81983333D01*
X162952380Y-82078571D01*
X162904761Y-82173809D01*
X162857142Y-82221428D01*
X162761904Y-82269047D01*
X162571428Y-82316666D01*
X162333333Y-82316666D01*
X162142857Y-82269047D01*
X162047619Y-82221428D01*
X162000000Y-82173809D01*
X161952380Y-82078571D01*
X162047619Y-81364285D02*
X162000000Y-81316666D01*
X161952380Y-81221428D01*
X161952380Y-80983333D01*
X162000000Y-80888095D01*
X162047619Y-80840476D01*
X162142857Y-80792857D01*
X162238095Y-80792857D01*
X162380952Y-80840476D01*
X162952380Y-81411904D01*
X162952380Y-80792857D01*
X163852380Y-85483333D02*
X164566666Y-85483333D01*
X164709523Y-85530952D01*
X164804761Y-85626190D01*
X164852380Y-85769047D01*
X164852380Y-85864285D01*
X163947619Y-85054761D02*
X163900000Y-85007142D01*
X163852380Y-84911904D01*
X163852380Y-84673809D01*
X163900000Y-84578571D01*
X163947619Y-84530952D01*
X164042857Y-84483333D01*
X164138095Y-84483333D01*
X164280952Y-84530952D01*
X164852380Y-85102380D01*
X164852380Y-84483333D01*
%TO.C,J5*%
X150511904Y-122757142D02*
X150464285Y-122804761D01*
X150321428Y-122852380D01*
X150226190Y-122852380D01*
X150083333Y-122804761D01*
X149988095Y-122709523D01*
X149940476Y-122614285D01*
X149892857Y-122423809D01*
X149892857Y-122280952D01*
X149940476Y-122090476D01*
X149988095Y-121995238D01*
X150083333Y-121900000D01*
X150226190Y-121852380D01*
X150321428Y-121852380D01*
X150464285Y-121900000D01*
X150511904Y-121947619D01*
X151083333Y-122852380D02*
X150988095Y-122804761D01*
X150940476Y-122757142D01*
X150892857Y-122661904D01*
X150892857Y-122376190D01*
X150940476Y-122280952D01*
X150988095Y-122233333D01*
X151083333Y-122185714D01*
X151226190Y-122185714D01*
X151321428Y-122233333D01*
X151369047Y-122280952D01*
X151416666Y-122376190D01*
X151416666Y-122661904D01*
X151369047Y-122757142D01*
X151321428Y-122804761D01*
X151226190Y-122852380D01*
X151083333Y-122852380D01*
X151845238Y-122185714D02*
X151845238Y-122852380D01*
X151845238Y-122280952D02*
X151892857Y-122233333D01*
X151988095Y-122185714D01*
X152130952Y-122185714D01*
X152226190Y-122233333D01*
X152273809Y-122328571D01*
X152273809Y-122852380D01*
X152750000Y-122185714D02*
X152750000Y-122852380D01*
X152750000Y-122280952D02*
X152797619Y-122233333D01*
X152892857Y-122185714D01*
X153035714Y-122185714D01*
X153130952Y-122233333D01*
X153178571Y-122328571D01*
X153178571Y-122852380D01*
X153416666Y-122947619D02*
X154178571Y-122947619D01*
X154607142Y-121852380D02*
X154702380Y-121852380D01*
X154797619Y-121900000D01*
X154845238Y-121947619D01*
X154892857Y-122042857D01*
X154940476Y-122233333D01*
X154940476Y-122471428D01*
X154892857Y-122661904D01*
X154845238Y-122757142D01*
X154797619Y-122804761D01*
X154702380Y-122852380D01*
X154607142Y-122852380D01*
X154511904Y-122804761D01*
X154464285Y-122757142D01*
X154416666Y-122661904D01*
X154369047Y-122471428D01*
X154369047Y-122233333D01*
X154416666Y-122042857D01*
X154464285Y-121947619D01*
X154511904Y-121900000D01*
X154607142Y-121852380D01*
X155892857Y-122852380D02*
X155321428Y-122852380D01*
X155607142Y-122852380D02*
X155607142Y-121852380D01*
X155511904Y-121995238D01*
X155416666Y-122090476D01*
X155321428Y-122138095D01*
X156226190Y-122852380D02*
X156750000Y-122185714D01*
X156226190Y-122185714D02*
X156750000Y-122852380D01*
X157321428Y-121852380D02*
X157416666Y-121852380D01*
X157511904Y-121900000D01*
X157559523Y-121947619D01*
X157607142Y-122042857D01*
X157654761Y-122233333D01*
X157654761Y-122471428D01*
X157607142Y-122661904D01*
X157559523Y-122757142D01*
X157511904Y-122804761D01*
X157416666Y-122852380D01*
X157321428Y-122852380D01*
X157226190Y-122804761D01*
X157178571Y-122757142D01*
X157130952Y-122661904D01*
X157083333Y-122471428D01*
X157083333Y-122233333D01*
X157130952Y-122042857D01*
X157178571Y-121947619D01*
X157226190Y-121900000D01*
X157321428Y-121852380D01*
X158511904Y-122185714D02*
X158511904Y-122852380D01*
X158273809Y-121804761D02*
X158035714Y-122519047D01*
X158654761Y-122519047D01*
X153916666Y-123752380D02*
X153916666Y-124466666D01*
X153869047Y-124609523D01*
X153773809Y-124704761D01*
X153630952Y-124752380D01*
X153535714Y-124752380D01*
X154869047Y-123752380D02*
X154392857Y-123752380D01*
X154345238Y-124228571D01*
X154392857Y-124180952D01*
X154488095Y-124133333D01*
X154726190Y-124133333D01*
X154821428Y-124180952D01*
X154869047Y-124228571D01*
X154916666Y-124323809D01*
X154916666Y-124561904D01*
X154869047Y-124657142D01*
X154821428Y-124704761D01*
X154726190Y-124752380D01*
X154488095Y-124752380D01*
X154392857Y-124704761D01*
X154345238Y-124657142D01*
%TO.C,J6*%
X131811904Y-96457142D02*
X131764285Y-96504761D01*
X131621428Y-96552380D01*
X131526190Y-96552380D01*
X131383333Y-96504761D01*
X131288095Y-96409523D01*
X131240476Y-96314285D01*
X131192857Y-96123809D01*
X131192857Y-95980952D01*
X131240476Y-95790476D01*
X131288095Y-95695238D01*
X131383333Y-95600000D01*
X131526190Y-95552380D01*
X131621428Y-95552380D01*
X131764285Y-95600000D01*
X131811904Y-95647619D01*
X132383333Y-96552380D02*
X132288095Y-96504761D01*
X132240476Y-96457142D01*
X132192857Y-96361904D01*
X132192857Y-96076190D01*
X132240476Y-95980952D01*
X132288095Y-95933333D01*
X132383333Y-95885714D01*
X132526190Y-95885714D01*
X132621428Y-95933333D01*
X132669047Y-95980952D01*
X132716666Y-96076190D01*
X132716666Y-96361904D01*
X132669047Y-96457142D01*
X132621428Y-96504761D01*
X132526190Y-96552380D01*
X132383333Y-96552380D01*
X133145238Y-95885714D02*
X133145238Y-96552380D01*
X133145238Y-95980952D02*
X133192857Y-95933333D01*
X133288095Y-95885714D01*
X133430952Y-95885714D01*
X133526190Y-95933333D01*
X133573809Y-96028571D01*
X133573809Y-96552380D01*
X134050000Y-95885714D02*
X134050000Y-96552380D01*
X134050000Y-95980952D02*
X134097619Y-95933333D01*
X134192857Y-95885714D01*
X134335714Y-95885714D01*
X134430952Y-95933333D01*
X134478571Y-96028571D01*
X134478571Y-96552380D01*
X134716666Y-96647619D02*
X135478571Y-96647619D01*
X135907142Y-95552380D02*
X136002380Y-95552380D01*
X136097619Y-95600000D01*
X136145238Y-95647619D01*
X136192857Y-95742857D01*
X136240476Y-95933333D01*
X136240476Y-96171428D01*
X136192857Y-96361904D01*
X136145238Y-96457142D01*
X136097619Y-96504761D01*
X136002380Y-96552380D01*
X135907142Y-96552380D01*
X135811904Y-96504761D01*
X135764285Y-96457142D01*
X135716666Y-96361904D01*
X135669047Y-96171428D01*
X135669047Y-95933333D01*
X135716666Y-95742857D01*
X135764285Y-95647619D01*
X135811904Y-95600000D01*
X135907142Y-95552380D01*
X137192857Y-96552380D02*
X136621428Y-96552380D01*
X136907142Y-96552380D02*
X136907142Y-95552380D01*
X136811904Y-95695238D01*
X136716666Y-95790476D01*
X136621428Y-95838095D01*
X137526190Y-96552380D02*
X138050000Y-95885714D01*
X137526190Y-95885714D02*
X138050000Y-96552380D01*
X138621428Y-95552380D02*
X138716666Y-95552380D01*
X138811904Y-95600000D01*
X138859523Y-95647619D01*
X138907142Y-95742857D01*
X138954761Y-95933333D01*
X138954761Y-96171428D01*
X138907142Y-96361904D01*
X138859523Y-96457142D01*
X138811904Y-96504761D01*
X138716666Y-96552380D01*
X138621428Y-96552380D01*
X138526190Y-96504761D01*
X138478571Y-96457142D01*
X138430952Y-96361904D01*
X138383333Y-96171428D01*
X138383333Y-95933333D01*
X138430952Y-95742857D01*
X138478571Y-95647619D01*
X138526190Y-95600000D01*
X138621428Y-95552380D01*
X139811904Y-95885714D02*
X139811904Y-96552380D01*
X139573809Y-95504761D02*
X139335714Y-96219047D01*
X139954761Y-96219047D01*
X135216666Y-93652380D02*
X135216666Y-94366666D01*
X135169047Y-94509523D01*
X135073809Y-94604761D01*
X134930952Y-94652380D01*
X134835714Y-94652380D01*
X136121428Y-93652380D02*
X135930952Y-93652380D01*
X135835714Y-93700000D01*
X135788095Y-93747619D01*
X135692857Y-93890476D01*
X135645238Y-94080952D01*
X135645238Y-94461904D01*
X135692857Y-94557142D01*
X135740476Y-94604761D01*
X135835714Y-94652380D01*
X136026190Y-94652380D01*
X136121428Y-94604761D01*
X136169047Y-94557142D01*
X136216666Y-94461904D01*
X136216666Y-94223809D01*
X136169047Y-94128571D01*
X136121428Y-94080952D01*
X136026190Y-94033333D01*
X135835714Y-94033333D01*
X135740476Y-94080952D01*
X135692857Y-94128571D01*
X135645238Y-94223809D01*
%TO.C,J7*%
X138261904Y-122757142D02*
X138214285Y-122804761D01*
X138071428Y-122852380D01*
X137976190Y-122852380D01*
X137833333Y-122804761D01*
X137738095Y-122709523D01*
X137690476Y-122614285D01*
X137642857Y-122423809D01*
X137642857Y-122280952D01*
X137690476Y-122090476D01*
X137738095Y-121995238D01*
X137833333Y-121900000D01*
X137976190Y-121852380D01*
X138071428Y-121852380D01*
X138214285Y-121900000D01*
X138261904Y-121947619D01*
X138833333Y-122852380D02*
X138738095Y-122804761D01*
X138690476Y-122757142D01*
X138642857Y-122661904D01*
X138642857Y-122376190D01*
X138690476Y-122280952D01*
X138738095Y-122233333D01*
X138833333Y-122185714D01*
X138976190Y-122185714D01*
X139071428Y-122233333D01*
X139119047Y-122280952D01*
X139166666Y-122376190D01*
X139166666Y-122661904D01*
X139119047Y-122757142D01*
X139071428Y-122804761D01*
X138976190Y-122852380D01*
X138833333Y-122852380D01*
X139595238Y-122185714D02*
X139595238Y-122852380D01*
X139595238Y-122280952D02*
X139642857Y-122233333D01*
X139738095Y-122185714D01*
X139880952Y-122185714D01*
X139976190Y-122233333D01*
X140023809Y-122328571D01*
X140023809Y-122852380D01*
X140500000Y-122185714D02*
X140500000Y-122852380D01*
X140500000Y-122280952D02*
X140547619Y-122233333D01*
X140642857Y-122185714D01*
X140785714Y-122185714D01*
X140880952Y-122233333D01*
X140928571Y-122328571D01*
X140928571Y-122852380D01*
X141166666Y-122947619D02*
X141928571Y-122947619D01*
X142357142Y-121852380D02*
X142452380Y-121852380D01*
X142547619Y-121900000D01*
X142595238Y-121947619D01*
X142642857Y-122042857D01*
X142690476Y-122233333D01*
X142690476Y-122471428D01*
X142642857Y-122661904D01*
X142595238Y-122757142D01*
X142547619Y-122804761D01*
X142452380Y-122852380D01*
X142357142Y-122852380D01*
X142261904Y-122804761D01*
X142214285Y-122757142D01*
X142166666Y-122661904D01*
X142119047Y-122471428D01*
X142119047Y-122233333D01*
X142166666Y-122042857D01*
X142214285Y-121947619D01*
X142261904Y-121900000D01*
X142357142Y-121852380D01*
X143642857Y-122852380D02*
X143071428Y-122852380D01*
X143357142Y-122852380D02*
X143357142Y-121852380D01*
X143261904Y-121995238D01*
X143166666Y-122090476D01*
X143071428Y-122138095D01*
X143976190Y-122852380D02*
X144500000Y-122185714D01*
X143976190Y-122185714D02*
X144500000Y-122852380D01*
X145071428Y-121852380D02*
X145166666Y-121852380D01*
X145261904Y-121900000D01*
X145309523Y-121947619D01*
X145357142Y-122042857D01*
X145404761Y-122233333D01*
X145404761Y-122471428D01*
X145357142Y-122661904D01*
X145309523Y-122757142D01*
X145261904Y-122804761D01*
X145166666Y-122852380D01*
X145071428Y-122852380D01*
X144976190Y-122804761D01*
X144928571Y-122757142D01*
X144880952Y-122661904D01*
X144833333Y-122471428D01*
X144833333Y-122233333D01*
X144880952Y-122042857D01*
X144928571Y-121947619D01*
X144976190Y-121900000D01*
X145071428Y-121852380D01*
X145738095Y-121852380D02*
X146357142Y-121852380D01*
X146023809Y-122233333D01*
X146166666Y-122233333D01*
X146261904Y-122280952D01*
X146309523Y-122328571D01*
X146357142Y-122423809D01*
X146357142Y-122661904D01*
X146309523Y-122757142D01*
X146261904Y-122804761D01*
X146166666Y-122852380D01*
X145880952Y-122852380D01*
X145785714Y-122804761D01*
X145738095Y-122757142D01*
X141666666Y-123752380D02*
X141666666Y-124466666D01*
X141619047Y-124609523D01*
X141523809Y-124704761D01*
X141380952Y-124752380D01*
X141285714Y-124752380D01*
X142047619Y-123752380D02*
X142714285Y-123752380D01*
X142285714Y-124752380D01*
%TO.C,J8*%
X166857142Y-97688095D02*
X166904761Y-97735714D01*
X166952380Y-97878571D01*
X166952380Y-97973809D01*
X166904761Y-98116666D01*
X166809523Y-98211904D01*
X166714285Y-98259523D01*
X166523809Y-98307142D01*
X166380952Y-98307142D01*
X166190476Y-98259523D01*
X166095238Y-98211904D01*
X166000000Y-98116666D01*
X165952380Y-97973809D01*
X165952380Y-97878571D01*
X166000000Y-97735714D01*
X166047619Y-97688095D01*
X166952380Y-97116666D02*
X166904761Y-97211904D01*
X166857142Y-97259523D01*
X166761904Y-97307142D01*
X166476190Y-97307142D01*
X166380952Y-97259523D01*
X166333333Y-97211904D01*
X166285714Y-97116666D01*
X166285714Y-96973809D01*
X166333333Y-96878571D01*
X166380952Y-96830952D01*
X166476190Y-96783333D01*
X166761904Y-96783333D01*
X166857142Y-96830952D01*
X166904761Y-96878571D01*
X166952380Y-96973809D01*
X166952380Y-97116666D01*
X166285714Y-96354761D02*
X166952380Y-96354761D01*
X166380952Y-96354761D02*
X166333333Y-96307142D01*
X166285714Y-96211904D01*
X166285714Y-96069047D01*
X166333333Y-95973809D01*
X166428571Y-95926190D01*
X166952380Y-95926190D01*
X166285714Y-95450000D02*
X166952380Y-95450000D01*
X166380952Y-95450000D02*
X166333333Y-95402380D01*
X166285714Y-95307142D01*
X166285714Y-95164285D01*
X166333333Y-95069047D01*
X166428571Y-95021428D01*
X166952380Y-95021428D01*
X167047619Y-94783333D02*
X167047619Y-94021428D01*
X165952380Y-93592857D02*
X165952380Y-93497619D01*
X166000000Y-93402380D01*
X166047619Y-93354761D01*
X166142857Y-93307142D01*
X166333333Y-93259523D01*
X166571428Y-93259523D01*
X166761904Y-93307142D01*
X166857142Y-93354761D01*
X166904761Y-93402380D01*
X166952380Y-93497619D01*
X166952380Y-93592857D01*
X166904761Y-93688095D01*
X166857142Y-93735714D01*
X166761904Y-93783333D01*
X166571428Y-93830952D01*
X166333333Y-93830952D01*
X166142857Y-93783333D01*
X166047619Y-93735714D01*
X166000000Y-93688095D01*
X165952380Y-93592857D01*
X166952380Y-92307142D02*
X166952380Y-92878571D01*
X166952380Y-92592857D02*
X165952380Y-92592857D01*
X166095238Y-92688095D01*
X166190476Y-92783333D01*
X166238095Y-92878571D01*
X166952380Y-91973809D02*
X166285714Y-91450000D01*
X166285714Y-91973809D02*
X166952380Y-91450000D01*
X165952380Y-90878571D02*
X165952380Y-90783333D01*
X166000000Y-90688095D01*
X166047619Y-90640476D01*
X166142857Y-90592857D01*
X166333333Y-90545238D01*
X166571428Y-90545238D01*
X166761904Y-90592857D01*
X166857142Y-90640476D01*
X166904761Y-90688095D01*
X166952380Y-90783333D01*
X166952380Y-90878571D01*
X166904761Y-90973809D01*
X166857142Y-91021428D01*
X166761904Y-91069047D01*
X166571428Y-91116666D01*
X166333333Y-91116666D01*
X166142857Y-91069047D01*
X166047619Y-91021428D01*
X166000000Y-90973809D01*
X165952380Y-90878571D01*
X166047619Y-90164285D02*
X166000000Y-90116666D01*
X165952380Y-90021428D01*
X165952380Y-89783333D01*
X166000000Y-89688095D01*
X166047619Y-89640476D01*
X166142857Y-89592857D01*
X166238095Y-89592857D01*
X166380952Y-89640476D01*
X166952380Y-90211904D01*
X166952380Y-89592857D01*
X167852380Y-94283333D02*
X168566666Y-94283333D01*
X168709523Y-94330952D01*
X168804761Y-94426190D01*
X168852380Y-94569047D01*
X168852380Y-94664285D01*
X168280952Y-93664285D02*
X168233333Y-93759523D01*
X168185714Y-93807142D01*
X168090476Y-93854761D01*
X168042857Y-93854761D01*
X167947619Y-93807142D01*
X167900000Y-93759523D01*
X167852380Y-93664285D01*
X167852380Y-93473809D01*
X167900000Y-93378571D01*
X167947619Y-93330952D01*
X168042857Y-93283333D01*
X168090476Y-93283333D01*
X168185714Y-93330952D01*
X168233333Y-93378571D01*
X168280952Y-93473809D01*
X168280952Y-93664285D01*
X168328571Y-93759523D01*
X168376190Y-93807142D01*
X168471428Y-93854761D01*
X168661904Y-93854761D01*
X168757142Y-93807142D01*
X168804761Y-93759523D01*
X168852380Y-93664285D01*
X168852380Y-93473809D01*
X168804761Y-93378571D01*
X168757142Y-93330952D01*
X168661904Y-93283333D01*
X168471428Y-93283333D01*
X168376190Y-93330952D01*
X168328571Y-93378571D01*
X168280952Y-93473809D01*
%TO.C,J9*%
X162511904Y-139957142D02*
X162464285Y-140004761D01*
X162321428Y-140052380D01*
X162226190Y-140052380D01*
X162083333Y-140004761D01*
X161988095Y-139909523D01*
X161940476Y-139814285D01*
X161892857Y-139623809D01*
X161892857Y-139480952D01*
X161940476Y-139290476D01*
X161988095Y-139195238D01*
X162083333Y-139100000D01*
X162226190Y-139052380D01*
X162321428Y-139052380D01*
X162464285Y-139100000D01*
X162511904Y-139147619D01*
X163083333Y-140052380D02*
X162988095Y-140004761D01*
X162940476Y-139957142D01*
X162892857Y-139861904D01*
X162892857Y-139576190D01*
X162940476Y-139480952D01*
X162988095Y-139433333D01*
X163083333Y-139385714D01*
X163226190Y-139385714D01*
X163321428Y-139433333D01*
X163369047Y-139480952D01*
X163416666Y-139576190D01*
X163416666Y-139861904D01*
X163369047Y-139957142D01*
X163321428Y-140004761D01*
X163226190Y-140052380D01*
X163083333Y-140052380D01*
X163845238Y-139385714D02*
X163845238Y-140052380D01*
X163845238Y-139480952D02*
X163892857Y-139433333D01*
X163988095Y-139385714D01*
X164130952Y-139385714D01*
X164226190Y-139433333D01*
X164273809Y-139528571D01*
X164273809Y-140052380D01*
X164750000Y-139385714D02*
X164750000Y-140052380D01*
X164750000Y-139480952D02*
X164797619Y-139433333D01*
X164892857Y-139385714D01*
X165035714Y-139385714D01*
X165130952Y-139433333D01*
X165178571Y-139528571D01*
X165178571Y-140052380D01*
X165416666Y-140147619D02*
X166178571Y-140147619D01*
X166607142Y-139052380D02*
X166702380Y-139052380D01*
X166797619Y-139100000D01*
X166845238Y-139147619D01*
X166892857Y-139242857D01*
X166940476Y-139433333D01*
X166940476Y-139671428D01*
X166892857Y-139861904D01*
X166845238Y-139957142D01*
X166797619Y-140004761D01*
X166702380Y-140052380D01*
X166607142Y-140052380D01*
X166511904Y-140004761D01*
X166464285Y-139957142D01*
X166416666Y-139861904D01*
X166369047Y-139671428D01*
X166369047Y-139433333D01*
X166416666Y-139242857D01*
X166464285Y-139147619D01*
X166511904Y-139100000D01*
X166607142Y-139052380D01*
X167892857Y-140052380D02*
X167321428Y-140052380D01*
X167607142Y-140052380D02*
X167607142Y-139052380D01*
X167511904Y-139195238D01*
X167416666Y-139290476D01*
X167321428Y-139338095D01*
X168226190Y-140052380D02*
X168750000Y-139385714D01*
X168226190Y-139385714D02*
X168750000Y-140052380D01*
X169321428Y-139052380D02*
X169416666Y-139052380D01*
X169511904Y-139100000D01*
X169559523Y-139147619D01*
X169607142Y-139242857D01*
X169654761Y-139433333D01*
X169654761Y-139671428D01*
X169607142Y-139861904D01*
X169559523Y-139957142D01*
X169511904Y-140004761D01*
X169416666Y-140052380D01*
X169321428Y-140052380D01*
X169226190Y-140004761D01*
X169178571Y-139957142D01*
X169130952Y-139861904D01*
X169083333Y-139671428D01*
X169083333Y-139433333D01*
X169130952Y-139242857D01*
X169178571Y-139147619D01*
X169226190Y-139100000D01*
X169321428Y-139052380D01*
X170035714Y-139147619D02*
X170083333Y-139100000D01*
X170178571Y-139052380D01*
X170416666Y-139052380D01*
X170511904Y-139100000D01*
X170559523Y-139147619D01*
X170607142Y-139242857D01*
X170607142Y-139338095D01*
X170559523Y-139480952D01*
X169988095Y-140052380D01*
X170607142Y-140052380D01*
X165916666Y-137152380D02*
X165916666Y-137866666D01*
X165869047Y-138009523D01*
X165773809Y-138104761D01*
X165630952Y-138152380D01*
X165535714Y-138152380D01*
X166440476Y-138152380D02*
X166630952Y-138152380D01*
X166726190Y-138104761D01*
X166773809Y-138057142D01*
X166869047Y-137914285D01*
X166916666Y-137723809D01*
X166916666Y-137342857D01*
X166869047Y-137247619D01*
X166821428Y-137200000D01*
X166726190Y-137152380D01*
X166535714Y-137152380D01*
X166440476Y-137200000D01*
X166392857Y-137247619D01*
X166345238Y-137342857D01*
X166345238Y-137580952D01*
X166392857Y-137676190D01*
X166440476Y-137723809D01*
X166535714Y-137771428D01*
X166726190Y-137771428D01*
X166821428Y-137723809D01*
X166869047Y-137676190D01*
X166916666Y-137580952D01*
%TO.C,J10*%
X126511904Y-139957142D02*
X126464285Y-140004761D01*
X126321428Y-140052380D01*
X126226190Y-140052380D01*
X126083333Y-140004761D01*
X125988095Y-139909523D01*
X125940476Y-139814285D01*
X125892857Y-139623809D01*
X125892857Y-139480952D01*
X125940476Y-139290476D01*
X125988095Y-139195238D01*
X126083333Y-139100000D01*
X126226190Y-139052380D01*
X126321428Y-139052380D01*
X126464285Y-139100000D01*
X126511904Y-139147619D01*
X127083333Y-140052380D02*
X126988095Y-140004761D01*
X126940476Y-139957142D01*
X126892857Y-139861904D01*
X126892857Y-139576190D01*
X126940476Y-139480952D01*
X126988095Y-139433333D01*
X127083333Y-139385714D01*
X127226190Y-139385714D01*
X127321428Y-139433333D01*
X127369047Y-139480952D01*
X127416666Y-139576190D01*
X127416666Y-139861904D01*
X127369047Y-139957142D01*
X127321428Y-140004761D01*
X127226190Y-140052380D01*
X127083333Y-140052380D01*
X127845238Y-139385714D02*
X127845238Y-140052380D01*
X127845238Y-139480952D02*
X127892857Y-139433333D01*
X127988095Y-139385714D01*
X128130952Y-139385714D01*
X128226190Y-139433333D01*
X128273809Y-139528571D01*
X128273809Y-140052380D01*
X128750000Y-139385714D02*
X128750000Y-140052380D01*
X128750000Y-139480952D02*
X128797619Y-139433333D01*
X128892857Y-139385714D01*
X129035714Y-139385714D01*
X129130952Y-139433333D01*
X129178571Y-139528571D01*
X129178571Y-140052380D01*
X129416666Y-140147619D02*
X130178571Y-140147619D01*
X130607142Y-139052380D02*
X130702380Y-139052380D01*
X130797619Y-139100000D01*
X130845238Y-139147619D01*
X130892857Y-139242857D01*
X130940476Y-139433333D01*
X130940476Y-139671428D01*
X130892857Y-139861904D01*
X130845238Y-139957142D01*
X130797619Y-140004761D01*
X130702380Y-140052380D01*
X130607142Y-140052380D01*
X130511904Y-140004761D01*
X130464285Y-139957142D01*
X130416666Y-139861904D01*
X130369047Y-139671428D01*
X130369047Y-139433333D01*
X130416666Y-139242857D01*
X130464285Y-139147619D01*
X130511904Y-139100000D01*
X130607142Y-139052380D01*
X131892857Y-140052380D02*
X131321428Y-140052380D01*
X131607142Y-140052380D02*
X131607142Y-139052380D01*
X131511904Y-139195238D01*
X131416666Y-139290476D01*
X131321428Y-139338095D01*
X132226190Y-140052380D02*
X132750000Y-139385714D01*
X132226190Y-139385714D02*
X132750000Y-140052380D01*
X133321428Y-139052380D02*
X133416666Y-139052380D01*
X133511904Y-139100000D01*
X133559523Y-139147619D01*
X133607142Y-139242857D01*
X133654761Y-139433333D01*
X133654761Y-139671428D01*
X133607142Y-139861904D01*
X133559523Y-139957142D01*
X133511904Y-140004761D01*
X133416666Y-140052380D01*
X133321428Y-140052380D01*
X133226190Y-140004761D01*
X133178571Y-139957142D01*
X133130952Y-139861904D01*
X133083333Y-139671428D01*
X133083333Y-139433333D01*
X133130952Y-139242857D01*
X133178571Y-139147619D01*
X133226190Y-139100000D01*
X133321428Y-139052380D01*
X134035714Y-139147619D02*
X134083333Y-139100000D01*
X134178571Y-139052380D01*
X134416666Y-139052380D01*
X134511904Y-139100000D01*
X134559523Y-139147619D01*
X134607142Y-139242857D01*
X134607142Y-139338095D01*
X134559523Y-139480952D01*
X133988095Y-140052380D01*
X134607142Y-140052380D01*
X129440476Y-137152380D02*
X129440476Y-137866666D01*
X129392857Y-138009523D01*
X129297619Y-138104761D01*
X129154761Y-138152380D01*
X129059523Y-138152380D01*
X130440476Y-138152380D02*
X129869047Y-138152380D01*
X130154761Y-138152380D02*
X130154761Y-137152380D01*
X130059523Y-137295238D01*
X129964285Y-137390476D01*
X129869047Y-137438095D01*
X131059523Y-137152380D02*
X131154761Y-137152380D01*
X131250000Y-137200000D01*
X131297619Y-137247619D01*
X131345238Y-137342857D01*
X131392857Y-137533333D01*
X131392857Y-137771428D01*
X131345238Y-137961904D01*
X131297619Y-138057142D01*
X131250000Y-138104761D01*
X131154761Y-138152380D01*
X131059523Y-138152380D01*
X130964285Y-138104761D01*
X130916666Y-138057142D01*
X130869047Y-137961904D01*
X130821428Y-137771428D01*
X130821428Y-137533333D01*
X130869047Y-137342857D01*
X130916666Y-137247619D01*
X130964285Y-137200000D01*
X131059523Y-137152380D01*
%TO.C,J11*%
X135511904Y-139957142D02*
X135464285Y-140004761D01*
X135321428Y-140052380D01*
X135226190Y-140052380D01*
X135083333Y-140004761D01*
X134988095Y-139909523D01*
X134940476Y-139814285D01*
X134892857Y-139623809D01*
X134892857Y-139480952D01*
X134940476Y-139290476D01*
X134988095Y-139195238D01*
X135083333Y-139100000D01*
X135226190Y-139052380D01*
X135321428Y-139052380D01*
X135464285Y-139100000D01*
X135511904Y-139147619D01*
X136083333Y-140052380D02*
X135988095Y-140004761D01*
X135940476Y-139957142D01*
X135892857Y-139861904D01*
X135892857Y-139576190D01*
X135940476Y-139480952D01*
X135988095Y-139433333D01*
X136083333Y-139385714D01*
X136226190Y-139385714D01*
X136321428Y-139433333D01*
X136369047Y-139480952D01*
X136416666Y-139576190D01*
X136416666Y-139861904D01*
X136369047Y-139957142D01*
X136321428Y-140004761D01*
X136226190Y-140052380D01*
X136083333Y-140052380D01*
X136845238Y-139385714D02*
X136845238Y-140052380D01*
X136845238Y-139480952D02*
X136892857Y-139433333D01*
X136988095Y-139385714D01*
X137130952Y-139385714D01*
X137226190Y-139433333D01*
X137273809Y-139528571D01*
X137273809Y-140052380D01*
X137750000Y-139385714D02*
X137750000Y-140052380D01*
X137750000Y-139480952D02*
X137797619Y-139433333D01*
X137892857Y-139385714D01*
X138035714Y-139385714D01*
X138130952Y-139433333D01*
X138178571Y-139528571D01*
X138178571Y-140052380D01*
X138416666Y-140147619D02*
X139178571Y-140147619D01*
X139607142Y-139052380D02*
X139702380Y-139052380D01*
X139797619Y-139100000D01*
X139845238Y-139147619D01*
X139892857Y-139242857D01*
X139940476Y-139433333D01*
X139940476Y-139671428D01*
X139892857Y-139861904D01*
X139845238Y-139957142D01*
X139797619Y-140004761D01*
X139702380Y-140052380D01*
X139607142Y-140052380D01*
X139511904Y-140004761D01*
X139464285Y-139957142D01*
X139416666Y-139861904D01*
X139369047Y-139671428D01*
X139369047Y-139433333D01*
X139416666Y-139242857D01*
X139464285Y-139147619D01*
X139511904Y-139100000D01*
X139607142Y-139052380D01*
X140892857Y-140052380D02*
X140321428Y-140052380D01*
X140607142Y-140052380D02*
X140607142Y-139052380D01*
X140511904Y-139195238D01*
X140416666Y-139290476D01*
X140321428Y-139338095D01*
X141226190Y-140052380D02*
X141750000Y-139385714D01*
X141226190Y-139385714D02*
X141750000Y-140052380D01*
X142321428Y-139052380D02*
X142416666Y-139052380D01*
X142511904Y-139100000D01*
X142559523Y-139147619D01*
X142607142Y-139242857D01*
X142654761Y-139433333D01*
X142654761Y-139671428D01*
X142607142Y-139861904D01*
X142559523Y-139957142D01*
X142511904Y-140004761D01*
X142416666Y-140052380D01*
X142321428Y-140052380D01*
X142226190Y-140004761D01*
X142178571Y-139957142D01*
X142130952Y-139861904D01*
X142083333Y-139671428D01*
X142083333Y-139433333D01*
X142130952Y-139242857D01*
X142178571Y-139147619D01*
X142226190Y-139100000D01*
X142321428Y-139052380D01*
X143035714Y-139147619D02*
X143083333Y-139100000D01*
X143178571Y-139052380D01*
X143416666Y-139052380D01*
X143511904Y-139100000D01*
X143559523Y-139147619D01*
X143607142Y-139242857D01*
X143607142Y-139338095D01*
X143559523Y-139480952D01*
X142988095Y-140052380D01*
X143607142Y-140052380D01*
X138440476Y-137152380D02*
X138440476Y-137866666D01*
X138392857Y-138009523D01*
X138297619Y-138104761D01*
X138154761Y-138152380D01*
X138059523Y-138152380D01*
X139440476Y-138152380D02*
X138869047Y-138152380D01*
X139154761Y-138152380D02*
X139154761Y-137152380D01*
X139059523Y-137295238D01*
X138964285Y-137390476D01*
X138869047Y-137438095D01*
X140392857Y-138152380D02*
X139821428Y-138152380D01*
X140107142Y-138152380D02*
X140107142Y-137152380D01*
X140011904Y-137295238D01*
X139916666Y-137390476D01*
X139821428Y-137438095D01*
%TO.C,J12*%
X144511904Y-139957142D02*
X144464285Y-140004761D01*
X144321428Y-140052380D01*
X144226190Y-140052380D01*
X144083333Y-140004761D01*
X143988095Y-139909523D01*
X143940476Y-139814285D01*
X143892857Y-139623809D01*
X143892857Y-139480952D01*
X143940476Y-139290476D01*
X143988095Y-139195238D01*
X144083333Y-139100000D01*
X144226190Y-139052380D01*
X144321428Y-139052380D01*
X144464285Y-139100000D01*
X144511904Y-139147619D01*
X145083333Y-140052380D02*
X144988095Y-140004761D01*
X144940476Y-139957142D01*
X144892857Y-139861904D01*
X144892857Y-139576190D01*
X144940476Y-139480952D01*
X144988095Y-139433333D01*
X145083333Y-139385714D01*
X145226190Y-139385714D01*
X145321428Y-139433333D01*
X145369047Y-139480952D01*
X145416666Y-139576190D01*
X145416666Y-139861904D01*
X145369047Y-139957142D01*
X145321428Y-140004761D01*
X145226190Y-140052380D01*
X145083333Y-140052380D01*
X145845238Y-139385714D02*
X145845238Y-140052380D01*
X145845238Y-139480952D02*
X145892857Y-139433333D01*
X145988095Y-139385714D01*
X146130952Y-139385714D01*
X146226190Y-139433333D01*
X146273809Y-139528571D01*
X146273809Y-140052380D01*
X146750000Y-139385714D02*
X146750000Y-140052380D01*
X146750000Y-139480952D02*
X146797619Y-139433333D01*
X146892857Y-139385714D01*
X147035714Y-139385714D01*
X147130952Y-139433333D01*
X147178571Y-139528571D01*
X147178571Y-140052380D01*
X147416666Y-140147619D02*
X148178571Y-140147619D01*
X148607142Y-139052380D02*
X148702380Y-139052380D01*
X148797619Y-139100000D01*
X148845238Y-139147619D01*
X148892857Y-139242857D01*
X148940476Y-139433333D01*
X148940476Y-139671428D01*
X148892857Y-139861904D01*
X148845238Y-139957142D01*
X148797619Y-140004761D01*
X148702380Y-140052380D01*
X148607142Y-140052380D01*
X148511904Y-140004761D01*
X148464285Y-139957142D01*
X148416666Y-139861904D01*
X148369047Y-139671428D01*
X148369047Y-139433333D01*
X148416666Y-139242857D01*
X148464285Y-139147619D01*
X148511904Y-139100000D01*
X148607142Y-139052380D01*
X149892857Y-140052380D02*
X149321428Y-140052380D01*
X149607142Y-140052380D02*
X149607142Y-139052380D01*
X149511904Y-139195238D01*
X149416666Y-139290476D01*
X149321428Y-139338095D01*
X150226190Y-140052380D02*
X150750000Y-139385714D01*
X150226190Y-139385714D02*
X150750000Y-140052380D01*
X151321428Y-139052380D02*
X151416666Y-139052380D01*
X151511904Y-139100000D01*
X151559523Y-139147619D01*
X151607142Y-139242857D01*
X151654761Y-139433333D01*
X151654761Y-139671428D01*
X151607142Y-139861904D01*
X151559523Y-139957142D01*
X151511904Y-140004761D01*
X151416666Y-140052380D01*
X151321428Y-140052380D01*
X151226190Y-140004761D01*
X151178571Y-139957142D01*
X151130952Y-139861904D01*
X151083333Y-139671428D01*
X151083333Y-139433333D01*
X151130952Y-139242857D01*
X151178571Y-139147619D01*
X151226190Y-139100000D01*
X151321428Y-139052380D01*
X152035714Y-139147619D02*
X152083333Y-139100000D01*
X152178571Y-139052380D01*
X152416666Y-139052380D01*
X152511904Y-139100000D01*
X152559523Y-139147619D01*
X152607142Y-139242857D01*
X152607142Y-139338095D01*
X152559523Y-139480952D01*
X151988095Y-140052380D01*
X152607142Y-140052380D01*
X147440476Y-137152380D02*
X147440476Y-137866666D01*
X147392857Y-138009523D01*
X147297619Y-138104761D01*
X147154761Y-138152380D01*
X147059523Y-138152380D01*
X148440476Y-138152380D02*
X147869047Y-138152380D01*
X148154761Y-138152380D02*
X148154761Y-137152380D01*
X148059523Y-137295238D01*
X147964285Y-137390476D01*
X147869047Y-137438095D01*
X148821428Y-137247619D02*
X148869047Y-137200000D01*
X148964285Y-137152380D01*
X149202380Y-137152380D01*
X149297619Y-137200000D01*
X149345238Y-137247619D01*
X149392857Y-137342857D01*
X149392857Y-137438095D01*
X149345238Y-137580952D01*
X148773809Y-138152380D01*
X149392857Y-138152380D01*
%TO.C,J13*%
X153511904Y-139957142D02*
X153464285Y-140004761D01*
X153321428Y-140052380D01*
X153226190Y-140052380D01*
X153083333Y-140004761D01*
X152988095Y-139909523D01*
X152940476Y-139814285D01*
X152892857Y-139623809D01*
X152892857Y-139480952D01*
X152940476Y-139290476D01*
X152988095Y-139195238D01*
X153083333Y-139100000D01*
X153226190Y-139052380D01*
X153321428Y-139052380D01*
X153464285Y-139100000D01*
X153511904Y-139147619D01*
X154083333Y-140052380D02*
X153988095Y-140004761D01*
X153940476Y-139957142D01*
X153892857Y-139861904D01*
X153892857Y-139576190D01*
X153940476Y-139480952D01*
X153988095Y-139433333D01*
X154083333Y-139385714D01*
X154226190Y-139385714D01*
X154321428Y-139433333D01*
X154369047Y-139480952D01*
X154416666Y-139576190D01*
X154416666Y-139861904D01*
X154369047Y-139957142D01*
X154321428Y-140004761D01*
X154226190Y-140052380D01*
X154083333Y-140052380D01*
X154845238Y-139385714D02*
X154845238Y-140052380D01*
X154845238Y-139480952D02*
X154892857Y-139433333D01*
X154988095Y-139385714D01*
X155130952Y-139385714D01*
X155226190Y-139433333D01*
X155273809Y-139528571D01*
X155273809Y-140052380D01*
X155750000Y-139385714D02*
X155750000Y-140052380D01*
X155750000Y-139480952D02*
X155797619Y-139433333D01*
X155892857Y-139385714D01*
X156035714Y-139385714D01*
X156130952Y-139433333D01*
X156178571Y-139528571D01*
X156178571Y-140052380D01*
X156416666Y-140147619D02*
X157178571Y-140147619D01*
X157607142Y-139052380D02*
X157702380Y-139052380D01*
X157797619Y-139100000D01*
X157845238Y-139147619D01*
X157892857Y-139242857D01*
X157940476Y-139433333D01*
X157940476Y-139671428D01*
X157892857Y-139861904D01*
X157845238Y-139957142D01*
X157797619Y-140004761D01*
X157702380Y-140052380D01*
X157607142Y-140052380D01*
X157511904Y-140004761D01*
X157464285Y-139957142D01*
X157416666Y-139861904D01*
X157369047Y-139671428D01*
X157369047Y-139433333D01*
X157416666Y-139242857D01*
X157464285Y-139147619D01*
X157511904Y-139100000D01*
X157607142Y-139052380D01*
X158892857Y-140052380D02*
X158321428Y-140052380D01*
X158607142Y-140052380D02*
X158607142Y-139052380D01*
X158511904Y-139195238D01*
X158416666Y-139290476D01*
X158321428Y-139338095D01*
X159226190Y-140052380D02*
X159750000Y-139385714D01*
X159226190Y-139385714D02*
X159750000Y-140052380D01*
X160321428Y-139052380D02*
X160416666Y-139052380D01*
X160511904Y-139100000D01*
X160559523Y-139147619D01*
X160607142Y-139242857D01*
X160654761Y-139433333D01*
X160654761Y-139671428D01*
X160607142Y-139861904D01*
X160559523Y-139957142D01*
X160511904Y-140004761D01*
X160416666Y-140052380D01*
X160321428Y-140052380D01*
X160226190Y-140004761D01*
X160178571Y-139957142D01*
X160130952Y-139861904D01*
X160083333Y-139671428D01*
X160083333Y-139433333D01*
X160130952Y-139242857D01*
X160178571Y-139147619D01*
X160226190Y-139100000D01*
X160321428Y-139052380D01*
X161035714Y-139147619D02*
X161083333Y-139100000D01*
X161178571Y-139052380D01*
X161416666Y-139052380D01*
X161511904Y-139100000D01*
X161559523Y-139147619D01*
X161607142Y-139242857D01*
X161607142Y-139338095D01*
X161559523Y-139480952D01*
X160988095Y-140052380D01*
X161607142Y-140052380D01*
X156440476Y-137152380D02*
X156440476Y-137866666D01*
X156392857Y-138009523D01*
X156297619Y-138104761D01*
X156154761Y-138152380D01*
X156059523Y-138152380D01*
X157440476Y-138152380D02*
X156869047Y-138152380D01*
X157154761Y-138152380D02*
X157154761Y-137152380D01*
X157059523Y-137295238D01*
X156964285Y-137390476D01*
X156869047Y-137438095D01*
X157773809Y-137152380D02*
X158392857Y-137152380D01*
X158059523Y-137533333D01*
X158202380Y-137533333D01*
X158297619Y-137580952D01*
X158345238Y-137628571D01*
X158392857Y-137723809D01*
X158392857Y-137961904D01*
X158345238Y-138057142D01*
X158297619Y-138104761D01*
X158202380Y-138152380D01*
X157916666Y-138152380D01*
X157821428Y-138104761D01*
X157773809Y-138057142D01*
%TO.C,J15*%
X150957142Y-88988095D02*
X151004761Y-89035714D01*
X151052380Y-89178571D01*
X151052380Y-89273809D01*
X151004761Y-89416666D01*
X150909523Y-89511904D01*
X150814285Y-89559523D01*
X150623809Y-89607142D01*
X150480952Y-89607142D01*
X150290476Y-89559523D01*
X150195238Y-89511904D01*
X150100000Y-89416666D01*
X150052380Y-89273809D01*
X150052380Y-89178571D01*
X150100000Y-89035714D01*
X150147619Y-88988095D01*
X151052380Y-88416666D02*
X151004761Y-88511904D01*
X150957142Y-88559523D01*
X150861904Y-88607142D01*
X150576190Y-88607142D01*
X150480952Y-88559523D01*
X150433333Y-88511904D01*
X150385714Y-88416666D01*
X150385714Y-88273809D01*
X150433333Y-88178571D01*
X150480952Y-88130952D01*
X150576190Y-88083333D01*
X150861904Y-88083333D01*
X150957142Y-88130952D01*
X151004761Y-88178571D01*
X151052380Y-88273809D01*
X151052380Y-88416666D01*
X150385714Y-87654761D02*
X151052380Y-87654761D01*
X150480952Y-87654761D02*
X150433333Y-87607142D01*
X150385714Y-87511904D01*
X150385714Y-87369047D01*
X150433333Y-87273809D01*
X150528571Y-87226190D01*
X151052380Y-87226190D01*
X150385714Y-86750000D02*
X151052380Y-86750000D01*
X150480952Y-86750000D02*
X150433333Y-86702380D01*
X150385714Y-86607142D01*
X150385714Y-86464285D01*
X150433333Y-86369047D01*
X150528571Y-86321428D01*
X151052380Y-86321428D01*
X151147619Y-86083333D02*
X151147619Y-85321428D01*
X150052380Y-84892857D02*
X150052380Y-84797619D01*
X150100000Y-84702380D01*
X150147619Y-84654761D01*
X150242857Y-84607142D01*
X150433333Y-84559523D01*
X150671428Y-84559523D01*
X150861904Y-84607142D01*
X150957142Y-84654761D01*
X151004761Y-84702380D01*
X151052380Y-84797619D01*
X151052380Y-84892857D01*
X151004761Y-84988095D01*
X150957142Y-85035714D01*
X150861904Y-85083333D01*
X150671428Y-85130952D01*
X150433333Y-85130952D01*
X150242857Y-85083333D01*
X150147619Y-85035714D01*
X150100000Y-84988095D01*
X150052380Y-84892857D01*
X151052380Y-83607142D02*
X151052380Y-84178571D01*
X151052380Y-83892857D02*
X150052380Y-83892857D01*
X150195238Y-83988095D01*
X150290476Y-84083333D01*
X150338095Y-84178571D01*
X151052380Y-83273809D02*
X150385714Y-82750000D01*
X150385714Y-83273809D02*
X151052380Y-82750000D01*
X150052380Y-82178571D02*
X150052380Y-82083333D01*
X150100000Y-81988095D01*
X150147619Y-81940476D01*
X150242857Y-81892857D01*
X150433333Y-81845238D01*
X150671428Y-81845238D01*
X150861904Y-81892857D01*
X150957142Y-81940476D01*
X151004761Y-81988095D01*
X151052380Y-82083333D01*
X151052380Y-82178571D01*
X151004761Y-82273809D01*
X150957142Y-82321428D01*
X150861904Y-82369047D01*
X150671428Y-82416666D01*
X150433333Y-82416666D01*
X150242857Y-82369047D01*
X150147619Y-82321428D01*
X150100000Y-82273809D01*
X150052380Y-82178571D01*
X150147619Y-81464285D02*
X150100000Y-81416666D01*
X150052380Y-81321428D01*
X150052380Y-81083333D01*
X150100000Y-80988095D01*
X150147619Y-80940476D01*
X150242857Y-80892857D01*
X150338095Y-80892857D01*
X150480952Y-80940476D01*
X151052380Y-81511904D01*
X151052380Y-80892857D01*
X148152380Y-86059523D02*
X148866666Y-86059523D01*
X149009523Y-86107142D01*
X149104761Y-86202380D01*
X149152380Y-86345238D01*
X149152380Y-86440476D01*
X149152380Y-85059523D02*
X149152380Y-85630952D01*
X149152380Y-85345238D02*
X148152380Y-85345238D01*
X148295238Y-85440476D01*
X148390476Y-85535714D01*
X148438095Y-85630952D01*
X148152380Y-84154761D02*
X148152380Y-84630952D01*
X148628571Y-84678571D01*
X148580952Y-84630952D01*
X148533333Y-84535714D01*
X148533333Y-84297619D01*
X148580952Y-84202380D01*
X148628571Y-84154761D01*
X148723809Y-84107142D01*
X148961904Y-84107142D01*
X149057142Y-84154761D01*
X149104761Y-84202380D01*
X149152380Y-84297619D01*
X149152380Y-84535714D01*
X149104761Y-84630952D01*
X149057142Y-84678571D01*
%TO.C,J3*%
X127261904Y-122757142D02*
X127214285Y-122804761D01*
X127071428Y-122852380D01*
X126976190Y-122852380D01*
X126833333Y-122804761D01*
X126738095Y-122709523D01*
X126690476Y-122614285D01*
X126642857Y-122423809D01*
X126642857Y-122280952D01*
X126690476Y-122090476D01*
X126738095Y-121995238D01*
X126833333Y-121900000D01*
X126976190Y-121852380D01*
X127071428Y-121852380D01*
X127214285Y-121900000D01*
X127261904Y-121947619D01*
X127833333Y-122852380D02*
X127738095Y-122804761D01*
X127690476Y-122757142D01*
X127642857Y-122661904D01*
X127642857Y-122376190D01*
X127690476Y-122280952D01*
X127738095Y-122233333D01*
X127833333Y-122185714D01*
X127976190Y-122185714D01*
X128071428Y-122233333D01*
X128119047Y-122280952D01*
X128166666Y-122376190D01*
X128166666Y-122661904D01*
X128119047Y-122757142D01*
X128071428Y-122804761D01*
X127976190Y-122852380D01*
X127833333Y-122852380D01*
X128595238Y-122185714D02*
X128595238Y-122852380D01*
X128595238Y-122280952D02*
X128642857Y-122233333D01*
X128738095Y-122185714D01*
X128880952Y-122185714D01*
X128976190Y-122233333D01*
X129023809Y-122328571D01*
X129023809Y-122852380D01*
X129500000Y-122185714D02*
X129500000Y-122852380D01*
X129500000Y-122280952D02*
X129547619Y-122233333D01*
X129642857Y-122185714D01*
X129785714Y-122185714D01*
X129880952Y-122233333D01*
X129928571Y-122328571D01*
X129928571Y-122852380D01*
X130166666Y-122947619D02*
X130928571Y-122947619D01*
X131357142Y-121852380D02*
X131452380Y-121852380D01*
X131547619Y-121900000D01*
X131595238Y-121947619D01*
X131642857Y-122042857D01*
X131690476Y-122233333D01*
X131690476Y-122471428D01*
X131642857Y-122661904D01*
X131595238Y-122757142D01*
X131547619Y-122804761D01*
X131452380Y-122852380D01*
X131357142Y-122852380D01*
X131261904Y-122804761D01*
X131214285Y-122757142D01*
X131166666Y-122661904D01*
X131119047Y-122471428D01*
X131119047Y-122233333D01*
X131166666Y-122042857D01*
X131214285Y-121947619D01*
X131261904Y-121900000D01*
X131357142Y-121852380D01*
X132642857Y-122852380D02*
X132071428Y-122852380D01*
X132357142Y-122852380D02*
X132357142Y-121852380D01*
X132261904Y-121995238D01*
X132166666Y-122090476D01*
X132071428Y-122138095D01*
X132976190Y-122852380D02*
X133500000Y-122185714D01*
X132976190Y-122185714D02*
X133500000Y-122852380D01*
X134071428Y-121852380D02*
X134166666Y-121852380D01*
X134261904Y-121900000D01*
X134309523Y-121947619D01*
X134357142Y-122042857D01*
X134404761Y-122233333D01*
X134404761Y-122471428D01*
X134357142Y-122661904D01*
X134309523Y-122757142D01*
X134261904Y-122804761D01*
X134166666Y-122852380D01*
X134071428Y-122852380D01*
X133976190Y-122804761D01*
X133928571Y-122757142D01*
X133880952Y-122661904D01*
X133833333Y-122471428D01*
X133833333Y-122233333D01*
X133880952Y-122042857D01*
X133928571Y-121947619D01*
X133976190Y-121900000D01*
X134071428Y-121852380D01*
X134738095Y-121852380D02*
X135357142Y-121852380D01*
X135023809Y-122233333D01*
X135166666Y-122233333D01*
X135261904Y-122280952D01*
X135309523Y-122328571D01*
X135357142Y-122423809D01*
X135357142Y-122661904D01*
X135309523Y-122757142D01*
X135261904Y-122804761D01*
X135166666Y-122852380D01*
X134880952Y-122852380D01*
X134785714Y-122804761D01*
X134738095Y-122757142D01*
X130666666Y-123752380D02*
X130666666Y-124466666D01*
X130619047Y-124609523D01*
X130523809Y-124704761D01*
X130380952Y-124752380D01*
X130285714Y-124752380D01*
X131047619Y-123752380D02*
X131666666Y-123752380D01*
X131333333Y-124133333D01*
X131476190Y-124133333D01*
X131571428Y-124180952D01*
X131619047Y-124228571D01*
X131666666Y-124323809D01*
X131666666Y-124561904D01*
X131619047Y-124657142D01*
X131571428Y-124704761D01*
X131476190Y-124752380D01*
X131190476Y-124752380D01*
X131095238Y-124704761D01*
X131047619Y-124657142D01*
%TD*%
M02*
