M48
; DRILL file {KiCad (5.1.9)-1} date 06/08/21 16:50:00
; FORMAT={-:-/ absolute / inch / decimal}
; #@! TF.CreationDate,2021-06-08T16:50:00+02:00
; #@! TF.GenerationSoftware,Kicad,Pcbnew,(5.1.9)-1
; #@! TF.FileFunction,Plated,1,2,PTH
FMAT,2
INCH
T1C0.0197
T2C0.0236
T3C0.0374
T4C0.0394
T5C0.1260
%
G90
G05
T1
X4.6299Y-3.3465
X4.6299Y-5.315
X4.6576Y-3.2796
X4.6576Y-3.4133
X4.6576Y-5.2481
X4.6576Y-5.3818
X4.7244Y-3.252
X4.7244Y-3.4409
X4.7244Y-5.2205
X4.7244Y-5.4094
X4.7912Y-3.2796
X4.7912Y-3.4133
X4.7912Y-5.2481
X4.7912Y-5.3818
X4.8189Y-3.3465
X4.8189Y-5.315
X6.7953Y-3.3465
X6.7953Y-5.315
X6.823Y-3.2796
X6.823Y-3.4133
X6.823Y-5.2481
X6.823Y-5.3818
X6.8898Y-3.252
X6.8898Y-3.4409
X6.8898Y-5.2205
X6.8898Y-5.4094
X6.9566Y-3.2796
X6.9566Y-3.4133
X6.9566Y-5.2481
X6.9566Y-5.3818
X6.9843Y-3.3465
X6.9843Y-5.315
T2
X5.185Y-5.0827
X5.2441Y-5.2402
X5.3307Y-4.6575
X5.5315Y-5.0787
X5.5906Y-5.2402
X5.7756Y-4.9055
X5.9449Y-4.4094
X5.9528Y-5.2402
X6.0315Y-4.1732
X6.2315Y-4.4743
X6.3189Y-5.2402
X6.5945Y-4.2756
T3
X5.0591Y-5.0
X5.1575Y-5.0
X5.189Y-3.6024
X5.2559Y-5.0
X5.2874Y-3.6024
X5.3858Y-3.6024
X5.4843Y-3.6024
X5.4921Y-5.0
X5.5906Y-5.0
X5.689Y-5.0
X5.9252Y-5.0
X6.0236Y-5.0
X6.122Y-5.0
X6.2205Y-5.0
X6.6929Y-4.7244
X6.6929Y-4.8228
X6.6929Y-4.9213
X6.6929Y-5.0197
T4
X5.0787Y-5.315
X5.1772Y-5.315
X5.4331Y-5.315
X5.5315Y-3.8441
X5.5315Y-4.7441
X5.5315Y-5.315
X5.6315Y-3.8441
X5.6315Y-4.7441
X5.7315Y-3.8441
X5.7315Y-4.7441
X5.748Y-3.3071
X5.748Y-3.4055
X5.7874Y-5.315
X5.8315Y-3.8441
X5.8315Y-4.7441
X5.8858Y-5.315
X5.9315Y-3.8441
X5.9315Y-4.7441
X6.0315Y-3.8441
X6.0315Y-4.7441
X6.0559Y-3.2835
X6.1315Y-3.8441
X6.1315Y-4.7441
X6.1417Y-5.315
X6.1559Y-3.2835
X6.2315Y-3.8441
X6.2315Y-4.7441
X6.2402Y-5.315
X6.2559Y-3.2835
X6.4961Y-5.315
X6.5787Y-3.3031
X6.5787Y-3.4016
X6.5945Y-5.315
X6.7362Y-3.6496
X6.7362Y-3.748
T5
X4.7244Y-3.3465
X4.7244Y-5.315
X6.8898Y-3.3465
X6.8898Y-5.315
T0
M30
