%TF.GenerationSoftware,KiCad,Pcbnew,(5.1.9)-1*%
%TF.CreationDate,2021-06-08T16:49:58+02:00*%
%TF.ProjectId,19_WIFI_Generic,31395f57-4946-4495-9f47-656e65726963,rev?*%
%TF.SameCoordinates,Original*%
%TF.FileFunction,Soldermask,Bot*%
%TF.FilePolarity,Negative*%
%FSLAX46Y46*%
G04 Gerber Fmt 4.6, Leading zero omitted, Abs format (unit mm)*
G04 Created by KiCad (PCBNEW (5.1.9)-1) date 2021-06-08 16:49:58*
%MOMM*%
%LPD*%
G01*
G04 APERTURE LIST*
%TA.AperFunction,Profile*%
%ADD10C,0.150000*%
%TD*%
%ADD11C,0.900000*%
%ADD12C,6.500000*%
%ADD13O,1.700000X2.100000*%
%ADD14O,1.600000X2.600000*%
%ADD15O,2.050000X1.800000*%
%ADD16O,2.100000X1.800000*%
%ADD17O,1.800000X2.050000*%
%ADD18O,1.800000X2.100000*%
G04 APERTURE END LIST*
D10*
X175000000Y-80000000D02*
G75*
G02*
X180000000Y-85000000I0J-5000000D01*
G01*
X180000000Y-135000000D02*
G75*
G02*
X175000000Y-140000000I-5000000J0D01*
G01*
X120000000Y-140000000D02*
G75*
G02*
X115000000Y-135000000I0J5000000D01*
G01*
X115000000Y-85000000D02*
G75*
G02*
X120000000Y-80000000I5000000J0D01*
G01*
X115000000Y-135000000D02*
X115000000Y-85000000D01*
X175000000Y-140000000D02*
X120000000Y-140000000D01*
X180000000Y-85000000D02*
X180000000Y-135000000D01*
X120000000Y-80000000D02*
X175000000Y-80000000D01*
%TO.C,R7*%
G36*
G01*
X145237500Y-101425000D02*
X145762500Y-101425000D01*
G75*
G02*
X146025000Y-101687500I0J-262500D01*
G01*
X146025000Y-102312500D01*
G75*
G02*
X145762500Y-102575000I-262500J0D01*
G01*
X145237500Y-102575000D01*
G75*
G02*
X144975000Y-102312500I0J262500D01*
G01*
X144975000Y-101687500D01*
G75*
G02*
X145237500Y-101425000I262500J0D01*
G01*
G37*
G36*
G01*
X145237500Y-99675000D02*
X145762500Y-99675000D01*
G75*
G02*
X146025000Y-99937500I0J-262500D01*
G01*
X146025000Y-100562500D01*
G75*
G02*
X145762500Y-100825000I-262500J0D01*
G01*
X145237500Y-100825000D01*
G75*
G02*
X144975000Y-100562500I0J262500D01*
G01*
X144975000Y-99937500D01*
G75*
G02*
X145237500Y-99675000I262500J0D01*
G01*
G37*
%TD*%
%TO.C,R6*%
G36*
G01*
X147804500Y-101425000D02*
X148329500Y-101425000D01*
G75*
G02*
X148592000Y-101687500I0J-262500D01*
G01*
X148592000Y-102312500D01*
G75*
G02*
X148329500Y-102575000I-262500J0D01*
G01*
X147804500Y-102575000D01*
G75*
G02*
X147542000Y-102312500I0J262500D01*
G01*
X147542000Y-101687500D01*
G75*
G02*
X147804500Y-101425000I262500J0D01*
G01*
G37*
G36*
G01*
X147804500Y-99675000D02*
X148329500Y-99675000D01*
G75*
G02*
X148592000Y-99937500I0J-262500D01*
G01*
X148592000Y-100562500D01*
G75*
G02*
X148329500Y-100825000I-262500J0D01*
G01*
X147804500Y-100825000D01*
G75*
G02*
X147542000Y-100562500I0J262500D01*
G01*
X147542000Y-99937500D01*
G75*
G02*
X147804500Y-99675000I262500J0D01*
G01*
G37*
%TD*%
%TO.C,R2*%
G36*
G01*
X169737500Y-113675000D02*
X170262500Y-113675000D01*
G75*
G02*
X170525000Y-113937500I0J-262500D01*
G01*
X170525000Y-114562500D01*
G75*
G02*
X170262500Y-114825000I-262500J0D01*
G01*
X169737500Y-114825000D01*
G75*
G02*
X169475000Y-114562500I0J262500D01*
G01*
X169475000Y-113937500D01*
G75*
G02*
X169737500Y-113675000I262500J0D01*
G01*
G37*
G36*
G01*
X169737500Y-111925000D02*
X170262500Y-111925000D01*
G75*
G02*
X170525000Y-112187500I0J-262500D01*
G01*
X170525000Y-112812500D01*
G75*
G02*
X170262500Y-113075000I-262500J0D01*
G01*
X169737500Y-113075000D01*
G75*
G02*
X169475000Y-112812500I0J262500D01*
G01*
X169475000Y-112187500D01*
G75*
G02*
X169737500Y-111925000I262500J0D01*
G01*
G37*
%TD*%
%TO.C,Q1*%
G36*
G01*
X165492000Y-128394000D02*
X166292000Y-128394000D01*
G75*
G02*
X166342000Y-128444000I0J-50000D01*
G01*
X166342000Y-129344000D01*
G75*
G02*
X166292000Y-129394000I-50000J0D01*
G01*
X165492000Y-129394000D01*
G75*
G02*
X165442000Y-129344000I0J50000D01*
G01*
X165442000Y-128444000D01*
G75*
G02*
X165492000Y-128394000I50000J0D01*
G01*
G37*
G36*
G01*
X166442000Y-126394000D02*
X167242000Y-126394000D01*
G75*
G02*
X167292000Y-126444000I0J-50000D01*
G01*
X167292000Y-127344000D01*
G75*
G02*
X167242000Y-127394000I-50000J0D01*
G01*
X166442000Y-127394000D01*
G75*
G02*
X166392000Y-127344000I0J50000D01*
G01*
X166392000Y-126444000D01*
G75*
G02*
X166442000Y-126394000I50000J0D01*
G01*
G37*
G36*
G01*
X164542000Y-126394000D02*
X165342000Y-126394000D01*
G75*
G02*
X165392000Y-126444000I0J-50000D01*
G01*
X165392000Y-127344000D01*
G75*
G02*
X165342000Y-127394000I-50000J0D01*
G01*
X164542000Y-127394000D01*
G75*
G02*
X164492000Y-127344000I0J50000D01*
G01*
X164492000Y-126444000D01*
G75*
G02*
X164542000Y-126394000I50000J0D01*
G01*
G37*
%TD*%
D11*
%TO.C,H3*%
X176697056Y-133302944D03*
X175000000Y-132600000D03*
X173302944Y-133302944D03*
X172600000Y-135000000D03*
X173302944Y-136697056D03*
X175000000Y-137400000D03*
X176697056Y-136697056D03*
X177400000Y-135000000D03*
D12*
X175000000Y-135000000D03*
%TD*%
D11*
%TO.C,H1*%
X121697056Y-83302944D03*
X120000000Y-82600000D03*
X118302944Y-83302944D03*
X117600000Y-85000000D03*
X118302944Y-86697056D03*
X120000000Y-87400000D03*
X121697056Y-86697056D03*
X122400000Y-85000000D03*
D12*
X120000000Y-85000000D03*
%TD*%
D11*
%TO.C,H2*%
X176697056Y-83302944D03*
X175000000Y-82600000D03*
X173302944Y-83302944D03*
X172600000Y-85000000D03*
X173302944Y-86697056D03*
X175000000Y-87400000D03*
X176697056Y-86697056D03*
X177400000Y-85000000D03*
D12*
X175000000Y-85000000D03*
%TD*%
D11*
%TO.C,H4*%
X121697056Y-133302944D03*
X120000000Y-132600000D03*
X118302944Y-133302944D03*
X117600000Y-135000000D03*
X118302944Y-136697056D03*
X120000000Y-137400000D03*
X121697056Y-136697056D03*
X122400000Y-135000000D03*
D12*
X120000000Y-135000000D03*
%TD*%
%TO.C,R13*%
G36*
G01*
X171237500Y-98800000D02*
X171762500Y-98800000D01*
G75*
G02*
X172025000Y-99062500I0J-262500D01*
G01*
X172025000Y-99687500D01*
G75*
G02*
X171762500Y-99950000I-262500J0D01*
G01*
X171237500Y-99950000D01*
G75*
G02*
X170975000Y-99687500I0J262500D01*
G01*
X170975000Y-99062500D01*
G75*
G02*
X171237500Y-98800000I262500J0D01*
G01*
G37*
G36*
G01*
X171237500Y-97050000D02*
X171762500Y-97050000D01*
G75*
G02*
X172025000Y-97312500I0J-262500D01*
G01*
X172025000Y-97937500D01*
G75*
G02*
X171762500Y-98200000I-262500J0D01*
G01*
X171237500Y-98200000D01*
G75*
G02*
X170975000Y-97937500I0J262500D01*
G01*
X170975000Y-97312500D01*
G75*
G02*
X171237500Y-97050000I262500J0D01*
G01*
G37*
%TD*%
%TO.C,R1*%
G36*
G01*
X169737500Y-117175000D02*
X170262500Y-117175000D01*
G75*
G02*
X170525000Y-117437500I0J-262500D01*
G01*
X170525000Y-118062500D01*
G75*
G02*
X170262500Y-118325000I-262500J0D01*
G01*
X169737500Y-118325000D01*
G75*
G02*
X169475000Y-118062500I0J262500D01*
G01*
X169475000Y-117437500D01*
G75*
G02*
X169737500Y-117175000I262500J0D01*
G01*
G37*
G36*
G01*
X169737500Y-115425000D02*
X170262500Y-115425000D01*
G75*
G02*
X170525000Y-115687500I0J-262500D01*
G01*
X170525000Y-116312500D01*
G75*
G02*
X170262500Y-116575000I-262500J0D01*
G01*
X169737500Y-116575000D01*
G75*
G02*
X169475000Y-116312500I0J262500D01*
G01*
X169475000Y-115687500D01*
G75*
G02*
X169737500Y-115425000I262500J0D01*
G01*
G37*
%TD*%
%TO.C,R14*%
G36*
G01*
X165629500Y-131819000D02*
X166154500Y-131819000D01*
G75*
G02*
X166417000Y-132081500I0J-262500D01*
G01*
X166417000Y-132706500D01*
G75*
G02*
X166154500Y-132969000I-262500J0D01*
G01*
X165629500Y-132969000D01*
G75*
G02*
X165367000Y-132706500I0J262500D01*
G01*
X165367000Y-132081500D01*
G75*
G02*
X165629500Y-131819000I262500J0D01*
G01*
G37*
G36*
G01*
X165629500Y-130069000D02*
X166154500Y-130069000D01*
G75*
G02*
X166417000Y-130331500I0J-262500D01*
G01*
X166417000Y-130956500D01*
G75*
G02*
X166154500Y-131219000I-262500J0D01*
G01*
X165629500Y-131219000D01*
G75*
G02*
X165367000Y-130956500I0J262500D01*
G01*
X165367000Y-130331500D01*
G75*
G02*
X165629500Y-130069000I262500J0D01*
G01*
G37*
%TD*%
%TO.C,R15*%
G36*
G01*
X164737500Y-124550000D02*
X165262500Y-124550000D01*
G75*
G02*
X165525000Y-124812500I0J-262500D01*
G01*
X165525000Y-125437500D01*
G75*
G02*
X165262500Y-125700000I-262500J0D01*
G01*
X164737500Y-125700000D01*
G75*
G02*
X164475000Y-125437500I0J262500D01*
G01*
X164475000Y-124812500D01*
G75*
G02*
X164737500Y-124550000I262500J0D01*
G01*
G37*
G36*
G01*
X164737500Y-122800000D02*
X165262500Y-122800000D01*
G75*
G02*
X165525000Y-123062500I0J-262500D01*
G01*
X165525000Y-123687500D01*
G75*
G02*
X165262500Y-123950000I-262500J0D01*
G01*
X164737500Y-123950000D01*
G75*
G02*
X164475000Y-123687500I0J262500D01*
G01*
X164475000Y-123062500D01*
G75*
G02*
X164737500Y-122800000I262500J0D01*
G01*
G37*
%TD*%
%TO.C,R16*%
G36*
G01*
X167012500Y-123950000D02*
X166487500Y-123950000D01*
G75*
G02*
X166225000Y-123687500I0J262500D01*
G01*
X166225000Y-123062500D01*
G75*
G02*
X166487500Y-122800000I262500J0D01*
G01*
X167012500Y-122800000D01*
G75*
G02*
X167275000Y-123062500I0J-262500D01*
G01*
X167275000Y-123687500D01*
G75*
G02*
X167012500Y-123950000I-262500J0D01*
G01*
G37*
G36*
G01*
X167012500Y-125700000D02*
X166487500Y-125700000D01*
G75*
G02*
X166225000Y-125437500I0J262500D01*
G01*
X166225000Y-124812500D01*
G75*
G02*
X166487500Y-124550000I262500J0D01*
G01*
X167012500Y-124550000D01*
G75*
G02*
X167275000Y-124812500I0J-262500D01*
G01*
X167275000Y-125437500D01*
G75*
G02*
X167012500Y-125700000I-262500J0D01*
G01*
G37*
%TD*%
%TO.C,R10*%
G36*
G01*
X134237500Y-93550000D02*
X134762500Y-93550000D01*
G75*
G02*
X135025000Y-93812500I0J-262500D01*
G01*
X135025000Y-94437500D01*
G75*
G02*
X134762500Y-94700000I-262500J0D01*
G01*
X134237500Y-94700000D01*
G75*
G02*
X133975000Y-94437500I0J262500D01*
G01*
X133975000Y-93812500D01*
G75*
G02*
X134237500Y-93550000I262500J0D01*
G01*
G37*
G36*
G01*
X134237500Y-95300000D02*
X134762500Y-95300000D01*
G75*
G02*
X135025000Y-95562500I0J-262500D01*
G01*
X135025000Y-96187500D01*
G75*
G02*
X134762500Y-96450000I-262500J0D01*
G01*
X134237500Y-96450000D01*
G75*
G02*
X133975000Y-96187500I0J262500D01*
G01*
X133975000Y-95562500D01*
G75*
G02*
X134237500Y-95300000I262500J0D01*
G01*
G37*
%TD*%
D13*
%TO.C,U1*%
X143040000Y-120500000D03*
G36*
G01*
X141500000Y-121550000D02*
X139500000Y-121550000D01*
G75*
G02*
X139450000Y-121500000I0J50000D01*
G01*
X139450000Y-119500000D01*
G75*
G02*
X139500000Y-119450000I50000J0D01*
G01*
X141500000Y-119450000D01*
G75*
G02*
X141550000Y-119500000I0J-50000D01*
G01*
X141550000Y-121500000D01*
G75*
G02*
X141500000Y-121550000I-50000J0D01*
G01*
G37*
X145580000Y-120500000D03*
X148120000Y-120500000D03*
X150660000Y-120500000D03*
X153200000Y-120500000D03*
X155740000Y-120500000D03*
X158280000Y-120500000D03*
X158280000Y-97640000D03*
X155740000Y-97640000D03*
X153200000Y-97640000D03*
X150660000Y-97640000D03*
X148120000Y-97640000D03*
X145580000Y-97640000D03*
X143040000Y-97640000D03*
X140500000Y-97640000D03*
%TD*%
%TO.C,D1*%
G36*
G01*
X129350000Y-136900000D02*
X129350000Y-138100000D01*
G75*
G02*
X129300000Y-138150000I-50000J0D01*
G01*
X128400000Y-138150000D01*
G75*
G02*
X128350000Y-138100000I0J50000D01*
G01*
X128350000Y-136900000D01*
G75*
G02*
X128400000Y-136850000I50000J0D01*
G01*
X129300000Y-136850000D01*
G75*
G02*
X129350000Y-136900000I0J-50000D01*
G01*
G37*
G36*
G01*
X132650000Y-136900000D02*
X132650000Y-138100000D01*
G75*
G02*
X132600000Y-138150000I-50000J0D01*
G01*
X131700000Y-138150000D01*
G75*
G02*
X131650000Y-138100000I0J50000D01*
G01*
X131650000Y-136900000D01*
G75*
G02*
X131700000Y-136850000I50000J0D01*
G01*
X132600000Y-136850000D01*
G75*
G02*
X132650000Y-136900000I0J-50000D01*
G01*
G37*
%TD*%
%TO.C,D2*%
G36*
G01*
X141650000Y-136900000D02*
X141650000Y-138100000D01*
G75*
G02*
X141600000Y-138150000I-50000J0D01*
G01*
X140700000Y-138150000D01*
G75*
G02*
X140650000Y-138100000I0J50000D01*
G01*
X140650000Y-136900000D01*
G75*
G02*
X140700000Y-136850000I50000J0D01*
G01*
X141600000Y-136850000D01*
G75*
G02*
X141650000Y-136900000I0J-50000D01*
G01*
G37*
G36*
G01*
X138350000Y-136900000D02*
X138350000Y-138100000D01*
G75*
G02*
X138300000Y-138150000I-50000J0D01*
G01*
X137400000Y-138150000D01*
G75*
G02*
X137350000Y-138100000I0J50000D01*
G01*
X137350000Y-136900000D01*
G75*
G02*
X137400000Y-136850000I50000J0D01*
G01*
X138300000Y-136850000D01*
G75*
G02*
X138350000Y-136900000I0J-50000D01*
G01*
G37*
%TD*%
%TO.C,D3*%
G36*
G01*
X147350000Y-136900000D02*
X147350000Y-138100000D01*
G75*
G02*
X147300000Y-138150000I-50000J0D01*
G01*
X146400000Y-138150000D01*
G75*
G02*
X146350000Y-138100000I0J50000D01*
G01*
X146350000Y-136900000D01*
G75*
G02*
X146400000Y-136850000I50000J0D01*
G01*
X147300000Y-136850000D01*
G75*
G02*
X147350000Y-136900000I0J-50000D01*
G01*
G37*
G36*
G01*
X150650000Y-136900000D02*
X150650000Y-138100000D01*
G75*
G02*
X150600000Y-138150000I-50000J0D01*
G01*
X149700000Y-138150000D01*
G75*
G02*
X149650000Y-138100000I0J50000D01*
G01*
X149650000Y-136900000D01*
G75*
G02*
X149700000Y-136850000I50000J0D01*
G01*
X150600000Y-136850000D01*
G75*
G02*
X150650000Y-136900000I0J-50000D01*
G01*
G37*
%TD*%
%TO.C,D4*%
G36*
G01*
X159650000Y-136900000D02*
X159650000Y-138100000D01*
G75*
G02*
X159600000Y-138150000I-50000J0D01*
G01*
X158700000Y-138150000D01*
G75*
G02*
X158650000Y-138100000I0J50000D01*
G01*
X158650000Y-136900000D01*
G75*
G02*
X158700000Y-136850000I50000J0D01*
G01*
X159600000Y-136850000D01*
G75*
G02*
X159650000Y-136900000I0J-50000D01*
G01*
G37*
G36*
G01*
X156350000Y-136900000D02*
X156350000Y-138100000D01*
G75*
G02*
X156300000Y-138150000I-50000J0D01*
G01*
X155400000Y-138150000D01*
G75*
G02*
X155350000Y-138100000I0J50000D01*
G01*
X155350000Y-136900000D01*
G75*
G02*
X155400000Y-136850000I50000J0D01*
G01*
X156300000Y-136850000D01*
G75*
G02*
X156350000Y-136900000I0J-50000D01*
G01*
G37*
%TD*%
%TO.C,Q2*%
G36*
G01*
X129100000Y-132500000D02*
X129900000Y-132500000D01*
G75*
G02*
X129950000Y-132550000I0J-50000D01*
G01*
X129950000Y-133450000D01*
G75*
G02*
X129900000Y-133500000I-50000J0D01*
G01*
X129100000Y-133500000D01*
G75*
G02*
X129050000Y-133450000I0J50000D01*
G01*
X129050000Y-132550000D01*
G75*
G02*
X129100000Y-132500000I50000J0D01*
G01*
G37*
G36*
G01*
X130050000Y-130500000D02*
X130850000Y-130500000D01*
G75*
G02*
X130900000Y-130550000I0J-50000D01*
G01*
X130900000Y-131450000D01*
G75*
G02*
X130850000Y-131500000I-50000J0D01*
G01*
X130050000Y-131500000D01*
G75*
G02*
X130000000Y-131450000I0J50000D01*
G01*
X130000000Y-130550000D01*
G75*
G02*
X130050000Y-130500000I50000J0D01*
G01*
G37*
G36*
G01*
X128150000Y-130500000D02*
X128950000Y-130500000D01*
G75*
G02*
X129000000Y-130550000I0J-50000D01*
G01*
X129000000Y-131450000D01*
G75*
G02*
X128950000Y-131500000I-50000J0D01*
G01*
X128150000Y-131500000D01*
G75*
G02*
X128100000Y-131450000I0J50000D01*
G01*
X128100000Y-130550000D01*
G75*
G02*
X128150000Y-130500000I50000J0D01*
G01*
G37*
%TD*%
%TO.C,Q3*%
G36*
G01*
X136650000Y-130500000D02*
X137450000Y-130500000D01*
G75*
G02*
X137500000Y-130550000I0J-50000D01*
G01*
X137500000Y-131450000D01*
G75*
G02*
X137450000Y-131500000I-50000J0D01*
G01*
X136650000Y-131500000D01*
G75*
G02*
X136600000Y-131450000I0J50000D01*
G01*
X136600000Y-130550000D01*
G75*
G02*
X136650000Y-130500000I50000J0D01*
G01*
G37*
G36*
G01*
X138550000Y-130500000D02*
X139350000Y-130500000D01*
G75*
G02*
X139400000Y-130550000I0J-50000D01*
G01*
X139400000Y-131450000D01*
G75*
G02*
X139350000Y-131500000I-50000J0D01*
G01*
X138550000Y-131500000D01*
G75*
G02*
X138500000Y-131450000I0J50000D01*
G01*
X138500000Y-130550000D01*
G75*
G02*
X138550000Y-130500000I50000J0D01*
G01*
G37*
G36*
G01*
X137600000Y-132500000D02*
X138400000Y-132500000D01*
G75*
G02*
X138450000Y-132550000I0J-50000D01*
G01*
X138450000Y-133450000D01*
G75*
G02*
X138400000Y-133500000I-50000J0D01*
G01*
X137600000Y-133500000D01*
G75*
G02*
X137550000Y-133450000I0J50000D01*
G01*
X137550000Y-132550000D01*
G75*
G02*
X137600000Y-132500000I50000J0D01*
G01*
G37*
%TD*%
%TO.C,Q4*%
G36*
G01*
X146600000Y-132500000D02*
X147400000Y-132500000D01*
G75*
G02*
X147450000Y-132550000I0J-50000D01*
G01*
X147450000Y-133450000D01*
G75*
G02*
X147400000Y-133500000I-50000J0D01*
G01*
X146600000Y-133500000D01*
G75*
G02*
X146550000Y-133450000I0J50000D01*
G01*
X146550000Y-132550000D01*
G75*
G02*
X146600000Y-132500000I50000J0D01*
G01*
G37*
G36*
G01*
X147550000Y-130500000D02*
X148350000Y-130500000D01*
G75*
G02*
X148400000Y-130550000I0J-50000D01*
G01*
X148400000Y-131450000D01*
G75*
G02*
X148350000Y-131500000I-50000J0D01*
G01*
X147550000Y-131500000D01*
G75*
G02*
X147500000Y-131450000I0J50000D01*
G01*
X147500000Y-130550000D01*
G75*
G02*
X147550000Y-130500000I50000J0D01*
G01*
G37*
G36*
G01*
X145650000Y-130500000D02*
X146450000Y-130500000D01*
G75*
G02*
X146500000Y-130550000I0J-50000D01*
G01*
X146500000Y-131450000D01*
G75*
G02*
X146450000Y-131500000I-50000J0D01*
G01*
X145650000Y-131500000D01*
G75*
G02*
X145600000Y-131450000I0J50000D01*
G01*
X145600000Y-130550000D01*
G75*
G02*
X145650000Y-130500000I50000J0D01*
G01*
G37*
%TD*%
%TO.C,Q5*%
G36*
G01*
X154650000Y-130500000D02*
X155450000Y-130500000D01*
G75*
G02*
X155500000Y-130550000I0J-50000D01*
G01*
X155500000Y-131450000D01*
G75*
G02*
X155450000Y-131500000I-50000J0D01*
G01*
X154650000Y-131500000D01*
G75*
G02*
X154600000Y-131450000I0J50000D01*
G01*
X154600000Y-130550000D01*
G75*
G02*
X154650000Y-130500000I50000J0D01*
G01*
G37*
G36*
G01*
X156550000Y-130500000D02*
X157350000Y-130500000D01*
G75*
G02*
X157400000Y-130550000I0J-50000D01*
G01*
X157400000Y-131450000D01*
G75*
G02*
X157350000Y-131500000I-50000J0D01*
G01*
X156550000Y-131500000D01*
G75*
G02*
X156500000Y-131450000I0J50000D01*
G01*
X156500000Y-130550000D01*
G75*
G02*
X156550000Y-130500000I50000J0D01*
G01*
G37*
G36*
G01*
X155600000Y-132500000D02*
X156400000Y-132500000D01*
G75*
G02*
X156450000Y-132550000I0J-50000D01*
G01*
X156450000Y-133450000D01*
G75*
G02*
X156400000Y-133500000I-50000J0D01*
G01*
X155600000Y-133500000D01*
G75*
G02*
X155550000Y-133450000I0J50000D01*
G01*
X155550000Y-132550000D01*
G75*
G02*
X155600000Y-132500000I50000J0D01*
G01*
G37*
%TD*%
%TO.C,R3*%
G36*
G01*
X139237500Y-122425000D02*
X139762500Y-122425000D01*
G75*
G02*
X140025000Y-122687500I0J-262500D01*
G01*
X140025000Y-123312500D01*
G75*
G02*
X139762500Y-123575000I-262500J0D01*
G01*
X139237500Y-123575000D01*
G75*
G02*
X138975000Y-123312500I0J262500D01*
G01*
X138975000Y-122687500D01*
G75*
G02*
X139237500Y-122425000I262500J0D01*
G01*
G37*
G36*
G01*
X139237500Y-124175000D02*
X139762500Y-124175000D01*
G75*
G02*
X140025000Y-124437500I0J-262500D01*
G01*
X140025000Y-125062500D01*
G75*
G02*
X139762500Y-125325000I-262500J0D01*
G01*
X139237500Y-125325000D01*
G75*
G02*
X138975000Y-125062500I0J262500D01*
G01*
X138975000Y-124437500D01*
G75*
G02*
X139237500Y-124175000I262500J0D01*
G01*
G37*
%TD*%
%TO.C,R4*%
G36*
G01*
X163762500Y-111950000D02*
X163237500Y-111950000D01*
G75*
G02*
X162975000Y-111687500I0J262500D01*
G01*
X162975000Y-111062500D01*
G75*
G02*
X163237500Y-110800000I262500J0D01*
G01*
X163762500Y-110800000D01*
G75*
G02*
X164025000Y-111062500I0J-262500D01*
G01*
X164025000Y-111687500D01*
G75*
G02*
X163762500Y-111950000I-262500J0D01*
G01*
G37*
G36*
G01*
X163762500Y-110200000D02*
X163237500Y-110200000D01*
G75*
G02*
X162975000Y-109937500I0J262500D01*
G01*
X162975000Y-109312500D01*
G75*
G02*
X163237500Y-109050000I262500J0D01*
G01*
X163762500Y-109050000D01*
G75*
G02*
X164025000Y-109312500I0J-262500D01*
G01*
X164025000Y-109937500D01*
G75*
G02*
X163762500Y-110200000I-262500J0D01*
G01*
G37*
%TD*%
%TO.C,R5*%
G36*
G01*
X163762500Y-106325000D02*
X163237500Y-106325000D01*
G75*
G02*
X162975000Y-106062500I0J262500D01*
G01*
X162975000Y-105437500D01*
G75*
G02*
X163237500Y-105175000I262500J0D01*
G01*
X163762500Y-105175000D01*
G75*
G02*
X164025000Y-105437500I0J-262500D01*
G01*
X164025000Y-106062500D01*
G75*
G02*
X163762500Y-106325000I-262500J0D01*
G01*
G37*
G36*
G01*
X163762500Y-108075000D02*
X163237500Y-108075000D01*
G75*
G02*
X162975000Y-107812500I0J262500D01*
G01*
X162975000Y-107187500D01*
G75*
G02*
X163237500Y-106925000I262500J0D01*
G01*
X163762500Y-106925000D01*
G75*
G02*
X164025000Y-107187500I0J-262500D01*
G01*
X164025000Y-107812500D01*
G75*
G02*
X163762500Y-108075000I-262500J0D01*
G01*
G37*
%TD*%
%TO.C,R17*%
G36*
G01*
X146900000Y-117837500D02*
X146900000Y-118362500D01*
G75*
G02*
X146637500Y-118625000I-262500J0D01*
G01*
X146012500Y-118625000D01*
G75*
G02*
X145750000Y-118362500I0J262500D01*
G01*
X145750000Y-117837500D01*
G75*
G02*
X146012500Y-117575000I262500J0D01*
G01*
X146637500Y-117575000D01*
G75*
G02*
X146900000Y-117837500I0J-262500D01*
G01*
G37*
G36*
G01*
X148650000Y-117837500D02*
X148650000Y-118362500D01*
G75*
G02*
X148387500Y-118625000I-262500J0D01*
G01*
X147762500Y-118625000D01*
G75*
G02*
X147500000Y-118362500I0J262500D01*
G01*
X147500000Y-117837500D01*
G75*
G02*
X147762500Y-117575000I262500J0D01*
G01*
X148387500Y-117575000D01*
G75*
G02*
X148650000Y-117837500I0J-262500D01*
G01*
G37*
%TD*%
%TO.C,R18*%
G36*
G01*
X129200000Y-129237500D02*
X129200000Y-129762500D01*
G75*
G02*
X128937500Y-130025000I-262500J0D01*
G01*
X128312500Y-130025000D01*
G75*
G02*
X128050000Y-129762500I0J262500D01*
G01*
X128050000Y-129237500D01*
G75*
G02*
X128312500Y-128975000I262500J0D01*
G01*
X128937500Y-128975000D01*
G75*
G02*
X129200000Y-129237500I0J-262500D01*
G01*
G37*
G36*
G01*
X130950000Y-129237500D02*
X130950000Y-129762500D01*
G75*
G02*
X130687500Y-130025000I-262500J0D01*
G01*
X130062500Y-130025000D01*
G75*
G02*
X129800000Y-129762500I0J262500D01*
G01*
X129800000Y-129237500D01*
G75*
G02*
X130062500Y-128975000I262500J0D01*
G01*
X130687500Y-128975000D01*
G75*
G02*
X130950000Y-129237500I0J-262500D01*
G01*
G37*
%TD*%
%TO.C,R19*%
G36*
G01*
X150825000Y-124237500D02*
X150825000Y-124762500D01*
G75*
G02*
X150562500Y-125025000I-262500J0D01*
G01*
X149937500Y-125025000D01*
G75*
G02*
X149675000Y-124762500I0J262500D01*
G01*
X149675000Y-124237500D01*
G75*
G02*
X149937500Y-123975000I262500J0D01*
G01*
X150562500Y-123975000D01*
G75*
G02*
X150825000Y-124237500I0J-262500D01*
G01*
G37*
G36*
G01*
X149075000Y-124237500D02*
X149075000Y-124762500D01*
G75*
G02*
X148812500Y-125025000I-262500J0D01*
G01*
X148187500Y-125025000D01*
G75*
G02*
X147925000Y-124762500I0J262500D01*
G01*
X147925000Y-124237500D01*
G75*
G02*
X148187500Y-123975000I262500J0D01*
G01*
X148812500Y-123975000D01*
G75*
G02*
X149075000Y-124237500I0J-262500D01*
G01*
G37*
%TD*%
%TO.C,R20*%
G36*
G01*
X137700000Y-129237500D02*
X137700000Y-129762500D01*
G75*
G02*
X137437500Y-130025000I-262500J0D01*
G01*
X136812500Y-130025000D01*
G75*
G02*
X136550000Y-129762500I0J262500D01*
G01*
X136550000Y-129237500D01*
G75*
G02*
X136812500Y-128975000I262500J0D01*
G01*
X137437500Y-128975000D01*
G75*
G02*
X137700000Y-129237500I0J-262500D01*
G01*
G37*
G36*
G01*
X139450000Y-129237500D02*
X139450000Y-129762500D01*
G75*
G02*
X139187500Y-130025000I-262500J0D01*
G01*
X138562500Y-130025000D01*
G75*
G02*
X138300000Y-129762500I0J262500D01*
G01*
X138300000Y-129237500D01*
G75*
G02*
X138562500Y-128975000I262500J0D01*
G01*
X139187500Y-128975000D01*
G75*
G02*
X139450000Y-129237500I0J-262500D01*
G01*
G37*
%TD*%
%TO.C,R21*%
G36*
G01*
X152737500Y-130300000D02*
X153262500Y-130300000D01*
G75*
G02*
X153525000Y-130562500I0J-262500D01*
G01*
X153525000Y-131187500D01*
G75*
G02*
X153262500Y-131450000I-262500J0D01*
G01*
X152737500Y-131450000D01*
G75*
G02*
X152475000Y-131187500I0J262500D01*
G01*
X152475000Y-130562500D01*
G75*
G02*
X152737500Y-130300000I262500J0D01*
G01*
G37*
G36*
G01*
X152737500Y-128550000D02*
X153262500Y-128550000D01*
G75*
G02*
X153525000Y-128812500I0J-262500D01*
G01*
X153525000Y-129437500D01*
G75*
G02*
X153262500Y-129700000I-262500J0D01*
G01*
X152737500Y-129700000D01*
G75*
G02*
X152475000Y-129437500I0J262500D01*
G01*
X152475000Y-128812500D01*
G75*
G02*
X152737500Y-128550000I262500J0D01*
G01*
G37*
%TD*%
%TO.C,R22*%
G36*
G01*
X146700000Y-129237500D02*
X146700000Y-129762500D01*
G75*
G02*
X146437500Y-130025000I-262500J0D01*
G01*
X145812500Y-130025000D01*
G75*
G02*
X145550000Y-129762500I0J262500D01*
G01*
X145550000Y-129237500D01*
G75*
G02*
X145812500Y-128975000I262500J0D01*
G01*
X146437500Y-128975000D01*
G75*
G02*
X146700000Y-129237500I0J-262500D01*
G01*
G37*
G36*
G01*
X148450000Y-129237500D02*
X148450000Y-129762500D01*
G75*
G02*
X148187500Y-130025000I-262500J0D01*
G01*
X147562500Y-130025000D01*
G75*
G02*
X147300000Y-129762500I0J262500D01*
G01*
X147300000Y-129237500D01*
G75*
G02*
X147562500Y-128975000I262500J0D01*
G01*
X148187500Y-128975000D01*
G75*
G02*
X148450000Y-129237500I0J-262500D01*
G01*
G37*
%TD*%
%TO.C,R23*%
G36*
G01*
X159675000Y-127262500D02*
X159675000Y-126737500D01*
G75*
G02*
X159937500Y-126475000I262500J0D01*
G01*
X160562500Y-126475000D01*
G75*
G02*
X160825000Y-126737500I0J-262500D01*
G01*
X160825000Y-127262500D01*
G75*
G02*
X160562500Y-127525000I-262500J0D01*
G01*
X159937500Y-127525000D01*
G75*
G02*
X159675000Y-127262500I0J262500D01*
G01*
G37*
G36*
G01*
X161425000Y-127262500D02*
X161425000Y-126737500D01*
G75*
G02*
X161687500Y-126475000I262500J0D01*
G01*
X162312500Y-126475000D01*
G75*
G02*
X162575000Y-126737500I0J-262500D01*
G01*
X162575000Y-127262500D01*
G75*
G02*
X162312500Y-127525000I-262500J0D01*
G01*
X161687500Y-127525000D01*
G75*
G02*
X161425000Y-127262500I0J262500D01*
G01*
G37*
%TD*%
%TO.C,R24*%
G36*
G01*
X157450000Y-129237500D02*
X157450000Y-129762500D01*
G75*
G02*
X157187500Y-130025000I-262500J0D01*
G01*
X156562500Y-130025000D01*
G75*
G02*
X156300000Y-129762500I0J262500D01*
G01*
X156300000Y-129237500D01*
G75*
G02*
X156562500Y-128975000I262500J0D01*
G01*
X157187500Y-128975000D01*
G75*
G02*
X157450000Y-129237500I0J-262500D01*
G01*
G37*
G36*
G01*
X155700000Y-129237500D02*
X155700000Y-129762500D01*
G75*
G02*
X155437500Y-130025000I-262500J0D01*
G01*
X154812500Y-130025000D01*
G75*
G02*
X154550000Y-129762500I0J262500D01*
G01*
X154550000Y-129237500D01*
G75*
G02*
X154812500Y-128975000I262500J0D01*
G01*
X155437500Y-128975000D01*
G75*
G02*
X155700000Y-129237500I0J-262500D01*
G01*
G37*
%TD*%
%TO.C,R25*%
G36*
G01*
X132762500Y-132450000D02*
X132237500Y-132450000D01*
G75*
G02*
X131975000Y-132187500I0J262500D01*
G01*
X131975000Y-131562500D01*
G75*
G02*
X132237500Y-131300000I262500J0D01*
G01*
X132762500Y-131300000D01*
G75*
G02*
X133025000Y-131562500I0J-262500D01*
G01*
X133025000Y-132187500D01*
G75*
G02*
X132762500Y-132450000I-262500J0D01*
G01*
G37*
G36*
G01*
X132762500Y-130700000D02*
X132237500Y-130700000D01*
G75*
G02*
X131975000Y-130437500I0J262500D01*
G01*
X131975000Y-129812500D01*
G75*
G02*
X132237500Y-129550000I262500J0D01*
G01*
X132762500Y-129550000D01*
G75*
G02*
X133025000Y-129812500I0J-262500D01*
G01*
X133025000Y-130437500D01*
G75*
G02*
X132762500Y-130700000I-262500J0D01*
G01*
G37*
%TD*%
%TO.C,R26*%
G36*
G01*
X141262500Y-130700000D02*
X140737500Y-130700000D01*
G75*
G02*
X140475000Y-130437500I0J262500D01*
G01*
X140475000Y-129812500D01*
G75*
G02*
X140737500Y-129550000I262500J0D01*
G01*
X141262500Y-129550000D01*
G75*
G02*
X141525000Y-129812500I0J-262500D01*
G01*
X141525000Y-130437500D01*
G75*
G02*
X141262500Y-130700000I-262500J0D01*
G01*
G37*
G36*
G01*
X141262500Y-132450000D02*
X140737500Y-132450000D01*
G75*
G02*
X140475000Y-132187500I0J262500D01*
G01*
X140475000Y-131562500D01*
G75*
G02*
X140737500Y-131300000I262500J0D01*
G01*
X141262500Y-131300000D01*
G75*
G02*
X141525000Y-131562500I0J-262500D01*
G01*
X141525000Y-132187500D01*
G75*
G02*
X141262500Y-132450000I-262500J0D01*
G01*
G37*
%TD*%
%TO.C,R27*%
G36*
G01*
X150262500Y-132450000D02*
X149737500Y-132450000D01*
G75*
G02*
X149475000Y-132187500I0J262500D01*
G01*
X149475000Y-131562500D01*
G75*
G02*
X149737500Y-131300000I262500J0D01*
G01*
X150262500Y-131300000D01*
G75*
G02*
X150525000Y-131562500I0J-262500D01*
G01*
X150525000Y-132187500D01*
G75*
G02*
X150262500Y-132450000I-262500J0D01*
G01*
G37*
G36*
G01*
X150262500Y-130700000D02*
X149737500Y-130700000D01*
G75*
G02*
X149475000Y-130437500I0J262500D01*
G01*
X149475000Y-129812500D01*
G75*
G02*
X149737500Y-129550000I262500J0D01*
G01*
X150262500Y-129550000D01*
G75*
G02*
X150525000Y-129812500I0J-262500D01*
G01*
X150525000Y-130437500D01*
G75*
G02*
X150262500Y-130700000I-262500J0D01*
G01*
G37*
%TD*%
%TO.C,R28*%
G36*
G01*
X159262500Y-130700000D02*
X158737500Y-130700000D01*
G75*
G02*
X158475000Y-130437500I0J262500D01*
G01*
X158475000Y-129812500D01*
G75*
G02*
X158737500Y-129550000I262500J0D01*
G01*
X159262500Y-129550000D01*
G75*
G02*
X159525000Y-129812500I0J-262500D01*
G01*
X159525000Y-130437500D01*
G75*
G02*
X159262500Y-130700000I-262500J0D01*
G01*
G37*
G36*
G01*
X159262500Y-132450000D02*
X158737500Y-132450000D01*
G75*
G02*
X158475000Y-132187500I0J262500D01*
G01*
X158475000Y-131562500D01*
G75*
G02*
X158737500Y-131300000I262500J0D01*
G01*
X159262500Y-131300000D01*
G75*
G02*
X159525000Y-131562500I0J-262500D01*
G01*
X159525000Y-132187500D01*
G75*
G02*
X159262500Y-132450000I-262500J0D01*
G01*
G37*
%TD*%
%TO.C,C1*%
G36*
G01*
X159825000Y-85771738D02*
X159825000Y-88028262D01*
G75*
G02*
X159553262Y-88300000I-271738J0D01*
G01*
X158846738Y-88300000D01*
G75*
G02*
X158575000Y-88028262I0J271738D01*
G01*
X158575000Y-85771738D01*
G75*
G02*
X158846738Y-85500000I271738J0D01*
G01*
X159553262Y-85500000D01*
G75*
G02*
X159825000Y-85771738I0J-271738D01*
G01*
G37*
G36*
G01*
X156875000Y-85771738D02*
X156875000Y-88028262D01*
G75*
G02*
X156603262Y-88300000I-271738J0D01*
G01*
X155896738Y-88300000D01*
G75*
G02*
X155625000Y-88028262I0J271738D01*
G01*
X155625000Y-85771738D01*
G75*
G02*
X155896738Y-85500000I271738J0D01*
G01*
X156603262Y-85500000D01*
G75*
G02*
X156875000Y-85771738I0J-271738D01*
G01*
G37*
%TD*%
%TO.C,C2*%
G36*
G01*
X141571738Y-86150000D02*
X143828262Y-86150000D01*
G75*
G02*
X144100000Y-86421738I0J-271738D01*
G01*
X144100000Y-87128262D01*
G75*
G02*
X143828262Y-87400000I-271738J0D01*
G01*
X141571738Y-87400000D01*
G75*
G02*
X141300000Y-87128262I0J271738D01*
G01*
X141300000Y-86421738D01*
G75*
G02*
X141571738Y-86150000I271738J0D01*
G01*
G37*
G36*
G01*
X141571738Y-83200000D02*
X143828262Y-83200000D01*
G75*
G02*
X144100000Y-83471738I0J-271738D01*
G01*
X144100000Y-84178262D01*
G75*
G02*
X143828262Y-84450000I-271738J0D01*
G01*
X141571738Y-84450000D01*
G75*
G02*
X141300000Y-84178262I0J271738D01*
G01*
X141300000Y-83471738D01*
G75*
G02*
X141571738Y-83200000I271738J0D01*
G01*
G37*
%TD*%
%TO.C,D5*%
G36*
G01*
X163950000Y-86900000D02*
X163950000Y-85700000D01*
G75*
G02*
X164000000Y-85650000I50000J0D01*
G01*
X164900000Y-85650000D01*
G75*
G02*
X164950000Y-85700000I0J-50000D01*
G01*
X164950000Y-86900000D01*
G75*
G02*
X164900000Y-86950000I-50000J0D01*
G01*
X164000000Y-86950000D01*
G75*
G02*
X163950000Y-86900000I0J50000D01*
G01*
G37*
G36*
G01*
X160650000Y-86900000D02*
X160650000Y-85700000D01*
G75*
G02*
X160700000Y-85650000I50000J0D01*
G01*
X161600000Y-85650000D01*
G75*
G02*
X161650000Y-85700000I0J-50000D01*
G01*
X161650000Y-86900000D01*
G75*
G02*
X161600000Y-86950000I-50000J0D01*
G01*
X160700000Y-86950000D01*
G75*
G02*
X160650000Y-86900000I0J50000D01*
G01*
G37*
%TD*%
%TO.C,D6*%
G36*
G01*
X147950000Y-84000000D02*
X147950000Y-82800000D01*
G75*
G02*
X148000000Y-82750000I50000J0D01*
G01*
X148900000Y-82750000D01*
G75*
G02*
X148950000Y-82800000I0J-50000D01*
G01*
X148950000Y-84000000D01*
G75*
G02*
X148900000Y-84050000I-50000J0D01*
G01*
X148000000Y-84050000D01*
G75*
G02*
X147950000Y-84000000I0J50000D01*
G01*
G37*
G36*
G01*
X151250000Y-84000000D02*
X151250000Y-82800000D01*
G75*
G02*
X151300000Y-82750000I50000J0D01*
G01*
X152200000Y-82750000D01*
G75*
G02*
X152250000Y-82800000I0J-50000D01*
G01*
X152250000Y-84000000D01*
G75*
G02*
X152200000Y-84050000I-50000J0D01*
G01*
X151300000Y-84050000D01*
G75*
G02*
X151250000Y-84000000I0J50000D01*
G01*
G37*
%TD*%
%TO.C,U2*%
G36*
G01*
X159700000Y-82150000D02*
X159700000Y-84650000D01*
G75*
G02*
X159650000Y-84700000I-50000J0D01*
G01*
X158150000Y-84700000D01*
G75*
G02*
X158100000Y-84650000I0J50000D01*
G01*
X158100000Y-82150000D01*
G75*
G02*
X158150000Y-82100000I50000J0D01*
G01*
X159650000Y-82100000D01*
G75*
G02*
X159700000Y-82150000I0J-50000D01*
G01*
G37*
D14*
X156360000Y-83400000D03*
X153820000Y-83400000D03*
%TD*%
%TO.C,J1*%
G36*
G01*
X170760295Y-128400000D02*
X169239705Y-128400000D01*
G75*
G02*
X168975000Y-128135295I0J264705D01*
G01*
X168975000Y-126864705D01*
G75*
G02*
X169239705Y-126600000I264705J0D01*
G01*
X170760295Y-126600000D01*
G75*
G02*
X171025000Y-126864705I0J-264705D01*
G01*
X171025000Y-128135295D01*
G75*
G02*
X170760295Y-128400000I-264705J0D01*
G01*
G37*
D15*
X170000000Y-125000000D03*
X170000000Y-122500000D03*
X170000000Y-120000000D03*
%TD*%
D16*
%TO.C,J2*%
X167100000Y-86400000D03*
G36*
G01*
X166314705Y-83000000D02*
X167885295Y-83000000D01*
G75*
G02*
X168150000Y-83264705I0J-264705D01*
G01*
X168150000Y-84535295D01*
G75*
G02*
X167885295Y-84800000I-264705J0D01*
G01*
X166314705Y-84800000D01*
G75*
G02*
X166050000Y-84535295I0J264705D01*
G01*
X166050000Y-83264705D01*
G75*
G02*
X166314705Y-83000000I264705J0D01*
G01*
G37*
%TD*%
%TO.C,J5*%
G36*
G01*
X158900000Y-126239705D02*
X158900000Y-127760295D01*
G75*
G02*
X158635295Y-128025000I-264705J0D01*
G01*
X157364705Y-128025000D01*
G75*
G02*
X157100000Y-127760295I0J264705D01*
G01*
X157100000Y-126239705D01*
G75*
G02*
X157364705Y-125975000I264705J0D01*
G01*
X158635295Y-125975000D01*
G75*
G02*
X158900000Y-126239705I0J-264705D01*
G01*
G37*
D17*
X155500000Y-127000000D03*
X153000000Y-127000000D03*
X150500000Y-127000000D03*
%TD*%
%TO.C,J6*%
X139300000Y-91500000D03*
X136800000Y-91500000D03*
X134300000Y-91500000D03*
G36*
G01*
X130900000Y-92260295D02*
X130900000Y-90739705D01*
G75*
G02*
X131164705Y-90475000I264705J0D01*
G01*
X132435295Y-90475000D01*
G75*
G02*
X132700000Y-90739705I0J-264705D01*
G01*
X132700000Y-92260295D01*
G75*
G02*
X132435295Y-92525000I-264705J0D01*
G01*
X131164705Y-92525000D01*
G75*
G02*
X130900000Y-92260295I0J264705D01*
G01*
G37*
%TD*%
%TO.C,J7*%
G36*
G01*
X145400000Y-126239705D02*
X145400000Y-127760295D01*
G75*
G02*
X145135295Y-128025000I-264705J0D01*
G01*
X143864705Y-128025000D01*
G75*
G02*
X143600000Y-127760295I0J264705D01*
G01*
X143600000Y-126239705D01*
G75*
G02*
X143864705Y-125975000I264705J0D01*
G01*
X145135295Y-125975000D01*
G75*
G02*
X145400000Y-126239705I0J-264705D01*
G01*
G37*
X142000000Y-127000000D03*
X139500000Y-127000000D03*
%TD*%
%TO.C,J8*%
G36*
G01*
X170314705Y-91800000D02*
X171885295Y-91800000D01*
G75*
G02*
X172150000Y-92064705I0J-264705D01*
G01*
X172150000Y-93335295D01*
G75*
G02*
X171885295Y-93600000I-264705J0D01*
G01*
X170314705Y-93600000D01*
G75*
G02*
X170050000Y-93335295I0J264705D01*
G01*
X170050000Y-92064705D01*
G75*
G02*
X170314705Y-91800000I264705J0D01*
G01*
G37*
D16*
X171100000Y-95200000D03*
%TD*%
%TO.C,J9*%
G36*
G01*
X164100000Y-135785295D02*
X164100000Y-134214705D01*
G75*
G02*
X164364705Y-133950000I264705J0D01*
G01*
X165635295Y-133950000D01*
G75*
G02*
X165900000Y-134214705I0J-264705D01*
G01*
X165900000Y-135785295D01*
G75*
G02*
X165635295Y-136050000I-264705J0D01*
G01*
X164364705Y-136050000D01*
G75*
G02*
X164100000Y-135785295I0J264705D01*
G01*
G37*
D18*
X167500000Y-135000000D03*
%TD*%
%TO.C,J10*%
X131500000Y-135000000D03*
G36*
G01*
X128100000Y-135785295D02*
X128100000Y-134214705D01*
G75*
G02*
X128364705Y-133950000I264705J0D01*
G01*
X129635295Y-133950000D01*
G75*
G02*
X129900000Y-134214705I0J-264705D01*
G01*
X129900000Y-135785295D01*
G75*
G02*
X129635295Y-136050000I-264705J0D01*
G01*
X128364705Y-136050000D01*
G75*
G02*
X128100000Y-135785295I0J264705D01*
G01*
G37*
%TD*%
%TO.C,J11*%
G36*
G01*
X137100000Y-135785295D02*
X137100000Y-134214705D01*
G75*
G02*
X137364705Y-133950000I264705J0D01*
G01*
X138635295Y-133950000D01*
G75*
G02*
X138900000Y-134214705I0J-264705D01*
G01*
X138900000Y-135785295D01*
G75*
G02*
X138635295Y-136050000I-264705J0D01*
G01*
X137364705Y-136050000D01*
G75*
G02*
X137100000Y-135785295I0J264705D01*
G01*
G37*
X140500000Y-135000000D03*
%TD*%
%TO.C,J12*%
G36*
G01*
X146100000Y-135785295D02*
X146100000Y-134214705D01*
G75*
G02*
X146364705Y-133950000I264705J0D01*
G01*
X147635295Y-133950000D01*
G75*
G02*
X147900000Y-134214705I0J-264705D01*
G01*
X147900000Y-135785295D01*
G75*
G02*
X147635295Y-136050000I-264705J0D01*
G01*
X146364705Y-136050000D01*
G75*
G02*
X146100000Y-135785295I0J264705D01*
G01*
G37*
X149500000Y-135000000D03*
%TD*%
%TO.C,J13*%
X158500000Y-135000000D03*
G36*
G01*
X155100000Y-135785295D02*
X155100000Y-134214705D01*
G75*
G02*
X155364705Y-133950000I264705J0D01*
G01*
X156635295Y-133950000D01*
G75*
G02*
X156900000Y-134214705I0J-264705D01*
G01*
X156900000Y-135785295D01*
G75*
G02*
X156635295Y-136050000I-264705J0D01*
G01*
X155364705Y-136050000D01*
G75*
G02*
X155100000Y-135785295I0J264705D01*
G01*
G37*
%TD*%
%TO.C,J15*%
G36*
G01*
X146785295Y-87400000D02*
X145214705Y-87400000D01*
G75*
G02*
X144950000Y-87135295I0J264705D01*
G01*
X144950000Y-85864705D01*
G75*
G02*
X145214705Y-85600000I264705J0D01*
G01*
X146785295Y-85600000D01*
G75*
G02*
X147050000Y-85864705I0J-264705D01*
G01*
X147050000Y-87135295D01*
G75*
G02*
X146785295Y-87400000I-264705J0D01*
G01*
G37*
D16*
X146000000Y-84000000D03*
%TD*%
%TO.C,J3*%
G36*
G01*
X134400000Y-126239705D02*
X134400000Y-127760295D01*
G75*
G02*
X134135295Y-128025000I-264705J0D01*
G01*
X132864705Y-128025000D01*
G75*
G02*
X132600000Y-127760295I0J264705D01*
G01*
X132600000Y-126239705D01*
G75*
G02*
X132864705Y-125975000I264705J0D01*
G01*
X134135295Y-125975000D01*
G75*
G02*
X134400000Y-126239705I0J-264705D01*
G01*
G37*
D17*
X131000000Y-127000000D03*
X128500000Y-127000000D03*
%TD*%
M02*
