%TF.GenerationSoftware,KiCad,Pcbnew,(5.1.9)-1*%
%TF.CreationDate,2021-06-08T16:49:57+02:00*%
%TF.ProjectId,19_WIFI_Generic,31395f57-4946-4495-9f47-656e65726963,rev?*%
%TF.SameCoordinates,Original*%
%TF.FileFunction,Copper,L2,Bot*%
%TF.FilePolarity,Positive*%
%FSLAX46Y46*%
G04 Gerber Fmt 4.6, Leading zero omitted, Abs format (unit mm)*
G04 Created by KiCad (PCBNEW (5.1.9)-1) date 2021-06-08 16:49:57*
%MOMM*%
%LPD*%
G01*
G04 APERTURE LIST*
%TA.AperFunction,Profile*%
%ADD10C,0.150000*%
%TD*%
%TA.AperFunction,SMDPad,CuDef*%
%ADD11R,0.800000X0.900000*%
%TD*%
%TA.AperFunction,ComponentPad*%
%ADD12C,0.800000*%
%TD*%
%TA.AperFunction,ComponentPad*%
%ADD13C,6.400000*%
%TD*%
%TA.AperFunction,ComponentPad*%
%ADD14O,1.600000X2.000000*%
%TD*%
%TA.AperFunction,ComponentPad*%
%ADD15R,2.000000X2.000000*%
%TD*%
%TA.AperFunction,SMDPad,CuDef*%
%ADD16R,0.900000X1.200000*%
%TD*%
%TA.AperFunction,ComponentPad*%
%ADD17R,1.500000X2.500000*%
%TD*%
%TA.AperFunction,ComponentPad*%
%ADD18O,1.500000X2.500000*%
%TD*%
%TA.AperFunction,ComponentPad*%
%ADD19O,1.950000X1.700000*%
%TD*%
%TA.AperFunction,ComponentPad*%
%ADD20O,2.000000X1.700000*%
%TD*%
%TA.AperFunction,ComponentPad*%
%ADD21O,1.700000X1.950000*%
%TD*%
%TA.AperFunction,ComponentPad*%
%ADD22O,1.700000X2.000000*%
%TD*%
%TA.AperFunction,ViaPad*%
%ADD23C,1.000000*%
%TD*%
%TA.AperFunction,Conductor*%
%ADD24C,0.300000*%
%TD*%
%TA.AperFunction,Conductor*%
%ADD25C,1.000000*%
%TD*%
%TA.AperFunction,Conductor*%
%ADD26C,0.500000*%
%TD*%
%TA.AperFunction,Conductor*%
%ADD27C,0.254000*%
%TD*%
%TA.AperFunction,Conductor*%
%ADD28C,0.100000*%
%TD*%
G04 APERTURE END LIST*
D10*
X175000000Y-80000000D02*
G75*
G02*
X180000000Y-85000000I0J-5000000D01*
G01*
X180000000Y-135000000D02*
G75*
G02*
X175000000Y-140000000I-5000000J0D01*
G01*
X120000000Y-140000000D02*
G75*
G02*
X115000000Y-135000000I0J5000000D01*
G01*
X115000000Y-85000000D02*
G75*
G02*
X120000000Y-80000000I5000000J0D01*
G01*
X115000000Y-135000000D02*
X115000000Y-85000000D01*
X175000000Y-140000000D02*
X120000000Y-140000000D01*
X180000000Y-85000000D02*
X180000000Y-135000000D01*
X120000000Y-80000000D02*
X175000000Y-80000000D01*
%TO.P,R7,2*%
%TO.N,3V3*%
%TA.AperFunction,SMDPad,CuDef*%
G36*
G01*
X145262500Y-101475000D02*
X145737500Y-101475000D01*
G75*
G02*
X145975000Y-101712500I0J-237500D01*
G01*
X145975000Y-102287500D01*
G75*
G02*
X145737500Y-102525000I-237500J0D01*
G01*
X145262500Y-102525000D01*
G75*
G02*
X145025000Y-102287500I0J237500D01*
G01*
X145025000Y-101712500D01*
G75*
G02*
X145262500Y-101475000I237500J0D01*
G01*
G37*
%TD.AperFunction*%
%TO.P,R7,1*%
%TO.N,SCL*%
%TA.AperFunction,SMDPad,CuDef*%
G36*
G01*
X145262500Y-99725000D02*
X145737500Y-99725000D01*
G75*
G02*
X145975000Y-99962500I0J-237500D01*
G01*
X145975000Y-100537500D01*
G75*
G02*
X145737500Y-100775000I-237500J0D01*
G01*
X145262500Y-100775000D01*
G75*
G02*
X145025000Y-100537500I0J237500D01*
G01*
X145025000Y-99962500D01*
G75*
G02*
X145262500Y-99725000I237500J0D01*
G01*
G37*
%TD.AperFunction*%
%TD*%
%TO.P,R6,2*%
%TO.N,3V3*%
%TA.AperFunction,SMDPad,CuDef*%
G36*
G01*
X147829500Y-101475000D02*
X148304500Y-101475000D01*
G75*
G02*
X148542000Y-101712500I0J-237500D01*
G01*
X148542000Y-102287500D01*
G75*
G02*
X148304500Y-102525000I-237500J0D01*
G01*
X147829500Y-102525000D01*
G75*
G02*
X147592000Y-102287500I0J237500D01*
G01*
X147592000Y-101712500D01*
G75*
G02*
X147829500Y-101475000I237500J0D01*
G01*
G37*
%TD.AperFunction*%
%TO.P,R6,1*%
%TO.N,SDA*%
%TA.AperFunction,SMDPad,CuDef*%
G36*
G01*
X147829500Y-99725000D02*
X148304500Y-99725000D01*
G75*
G02*
X148542000Y-99962500I0J-237500D01*
G01*
X148542000Y-100537500D01*
G75*
G02*
X148304500Y-100775000I-237500J0D01*
G01*
X147829500Y-100775000D01*
G75*
G02*
X147592000Y-100537500I0J237500D01*
G01*
X147592000Y-99962500D01*
G75*
G02*
X147829500Y-99725000I237500J0D01*
G01*
G37*
%TD.AperFunction*%
%TD*%
%TO.P,R2,2*%
%TO.N,back0_div*%
%TA.AperFunction,SMDPad,CuDef*%
G36*
G01*
X169762500Y-113725000D02*
X170237500Y-113725000D01*
G75*
G02*
X170475000Y-113962500I0J-237500D01*
G01*
X170475000Y-114537500D01*
G75*
G02*
X170237500Y-114775000I-237500J0D01*
G01*
X169762500Y-114775000D01*
G75*
G02*
X169525000Y-114537500I0J237500D01*
G01*
X169525000Y-113962500D01*
G75*
G02*
X169762500Y-113725000I237500J0D01*
G01*
G37*
%TD.AperFunction*%
%TO.P,R2,1*%
%TO.N,GND*%
%TA.AperFunction,SMDPad,CuDef*%
G36*
G01*
X169762500Y-111975000D02*
X170237500Y-111975000D01*
G75*
G02*
X170475000Y-112212500I0J-237500D01*
G01*
X170475000Y-112787500D01*
G75*
G02*
X170237500Y-113025000I-237500J0D01*
G01*
X169762500Y-113025000D01*
G75*
G02*
X169525000Y-112787500I0J237500D01*
G01*
X169525000Y-112212500D01*
G75*
G02*
X169762500Y-111975000I237500J0D01*
G01*
G37*
%TD.AperFunction*%
%TD*%
D11*
%TO.P,Q1,3*%
%TO.N,Net-(Q1-Pad3)*%
X165892000Y-128894000D03*
%TO.P,Q1,2*%
%TO.N,GND*%
X166842000Y-126894000D03*
%TO.P,Q1,1*%
%TO.N,Net-(Q1-Pad1)*%
X164942000Y-126894000D03*
%TD*%
D12*
%TO.P,H3,1*%
%TO.N,GND*%
X176697056Y-133302944D03*
X175000000Y-132600000D03*
X173302944Y-133302944D03*
X172600000Y-135000000D03*
X173302944Y-136697056D03*
X175000000Y-137400000D03*
X176697056Y-136697056D03*
X177400000Y-135000000D03*
D13*
X175000000Y-135000000D03*
%TD*%
D12*
%TO.P,H1,1*%
%TO.N,GND*%
X121697056Y-83302944D03*
X120000000Y-82600000D03*
X118302944Y-83302944D03*
X117600000Y-85000000D03*
X118302944Y-86697056D03*
X120000000Y-87400000D03*
X121697056Y-86697056D03*
X122400000Y-85000000D03*
D13*
X120000000Y-85000000D03*
%TD*%
D12*
%TO.P,H2,1*%
%TO.N,GND*%
X176697056Y-83302944D03*
X175000000Y-82600000D03*
X173302944Y-83302944D03*
X172600000Y-85000000D03*
X173302944Y-86697056D03*
X175000000Y-87400000D03*
X176697056Y-86697056D03*
X177400000Y-85000000D03*
D13*
X175000000Y-85000000D03*
%TD*%
D12*
%TO.P,H4,1*%
%TO.N,GND*%
X121697056Y-133302944D03*
X120000000Y-132600000D03*
X118302944Y-133302944D03*
X117600000Y-135000000D03*
X118302944Y-136697056D03*
X120000000Y-137400000D03*
X121697056Y-136697056D03*
X122400000Y-135000000D03*
D13*
X120000000Y-135000000D03*
%TD*%
%TO.P,R13,2*%
%TO.N,3V3*%
%TA.AperFunction,SMDPad,CuDef*%
G36*
G01*
X171262500Y-98850000D02*
X171737500Y-98850000D01*
G75*
G02*
X171975000Y-99087500I0J-237500D01*
G01*
X171975000Y-99662500D01*
G75*
G02*
X171737500Y-99900000I-237500J0D01*
G01*
X171262500Y-99900000D01*
G75*
G02*
X171025000Y-99662500I0J237500D01*
G01*
X171025000Y-99087500D01*
G75*
G02*
X171262500Y-98850000I237500J0D01*
G01*
G37*
%TD.AperFunction*%
%TO.P,R13,1*%
%TO.N,bouton1*%
%TA.AperFunction,SMDPad,CuDef*%
G36*
G01*
X171262500Y-97100000D02*
X171737500Y-97100000D01*
G75*
G02*
X171975000Y-97337500I0J-237500D01*
G01*
X171975000Y-97912500D01*
G75*
G02*
X171737500Y-98150000I-237500J0D01*
G01*
X171262500Y-98150000D01*
G75*
G02*
X171025000Y-97912500I0J237500D01*
G01*
X171025000Y-97337500D01*
G75*
G02*
X171262500Y-97100000I237500J0D01*
G01*
G37*
%TD.AperFunction*%
%TD*%
%TO.P,R1,2*%
%TO.N,back0*%
%TA.AperFunction,SMDPad,CuDef*%
G36*
G01*
X169762500Y-117225000D02*
X170237500Y-117225000D01*
G75*
G02*
X170475000Y-117462500I0J-237500D01*
G01*
X170475000Y-118037500D01*
G75*
G02*
X170237500Y-118275000I-237500J0D01*
G01*
X169762500Y-118275000D01*
G75*
G02*
X169525000Y-118037500I0J237500D01*
G01*
X169525000Y-117462500D01*
G75*
G02*
X169762500Y-117225000I237500J0D01*
G01*
G37*
%TD.AperFunction*%
%TO.P,R1,1*%
%TO.N,back0_div*%
%TA.AperFunction,SMDPad,CuDef*%
G36*
G01*
X169762500Y-115475000D02*
X170237500Y-115475000D01*
G75*
G02*
X170475000Y-115712500I0J-237500D01*
G01*
X170475000Y-116287500D01*
G75*
G02*
X170237500Y-116525000I-237500J0D01*
G01*
X169762500Y-116525000D01*
G75*
G02*
X169525000Y-116287500I0J237500D01*
G01*
X169525000Y-115712500D01*
G75*
G02*
X169762500Y-115475000I237500J0D01*
G01*
G37*
%TD.AperFunction*%
%TD*%
%TO.P,R14,2*%
%TO.N,Net-(J9-Pad1)*%
%TA.AperFunction,SMDPad,CuDef*%
G36*
G01*
X165654500Y-131869000D02*
X166129500Y-131869000D01*
G75*
G02*
X166367000Y-132106500I0J-237500D01*
G01*
X166367000Y-132681500D01*
G75*
G02*
X166129500Y-132919000I-237500J0D01*
G01*
X165654500Y-132919000D01*
G75*
G02*
X165417000Y-132681500I0J237500D01*
G01*
X165417000Y-132106500D01*
G75*
G02*
X165654500Y-131869000I237500J0D01*
G01*
G37*
%TD.AperFunction*%
%TO.P,R14,1*%
%TO.N,Net-(Q1-Pad3)*%
%TA.AperFunction,SMDPad,CuDef*%
G36*
G01*
X165654500Y-130119000D02*
X166129500Y-130119000D01*
G75*
G02*
X166367000Y-130356500I0J-237500D01*
G01*
X166367000Y-130931500D01*
G75*
G02*
X166129500Y-131169000I-237500J0D01*
G01*
X165654500Y-131169000D01*
G75*
G02*
X165417000Y-130931500I0J237500D01*
G01*
X165417000Y-130356500D01*
G75*
G02*
X165654500Y-130119000I237500J0D01*
G01*
G37*
%TD.AperFunction*%
%TD*%
%TO.P,R15,2*%
%TO.N,Net-(Q1-Pad1)*%
%TA.AperFunction,SMDPad,CuDef*%
G36*
G01*
X164762500Y-124600000D02*
X165237500Y-124600000D01*
G75*
G02*
X165475000Y-124837500I0J-237500D01*
G01*
X165475000Y-125412500D01*
G75*
G02*
X165237500Y-125650000I-237500J0D01*
G01*
X164762500Y-125650000D01*
G75*
G02*
X164525000Y-125412500I0J237500D01*
G01*
X164525000Y-124837500D01*
G75*
G02*
X164762500Y-124600000I237500J0D01*
G01*
G37*
%TD.AperFunction*%
%TO.P,R15,1*%
%TO.N,LED_out*%
%TA.AperFunction,SMDPad,CuDef*%
G36*
G01*
X164762500Y-122850000D02*
X165237500Y-122850000D01*
G75*
G02*
X165475000Y-123087500I0J-237500D01*
G01*
X165475000Y-123662500D01*
G75*
G02*
X165237500Y-123900000I-237500J0D01*
G01*
X164762500Y-123900000D01*
G75*
G02*
X164525000Y-123662500I0J237500D01*
G01*
X164525000Y-123087500D01*
G75*
G02*
X164762500Y-122850000I237500J0D01*
G01*
G37*
%TD.AperFunction*%
%TD*%
%TO.P,R16,2*%
%TO.N,LED_out*%
%TA.AperFunction,SMDPad,CuDef*%
G36*
G01*
X166987500Y-123900000D02*
X166512500Y-123900000D01*
G75*
G02*
X166275000Y-123662500I0J237500D01*
G01*
X166275000Y-123087500D01*
G75*
G02*
X166512500Y-122850000I237500J0D01*
G01*
X166987500Y-122850000D01*
G75*
G02*
X167225000Y-123087500I0J-237500D01*
G01*
X167225000Y-123662500D01*
G75*
G02*
X166987500Y-123900000I-237500J0D01*
G01*
G37*
%TD.AperFunction*%
%TO.P,R16,1*%
%TO.N,GND*%
%TA.AperFunction,SMDPad,CuDef*%
G36*
G01*
X166987500Y-125650000D02*
X166512500Y-125650000D01*
G75*
G02*
X166275000Y-125412500I0J237500D01*
G01*
X166275000Y-124837500D01*
G75*
G02*
X166512500Y-124600000I237500J0D01*
G01*
X166987500Y-124600000D01*
G75*
G02*
X167225000Y-124837500I0J-237500D01*
G01*
X167225000Y-125412500D01*
G75*
G02*
X166987500Y-125650000I-237500J0D01*
G01*
G37*
%TD.AperFunction*%
%TD*%
%TO.P,R10,1*%
%TO.N,Net-(J6-Pad2)*%
%TA.AperFunction,SMDPad,CuDef*%
G36*
G01*
X134262500Y-93600000D02*
X134737500Y-93600000D01*
G75*
G02*
X134975000Y-93837500I0J-237500D01*
G01*
X134975000Y-94412500D01*
G75*
G02*
X134737500Y-94650000I-237500J0D01*
G01*
X134262500Y-94650000D01*
G75*
G02*
X134025000Y-94412500I0J237500D01*
G01*
X134025000Y-93837500D01*
G75*
G02*
X134262500Y-93600000I237500J0D01*
G01*
G37*
%TD.AperFunction*%
%TO.P,R10,2*%
%TO.N,3V3*%
%TA.AperFunction,SMDPad,CuDef*%
G36*
G01*
X134262500Y-95350000D02*
X134737500Y-95350000D01*
G75*
G02*
X134975000Y-95587500I0J-237500D01*
G01*
X134975000Y-96162500D01*
G75*
G02*
X134737500Y-96400000I-237500J0D01*
G01*
X134262500Y-96400000D01*
G75*
G02*
X134025000Y-96162500I0J237500D01*
G01*
X134025000Y-95587500D01*
G75*
G02*
X134262500Y-95350000I237500J0D01*
G01*
G37*
%TD.AperFunction*%
%TD*%
D14*
%TO.P,U1,2*%
%TO.N,Net-(J3-Pad2)*%
X143040000Y-120500000D03*
D15*
%TO.P,U1,1*%
%TO.N,Net-(R3-Pad1)*%
X140500000Y-120500000D03*
D14*
%TO.P,U1,3*%
%TO.N,S0*%
X145580000Y-120500000D03*
%TO.P,U1,4*%
%TO.N,SCK*%
X148120000Y-120500000D03*
%TO.P,U1,5*%
%TO.N,MISO*%
X150660000Y-120500000D03*
%TO.P,U1,6*%
%TO.N,MOSI*%
X153200000Y-120500000D03*
%TO.P,U1,7*%
%TO.N,CS*%
X155740000Y-120500000D03*
%TO.P,U1,8*%
%TO.N,3V3*%
X158280000Y-120500000D03*
%TO.P,U1,9*%
%TO.N,5V*%
X158280000Y-97640000D03*
%TO.P,U1,10*%
%TO.N,GND*%
X155740000Y-97640000D03*
%TO.P,U1,11*%
%TO.N,LED_out*%
X153200000Y-97640000D03*
%TO.P,U1,12*%
%TO.N,Net-(R4-Pad2)*%
X150660000Y-97640000D03*
%TO.P,U1,13*%
%TO.N,SDA*%
X148120000Y-97640000D03*
%TO.P,U1,14*%
%TO.N,SCL*%
X145580000Y-97640000D03*
%TO.P,U1,15*%
%TO.N,Net-(U1-Pad15)*%
X143040000Y-97640000D03*
%TO.P,U1,16*%
%TO.N,Net-(U1-Pad16)*%
X140500000Y-97640000D03*
%TD*%
D16*
%TO.P,D1,2*%
%TO.N,Net-(D1-Pad2)*%
X128850000Y-137500000D03*
%TO.P,D1,1*%
%TO.N,5V*%
X132150000Y-137500000D03*
%TD*%
%TO.P,D2,1*%
%TO.N,5V*%
X141150000Y-137500000D03*
%TO.P,D2,2*%
%TO.N,Net-(D2-Pad2)*%
X137850000Y-137500000D03*
%TD*%
%TO.P,D3,2*%
%TO.N,Net-(D3-Pad2)*%
X146850000Y-137500000D03*
%TO.P,D3,1*%
%TO.N,5V*%
X150150000Y-137500000D03*
%TD*%
%TO.P,D4,1*%
%TO.N,5V*%
X159150000Y-137500000D03*
%TO.P,D4,2*%
%TO.N,Net-(D4-Pad2)*%
X155850000Y-137500000D03*
%TD*%
D11*
%TO.P,Q2,3*%
%TO.N,Net-(D1-Pad2)*%
X129500000Y-133000000D03*
%TO.P,Q2,2*%
%TO.N,GND*%
X130450000Y-131000000D03*
%TO.P,Q2,1*%
%TO.N,Net-(Q2-Pad1)*%
X128550000Y-131000000D03*
%TD*%
%TO.P,Q3,1*%
%TO.N,Net-(Q3-Pad1)*%
X137050000Y-131000000D03*
%TO.P,Q3,2*%
%TO.N,GND*%
X138950000Y-131000000D03*
%TO.P,Q3,3*%
%TO.N,Net-(D2-Pad2)*%
X138000000Y-133000000D03*
%TD*%
%TO.P,Q4,3*%
%TO.N,Net-(D3-Pad2)*%
X147000000Y-133000000D03*
%TO.P,Q4,2*%
%TO.N,GND*%
X147950000Y-131000000D03*
%TO.P,Q4,1*%
%TO.N,Net-(Q4-Pad1)*%
X146050000Y-131000000D03*
%TD*%
%TO.P,Q5,1*%
%TO.N,Net-(Q5-Pad1)*%
X155050000Y-131000000D03*
%TO.P,Q5,2*%
%TO.N,GND*%
X156950000Y-131000000D03*
%TO.P,Q5,3*%
%TO.N,Net-(D4-Pad2)*%
X156000000Y-133000000D03*
%TD*%
%TO.P,R3,1*%
%TO.N,Net-(R3-Pad1)*%
%TA.AperFunction,SMDPad,CuDef*%
G36*
G01*
X139262500Y-122475000D02*
X139737500Y-122475000D01*
G75*
G02*
X139975000Y-122712500I0J-237500D01*
G01*
X139975000Y-123287500D01*
G75*
G02*
X139737500Y-123525000I-237500J0D01*
G01*
X139262500Y-123525000D01*
G75*
G02*
X139025000Y-123287500I0J237500D01*
G01*
X139025000Y-122712500D01*
G75*
G02*
X139262500Y-122475000I237500J0D01*
G01*
G37*
%TD.AperFunction*%
%TO.P,R3,2*%
%TO.N,3V3*%
%TA.AperFunction,SMDPad,CuDef*%
G36*
G01*
X139262500Y-124225000D02*
X139737500Y-124225000D01*
G75*
G02*
X139975000Y-124462500I0J-237500D01*
G01*
X139975000Y-125037500D01*
G75*
G02*
X139737500Y-125275000I-237500J0D01*
G01*
X139262500Y-125275000D01*
G75*
G02*
X139025000Y-125037500I0J237500D01*
G01*
X139025000Y-124462500D01*
G75*
G02*
X139262500Y-124225000I237500J0D01*
G01*
G37*
%TD.AperFunction*%
%TD*%
%TO.P,R4,1*%
%TO.N,back0_div*%
%TA.AperFunction,SMDPad,CuDef*%
G36*
G01*
X163737500Y-111900000D02*
X163262500Y-111900000D01*
G75*
G02*
X163025000Y-111662500I0J237500D01*
G01*
X163025000Y-111087500D01*
G75*
G02*
X163262500Y-110850000I237500J0D01*
G01*
X163737500Y-110850000D01*
G75*
G02*
X163975000Y-111087500I0J-237500D01*
G01*
X163975000Y-111662500D01*
G75*
G02*
X163737500Y-111900000I-237500J0D01*
G01*
G37*
%TD.AperFunction*%
%TO.P,R4,2*%
%TO.N,Net-(R4-Pad2)*%
%TA.AperFunction,SMDPad,CuDef*%
G36*
G01*
X163737500Y-110150000D02*
X163262500Y-110150000D01*
G75*
G02*
X163025000Y-109912500I0J237500D01*
G01*
X163025000Y-109337500D01*
G75*
G02*
X163262500Y-109100000I237500J0D01*
G01*
X163737500Y-109100000D01*
G75*
G02*
X163975000Y-109337500I0J-237500D01*
G01*
X163975000Y-109912500D01*
G75*
G02*
X163737500Y-110150000I-237500J0D01*
G01*
G37*
%TD.AperFunction*%
%TD*%
%TO.P,R5,2*%
%TO.N,bouton1*%
%TA.AperFunction,SMDPad,CuDef*%
G36*
G01*
X163737500Y-106275000D02*
X163262500Y-106275000D01*
G75*
G02*
X163025000Y-106037500I0J237500D01*
G01*
X163025000Y-105462500D01*
G75*
G02*
X163262500Y-105225000I237500J0D01*
G01*
X163737500Y-105225000D01*
G75*
G02*
X163975000Y-105462500I0J-237500D01*
G01*
X163975000Y-106037500D01*
G75*
G02*
X163737500Y-106275000I-237500J0D01*
G01*
G37*
%TD.AperFunction*%
%TO.P,R5,1*%
%TO.N,Net-(R4-Pad2)*%
%TA.AperFunction,SMDPad,CuDef*%
G36*
G01*
X163737500Y-108025000D02*
X163262500Y-108025000D01*
G75*
G02*
X163025000Y-107787500I0J237500D01*
G01*
X163025000Y-107212500D01*
G75*
G02*
X163262500Y-106975000I237500J0D01*
G01*
X163737500Y-106975000D01*
G75*
G02*
X163975000Y-107212500I0J-237500D01*
G01*
X163975000Y-107787500D01*
G75*
G02*
X163737500Y-108025000I-237500J0D01*
G01*
G37*
%TD.AperFunction*%
%TD*%
%TO.P,R17,2*%
%TO.N,Net-(R17-Pad2)*%
%TA.AperFunction,SMDPad,CuDef*%
G36*
G01*
X146850000Y-117862500D02*
X146850000Y-118337500D01*
G75*
G02*
X146612500Y-118575000I-237500J0D01*
G01*
X146037500Y-118575000D01*
G75*
G02*
X145800000Y-118337500I0J237500D01*
G01*
X145800000Y-117862500D01*
G75*
G02*
X146037500Y-117625000I237500J0D01*
G01*
X146612500Y-117625000D01*
G75*
G02*
X146850000Y-117862500I0J-237500D01*
G01*
G37*
%TD.AperFunction*%
%TO.P,R17,1*%
%TO.N,SCK*%
%TA.AperFunction,SMDPad,CuDef*%
G36*
G01*
X148600000Y-117862500D02*
X148600000Y-118337500D01*
G75*
G02*
X148362500Y-118575000I-237500J0D01*
G01*
X147787500Y-118575000D01*
G75*
G02*
X147550000Y-118337500I0J237500D01*
G01*
X147550000Y-117862500D01*
G75*
G02*
X147787500Y-117625000I237500J0D01*
G01*
X148362500Y-117625000D01*
G75*
G02*
X148600000Y-117862500I0J-237500D01*
G01*
G37*
%TD.AperFunction*%
%TD*%
%TO.P,R18,2*%
%TO.N,Net-(Q2-Pad1)*%
%TA.AperFunction,SMDPad,CuDef*%
G36*
G01*
X129150000Y-129262500D02*
X129150000Y-129737500D01*
G75*
G02*
X128912500Y-129975000I-237500J0D01*
G01*
X128337500Y-129975000D01*
G75*
G02*
X128100000Y-129737500I0J237500D01*
G01*
X128100000Y-129262500D01*
G75*
G02*
X128337500Y-129025000I237500J0D01*
G01*
X128912500Y-129025000D01*
G75*
G02*
X129150000Y-129262500I0J-237500D01*
G01*
G37*
%TD.AperFunction*%
%TO.P,R18,1*%
%TO.N,Net-(R17-Pad2)*%
%TA.AperFunction,SMDPad,CuDef*%
G36*
G01*
X130900000Y-129262500D02*
X130900000Y-129737500D01*
G75*
G02*
X130662500Y-129975000I-237500J0D01*
G01*
X130087500Y-129975000D01*
G75*
G02*
X129850000Y-129737500I0J237500D01*
G01*
X129850000Y-129262500D01*
G75*
G02*
X130087500Y-129025000I237500J0D01*
G01*
X130662500Y-129025000D01*
G75*
G02*
X130900000Y-129262500I0J-237500D01*
G01*
G37*
%TD.AperFunction*%
%TD*%
%TO.P,R19,1*%
%TO.N,MISO*%
%TA.AperFunction,SMDPad,CuDef*%
G36*
G01*
X150775000Y-124262500D02*
X150775000Y-124737500D01*
G75*
G02*
X150537500Y-124975000I-237500J0D01*
G01*
X149962500Y-124975000D01*
G75*
G02*
X149725000Y-124737500I0J237500D01*
G01*
X149725000Y-124262500D01*
G75*
G02*
X149962500Y-124025000I237500J0D01*
G01*
X150537500Y-124025000D01*
G75*
G02*
X150775000Y-124262500I0J-237500D01*
G01*
G37*
%TD.AperFunction*%
%TO.P,R19,2*%
%TO.N,Net-(R19-Pad2)*%
%TA.AperFunction,SMDPad,CuDef*%
G36*
G01*
X149025000Y-124262500D02*
X149025000Y-124737500D01*
G75*
G02*
X148787500Y-124975000I-237500J0D01*
G01*
X148212500Y-124975000D01*
G75*
G02*
X147975000Y-124737500I0J237500D01*
G01*
X147975000Y-124262500D01*
G75*
G02*
X148212500Y-124025000I237500J0D01*
G01*
X148787500Y-124025000D01*
G75*
G02*
X149025000Y-124262500I0J-237500D01*
G01*
G37*
%TD.AperFunction*%
%TD*%
%TO.P,R20,2*%
%TO.N,Net-(Q3-Pad1)*%
%TA.AperFunction,SMDPad,CuDef*%
G36*
G01*
X137650000Y-129262500D02*
X137650000Y-129737500D01*
G75*
G02*
X137412500Y-129975000I-237500J0D01*
G01*
X136837500Y-129975000D01*
G75*
G02*
X136600000Y-129737500I0J237500D01*
G01*
X136600000Y-129262500D01*
G75*
G02*
X136837500Y-129025000I237500J0D01*
G01*
X137412500Y-129025000D01*
G75*
G02*
X137650000Y-129262500I0J-237500D01*
G01*
G37*
%TD.AperFunction*%
%TO.P,R20,1*%
%TO.N,Net-(R19-Pad2)*%
%TA.AperFunction,SMDPad,CuDef*%
G36*
G01*
X139400000Y-129262500D02*
X139400000Y-129737500D01*
G75*
G02*
X139162500Y-129975000I-237500J0D01*
G01*
X138587500Y-129975000D01*
G75*
G02*
X138350000Y-129737500I0J237500D01*
G01*
X138350000Y-129262500D01*
G75*
G02*
X138587500Y-129025000I237500J0D01*
G01*
X139162500Y-129025000D01*
G75*
G02*
X139400000Y-129262500I0J-237500D01*
G01*
G37*
%TD.AperFunction*%
%TD*%
%TO.P,R21,2*%
%TO.N,Net-(R21-Pad2)*%
%TA.AperFunction,SMDPad,CuDef*%
G36*
G01*
X152762500Y-130350000D02*
X153237500Y-130350000D01*
G75*
G02*
X153475000Y-130587500I0J-237500D01*
G01*
X153475000Y-131162500D01*
G75*
G02*
X153237500Y-131400000I-237500J0D01*
G01*
X152762500Y-131400000D01*
G75*
G02*
X152525000Y-131162500I0J237500D01*
G01*
X152525000Y-130587500D01*
G75*
G02*
X152762500Y-130350000I237500J0D01*
G01*
G37*
%TD.AperFunction*%
%TO.P,R21,1*%
%TO.N,MOSI*%
%TA.AperFunction,SMDPad,CuDef*%
G36*
G01*
X152762500Y-128600000D02*
X153237500Y-128600000D01*
G75*
G02*
X153475000Y-128837500I0J-237500D01*
G01*
X153475000Y-129412500D01*
G75*
G02*
X153237500Y-129650000I-237500J0D01*
G01*
X152762500Y-129650000D01*
G75*
G02*
X152525000Y-129412500I0J237500D01*
G01*
X152525000Y-128837500D01*
G75*
G02*
X152762500Y-128600000I237500J0D01*
G01*
G37*
%TD.AperFunction*%
%TD*%
%TO.P,R22,2*%
%TO.N,Net-(Q4-Pad1)*%
%TA.AperFunction,SMDPad,CuDef*%
G36*
G01*
X146650000Y-129262500D02*
X146650000Y-129737500D01*
G75*
G02*
X146412500Y-129975000I-237500J0D01*
G01*
X145837500Y-129975000D01*
G75*
G02*
X145600000Y-129737500I0J237500D01*
G01*
X145600000Y-129262500D01*
G75*
G02*
X145837500Y-129025000I237500J0D01*
G01*
X146412500Y-129025000D01*
G75*
G02*
X146650000Y-129262500I0J-237500D01*
G01*
G37*
%TD.AperFunction*%
%TO.P,R22,1*%
%TO.N,Net-(R21-Pad2)*%
%TA.AperFunction,SMDPad,CuDef*%
G36*
G01*
X148400000Y-129262500D02*
X148400000Y-129737500D01*
G75*
G02*
X148162500Y-129975000I-237500J0D01*
G01*
X147587500Y-129975000D01*
G75*
G02*
X147350000Y-129737500I0J237500D01*
G01*
X147350000Y-129262500D01*
G75*
G02*
X147587500Y-129025000I237500J0D01*
G01*
X148162500Y-129025000D01*
G75*
G02*
X148400000Y-129262500I0J-237500D01*
G01*
G37*
%TD.AperFunction*%
%TD*%
%TO.P,R23,1*%
%TO.N,CS*%
%TA.AperFunction,SMDPad,CuDef*%
G36*
G01*
X159725000Y-127237500D02*
X159725000Y-126762500D01*
G75*
G02*
X159962500Y-126525000I237500J0D01*
G01*
X160537500Y-126525000D01*
G75*
G02*
X160775000Y-126762500I0J-237500D01*
G01*
X160775000Y-127237500D01*
G75*
G02*
X160537500Y-127475000I-237500J0D01*
G01*
X159962500Y-127475000D01*
G75*
G02*
X159725000Y-127237500I0J237500D01*
G01*
G37*
%TD.AperFunction*%
%TO.P,R23,2*%
%TO.N,Net-(R23-Pad2)*%
%TA.AperFunction,SMDPad,CuDef*%
G36*
G01*
X161475000Y-127237500D02*
X161475000Y-126762500D01*
G75*
G02*
X161712500Y-126525000I237500J0D01*
G01*
X162287500Y-126525000D01*
G75*
G02*
X162525000Y-126762500I0J-237500D01*
G01*
X162525000Y-127237500D01*
G75*
G02*
X162287500Y-127475000I-237500J0D01*
G01*
X161712500Y-127475000D01*
G75*
G02*
X161475000Y-127237500I0J237500D01*
G01*
G37*
%TD.AperFunction*%
%TD*%
%TO.P,R24,1*%
%TO.N,Net-(R23-Pad2)*%
%TA.AperFunction,SMDPad,CuDef*%
G36*
G01*
X157400000Y-129262500D02*
X157400000Y-129737500D01*
G75*
G02*
X157162500Y-129975000I-237500J0D01*
G01*
X156587500Y-129975000D01*
G75*
G02*
X156350000Y-129737500I0J237500D01*
G01*
X156350000Y-129262500D01*
G75*
G02*
X156587500Y-129025000I237500J0D01*
G01*
X157162500Y-129025000D01*
G75*
G02*
X157400000Y-129262500I0J-237500D01*
G01*
G37*
%TD.AperFunction*%
%TO.P,R24,2*%
%TO.N,Net-(Q5-Pad1)*%
%TA.AperFunction,SMDPad,CuDef*%
G36*
G01*
X155650000Y-129262500D02*
X155650000Y-129737500D01*
G75*
G02*
X155412500Y-129975000I-237500J0D01*
G01*
X154837500Y-129975000D01*
G75*
G02*
X154600000Y-129737500I0J237500D01*
G01*
X154600000Y-129262500D01*
G75*
G02*
X154837500Y-129025000I237500J0D01*
G01*
X155412500Y-129025000D01*
G75*
G02*
X155650000Y-129262500I0J-237500D01*
G01*
G37*
%TD.AperFunction*%
%TD*%
%TO.P,R25,1*%
%TO.N,GND*%
%TA.AperFunction,SMDPad,CuDef*%
G36*
G01*
X132737500Y-132400000D02*
X132262500Y-132400000D01*
G75*
G02*
X132025000Y-132162500I0J237500D01*
G01*
X132025000Y-131587500D01*
G75*
G02*
X132262500Y-131350000I237500J0D01*
G01*
X132737500Y-131350000D01*
G75*
G02*
X132975000Y-131587500I0J-237500D01*
G01*
X132975000Y-132162500D01*
G75*
G02*
X132737500Y-132400000I-237500J0D01*
G01*
G37*
%TD.AperFunction*%
%TO.P,R25,2*%
%TO.N,Net-(R17-Pad2)*%
%TA.AperFunction,SMDPad,CuDef*%
G36*
G01*
X132737500Y-130650000D02*
X132262500Y-130650000D01*
G75*
G02*
X132025000Y-130412500I0J237500D01*
G01*
X132025000Y-129837500D01*
G75*
G02*
X132262500Y-129600000I237500J0D01*
G01*
X132737500Y-129600000D01*
G75*
G02*
X132975000Y-129837500I0J-237500D01*
G01*
X132975000Y-130412500D01*
G75*
G02*
X132737500Y-130650000I-237500J0D01*
G01*
G37*
%TD.AperFunction*%
%TD*%
%TO.P,R26,2*%
%TO.N,Net-(R19-Pad2)*%
%TA.AperFunction,SMDPad,CuDef*%
G36*
G01*
X141237500Y-130650000D02*
X140762500Y-130650000D01*
G75*
G02*
X140525000Y-130412500I0J237500D01*
G01*
X140525000Y-129837500D01*
G75*
G02*
X140762500Y-129600000I237500J0D01*
G01*
X141237500Y-129600000D01*
G75*
G02*
X141475000Y-129837500I0J-237500D01*
G01*
X141475000Y-130412500D01*
G75*
G02*
X141237500Y-130650000I-237500J0D01*
G01*
G37*
%TD.AperFunction*%
%TO.P,R26,1*%
%TO.N,GND*%
%TA.AperFunction,SMDPad,CuDef*%
G36*
G01*
X141237500Y-132400000D02*
X140762500Y-132400000D01*
G75*
G02*
X140525000Y-132162500I0J237500D01*
G01*
X140525000Y-131587500D01*
G75*
G02*
X140762500Y-131350000I237500J0D01*
G01*
X141237500Y-131350000D01*
G75*
G02*
X141475000Y-131587500I0J-237500D01*
G01*
X141475000Y-132162500D01*
G75*
G02*
X141237500Y-132400000I-237500J0D01*
G01*
G37*
%TD.AperFunction*%
%TD*%
%TO.P,R27,1*%
%TO.N,GND*%
%TA.AperFunction,SMDPad,CuDef*%
G36*
G01*
X150237500Y-132400000D02*
X149762500Y-132400000D01*
G75*
G02*
X149525000Y-132162500I0J237500D01*
G01*
X149525000Y-131587500D01*
G75*
G02*
X149762500Y-131350000I237500J0D01*
G01*
X150237500Y-131350000D01*
G75*
G02*
X150475000Y-131587500I0J-237500D01*
G01*
X150475000Y-132162500D01*
G75*
G02*
X150237500Y-132400000I-237500J0D01*
G01*
G37*
%TD.AperFunction*%
%TO.P,R27,2*%
%TO.N,Net-(R21-Pad2)*%
%TA.AperFunction,SMDPad,CuDef*%
G36*
G01*
X150237500Y-130650000D02*
X149762500Y-130650000D01*
G75*
G02*
X149525000Y-130412500I0J237500D01*
G01*
X149525000Y-129837500D01*
G75*
G02*
X149762500Y-129600000I237500J0D01*
G01*
X150237500Y-129600000D01*
G75*
G02*
X150475000Y-129837500I0J-237500D01*
G01*
X150475000Y-130412500D01*
G75*
G02*
X150237500Y-130650000I-237500J0D01*
G01*
G37*
%TD.AperFunction*%
%TD*%
%TO.P,R28,2*%
%TO.N,Net-(R23-Pad2)*%
%TA.AperFunction,SMDPad,CuDef*%
G36*
G01*
X159237500Y-130650000D02*
X158762500Y-130650000D01*
G75*
G02*
X158525000Y-130412500I0J237500D01*
G01*
X158525000Y-129837500D01*
G75*
G02*
X158762500Y-129600000I237500J0D01*
G01*
X159237500Y-129600000D01*
G75*
G02*
X159475000Y-129837500I0J-237500D01*
G01*
X159475000Y-130412500D01*
G75*
G02*
X159237500Y-130650000I-237500J0D01*
G01*
G37*
%TD.AperFunction*%
%TO.P,R28,1*%
%TO.N,GND*%
%TA.AperFunction,SMDPad,CuDef*%
G36*
G01*
X159237500Y-132400000D02*
X158762500Y-132400000D01*
G75*
G02*
X158525000Y-132162500I0J237500D01*
G01*
X158525000Y-131587500D01*
G75*
G02*
X158762500Y-131350000I237500J0D01*
G01*
X159237500Y-131350000D01*
G75*
G02*
X159475000Y-131587500I0J-237500D01*
G01*
X159475000Y-132162500D01*
G75*
G02*
X159237500Y-132400000I-237500J0D01*
G01*
G37*
%TD.AperFunction*%
%TD*%
%TO.P,C1,1*%
%TO.N,Net-(C1-Pad1)*%
%TA.AperFunction,SMDPad,CuDef*%
G36*
G01*
X159775000Y-85799999D02*
X159775000Y-88000001D01*
G75*
G02*
X159525001Y-88250000I-249999J0D01*
G01*
X158874999Y-88250000D01*
G75*
G02*
X158625000Y-88000001I0J249999D01*
G01*
X158625000Y-85799999D01*
G75*
G02*
X158874999Y-85550000I249999J0D01*
G01*
X159525001Y-85550000D01*
G75*
G02*
X159775000Y-85799999I0J-249999D01*
G01*
G37*
%TD.AperFunction*%
%TO.P,C1,2*%
%TO.N,GND*%
%TA.AperFunction,SMDPad,CuDef*%
G36*
G01*
X156825000Y-85799999D02*
X156825000Y-88000001D01*
G75*
G02*
X156575001Y-88250000I-249999J0D01*
G01*
X155924999Y-88250000D01*
G75*
G02*
X155675000Y-88000001I0J249999D01*
G01*
X155675000Y-85799999D01*
G75*
G02*
X155924999Y-85550000I249999J0D01*
G01*
X156575001Y-85550000D01*
G75*
G02*
X156825000Y-85799999I0J-249999D01*
G01*
G37*
%TD.AperFunction*%
%TD*%
%TO.P,C2,2*%
%TO.N,GND*%
%TA.AperFunction,SMDPad,CuDef*%
G36*
G01*
X141599999Y-86200000D02*
X143800001Y-86200000D01*
G75*
G02*
X144050000Y-86449999I0J-249999D01*
G01*
X144050000Y-87100001D01*
G75*
G02*
X143800001Y-87350000I-249999J0D01*
G01*
X141599999Y-87350000D01*
G75*
G02*
X141350000Y-87100001I0J249999D01*
G01*
X141350000Y-86449999D01*
G75*
G02*
X141599999Y-86200000I249999J0D01*
G01*
G37*
%TD.AperFunction*%
%TO.P,C2,1*%
%TO.N,5V*%
%TA.AperFunction,SMDPad,CuDef*%
G36*
G01*
X141599999Y-83250000D02*
X143800001Y-83250000D01*
G75*
G02*
X144050000Y-83499999I0J-249999D01*
G01*
X144050000Y-84150001D01*
G75*
G02*
X143800001Y-84400000I-249999J0D01*
G01*
X141599999Y-84400000D01*
G75*
G02*
X141350000Y-84150001I0J249999D01*
G01*
X141350000Y-83499999D01*
G75*
G02*
X141599999Y-83250000I249999J0D01*
G01*
G37*
%TD.AperFunction*%
%TD*%
D16*
%TO.P,D5,2*%
%TO.N,Vin*%
X164450000Y-86300000D03*
%TO.P,D5,1*%
%TO.N,Net-(C1-Pad1)*%
X161150000Y-86300000D03*
%TD*%
%TO.P,D6,1*%
%TO.N,5V*%
X148450000Y-83400000D03*
%TO.P,D6,2*%
%TO.N,Net-(D6-Pad2)*%
X151750000Y-83400000D03*
%TD*%
D17*
%TO.P,U2,1*%
%TO.N,Net-(C1-Pad1)*%
X158900000Y-83400000D03*
D18*
%TO.P,U2,2*%
%TO.N,GND*%
X156360000Y-83400000D03*
%TO.P,U2,3*%
%TO.N,Net-(D6-Pad2)*%
X153820000Y-83400000D03*
%TD*%
%TO.P,J1,1*%
%TO.N,GND*%
%TA.AperFunction,ComponentPad*%
G36*
G01*
X170725000Y-128350000D02*
X169275000Y-128350000D01*
G75*
G02*
X169025000Y-128100000I0J250000D01*
G01*
X169025000Y-126900000D01*
G75*
G02*
X169275000Y-126650000I250000J0D01*
G01*
X170725000Y-126650000D01*
G75*
G02*
X170975000Y-126900000I0J-250000D01*
G01*
X170975000Y-128100000D01*
G75*
G02*
X170725000Y-128350000I-250000J0D01*
G01*
G37*
%TD.AperFunction*%
D19*
%TO.P,J1,2*%
%TO.N,5V*%
X170000000Y-125000000D03*
%TO.P,J1,3*%
%TO.N,S0*%
X170000000Y-122500000D03*
%TO.P,J1,4*%
%TO.N,back0*%
X170000000Y-120000000D03*
%TD*%
D20*
%TO.P,J2,2*%
%TO.N,Vin*%
X167100000Y-86400000D03*
%TO.P,J2,1*%
%TO.N,GND*%
%TA.AperFunction,ComponentPad*%
G36*
G01*
X166350000Y-83050000D02*
X167850000Y-83050000D01*
G75*
G02*
X168100000Y-83300000I0J-250000D01*
G01*
X168100000Y-84500000D01*
G75*
G02*
X167850000Y-84750000I-250000J0D01*
G01*
X166350000Y-84750000D01*
G75*
G02*
X166100000Y-84500000I0J250000D01*
G01*
X166100000Y-83300000D01*
G75*
G02*
X166350000Y-83050000I250000J0D01*
G01*
G37*
%TD.AperFunction*%
%TD*%
%TO.P,J5,1*%
%TO.N,CS*%
%TA.AperFunction,ComponentPad*%
G36*
G01*
X158850000Y-126275000D02*
X158850000Y-127725000D01*
G75*
G02*
X158600000Y-127975000I-250000J0D01*
G01*
X157400000Y-127975000D01*
G75*
G02*
X157150000Y-127725000I0J250000D01*
G01*
X157150000Y-126275000D01*
G75*
G02*
X157400000Y-126025000I250000J0D01*
G01*
X158600000Y-126025000D01*
G75*
G02*
X158850000Y-126275000I0J-250000D01*
G01*
G37*
%TD.AperFunction*%
D21*
%TO.P,J5,2*%
%TO.N,SCK*%
X155500000Y-127000000D03*
%TO.P,J5,3*%
%TO.N,MOSI*%
X153000000Y-127000000D03*
%TO.P,J5,4*%
%TO.N,MISO*%
X150500000Y-127000000D03*
%TD*%
%TO.P,J6,4*%
%TO.N,SDA*%
X139300000Y-91500000D03*
%TO.P,J6,3*%
%TO.N,SCL*%
X136800000Y-91500000D03*
%TO.P,J6,2*%
%TO.N,Net-(J6-Pad2)*%
X134300000Y-91500000D03*
%TO.P,J6,1*%
%TO.N,GND*%
%TA.AperFunction,ComponentPad*%
G36*
G01*
X130950000Y-92225000D02*
X130950000Y-90775000D01*
G75*
G02*
X131200000Y-90525000I250000J0D01*
G01*
X132400000Y-90525000D01*
G75*
G02*
X132650000Y-90775000I0J-250000D01*
G01*
X132650000Y-92225000D01*
G75*
G02*
X132400000Y-92475000I-250000J0D01*
G01*
X131200000Y-92475000D01*
G75*
G02*
X130950000Y-92225000I0J250000D01*
G01*
G37*
%TD.AperFunction*%
%TD*%
%TO.P,J7,1*%
%TO.N,GND*%
%TA.AperFunction,ComponentPad*%
G36*
G01*
X145350000Y-126275000D02*
X145350000Y-127725000D01*
G75*
G02*
X145100000Y-127975000I-250000J0D01*
G01*
X143900000Y-127975000D01*
G75*
G02*
X143650000Y-127725000I0J250000D01*
G01*
X143650000Y-126275000D01*
G75*
G02*
X143900000Y-126025000I250000J0D01*
G01*
X145100000Y-126025000D01*
G75*
G02*
X145350000Y-126275000I0J-250000D01*
G01*
G37*
%TD.AperFunction*%
%TO.P,J7,2*%
%TO.N,Net-(J7-Pad2)*%
X142000000Y-127000000D03*
%TO.P,J7,3*%
%TO.N,3V3*%
X139500000Y-127000000D03*
%TD*%
%TO.P,J8,1*%
%TO.N,GND*%
%TA.AperFunction,ComponentPad*%
G36*
G01*
X170350000Y-91850000D02*
X171850000Y-91850000D01*
G75*
G02*
X172100000Y-92100000I0J-250000D01*
G01*
X172100000Y-93300000D01*
G75*
G02*
X171850000Y-93550000I-250000J0D01*
G01*
X170350000Y-93550000D01*
G75*
G02*
X170100000Y-93300000I0J250000D01*
G01*
X170100000Y-92100000D01*
G75*
G02*
X170350000Y-91850000I250000J0D01*
G01*
G37*
%TD.AperFunction*%
D20*
%TO.P,J8,2*%
%TO.N,bouton1*%
X171100000Y-95200000D03*
%TD*%
%TO.P,J9,1*%
%TO.N,Net-(J9-Pad1)*%
%TA.AperFunction,ComponentPad*%
G36*
G01*
X164150000Y-135750000D02*
X164150000Y-134250000D01*
G75*
G02*
X164400000Y-134000000I250000J0D01*
G01*
X165600000Y-134000000D01*
G75*
G02*
X165850000Y-134250000I0J-250000D01*
G01*
X165850000Y-135750000D01*
G75*
G02*
X165600000Y-136000000I-250000J0D01*
G01*
X164400000Y-136000000D01*
G75*
G02*
X164150000Y-135750000I0J250000D01*
G01*
G37*
%TD.AperFunction*%
D22*
%TO.P,J9,2*%
%TO.N,5V*%
X167500000Y-135000000D03*
%TD*%
%TO.P,J10,2*%
%TO.N,5V*%
X131500000Y-135000000D03*
%TO.P,J10,1*%
%TO.N,Net-(D1-Pad2)*%
%TA.AperFunction,ComponentPad*%
G36*
G01*
X128150000Y-135750000D02*
X128150000Y-134250000D01*
G75*
G02*
X128400000Y-134000000I250000J0D01*
G01*
X129600000Y-134000000D01*
G75*
G02*
X129850000Y-134250000I0J-250000D01*
G01*
X129850000Y-135750000D01*
G75*
G02*
X129600000Y-136000000I-250000J0D01*
G01*
X128400000Y-136000000D01*
G75*
G02*
X128150000Y-135750000I0J250000D01*
G01*
G37*
%TD.AperFunction*%
%TD*%
%TO.P,J11,1*%
%TO.N,Net-(D2-Pad2)*%
%TA.AperFunction,ComponentPad*%
G36*
G01*
X137150000Y-135750000D02*
X137150000Y-134250000D01*
G75*
G02*
X137400000Y-134000000I250000J0D01*
G01*
X138600000Y-134000000D01*
G75*
G02*
X138850000Y-134250000I0J-250000D01*
G01*
X138850000Y-135750000D01*
G75*
G02*
X138600000Y-136000000I-250000J0D01*
G01*
X137400000Y-136000000D01*
G75*
G02*
X137150000Y-135750000I0J250000D01*
G01*
G37*
%TD.AperFunction*%
%TO.P,J11,2*%
%TO.N,5V*%
X140500000Y-135000000D03*
%TD*%
%TO.P,J12,1*%
%TO.N,Net-(D3-Pad2)*%
%TA.AperFunction,ComponentPad*%
G36*
G01*
X146150000Y-135750000D02*
X146150000Y-134250000D01*
G75*
G02*
X146400000Y-134000000I250000J0D01*
G01*
X147600000Y-134000000D01*
G75*
G02*
X147850000Y-134250000I0J-250000D01*
G01*
X147850000Y-135750000D01*
G75*
G02*
X147600000Y-136000000I-250000J0D01*
G01*
X146400000Y-136000000D01*
G75*
G02*
X146150000Y-135750000I0J250000D01*
G01*
G37*
%TD.AperFunction*%
%TO.P,J12,2*%
%TO.N,5V*%
X149500000Y-135000000D03*
%TD*%
%TO.P,J13,2*%
%TO.N,5V*%
X158500000Y-135000000D03*
%TO.P,J13,1*%
%TO.N,Net-(D4-Pad2)*%
%TA.AperFunction,ComponentPad*%
G36*
G01*
X155150000Y-135750000D02*
X155150000Y-134250000D01*
G75*
G02*
X155400000Y-134000000I250000J0D01*
G01*
X156600000Y-134000000D01*
G75*
G02*
X156850000Y-134250000I0J-250000D01*
G01*
X156850000Y-135750000D01*
G75*
G02*
X156600000Y-136000000I-250000J0D01*
G01*
X155400000Y-136000000D01*
G75*
G02*
X155150000Y-135750000I0J250000D01*
G01*
G37*
%TD.AperFunction*%
%TD*%
%TO.P,J15,1*%
%TO.N,GND*%
%TA.AperFunction,ComponentPad*%
G36*
G01*
X146750000Y-87350000D02*
X145250000Y-87350000D01*
G75*
G02*
X145000000Y-87100000I0J250000D01*
G01*
X145000000Y-85900000D01*
G75*
G02*
X145250000Y-85650000I250000J0D01*
G01*
X146750000Y-85650000D01*
G75*
G02*
X147000000Y-85900000I0J-250000D01*
G01*
X147000000Y-87100000D01*
G75*
G02*
X146750000Y-87350000I-250000J0D01*
G01*
G37*
%TD.AperFunction*%
D20*
%TO.P,J15,2*%
%TO.N,5V*%
X146000000Y-84000000D03*
%TD*%
%TO.P,J3,1*%
%TO.N,GND*%
%TA.AperFunction,ComponentPad*%
G36*
G01*
X134350000Y-126275000D02*
X134350000Y-127725000D01*
G75*
G02*
X134100000Y-127975000I-250000J0D01*
G01*
X132900000Y-127975000D01*
G75*
G02*
X132650000Y-127725000I0J250000D01*
G01*
X132650000Y-126275000D01*
G75*
G02*
X132900000Y-126025000I250000J0D01*
G01*
X134100000Y-126025000D01*
G75*
G02*
X134350000Y-126275000I0J-250000D01*
G01*
G37*
%TD.AperFunction*%
D21*
%TO.P,J3,2*%
%TO.N,Net-(J3-Pad2)*%
X131000000Y-127000000D03*
%TO.P,J3,3*%
%TO.N,3V3*%
X128500000Y-127000000D03*
%TD*%
D23*
%TO.N,GND*%
X160500000Y-133100000D03*
X151200000Y-133100000D03*
X142000000Y-133100000D03*
X133200000Y-133100000D03*
X151000000Y-112000000D03*
%TO.N,3V3*%
X167500000Y-108600000D03*
X158280000Y-113646000D03*
%TO.N,LED_out*%
X153200000Y-106000000D03*
%TO.N,Net-(R17-Pad2)*%
X135400000Y-118300000D03*
X131700000Y-129100000D03*
%TO.N,Net-(R19-Pad2)*%
X146700000Y-124600000D03*
X140500000Y-129000000D03*
%TD*%
D24*
%TO.N,GND*%
X120000000Y-85000000D02*
X131500000Y-85000000D01*
X131500000Y-85000000D02*
X132000000Y-85000000D01*
X131800000Y-91500000D02*
X131800000Y-85200000D01*
X131600000Y-85000000D02*
X131500000Y-85000000D01*
X131800000Y-85200000D02*
X131600000Y-85000000D01*
X142700000Y-86775000D02*
X142700000Y-88200000D01*
X142700000Y-88200000D02*
X143000000Y-88500000D01*
X143000000Y-88500000D02*
X145500000Y-88500000D01*
X145500000Y-88500000D02*
X146000000Y-88000000D01*
X146000000Y-88000000D02*
X146000000Y-86500000D01*
X142700000Y-88200000D02*
X135200000Y-88200000D01*
X132000000Y-85000000D02*
X131600000Y-85000000D01*
X135200000Y-88200000D02*
X132000000Y-85000000D01*
X146400000Y-86900000D02*
X146000000Y-86500000D01*
X156360000Y-83400000D02*
X156360000Y-83840000D01*
X154900000Y-85300000D02*
X154900000Y-86900000D01*
X156360000Y-83840000D02*
X154900000Y-85300000D01*
X156250000Y-86900000D02*
X154900000Y-86900000D01*
X173900000Y-83900000D02*
X175000000Y-85000000D01*
X167100000Y-83900000D02*
X173900000Y-83900000D01*
X171100000Y-88900000D02*
X175000000Y-85000000D01*
X171100000Y-92700000D02*
X171100000Y-88900000D01*
X130450000Y-131000000D02*
X131200000Y-131000000D01*
X131200000Y-131000000D02*
X131500000Y-131300000D01*
X131500000Y-131300000D02*
X131500000Y-132600000D01*
X131500000Y-132600000D02*
X131900000Y-133000000D01*
X131900000Y-133000000D02*
X132500000Y-133000000D01*
X132500000Y-133000000D02*
X132500000Y-131875000D01*
X138950000Y-131000000D02*
X139500000Y-131000000D01*
X139500000Y-131000000D02*
X139900000Y-131400000D01*
X139900000Y-131400000D02*
X139900000Y-132500000D01*
X139900000Y-132500000D02*
X140400000Y-133000000D01*
X140400000Y-133000000D02*
X140900000Y-133000000D01*
X141000000Y-132900000D02*
X141000000Y-131875000D01*
X140900000Y-133000000D02*
X141000000Y-132900000D01*
X147950000Y-131000000D02*
X148600000Y-131000000D01*
X148600000Y-131000000D02*
X148800000Y-131200000D01*
X148800000Y-131200000D02*
X148800000Y-132600000D01*
X148800000Y-132600000D02*
X149200000Y-133000000D01*
X149200000Y-133000000D02*
X149800000Y-133000000D01*
X150000000Y-132800000D02*
X150000000Y-131875000D01*
X149800000Y-133000000D02*
X150000000Y-132800000D01*
X166842000Y-125217000D02*
X166750000Y-125125000D01*
X168558000Y-126058000D02*
X170000000Y-127500000D01*
X166842000Y-126058000D02*
X168558000Y-126058000D01*
X166842000Y-126894000D02*
X166842000Y-126058000D01*
X166842000Y-126058000D02*
X166842000Y-125217000D01*
X156950000Y-131000000D02*
X157900000Y-131000000D01*
X157900000Y-131000000D02*
X158000000Y-131100000D01*
X158000000Y-131100000D02*
X158000000Y-132700000D01*
X158000000Y-132700000D02*
X158400000Y-133100000D01*
X158400000Y-133100000D02*
X158900000Y-133100000D01*
X159000000Y-133000000D02*
X159000000Y-131875000D01*
X158900000Y-133100000D02*
X159000000Y-133000000D01*
X170000000Y-130000000D02*
X175000000Y-135000000D01*
X170000000Y-127500000D02*
X170000000Y-130000000D01*
X176500000Y-86500000D02*
X175000000Y-85000000D01*
X175000000Y-119322070D02*
X175000000Y-135000000D01*
X170000000Y-112500000D02*
X170000000Y-111100000D01*
X170000000Y-111100000D02*
X170100000Y-111000000D01*
X175000000Y-111000000D02*
X175000000Y-119322070D01*
X170100000Y-111000000D02*
X175000000Y-111000000D01*
X175000000Y-85000000D02*
X175000000Y-111000000D01*
X155740000Y-97640000D02*
X155740000Y-93840000D01*
X155740000Y-93840000D02*
X151700000Y-89800000D01*
X151700000Y-89800000D02*
X151700000Y-86900000D01*
X151700000Y-86900000D02*
X146400000Y-86900000D01*
X154900000Y-86900000D02*
X151700000Y-86900000D01*
X156360000Y-83400000D02*
X156360000Y-82340000D01*
X156360000Y-82340000D02*
X157200000Y-81500000D01*
X164700000Y-81500000D02*
X167100000Y-83900000D01*
X157200000Y-81500000D02*
X164700000Y-81500000D01*
X158900000Y-133100000D02*
X160500000Y-133100000D01*
X150300000Y-133100000D02*
X150000000Y-132800000D01*
X151200000Y-133100000D02*
X150300000Y-133100000D01*
X141200000Y-133100000D02*
X141000000Y-132900000D01*
X142000000Y-133100000D02*
X141200000Y-133100000D01*
X144500000Y-127000000D02*
X144500000Y-128300000D01*
X144500000Y-128300000D02*
X143400000Y-129400000D01*
X143400000Y-131700000D02*
X142000000Y-133100000D01*
X143400000Y-129400000D02*
X143400000Y-131700000D01*
X132600000Y-133100000D02*
X132500000Y-133000000D01*
X133200000Y-133100000D02*
X132600000Y-133100000D01*
X133500000Y-127000000D02*
X133500000Y-127200000D01*
X133500000Y-127200000D02*
X134700000Y-128400000D01*
X134700000Y-128400000D02*
X134700000Y-132100000D01*
X133700000Y-133100000D02*
X133200000Y-133100000D01*
X134700000Y-132100000D02*
X133700000Y-133100000D01*
D25*
%TO.N,5V*%
X142700000Y-83825000D02*
X142700000Y-82800000D01*
X142700000Y-82800000D02*
X143500000Y-82000000D01*
X143500000Y-82000000D02*
X145500000Y-82000000D01*
X146000000Y-82500000D02*
X146000000Y-84000000D01*
X145500000Y-82000000D02*
X146000000Y-82500000D01*
X146600000Y-83400000D02*
X146000000Y-84000000D01*
X148450000Y-83400000D02*
X146600000Y-83400000D01*
X132150000Y-137500000D02*
X133000000Y-137500000D01*
X133000000Y-137500000D02*
X133500000Y-137000000D01*
X133500000Y-137000000D02*
X133500000Y-135300000D01*
X133200000Y-135000000D02*
X131500000Y-135000000D01*
X133500000Y-135300000D02*
X133200000Y-135000000D01*
X141150000Y-137500000D02*
X141900000Y-137500000D01*
X141900000Y-137500000D02*
X142500000Y-136900000D01*
X142500000Y-136900000D02*
X142500000Y-135600000D01*
X141900000Y-135000000D02*
X140500000Y-135000000D01*
X142500000Y-135600000D02*
X141900000Y-135000000D01*
X150150000Y-137500000D02*
X151200000Y-137500000D01*
X151200000Y-137500000D02*
X151900000Y-136800000D01*
X151900000Y-136800000D02*
X151900000Y-135400000D01*
X151500000Y-135000000D02*
X149500000Y-135000000D01*
X151900000Y-135400000D02*
X151500000Y-135000000D01*
X159150000Y-137500000D02*
X160200000Y-137500000D01*
X160200000Y-137500000D02*
X160900000Y-136800000D01*
X160900000Y-136800000D02*
X160900000Y-135400000D01*
X160500000Y-135000000D02*
X158500000Y-135000000D01*
X160900000Y-135400000D02*
X160500000Y-135000000D01*
D26*
%TO.N,back0*%
X170000000Y-117750000D02*
X170000000Y-120000000D01*
%TO.N,SCL*%
X145580000Y-97640000D02*
X145580000Y-97080000D01*
X145580000Y-97080000D02*
X143000000Y-94500000D01*
X136800000Y-91800000D02*
X139500000Y-94500000D01*
X136800000Y-91500000D02*
X136800000Y-91800000D01*
X143000000Y-94500000D02*
X139500000Y-94500000D01*
X145500000Y-97720000D02*
X145580000Y-97640000D01*
X145500000Y-100250000D02*
X145500000Y-97720000D01*
%TO.N,SDA*%
X148120000Y-97640000D02*
X148120000Y-96620000D01*
X148120000Y-96620000D02*
X144500000Y-93000000D01*
X140800000Y-93000000D02*
X139300000Y-91500000D01*
X144500000Y-93000000D02*
X140800000Y-93000000D01*
X148067000Y-97693000D02*
X148120000Y-97640000D01*
X148067000Y-100250000D02*
X148067000Y-97693000D01*
%TO.N,bouton1*%
X171500000Y-95600000D02*
X171100000Y-95200000D01*
X171500000Y-97625000D02*
X171500000Y-95600000D01*
X163500000Y-105750000D02*
X163500000Y-101700000D01*
X170000000Y-95200000D02*
X171100000Y-95200000D01*
X163500000Y-101700000D02*
X170000000Y-95200000D01*
%TO.N,Net-(Q1-Pad1)*%
X164942000Y-125183000D02*
X165000000Y-125125000D01*
X164942000Y-126894000D02*
X164942000Y-125183000D01*
%TO.N,Net-(Q1-Pad3)*%
X165892000Y-128894000D02*
X165892000Y-130644000D01*
%TO.N,3V3*%
X145500000Y-102000000D02*
X145500000Y-103500000D01*
X145500000Y-103500000D02*
X148000000Y-103500000D01*
X148067000Y-103433000D02*
X148000000Y-103500000D01*
X148067000Y-102000000D02*
X148067000Y-103433000D01*
X139500000Y-124750000D02*
X139500000Y-127000000D01*
X134500000Y-97000000D02*
X141000000Y-103500000D01*
X141000000Y-103500000D02*
X145500000Y-103500000D01*
X134500000Y-95875000D02*
X134500000Y-97000000D01*
X158280000Y-113646000D02*
X148067000Y-103433000D01*
X158280000Y-120500000D02*
X158280000Y-113646000D01*
X171500000Y-104600000D02*
X167500000Y-108600000D01*
X171500000Y-99375000D02*
X171500000Y-104600000D01*
%TO.N,LED_out*%
X166750000Y-122250000D02*
X166750000Y-123375000D01*
X166600000Y-122100000D02*
X166750000Y-122250000D01*
X165000000Y-122100000D02*
X166600000Y-122100000D01*
X165000000Y-123375000D02*
X165000000Y-122100000D01*
X165000000Y-122100000D02*
X165000000Y-117700000D01*
X153300000Y-106000000D02*
X153200000Y-106000000D01*
X165000000Y-117700000D02*
X153300000Y-106000000D01*
%TO.N,back0_div*%
X170000000Y-115100000D02*
X165600000Y-115100000D01*
X170000000Y-114250000D02*
X170000000Y-115100000D01*
X170000000Y-115100000D02*
X170000000Y-116000000D01*
X163500000Y-113000000D02*
X163500000Y-111375000D01*
X165600000Y-115100000D02*
X163500000Y-113000000D01*
%TO.N,Net-(D1-Pad2)*%
X128850000Y-137500000D02*
X128100000Y-137500000D01*
X128100000Y-137500000D02*
X127700000Y-137100000D01*
X127700000Y-137100000D02*
X127700000Y-135100000D01*
X127800000Y-135000000D02*
X129000000Y-135000000D01*
X127700000Y-135100000D02*
X127800000Y-135000000D01*
X129500000Y-134500000D02*
X129000000Y-135000000D01*
X129500000Y-133000000D02*
X129500000Y-134500000D01*
%TO.N,Net-(D2-Pad2)*%
X138000000Y-133000000D02*
X138000000Y-135000000D01*
X137850000Y-137500000D02*
X137100000Y-137500000D01*
X137100000Y-137500000D02*
X136700000Y-137100000D01*
X136700000Y-137100000D02*
X136700000Y-135200000D01*
X136900000Y-135000000D02*
X138000000Y-135000000D01*
X136700000Y-135200000D02*
X136900000Y-135000000D01*
%TO.N,Net-(D3-Pad2)*%
X147000000Y-133000000D02*
X147000000Y-135000000D01*
X146850000Y-137500000D02*
X146000000Y-137500000D01*
X146000000Y-137500000D02*
X145500000Y-137000000D01*
X145500000Y-137000000D02*
X145500000Y-135300000D01*
X145800000Y-135000000D02*
X147000000Y-135000000D01*
X145500000Y-135300000D02*
X145800000Y-135000000D01*
%TO.N,Net-(D4-Pad2)*%
X155850000Y-137500000D02*
X155000000Y-137500000D01*
X155000000Y-137500000D02*
X154600000Y-137100000D01*
X154600000Y-137100000D02*
X154600000Y-135400000D01*
X155000000Y-135000000D02*
X156000000Y-135000000D01*
X154600000Y-135400000D02*
X155000000Y-135000000D01*
X156000000Y-133000000D02*
X156000000Y-135000000D01*
%TO.N,CS*%
X160250000Y-127000000D02*
X158000000Y-127000000D01*
X155740000Y-120500000D02*
X155740000Y-121640000D01*
X158000000Y-123900000D02*
X158000000Y-127000000D01*
X155740000Y-121640000D02*
X158000000Y-123900000D01*
%TO.N,SCK*%
X155625000Y-126875000D02*
X155500000Y-127000000D01*
X148120000Y-118130000D02*
X148150000Y-118100000D01*
X148120000Y-120500000D02*
X148120000Y-118130000D01*
X148075000Y-120455000D02*
X148120000Y-120500000D01*
X148075000Y-118100000D02*
X148075000Y-120455000D01*
%TO.N,MOSI*%
X153200000Y-126800000D02*
X153000000Y-127000000D01*
X153200000Y-120500000D02*
X153200000Y-126800000D01*
X153000000Y-129125000D02*
X153000000Y-127000000D01*
%TO.N,MISO*%
X150500000Y-124750000D02*
X150250000Y-124500000D01*
X150500000Y-127000000D02*
X150500000Y-124750000D01*
X150660000Y-124090000D02*
X150250000Y-124500000D01*
X150660000Y-120500000D02*
X150660000Y-124090000D01*
%TO.N,Net-(J6-Pad2)*%
X134500000Y-91700000D02*
X134300000Y-91500000D01*
X134500000Y-94125000D02*
X134500000Y-91700000D01*
%TO.N,Net-(J9-Pad1)*%
X165892000Y-134108000D02*
X165000000Y-135000000D01*
X165892000Y-132394000D02*
X165892000Y-134108000D01*
%TO.N,Net-(Q2-Pad1)*%
X128550000Y-131000000D02*
X127800000Y-131000000D01*
X127800000Y-131000000D02*
X127400000Y-130600000D01*
X127400000Y-130600000D02*
X127400000Y-129700000D01*
X127600000Y-129500000D02*
X128625000Y-129500000D01*
X127400000Y-129700000D02*
X127600000Y-129500000D01*
%TO.N,Net-(Q3-Pad1)*%
X137125000Y-129500000D02*
X136100000Y-129500000D01*
X136100000Y-129500000D02*
X136000000Y-129600000D01*
X136000000Y-129600000D02*
X136000000Y-130600000D01*
X136400000Y-131000000D02*
X137050000Y-131000000D01*
X136000000Y-130600000D02*
X136400000Y-131000000D01*
%TO.N,Net-(Q4-Pad1)*%
X146050000Y-131000000D02*
X145300000Y-131000000D01*
X145300000Y-131000000D02*
X144900000Y-130600000D01*
X144900000Y-130600000D02*
X144900000Y-129800000D01*
X145200000Y-129500000D02*
X146125000Y-129500000D01*
X144900000Y-129800000D02*
X145200000Y-129500000D01*
%TO.N,Net-(Q5-Pad1)*%
X155125000Y-129500000D02*
X154400000Y-129500000D01*
X154400000Y-129500000D02*
X154200000Y-129700000D01*
X154200000Y-129700000D02*
X154200000Y-130800000D01*
X154400000Y-131000000D02*
X155050000Y-131000000D01*
X154200000Y-130800000D02*
X154400000Y-131000000D01*
%TO.N,Net-(R3-Pad1)*%
X139500000Y-121500000D02*
X140500000Y-120500000D01*
X139500000Y-123000000D02*
X139500000Y-121500000D01*
%TO.N,Net-(R4-Pad2)*%
X163500000Y-108500000D02*
X158400000Y-108500000D01*
X163500000Y-107500000D02*
X163500000Y-108500000D01*
X163500000Y-108500000D02*
X163500000Y-109625000D01*
X150660000Y-100760000D02*
X150660000Y-97640000D01*
X158400000Y-108500000D02*
X150660000Y-100760000D01*
%TO.N,Net-(R17-Pad2)*%
X132500000Y-130125000D02*
X132500000Y-129200000D01*
X132500000Y-129200000D02*
X132400000Y-129100000D01*
X132400000Y-129100000D02*
X131700000Y-129100000D01*
X131300000Y-129500000D02*
X130375000Y-129500000D01*
X131700000Y-129100000D02*
X131300000Y-129500000D01*
X146325000Y-118100000D02*
X145000000Y-118100000D01*
X136900000Y-116800000D02*
X135400000Y-118300000D01*
X143700000Y-116800000D02*
X136900000Y-116800000D01*
X145000000Y-118100000D02*
X143700000Y-116800000D01*
%TO.N,Net-(R19-Pad2)*%
X138875000Y-129500000D02*
X140000000Y-129500000D01*
X140000000Y-129500000D02*
X140500000Y-129000000D01*
X140500000Y-129000000D02*
X140900000Y-129000000D01*
X141000000Y-129100000D02*
X141000000Y-130125000D01*
X140900000Y-129000000D02*
X141000000Y-129100000D01*
X146800000Y-124500000D02*
X146700000Y-124600000D01*
X148500000Y-124500000D02*
X146800000Y-124500000D01*
%TO.N,Net-(R21-Pad2)*%
X147875000Y-129500000D02*
X148800000Y-129500000D01*
X148800000Y-129500000D02*
X149300000Y-129000000D01*
X149300000Y-129000000D02*
X150000000Y-129000000D01*
X150000000Y-129000000D02*
X150000000Y-130125000D01*
X153000000Y-130875000D02*
X153000000Y-132100000D01*
X153000000Y-132100000D02*
X152800000Y-132300000D01*
X152800000Y-132300000D02*
X152100000Y-132300000D01*
X152100000Y-132300000D02*
X151600000Y-131800000D01*
X151600000Y-131800000D02*
X151600000Y-129600000D01*
X151000000Y-129000000D02*
X150000000Y-129000000D01*
X151600000Y-129600000D02*
X151000000Y-129000000D01*
%TO.N,Net-(R23-Pad2)*%
X156875000Y-129500000D02*
X157700000Y-129500000D01*
X157700000Y-129500000D02*
X158300000Y-128900000D01*
X158300000Y-128900000D02*
X159000000Y-128900000D01*
X159000000Y-128900000D02*
X159000000Y-130125000D01*
X159000000Y-128900000D02*
X162400000Y-128900000D01*
X162400000Y-128900000D02*
X163100000Y-128200000D01*
X163100000Y-128200000D02*
X163100000Y-127200000D01*
X162900000Y-127000000D02*
X162000000Y-127000000D01*
X163100000Y-127200000D02*
X162900000Y-127000000D01*
%TO.N,Net-(C1-Pad1)*%
X159800000Y-86300000D02*
X159200000Y-86900000D01*
X158900000Y-83400000D02*
X159700000Y-83400000D01*
X160300000Y-84000000D02*
X160300000Y-86300000D01*
X159700000Y-83400000D02*
X160300000Y-84000000D01*
X160300000Y-86300000D02*
X159800000Y-86300000D01*
X161150000Y-86300000D02*
X160300000Y-86300000D01*
%TO.N,Vin*%
X167000000Y-86300000D02*
X167100000Y-86400000D01*
X164450000Y-86300000D02*
X167000000Y-86300000D01*
%TO.N,Net-(D6-Pad2)*%
X153820000Y-83400000D02*
X151750000Y-83400000D01*
%TO.N,Net-(J3-Pad2)*%
X143040000Y-118840000D02*
X143040000Y-120500000D01*
X142400000Y-118200000D02*
X138200000Y-118200000D01*
X142400000Y-118200000D02*
X143040000Y-118840000D01*
X131000000Y-125400000D02*
X131000000Y-127000000D01*
X138200000Y-118200000D02*
X131000000Y-125400000D01*
%TD*%
D27*
%TO.N,GND*%
X175759192Y-80780578D02*
X176494389Y-80981705D01*
X177182351Y-81309846D01*
X177801331Y-81754628D01*
X178331761Y-82301988D01*
X178756884Y-82934639D01*
X179063251Y-83632561D01*
X179242499Y-84379183D01*
X179290000Y-85026030D01*
X179290001Y-134968370D01*
X179219422Y-135759193D01*
X179018295Y-136494389D01*
X178690152Y-137182355D01*
X178245374Y-137801328D01*
X177698012Y-138331761D01*
X177065362Y-138756883D01*
X176367439Y-139063251D01*
X175620819Y-139242499D01*
X174973970Y-139290000D01*
X140127000Y-139290000D01*
X140127000Y-138375053D01*
X140169463Y-138454494D01*
X140248815Y-138551185D01*
X140345506Y-138630537D01*
X140455820Y-138689502D01*
X140575518Y-138725812D01*
X140700000Y-138738072D01*
X141600000Y-138738072D01*
X141724482Y-138725812D01*
X141844180Y-138689502D01*
X141943974Y-138636160D01*
X141955751Y-138635000D01*
X141955752Y-138635000D01*
X142122499Y-138618577D01*
X142336447Y-138553676D01*
X142533623Y-138448284D01*
X142706449Y-138306449D01*
X142741996Y-138263135D01*
X143263135Y-137741996D01*
X143306449Y-137706449D01*
X143448284Y-137533623D01*
X143553676Y-137336447D01*
X143608058Y-137157175D01*
X143618577Y-137122500D01*
X143640491Y-136900001D01*
X143635000Y-136844249D01*
X143635000Y-135655751D01*
X143640491Y-135599999D01*
X143618577Y-135377500D01*
X143595067Y-135300000D01*
X143553676Y-135163553D01*
X143448284Y-134966377D01*
X143306449Y-134793551D01*
X143263135Y-134758004D01*
X142741996Y-134236865D01*
X142706449Y-134193551D01*
X142533623Y-134051716D01*
X142336447Y-133946324D01*
X142122499Y-133881423D01*
X141955752Y-133865000D01*
X141955751Y-133865000D01*
X141900000Y-133859509D01*
X141844249Y-133865000D01*
X141612692Y-133865000D01*
X141555134Y-133794866D01*
X141329013Y-133609294D01*
X141071033Y-133471401D01*
X140791110Y-133386487D01*
X140500000Y-133357815D01*
X140208889Y-133386487D01*
X140127000Y-133411328D01*
X140127000Y-132894833D01*
X140170506Y-132930537D01*
X140280820Y-132989502D01*
X140400518Y-133025812D01*
X140525000Y-133038072D01*
X140714250Y-133035000D01*
X140873000Y-132876250D01*
X140873000Y-132002000D01*
X141127000Y-132002000D01*
X141127000Y-132876250D01*
X141285750Y-133035000D01*
X141475000Y-133038072D01*
X141599482Y-133025812D01*
X141719180Y-132989502D01*
X141829494Y-132930537D01*
X141926185Y-132851185D01*
X142005537Y-132754494D01*
X142064502Y-132644180D01*
X142100812Y-132524482D01*
X142113072Y-132400000D01*
X142110000Y-132160750D01*
X141951250Y-132002000D01*
X141127000Y-132002000D01*
X140873000Y-132002000D01*
X140853000Y-132002000D01*
X140853000Y-131748000D01*
X140873000Y-131748000D01*
X140873000Y-131728000D01*
X141127000Y-131728000D01*
X141127000Y-131748000D01*
X141951250Y-131748000D01*
X142110000Y-131589250D01*
X142113072Y-131350000D01*
X142100812Y-131225518D01*
X142064502Y-131105820D01*
X142005537Y-130995506D01*
X141945901Y-130922839D01*
X141965512Y-130898942D01*
X142046423Y-130747567D01*
X142096248Y-130583316D01*
X142113072Y-130412500D01*
X142113072Y-129837500D01*
X142096248Y-129666684D01*
X142046423Y-129502433D01*
X141965512Y-129351058D01*
X141885000Y-129252954D01*
X141885000Y-129143465D01*
X141889281Y-129099999D01*
X141885000Y-129056533D01*
X141885000Y-129056523D01*
X141872195Y-128926510D01*
X141821589Y-128759687D01*
X141739411Y-128605941D01*
X141726534Y-128590251D01*
X142000000Y-128617185D01*
X142291110Y-128588513D01*
X142571033Y-128503599D01*
X142829013Y-128365706D01*
X143049945Y-128184392D01*
X143060498Y-128219180D01*
X143119463Y-128329494D01*
X143198815Y-128426185D01*
X143295506Y-128505537D01*
X143405820Y-128564502D01*
X143525518Y-128600812D01*
X143650000Y-128613072D01*
X144214250Y-128610000D01*
X144373000Y-128451250D01*
X144373000Y-127127000D01*
X144353000Y-127127000D01*
X144353000Y-126873000D01*
X144373000Y-126873000D01*
X144373000Y-125548750D01*
X144627000Y-125548750D01*
X144627000Y-126873000D01*
X145826250Y-126873000D01*
X145985000Y-126714250D01*
X145988072Y-126025000D01*
X145975812Y-125900518D01*
X145939502Y-125780820D01*
X145880537Y-125670506D01*
X145801185Y-125573815D01*
X145704494Y-125494463D01*
X145594180Y-125435498D01*
X145474482Y-125399188D01*
X145350000Y-125386928D01*
X144785750Y-125390000D01*
X144627000Y-125548750D01*
X144373000Y-125548750D01*
X144214250Y-125390000D01*
X143650000Y-125386928D01*
X143525518Y-125399188D01*
X143405820Y-125435498D01*
X143295506Y-125494463D01*
X143198815Y-125573815D01*
X143119463Y-125670506D01*
X143060498Y-125780820D01*
X143049945Y-125815608D01*
X142829014Y-125634294D01*
X142571034Y-125496401D01*
X142291111Y-125411487D01*
X142000000Y-125382815D01*
X141708890Y-125411487D01*
X141428967Y-125496401D01*
X141170987Y-125634294D01*
X140944866Y-125819866D01*
X140759294Y-126045986D01*
X140750000Y-126063374D01*
X140740706Y-126045986D01*
X140555134Y-125819866D01*
X140385000Y-125680241D01*
X140385000Y-125622046D01*
X140465512Y-125523942D01*
X140546423Y-125372567D01*
X140596248Y-125208316D01*
X140613072Y-125037500D01*
X140613072Y-124462500D01*
X140596248Y-124291684D01*
X140546423Y-124127433D01*
X140465512Y-123976058D01*
X140382575Y-123875000D01*
X140465512Y-123773942D01*
X140546423Y-123622567D01*
X140596248Y-123458316D01*
X140613072Y-123287500D01*
X140613072Y-122712500D01*
X140596248Y-122541684D01*
X140546423Y-122377433D01*
X140465512Y-122226058D01*
X140393303Y-122138072D01*
X141500000Y-122138072D01*
X141624482Y-122125812D01*
X141744180Y-122089502D01*
X141854494Y-122030537D01*
X141951185Y-121951185D01*
X142030537Y-121854494D01*
X142077559Y-121766523D01*
X142238900Y-121898932D01*
X142488193Y-122032182D01*
X142758692Y-122114236D01*
X143040000Y-122141943D01*
X143321309Y-122114236D01*
X143591808Y-122032182D01*
X143841101Y-121898932D01*
X144059608Y-121719608D01*
X144238932Y-121501101D01*
X144310000Y-121368142D01*
X144381068Y-121501101D01*
X144560393Y-121719608D01*
X144778900Y-121898932D01*
X145028193Y-122032182D01*
X145298692Y-122114236D01*
X145580000Y-122141943D01*
X145861309Y-122114236D01*
X146131808Y-122032182D01*
X146381101Y-121898932D01*
X146599608Y-121719608D01*
X146778932Y-121501101D01*
X146850000Y-121368142D01*
X146921068Y-121501101D01*
X147100393Y-121719608D01*
X147318900Y-121898932D01*
X147568193Y-122032182D01*
X147838692Y-122114236D01*
X148120000Y-122141943D01*
X148401309Y-122114236D01*
X148671808Y-122032182D01*
X148921101Y-121898932D01*
X149139608Y-121719608D01*
X149318932Y-121501101D01*
X149390000Y-121368142D01*
X149461068Y-121501101D01*
X149640393Y-121719608D01*
X149775000Y-121830077D01*
X149775001Y-123408813D01*
X149627433Y-123453577D01*
X149476058Y-123534488D01*
X149375000Y-123617425D01*
X149273942Y-123534488D01*
X149122567Y-123453577D01*
X148958316Y-123403752D01*
X148787500Y-123386928D01*
X148212500Y-123386928D01*
X148041684Y-123403752D01*
X147877433Y-123453577D01*
X147726058Y-123534488D01*
X147627954Y-123615000D01*
X147268789Y-123615000D01*
X147237624Y-123594176D01*
X147031067Y-123508617D01*
X146811788Y-123465000D01*
X146588212Y-123465000D01*
X146368933Y-123508617D01*
X146162376Y-123594176D01*
X145976480Y-123718388D01*
X145818388Y-123876480D01*
X145694176Y-124062376D01*
X145608617Y-124268933D01*
X145565000Y-124488212D01*
X145565000Y-124711788D01*
X145608617Y-124931067D01*
X145694176Y-125137624D01*
X145818388Y-125323520D01*
X145976480Y-125481612D01*
X146162376Y-125605824D01*
X146368933Y-125691383D01*
X146588212Y-125735000D01*
X146811788Y-125735000D01*
X147031067Y-125691383D01*
X147237624Y-125605824D01*
X147423520Y-125481612D01*
X147520132Y-125385000D01*
X147627954Y-125385000D01*
X147726058Y-125465512D01*
X147877433Y-125546423D01*
X148041684Y-125596248D01*
X148212500Y-125613072D01*
X148787500Y-125613072D01*
X148958316Y-125596248D01*
X149122567Y-125546423D01*
X149273942Y-125465512D01*
X149375000Y-125382575D01*
X149476058Y-125465512D01*
X149615001Y-125539778D01*
X149615001Y-125680241D01*
X149444866Y-125819866D01*
X149259294Y-126045986D01*
X149121401Y-126303966D01*
X149036487Y-126583889D01*
X149015000Y-126802050D01*
X149015000Y-127197949D01*
X149036487Y-127416110D01*
X149121401Y-127696033D01*
X149259294Y-127954013D01*
X149391412Y-128115000D01*
X149343469Y-128115000D01*
X149300000Y-128110719D01*
X149256531Y-128115000D01*
X149256523Y-128115000D01*
X149126510Y-128127805D01*
X148959687Y-128178411D01*
X148805941Y-128260589D01*
X148671183Y-128371183D01*
X148643466Y-128404956D01*
X148560961Y-128487461D01*
X148497567Y-128453577D01*
X148333316Y-128403752D01*
X148162500Y-128386928D01*
X147587500Y-128386928D01*
X147416684Y-128403752D01*
X147252433Y-128453577D01*
X147101058Y-128534488D01*
X147000000Y-128617425D01*
X146898942Y-128534488D01*
X146747567Y-128453577D01*
X146583316Y-128403752D01*
X146412500Y-128386928D01*
X145837500Y-128386928D01*
X145833042Y-128387367D01*
X145880537Y-128329494D01*
X145939502Y-128219180D01*
X145975812Y-128099482D01*
X145988072Y-127975000D01*
X145985000Y-127285750D01*
X145826250Y-127127000D01*
X144627000Y-127127000D01*
X144627000Y-128451250D01*
X144785750Y-128610000D01*
X145185217Y-128612175D01*
X145156533Y-128615000D01*
X145156523Y-128615000D01*
X145026510Y-128627805D01*
X144859687Y-128678411D01*
X144705941Y-128760589D01*
X144571183Y-128871183D01*
X144543468Y-128904954D01*
X144304952Y-129143470D01*
X144271184Y-129171183D01*
X144243471Y-129204951D01*
X144243468Y-129204954D01*
X144160590Y-129305941D01*
X144078412Y-129459687D01*
X144027805Y-129626510D01*
X144023178Y-129673491D01*
X144015000Y-129756523D01*
X144015000Y-129756531D01*
X144010719Y-129800000D01*
X144015000Y-129843469D01*
X144015000Y-130556531D01*
X144010719Y-130600000D01*
X144015000Y-130643469D01*
X144015000Y-130643476D01*
X144025252Y-130747567D01*
X144026526Y-130760498D01*
X144027805Y-130773489D01*
X144078411Y-130940312D01*
X144160589Y-131094058D01*
X144271183Y-131228817D01*
X144304956Y-131256534D01*
X144643466Y-131595044D01*
X144671183Y-131628817D01*
X144805941Y-131739411D01*
X144959687Y-131821589D01*
X145126510Y-131872195D01*
X145179290Y-131877393D01*
X145198815Y-131901185D01*
X145295506Y-131980537D01*
X145405820Y-132039502D01*
X145525518Y-132075812D01*
X145650000Y-132088072D01*
X146161905Y-132088072D01*
X146148815Y-132098815D01*
X146069463Y-132195506D01*
X146010498Y-132305820D01*
X145974188Y-132425518D01*
X145961928Y-132550000D01*
X145961928Y-133450000D01*
X145964925Y-133480427D01*
X145906614Y-133511595D01*
X145772038Y-133622038D01*
X145661595Y-133756614D01*
X145579528Y-133910150D01*
X145528992Y-134076746D01*
X145520805Y-134159871D01*
X145459687Y-134178411D01*
X145305941Y-134260589D01*
X145171183Y-134371183D01*
X145143468Y-134404954D01*
X144904952Y-134643470D01*
X144871184Y-134671183D01*
X144843471Y-134704951D01*
X144843468Y-134704954D01*
X144760590Y-134805941D01*
X144678412Y-134959687D01*
X144627805Y-135126510D01*
X144610719Y-135300000D01*
X144615001Y-135343479D01*
X144615000Y-136956531D01*
X144610719Y-137000000D01*
X144615000Y-137043469D01*
X144615000Y-137043476D01*
X144627805Y-137173489D01*
X144678411Y-137340312D01*
X144760589Y-137494058D01*
X144871183Y-137628817D01*
X144904956Y-137656534D01*
X145343466Y-138095044D01*
X145371183Y-138128817D01*
X145505941Y-138239411D01*
X145659687Y-138321589D01*
X145825272Y-138371819D01*
X145869463Y-138454494D01*
X145948815Y-138551185D01*
X146045506Y-138630537D01*
X146155820Y-138689502D01*
X146275518Y-138725812D01*
X146400000Y-138738072D01*
X147300000Y-138738072D01*
X147424482Y-138725812D01*
X147544180Y-138689502D01*
X147654494Y-138630537D01*
X147751185Y-138551185D01*
X147830537Y-138454494D01*
X147889502Y-138344180D01*
X147925812Y-138224482D01*
X147938072Y-138100000D01*
X147938072Y-136900000D01*
X147925812Y-136775518D01*
X147889502Y-136655820D01*
X147857271Y-136595522D01*
X147939850Y-136570472D01*
X148093386Y-136488405D01*
X148227962Y-136377962D01*
X148338405Y-136243386D01*
X148392777Y-136141663D01*
X148444866Y-136205134D01*
X148670987Y-136390706D01*
X148928967Y-136528599D01*
X149143685Y-136593733D01*
X149110498Y-136655820D01*
X149074188Y-136775518D01*
X149061928Y-136900000D01*
X149061928Y-137176940D01*
X149031423Y-137277501D01*
X149009509Y-137500000D01*
X149031423Y-137722499D01*
X149061928Y-137823060D01*
X149061928Y-138100000D01*
X149074188Y-138224482D01*
X149110498Y-138344180D01*
X149169463Y-138454494D01*
X149248815Y-138551185D01*
X149345506Y-138630537D01*
X149455820Y-138689502D01*
X149575518Y-138725812D01*
X149700000Y-138738072D01*
X150600000Y-138738072D01*
X150724482Y-138725812D01*
X150844180Y-138689502D01*
X150946144Y-138635000D01*
X151144249Y-138635000D01*
X151200000Y-138640491D01*
X151255751Y-138635000D01*
X151255752Y-138635000D01*
X151422499Y-138618577D01*
X151636447Y-138553676D01*
X151833623Y-138448284D01*
X152006449Y-138306449D01*
X152041996Y-138263135D01*
X152663135Y-137641996D01*
X152706449Y-137606449D01*
X152848284Y-137433623D01*
X152953676Y-137236447D01*
X153018577Y-137022499D01*
X153035000Y-136855752D01*
X153035000Y-136855743D01*
X153040490Y-136800001D01*
X153035000Y-136744259D01*
X153035000Y-135455741D01*
X153040490Y-135399999D01*
X153035000Y-135344257D01*
X153035000Y-135344248D01*
X153018577Y-135177501D01*
X152953676Y-134963553D01*
X152848284Y-134766377D01*
X152706449Y-134593551D01*
X152663135Y-134558004D01*
X152341996Y-134236865D01*
X152306449Y-134193551D01*
X152133623Y-134051716D01*
X151936447Y-133946324D01*
X151722499Y-133881423D01*
X151555752Y-133865000D01*
X151555751Y-133865000D01*
X151500000Y-133859509D01*
X151444249Y-133865000D01*
X150612692Y-133865000D01*
X150555134Y-133794866D01*
X150329013Y-133609294D01*
X150071033Y-133471401D01*
X149791110Y-133386487D01*
X149500000Y-133357815D01*
X149208889Y-133386487D01*
X148928966Y-133471401D01*
X148670986Y-133609294D01*
X148444866Y-133794866D01*
X148392777Y-133858337D01*
X148338405Y-133756614D01*
X148227962Y-133622038D01*
X148093386Y-133511595D01*
X148035075Y-133480427D01*
X148038072Y-133450000D01*
X148038072Y-132550000D01*
X148025812Y-132425518D01*
X148018072Y-132400000D01*
X148886928Y-132400000D01*
X148899188Y-132524482D01*
X148935498Y-132644180D01*
X148994463Y-132754494D01*
X149073815Y-132851185D01*
X149170506Y-132930537D01*
X149280820Y-132989502D01*
X149400518Y-133025812D01*
X149525000Y-133038072D01*
X149714250Y-133035000D01*
X149873000Y-132876250D01*
X149873000Y-132002000D01*
X149048750Y-132002000D01*
X148890000Y-132160750D01*
X148886928Y-132400000D01*
X148018072Y-132400000D01*
X147989502Y-132305820D01*
X147930537Y-132195506D01*
X147851185Y-132098815D01*
X147754494Y-132019463D01*
X147738393Y-132010857D01*
X147823000Y-131926250D01*
X147823000Y-131127000D01*
X147803000Y-131127000D01*
X147803000Y-130873000D01*
X147823000Y-130873000D01*
X147823000Y-130853000D01*
X148077000Y-130853000D01*
X148077000Y-130873000D01*
X148826250Y-130873000D01*
X148953136Y-130746114D01*
X148953577Y-130747567D01*
X149034488Y-130898942D01*
X149054099Y-130922839D01*
X148994463Y-130995506D01*
X148935498Y-131105820D01*
X148905142Y-131205892D01*
X148826250Y-131127000D01*
X148077000Y-131127000D01*
X148077000Y-131926250D01*
X148235750Y-132085000D01*
X148350000Y-132088072D01*
X148474482Y-132075812D01*
X148594180Y-132039502D01*
X148704494Y-131980537D01*
X148801185Y-131901185D01*
X148880537Y-131804494D01*
X148939502Y-131694180D01*
X148952403Y-131651653D01*
X149048750Y-131748000D01*
X149873000Y-131748000D01*
X149873000Y-131728000D01*
X150127000Y-131728000D01*
X150127000Y-131748000D01*
X150147000Y-131748000D01*
X150147000Y-132002000D01*
X150127000Y-132002000D01*
X150127000Y-132876250D01*
X150285750Y-133035000D01*
X150475000Y-133038072D01*
X150599482Y-133025812D01*
X150719180Y-132989502D01*
X150829494Y-132930537D01*
X150926185Y-132851185D01*
X151005537Y-132754494D01*
X151064502Y-132644180D01*
X151094317Y-132545895D01*
X151443466Y-132895044D01*
X151471183Y-132928817D01*
X151605941Y-133039411D01*
X151759687Y-133121589D01*
X151926510Y-133172195D01*
X152056523Y-133185000D01*
X152056531Y-133185000D01*
X152100000Y-133189281D01*
X152143469Y-133185000D01*
X152756531Y-133185000D01*
X152800000Y-133189281D01*
X152843469Y-133185000D01*
X152843477Y-133185000D01*
X152973490Y-133172195D01*
X153140313Y-133121589D01*
X153294059Y-133039411D01*
X153428817Y-132928817D01*
X153456534Y-132895044D01*
X153595044Y-132756534D01*
X153628817Y-132728817D01*
X153739411Y-132594059D01*
X153821589Y-132440313D01*
X153872195Y-132273490D01*
X153885000Y-132143477D01*
X153885000Y-132143469D01*
X153889281Y-132100000D01*
X153885000Y-132056531D01*
X153885000Y-131747046D01*
X153897172Y-131732214D01*
X153905941Y-131739411D01*
X154059687Y-131821589D01*
X154157957Y-131851399D01*
X154198815Y-131901185D01*
X154295506Y-131980537D01*
X154405820Y-132039502D01*
X154525518Y-132075812D01*
X154650000Y-132088072D01*
X155161905Y-132088072D01*
X155148815Y-132098815D01*
X155069463Y-132195506D01*
X155010498Y-132305820D01*
X154974188Y-132425518D01*
X154961928Y-132550000D01*
X154961928Y-133450000D01*
X154964925Y-133480427D01*
X154906614Y-133511595D01*
X154772038Y-133622038D01*
X154661595Y-133756614D01*
X154579528Y-133910150D01*
X154528992Y-134076746D01*
X154511928Y-134250000D01*
X154511928Y-134257389D01*
X154505941Y-134260589D01*
X154371183Y-134371183D01*
X154343468Y-134404954D01*
X154004952Y-134743470D01*
X153971184Y-134771183D01*
X153943471Y-134804951D01*
X153943468Y-134804954D01*
X153860590Y-134905941D01*
X153778412Y-135059687D01*
X153727805Y-135226510D01*
X153710719Y-135400000D01*
X153715001Y-135443479D01*
X153715000Y-137056531D01*
X153710719Y-137100000D01*
X153715000Y-137143469D01*
X153715000Y-137143476D01*
X153727805Y-137273489D01*
X153778411Y-137440312D01*
X153860589Y-137594058D01*
X153971183Y-137728817D01*
X154004956Y-137756534D01*
X154343466Y-138095044D01*
X154371183Y-138128817D01*
X154505941Y-138239411D01*
X154659687Y-138321589D01*
X154825272Y-138371819D01*
X154869463Y-138454494D01*
X154948815Y-138551185D01*
X155045506Y-138630537D01*
X155155820Y-138689502D01*
X155275518Y-138725812D01*
X155400000Y-138738072D01*
X156300000Y-138738072D01*
X156424482Y-138725812D01*
X156544180Y-138689502D01*
X156654494Y-138630537D01*
X156751185Y-138551185D01*
X156830537Y-138454494D01*
X156889502Y-138344180D01*
X156925812Y-138224482D01*
X156938072Y-138100000D01*
X156938072Y-136900000D01*
X156925812Y-136775518D01*
X156889502Y-136655820D01*
X156857271Y-136595522D01*
X156939850Y-136570472D01*
X157093386Y-136488405D01*
X157227962Y-136377962D01*
X157338405Y-136243386D01*
X157392777Y-136141663D01*
X157444866Y-136205134D01*
X157670987Y-136390706D01*
X157928967Y-136528599D01*
X158143685Y-136593733D01*
X158110498Y-136655820D01*
X158074188Y-136775518D01*
X158061928Y-136900000D01*
X158061928Y-137176940D01*
X158031423Y-137277501D01*
X158009509Y-137500000D01*
X158031423Y-137722499D01*
X158061928Y-137823060D01*
X158061928Y-138100000D01*
X158074188Y-138224482D01*
X158110498Y-138344180D01*
X158169463Y-138454494D01*
X158248815Y-138551185D01*
X158345506Y-138630537D01*
X158455820Y-138689502D01*
X158575518Y-138725812D01*
X158700000Y-138738072D01*
X159600000Y-138738072D01*
X159724482Y-138725812D01*
X159844180Y-138689502D01*
X159946144Y-138635000D01*
X160144249Y-138635000D01*
X160200000Y-138640491D01*
X160255751Y-138635000D01*
X160255752Y-138635000D01*
X160422499Y-138618577D01*
X160636447Y-138553676D01*
X160833623Y-138448284D01*
X161006449Y-138306449D01*
X161041996Y-138263135D01*
X161604250Y-137700881D01*
X172478724Y-137700881D01*
X172838912Y-138190548D01*
X173502882Y-138550849D01*
X174224385Y-138774694D01*
X174975695Y-138853480D01*
X175727938Y-138784178D01*
X176452208Y-138569452D01*
X177120670Y-138217555D01*
X177161088Y-138190548D01*
X177521276Y-137700881D01*
X175000000Y-135179605D01*
X172478724Y-137700881D01*
X161604250Y-137700881D01*
X161663135Y-137641996D01*
X161706449Y-137606449D01*
X161848284Y-137433623D01*
X161953676Y-137236447D01*
X162018577Y-137022499D01*
X162035000Y-136855752D01*
X162035000Y-136855743D01*
X162040490Y-136800001D01*
X162035000Y-136744259D01*
X162035000Y-135455741D01*
X162040490Y-135399999D01*
X162035000Y-135344257D01*
X162035000Y-135344248D01*
X162018577Y-135177501D01*
X161953676Y-134963553D01*
X161848284Y-134766377D01*
X161706449Y-134593551D01*
X161663135Y-134558004D01*
X161341996Y-134236865D01*
X161306449Y-134193551D01*
X161133623Y-134051716D01*
X160936447Y-133946324D01*
X160722499Y-133881423D01*
X160555752Y-133865000D01*
X160555751Y-133865000D01*
X160500000Y-133859509D01*
X160444249Y-133865000D01*
X159612692Y-133865000D01*
X159555134Y-133794866D01*
X159329013Y-133609294D01*
X159071033Y-133471401D01*
X158791110Y-133386487D01*
X158500000Y-133357815D01*
X158208889Y-133386487D01*
X157928966Y-133471401D01*
X157670986Y-133609294D01*
X157444866Y-133794866D01*
X157392777Y-133858337D01*
X157338405Y-133756614D01*
X157227962Y-133622038D01*
X157093386Y-133511595D01*
X157035075Y-133480427D01*
X157038072Y-133450000D01*
X157038072Y-132550000D01*
X157025812Y-132425518D01*
X157018072Y-132400000D01*
X157886928Y-132400000D01*
X157899188Y-132524482D01*
X157935498Y-132644180D01*
X157994463Y-132754494D01*
X158073815Y-132851185D01*
X158170506Y-132930537D01*
X158280820Y-132989502D01*
X158400518Y-133025812D01*
X158525000Y-133038072D01*
X158714250Y-133035000D01*
X158873000Y-132876250D01*
X158873000Y-132002000D01*
X159127000Y-132002000D01*
X159127000Y-132876250D01*
X159285750Y-133035000D01*
X159475000Y-133038072D01*
X159599482Y-133025812D01*
X159719180Y-132989502D01*
X159829494Y-132930537D01*
X159926185Y-132851185D01*
X160005537Y-132754494D01*
X160064502Y-132644180D01*
X160100812Y-132524482D01*
X160113072Y-132400000D01*
X160110000Y-132160750D01*
X159951250Y-132002000D01*
X159127000Y-132002000D01*
X158873000Y-132002000D01*
X158048750Y-132002000D01*
X157890000Y-132160750D01*
X157886928Y-132400000D01*
X157018072Y-132400000D01*
X156989502Y-132305820D01*
X156930537Y-132195506D01*
X156851185Y-132098815D01*
X156754494Y-132019463D01*
X156738393Y-132010857D01*
X156823000Y-131926250D01*
X156823000Y-131127000D01*
X156803000Y-131127000D01*
X156803000Y-130873000D01*
X156823000Y-130873000D01*
X156823000Y-130853000D01*
X157077000Y-130853000D01*
X157077000Y-130873000D01*
X157826250Y-130873000D01*
X157953136Y-130746114D01*
X157953577Y-130747567D01*
X158034488Y-130898942D01*
X158054099Y-130922839D01*
X157994463Y-130995506D01*
X157935498Y-131105820D01*
X157905142Y-131205892D01*
X157826250Y-131127000D01*
X157077000Y-131127000D01*
X157077000Y-131926250D01*
X157235750Y-132085000D01*
X157350000Y-132088072D01*
X157474482Y-132075812D01*
X157594180Y-132039502D01*
X157704494Y-131980537D01*
X157801185Y-131901185D01*
X157880537Y-131804494D01*
X157939502Y-131694180D01*
X157952403Y-131651653D01*
X158048750Y-131748000D01*
X158873000Y-131748000D01*
X158873000Y-131728000D01*
X159127000Y-131728000D01*
X159127000Y-131748000D01*
X159951250Y-131748000D01*
X160110000Y-131589250D01*
X160113072Y-131350000D01*
X160100812Y-131225518D01*
X160064502Y-131105820D01*
X160005537Y-130995506D01*
X159945901Y-130922839D01*
X159965512Y-130898942D01*
X160046423Y-130747567D01*
X160096248Y-130583316D01*
X160113072Y-130412500D01*
X160113072Y-129837500D01*
X160107901Y-129785000D01*
X162356531Y-129785000D01*
X162400000Y-129789281D01*
X162443469Y-129785000D01*
X162443477Y-129785000D01*
X162573490Y-129772195D01*
X162740313Y-129721589D01*
X162894059Y-129639411D01*
X163028817Y-129528817D01*
X163056534Y-129495044D01*
X163695050Y-128856529D01*
X163728817Y-128828817D01*
X163770185Y-128778411D01*
X163839410Y-128694060D01*
X163839411Y-128694059D01*
X163921589Y-128540313D01*
X163972195Y-128373490D01*
X163985000Y-128243477D01*
X163985000Y-128243467D01*
X163989281Y-128200001D01*
X163985000Y-128156535D01*
X163985000Y-127648986D01*
X164011463Y-127698494D01*
X164090815Y-127795185D01*
X164187506Y-127874537D01*
X164297820Y-127933502D01*
X164417518Y-127969812D01*
X164542000Y-127982072D01*
X165053905Y-127982072D01*
X165040815Y-127992815D01*
X164961463Y-128089506D01*
X164902498Y-128199820D01*
X164866188Y-128319518D01*
X164853928Y-128444000D01*
X164853928Y-129344000D01*
X164866188Y-129468482D01*
X164902498Y-129588180D01*
X164961463Y-129698494D01*
X165007000Y-129753982D01*
X165007001Y-129771954D01*
X164926488Y-129870058D01*
X164845577Y-130021433D01*
X164795752Y-130185684D01*
X164778928Y-130356500D01*
X164778928Y-130931500D01*
X164795752Y-131102316D01*
X164845577Y-131266567D01*
X164926488Y-131417942D01*
X165009425Y-131519000D01*
X164926488Y-131620058D01*
X164845577Y-131771433D01*
X164795752Y-131935684D01*
X164778928Y-132106500D01*
X164778928Y-132681500D01*
X164795752Y-132852316D01*
X164845577Y-133016567D01*
X164926488Y-133167942D01*
X165007001Y-133266046D01*
X165007001Y-133361928D01*
X164400000Y-133361928D01*
X164226746Y-133378992D01*
X164060150Y-133429528D01*
X163906614Y-133511595D01*
X163772038Y-133622038D01*
X163661595Y-133756614D01*
X163579528Y-133910150D01*
X163528992Y-134076746D01*
X163511928Y-134250000D01*
X163511928Y-135750000D01*
X163528992Y-135923254D01*
X163579528Y-136089850D01*
X163661595Y-136243386D01*
X163772038Y-136377962D01*
X163906614Y-136488405D01*
X164060150Y-136570472D01*
X164226746Y-136621008D01*
X164400000Y-136638072D01*
X165600000Y-136638072D01*
X165773254Y-136621008D01*
X165939850Y-136570472D01*
X166093386Y-136488405D01*
X166227962Y-136377962D01*
X166338405Y-136243386D01*
X166392777Y-136141663D01*
X166444866Y-136205134D01*
X166670987Y-136390706D01*
X166928967Y-136528599D01*
X167208890Y-136613513D01*
X167500000Y-136642185D01*
X167791111Y-136613513D01*
X168071034Y-136528599D01*
X168329014Y-136390706D01*
X168555134Y-136205134D01*
X168740706Y-135979014D01*
X168878599Y-135721033D01*
X168963513Y-135441110D01*
X168985000Y-135222949D01*
X168985000Y-134975695D01*
X171146520Y-134975695D01*
X171215822Y-135727938D01*
X171430548Y-136452208D01*
X171782445Y-137120670D01*
X171809452Y-137161088D01*
X172299119Y-137521276D01*
X174820395Y-135000000D01*
X175179605Y-135000000D01*
X177700881Y-137521276D01*
X178190548Y-137161088D01*
X178550849Y-136497118D01*
X178774694Y-135775615D01*
X178853480Y-135024305D01*
X178784178Y-134272062D01*
X178569452Y-133547792D01*
X178217555Y-132879330D01*
X178190548Y-132838912D01*
X177700881Y-132478724D01*
X175179605Y-135000000D01*
X174820395Y-135000000D01*
X172299119Y-132478724D01*
X171809452Y-132838912D01*
X171449151Y-133502882D01*
X171225306Y-134224385D01*
X171146520Y-134975695D01*
X168985000Y-134975695D01*
X168985000Y-134777050D01*
X168963513Y-134558889D01*
X168878599Y-134278966D01*
X168740706Y-134020986D01*
X168555134Y-133794866D01*
X168329013Y-133609294D01*
X168071033Y-133471401D01*
X167791110Y-133386487D01*
X167500000Y-133357815D01*
X167208889Y-133386487D01*
X166928966Y-133471401D01*
X166777000Y-133552628D01*
X166777000Y-133266046D01*
X166857512Y-133167942D01*
X166938423Y-133016567D01*
X166988248Y-132852316D01*
X167005072Y-132681500D01*
X167005072Y-132299119D01*
X172478724Y-132299119D01*
X175000000Y-134820395D01*
X177521276Y-132299119D01*
X177161088Y-131809452D01*
X176497118Y-131449151D01*
X175775615Y-131225306D01*
X175024305Y-131146520D01*
X174272062Y-131215822D01*
X173547792Y-131430548D01*
X172879330Y-131782445D01*
X172838912Y-131809452D01*
X172478724Y-132299119D01*
X167005072Y-132299119D01*
X167005072Y-132106500D01*
X166988248Y-131935684D01*
X166938423Y-131771433D01*
X166857512Y-131620058D01*
X166774575Y-131519000D01*
X166857512Y-131417942D01*
X166938423Y-131266567D01*
X166988248Y-131102316D01*
X167005072Y-130931500D01*
X167005072Y-130356500D01*
X166988248Y-130185684D01*
X166938423Y-130021433D01*
X166857512Y-129870058D01*
X166777000Y-129771954D01*
X166777000Y-129753981D01*
X166822537Y-129698494D01*
X166881502Y-129588180D01*
X166917812Y-129468482D01*
X166930072Y-129344000D01*
X166930072Y-128444000D01*
X166920815Y-128350000D01*
X168386928Y-128350000D01*
X168399188Y-128474482D01*
X168435498Y-128594180D01*
X168494463Y-128704494D01*
X168573815Y-128801185D01*
X168670506Y-128880537D01*
X168780820Y-128939502D01*
X168900518Y-128975812D01*
X169025000Y-128988072D01*
X169714250Y-128985000D01*
X169873000Y-128826250D01*
X169873000Y-127627000D01*
X170127000Y-127627000D01*
X170127000Y-128826250D01*
X170285750Y-128985000D01*
X170975000Y-128988072D01*
X171099482Y-128975812D01*
X171219180Y-128939502D01*
X171329494Y-128880537D01*
X171426185Y-128801185D01*
X171505537Y-128704494D01*
X171564502Y-128594180D01*
X171600812Y-128474482D01*
X171613072Y-128350000D01*
X171610000Y-127785750D01*
X171451250Y-127627000D01*
X170127000Y-127627000D01*
X169873000Y-127627000D01*
X168548750Y-127627000D01*
X168390000Y-127785750D01*
X168386928Y-128350000D01*
X166920815Y-128350000D01*
X166917812Y-128319518D01*
X166881502Y-128199820D01*
X166822537Y-128089506D01*
X166743185Y-127992815D01*
X166646494Y-127913463D01*
X166630393Y-127904857D01*
X166715000Y-127820250D01*
X166715000Y-127021000D01*
X166969000Y-127021000D01*
X166969000Y-127820250D01*
X167127750Y-127979000D01*
X167242000Y-127982072D01*
X167366482Y-127969812D01*
X167486180Y-127933502D01*
X167596494Y-127874537D01*
X167693185Y-127795185D01*
X167772537Y-127698494D01*
X167831502Y-127588180D01*
X167867812Y-127468482D01*
X167880072Y-127344000D01*
X167877000Y-127179750D01*
X167718250Y-127021000D01*
X166969000Y-127021000D01*
X166715000Y-127021000D01*
X166695000Y-127021000D01*
X166695000Y-126767000D01*
X166715000Y-126767000D01*
X166715000Y-125967750D01*
X166623000Y-125875750D01*
X166623000Y-125252000D01*
X166877000Y-125252000D01*
X166877000Y-126126250D01*
X166969000Y-126218250D01*
X166969000Y-126767000D01*
X167718250Y-126767000D01*
X167877000Y-126608250D01*
X167880072Y-126444000D01*
X167867812Y-126319518D01*
X167831502Y-126199820D01*
X167772537Y-126089506D01*
X167729153Y-126036643D01*
X167755537Y-126004494D01*
X167814502Y-125894180D01*
X167850812Y-125774482D01*
X167863072Y-125650000D01*
X167860000Y-125410750D01*
X167701250Y-125252000D01*
X166877000Y-125252000D01*
X166623000Y-125252000D01*
X166603000Y-125252000D01*
X166603000Y-124998000D01*
X166623000Y-124998000D01*
X166623000Y-124978000D01*
X166877000Y-124978000D01*
X166877000Y-124998000D01*
X167701250Y-124998000D01*
X167860000Y-124839250D01*
X167863072Y-124600000D01*
X167850812Y-124475518D01*
X167814502Y-124355820D01*
X167755537Y-124245506D01*
X167695901Y-124172839D01*
X167715512Y-124148942D01*
X167796423Y-123997567D01*
X167846248Y-123833316D01*
X167863072Y-123662500D01*
X167863072Y-123087500D01*
X167846248Y-122916684D01*
X167796423Y-122752433D01*
X167715512Y-122601058D01*
X167635000Y-122502954D01*
X167635000Y-122293466D01*
X167639281Y-122249999D01*
X167635000Y-122206533D01*
X167635000Y-122206523D01*
X167622195Y-122076510D01*
X167571589Y-121909687D01*
X167489411Y-121755941D01*
X167378817Y-121621183D01*
X167345045Y-121593467D01*
X167256534Y-121504956D01*
X167228817Y-121471183D01*
X167094059Y-121360589D01*
X166940313Y-121278411D01*
X166773490Y-121227805D01*
X166643477Y-121215000D01*
X166643469Y-121215000D01*
X166600000Y-121210719D01*
X166556531Y-121215000D01*
X165885000Y-121215000D01*
X165885000Y-117743469D01*
X165889281Y-117700000D01*
X165885000Y-117656531D01*
X165885000Y-117656523D01*
X165872195Y-117526510D01*
X165864512Y-117501183D01*
X165821589Y-117359686D01*
X165739411Y-117205941D01*
X165656532Y-117104953D01*
X165656530Y-117104951D01*
X165628817Y-117071183D01*
X165595049Y-117043470D01*
X154308981Y-105757403D01*
X154291383Y-105668933D01*
X154273018Y-105624597D01*
X157743470Y-109095049D01*
X157771183Y-109128817D01*
X157804951Y-109156530D01*
X157804953Y-109156532D01*
X157876452Y-109215210D01*
X157905941Y-109239411D01*
X158059687Y-109321589D01*
X158175903Y-109356843D01*
X158226509Y-109372195D01*
X158241306Y-109373652D01*
X158356523Y-109385000D01*
X158356531Y-109385000D01*
X158400000Y-109389281D01*
X158443469Y-109385000D01*
X162386928Y-109385000D01*
X162386928Y-109912500D01*
X162403752Y-110083316D01*
X162453577Y-110247567D01*
X162534488Y-110398942D01*
X162617425Y-110500000D01*
X162534488Y-110601058D01*
X162453577Y-110752433D01*
X162403752Y-110916684D01*
X162386928Y-111087500D01*
X162386928Y-111662500D01*
X162403752Y-111833316D01*
X162453577Y-111997567D01*
X162534488Y-112148942D01*
X162615000Y-112247046D01*
X162615000Y-112956531D01*
X162610719Y-113000000D01*
X162615000Y-113043469D01*
X162615000Y-113043476D01*
X162627805Y-113173489D01*
X162678411Y-113340312D01*
X162760589Y-113494058D01*
X162871183Y-113628817D01*
X162904956Y-113656534D01*
X164943470Y-115695049D01*
X164971183Y-115728817D01*
X165004951Y-115756530D01*
X165004953Y-115756532D01*
X165076452Y-115815210D01*
X165105941Y-115839411D01*
X165259687Y-115921589D01*
X165426510Y-115972195D01*
X165556523Y-115985000D01*
X165556533Y-115985000D01*
X165599999Y-115989281D01*
X165643465Y-115985000D01*
X168886928Y-115985000D01*
X168886928Y-116287500D01*
X168903752Y-116458316D01*
X168953577Y-116622567D01*
X169034488Y-116773942D01*
X169117425Y-116875000D01*
X169034488Y-116976058D01*
X168953577Y-117127433D01*
X168903752Y-117291684D01*
X168886928Y-117462500D01*
X168886928Y-118037500D01*
X168903752Y-118208316D01*
X168953577Y-118372567D01*
X169034488Y-118523942D01*
X169115000Y-118622046D01*
X169115000Y-118722405D01*
X169045986Y-118759294D01*
X168819866Y-118944866D01*
X168634294Y-119170986D01*
X168496401Y-119428966D01*
X168411487Y-119708889D01*
X168382815Y-120000000D01*
X168411487Y-120291111D01*
X168496401Y-120571034D01*
X168634294Y-120829014D01*
X168819866Y-121055134D01*
X169045986Y-121240706D01*
X169063374Y-121250000D01*
X169045986Y-121259294D01*
X168819866Y-121444866D01*
X168634294Y-121670986D01*
X168496401Y-121928966D01*
X168411487Y-122208889D01*
X168382815Y-122500000D01*
X168411487Y-122791111D01*
X168496401Y-123071034D01*
X168634294Y-123329014D01*
X168819866Y-123555134D01*
X169045986Y-123740706D01*
X169063374Y-123750000D01*
X169045986Y-123759294D01*
X168819866Y-123944866D01*
X168634294Y-124170986D01*
X168496401Y-124428966D01*
X168411487Y-124708889D01*
X168382815Y-125000000D01*
X168411487Y-125291111D01*
X168496401Y-125571034D01*
X168634294Y-125829014D01*
X168815608Y-126049945D01*
X168780820Y-126060498D01*
X168670506Y-126119463D01*
X168573815Y-126198815D01*
X168494463Y-126295506D01*
X168435498Y-126405820D01*
X168399188Y-126525518D01*
X168386928Y-126650000D01*
X168390000Y-127214250D01*
X168548750Y-127373000D01*
X169873000Y-127373000D01*
X169873000Y-127353000D01*
X170127000Y-127353000D01*
X170127000Y-127373000D01*
X171451250Y-127373000D01*
X171610000Y-127214250D01*
X171613072Y-126650000D01*
X171600812Y-126525518D01*
X171564502Y-126405820D01*
X171505537Y-126295506D01*
X171426185Y-126198815D01*
X171329494Y-126119463D01*
X171219180Y-126060498D01*
X171184392Y-126049945D01*
X171365706Y-125829014D01*
X171503599Y-125571034D01*
X171588513Y-125291111D01*
X171617185Y-125000000D01*
X171588513Y-124708889D01*
X171503599Y-124428966D01*
X171365706Y-124170986D01*
X171180134Y-123944866D01*
X170954014Y-123759294D01*
X170936626Y-123750000D01*
X170954014Y-123740706D01*
X171180134Y-123555134D01*
X171365706Y-123329014D01*
X171503599Y-123071034D01*
X171588513Y-122791111D01*
X171617185Y-122500000D01*
X171588513Y-122208889D01*
X171503599Y-121928966D01*
X171365706Y-121670986D01*
X171180134Y-121444866D01*
X170954014Y-121259294D01*
X170936626Y-121250000D01*
X170954014Y-121240706D01*
X171180134Y-121055134D01*
X171365706Y-120829014D01*
X171503599Y-120571034D01*
X171588513Y-120291111D01*
X171617185Y-120000000D01*
X171588513Y-119708889D01*
X171503599Y-119428966D01*
X171365706Y-119170986D01*
X171180134Y-118944866D01*
X170954014Y-118759294D01*
X170885000Y-118722405D01*
X170885000Y-118622046D01*
X170965512Y-118523942D01*
X171046423Y-118372567D01*
X171096248Y-118208316D01*
X171113072Y-118037500D01*
X171113072Y-117462500D01*
X171096248Y-117291684D01*
X171046423Y-117127433D01*
X170965512Y-116976058D01*
X170882575Y-116875000D01*
X170965512Y-116773942D01*
X171046423Y-116622567D01*
X171096248Y-116458316D01*
X171113072Y-116287500D01*
X171113072Y-115712500D01*
X171096248Y-115541684D01*
X171046423Y-115377433D01*
X170965512Y-115226058D01*
X170886365Y-115129618D01*
X170887399Y-115119123D01*
X170965512Y-115023942D01*
X171046423Y-114872567D01*
X171096248Y-114708316D01*
X171113072Y-114537500D01*
X171113072Y-113962500D01*
X171096248Y-113791684D01*
X171046423Y-113627433D01*
X170965512Y-113476058D01*
X170945901Y-113452161D01*
X171005537Y-113379494D01*
X171064502Y-113269180D01*
X171100812Y-113149482D01*
X171113072Y-113025000D01*
X171110000Y-112785750D01*
X170951250Y-112627000D01*
X170127000Y-112627000D01*
X170127000Y-112647000D01*
X169873000Y-112647000D01*
X169873000Y-112627000D01*
X169048750Y-112627000D01*
X168890000Y-112785750D01*
X168886928Y-113025000D01*
X168899188Y-113149482D01*
X168935498Y-113269180D01*
X168994463Y-113379494D01*
X169054099Y-113452161D01*
X169034488Y-113476058D01*
X168953577Y-113627433D01*
X168903752Y-113791684D01*
X168886928Y-113962500D01*
X168886928Y-114215000D01*
X165966579Y-114215000D01*
X164385000Y-112633422D01*
X164385000Y-112247046D01*
X164465512Y-112148942D01*
X164546423Y-111997567D01*
X164553268Y-111975000D01*
X168886928Y-111975000D01*
X168890000Y-112214250D01*
X169048750Y-112373000D01*
X169873000Y-112373000D01*
X169873000Y-111498750D01*
X170127000Y-111498750D01*
X170127000Y-112373000D01*
X170951250Y-112373000D01*
X171110000Y-112214250D01*
X171113072Y-111975000D01*
X171100812Y-111850518D01*
X171064502Y-111730820D01*
X171005537Y-111620506D01*
X170926185Y-111523815D01*
X170829494Y-111444463D01*
X170719180Y-111385498D01*
X170599482Y-111349188D01*
X170475000Y-111336928D01*
X170285750Y-111340000D01*
X170127000Y-111498750D01*
X169873000Y-111498750D01*
X169714250Y-111340000D01*
X169525000Y-111336928D01*
X169400518Y-111349188D01*
X169280820Y-111385498D01*
X169170506Y-111444463D01*
X169073815Y-111523815D01*
X168994463Y-111620506D01*
X168935498Y-111730820D01*
X168899188Y-111850518D01*
X168886928Y-111975000D01*
X164553268Y-111975000D01*
X164596248Y-111833316D01*
X164613072Y-111662500D01*
X164613072Y-111087500D01*
X164596248Y-110916684D01*
X164546423Y-110752433D01*
X164465512Y-110601058D01*
X164382575Y-110500000D01*
X164465512Y-110398942D01*
X164546423Y-110247567D01*
X164596248Y-110083316D01*
X164613072Y-109912500D01*
X164613072Y-109337500D01*
X164596248Y-109166684D01*
X164546423Y-109002433D01*
X164465512Y-108851058D01*
X164385000Y-108752954D01*
X164385000Y-108543477D01*
X164389282Y-108500000D01*
X164385000Y-108456523D01*
X164385000Y-108372046D01*
X164465512Y-108273942D01*
X164546423Y-108122567D01*
X164596248Y-107958316D01*
X164613072Y-107787500D01*
X164613072Y-107212500D01*
X164596248Y-107041684D01*
X164546423Y-106877433D01*
X164465512Y-106726058D01*
X164382575Y-106625000D01*
X164465512Y-106523942D01*
X164546423Y-106372567D01*
X164596248Y-106208316D01*
X164613072Y-106037500D01*
X164613072Y-105462500D01*
X164596248Y-105291684D01*
X164546423Y-105127433D01*
X164465512Y-104976058D01*
X164385000Y-104877954D01*
X164385000Y-102066578D01*
X170060507Y-96391072D01*
X170120986Y-96440706D01*
X170378966Y-96578599D01*
X170615000Y-96650200D01*
X170615000Y-96752954D01*
X170534488Y-96851058D01*
X170453577Y-97002433D01*
X170403752Y-97166684D01*
X170386928Y-97337500D01*
X170386928Y-97912500D01*
X170403752Y-98083316D01*
X170453577Y-98247567D01*
X170534488Y-98398942D01*
X170617425Y-98500000D01*
X170534488Y-98601058D01*
X170453577Y-98752433D01*
X170403752Y-98916684D01*
X170386928Y-99087500D01*
X170386928Y-99662500D01*
X170403752Y-99833316D01*
X170453577Y-99997567D01*
X170534488Y-100148942D01*
X170615000Y-100247046D01*
X170615001Y-104233420D01*
X167382232Y-107466189D01*
X167168933Y-107508617D01*
X166962376Y-107594176D01*
X166776480Y-107718388D01*
X166618388Y-107876480D01*
X166494176Y-108062376D01*
X166408617Y-108268933D01*
X166365000Y-108488212D01*
X166365000Y-108711788D01*
X166408617Y-108931067D01*
X166494176Y-109137624D01*
X166618388Y-109323520D01*
X166776480Y-109481612D01*
X166962376Y-109605824D01*
X167168933Y-109691383D01*
X167388212Y-109735000D01*
X167611788Y-109735000D01*
X167831067Y-109691383D01*
X168037624Y-109605824D01*
X168223520Y-109481612D01*
X168381612Y-109323520D01*
X168505824Y-109137624D01*
X168591383Y-108931067D01*
X168633811Y-108717768D01*
X172095049Y-105256530D01*
X172128817Y-105228817D01*
X172170185Y-105178411D01*
X172215210Y-105123548D01*
X172239411Y-105094059D01*
X172321589Y-104940313D01*
X172372195Y-104773490D01*
X172385000Y-104643477D01*
X172385000Y-104643467D01*
X172389281Y-104600001D01*
X172385000Y-104556535D01*
X172385000Y-100247046D01*
X172465512Y-100148942D01*
X172546423Y-99997567D01*
X172596248Y-99833316D01*
X172613072Y-99662500D01*
X172613072Y-99087500D01*
X172596248Y-98916684D01*
X172546423Y-98752433D01*
X172465512Y-98601058D01*
X172382575Y-98500000D01*
X172465512Y-98398942D01*
X172546423Y-98247567D01*
X172596248Y-98083316D01*
X172613072Y-97912500D01*
X172613072Y-97337500D01*
X172596248Y-97166684D01*
X172546423Y-97002433D01*
X172465512Y-96851058D01*
X172385000Y-96752954D01*
X172385000Y-96157817D01*
X172490706Y-96029014D01*
X172628599Y-95771034D01*
X172713513Y-95491111D01*
X172742185Y-95200000D01*
X172713513Y-94908889D01*
X172628599Y-94628966D01*
X172490706Y-94370986D01*
X172309392Y-94150055D01*
X172344180Y-94139502D01*
X172454494Y-94080537D01*
X172551185Y-94001185D01*
X172630537Y-93904494D01*
X172689502Y-93794180D01*
X172725812Y-93674482D01*
X172738072Y-93550000D01*
X172735000Y-92985750D01*
X172576250Y-92827000D01*
X171227000Y-92827000D01*
X171227000Y-92847000D01*
X170973000Y-92847000D01*
X170973000Y-92827000D01*
X169623750Y-92827000D01*
X169465000Y-92985750D01*
X169461928Y-93550000D01*
X169474188Y-93674482D01*
X169510498Y-93794180D01*
X169569463Y-93904494D01*
X169648815Y-94001185D01*
X169745506Y-94080537D01*
X169855820Y-94139502D01*
X169890608Y-94150055D01*
X169717624Y-94360836D01*
X169659687Y-94378411D01*
X169505941Y-94460589D01*
X169505939Y-94460590D01*
X169505940Y-94460590D01*
X169404953Y-94543468D01*
X169404951Y-94543470D01*
X169371183Y-94571183D01*
X169343470Y-94604951D01*
X162904952Y-101043470D01*
X162871184Y-101071183D01*
X162843471Y-101104951D01*
X162843468Y-101104954D01*
X162760590Y-101205941D01*
X162678412Y-101359687D01*
X162627805Y-101526510D01*
X162610719Y-101700000D01*
X162615001Y-101743479D01*
X162615000Y-104877954D01*
X162534488Y-104976058D01*
X162453577Y-105127433D01*
X162403752Y-105291684D01*
X162386928Y-105462500D01*
X162386928Y-106037500D01*
X162403752Y-106208316D01*
X162453577Y-106372567D01*
X162534488Y-106523942D01*
X162617425Y-106625000D01*
X162534488Y-106726058D01*
X162453577Y-106877433D01*
X162403752Y-107041684D01*
X162386928Y-107212500D01*
X162386928Y-107615000D01*
X158766579Y-107615000D01*
X151545000Y-100393422D01*
X151545000Y-98970078D01*
X151679608Y-98859608D01*
X151858932Y-98641101D01*
X151930000Y-98508142D01*
X152001068Y-98641101D01*
X152180393Y-98859608D01*
X152398900Y-99038932D01*
X152648193Y-99172182D01*
X152918692Y-99254236D01*
X153200000Y-99281943D01*
X153481309Y-99254236D01*
X153751808Y-99172182D01*
X154001101Y-99038932D01*
X154219608Y-98859608D01*
X154398932Y-98641101D01*
X154468122Y-98511655D01*
X154475570Y-98529227D01*
X154634327Y-98762662D01*
X154835575Y-98960639D01*
X155071579Y-99115551D01*
X155333270Y-99221444D01*
X155390961Y-99231904D01*
X155613000Y-99109915D01*
X155613000Y-97767000D01*
X155593000Y-97767000D01*
X155593000Y-97513000D01*
X155613000Y-97513000D01*
X155613000Y-96170085D01*
X155867000Y-96170085D01*
X155867000Y-97513000D01*
X155887000Y-97513000D01*
X155887000Y-97767000D01*
X155867000Y-97767000D01*
X155867000Y-99109915D01*
X156089039Y-99231904D01*
X156146730Y-99221444D01*
X156408421Y-99115551D01*
X156644425Y-98960639D01*
X156845673Y-98762662D01*
X157004430Y-98529227D01*
X157011878Y-98511655D01*
X157081068Y-98641101D01*
X157260393Y-98859608D01*
X157478900Y-99038932D01*
X157728193Y-99172182D01*
X157998692Y-99254236D01*
X158280000Y-99281943D01*
X158561309Y-99254236D01*
X158831808Y-99172182D01*
X159081101Y-99038932D01*
X159299608Y-98859608D01*
X159478932Y-98641101D01*
X159612182Y-98391807D01*
X159694236Y-98121308D01*
X159715000Y-97910491D01*
X159715000Y-97369508D01*
X159694236Y-97158691D01*
X159612182Y-96888192D01*
X159478932Y-96638899D01*
X159299607Y-96420392D01*
X159081100Y-96241068D01*
X158831807Y-96107818D01*
X158561308Y-96025764D01*
X158280000Y-95998057D01*
X157998691Y-96025764D01*
X157728192Y-96107818D01*
X157478899Y-96241068D01*
X157260392Y-96420393D01*
X157081068Y-96638900D01*
X157011878Y-96768345D01*
X157004430Y-96750773D01*
X156845673Y-96517338D01*
X156644425Y-96319361D01*
X156408421Y-96164449D01*
X156146730Y-96058556D01*
X156089039Y-96048096D01*
X155867000Y-96170085D01*
X155613000Y-96170085D01*
X155390961Y-96048096D01*
X155333270Y-96058556D01*
X155071579Y-96164449D01*
X154835575Y-96319361D01*
X154634327Y-96517338D01*
X154475570Y-96750773D01*
X154468122Y-96768345D01*
X154398932Y-96638899D01*
X154219607Y-96420392D01*
X154001100Y-96241068D01*
X153751807Y-96107818D01*
X153481308Y-96025764D01*
X153200000Y-95998057D01*
X152918691Y-96025764D01*
X152648192Y-96107818D01*
X152398899Y-96241068D01*
X152180392Y-96420393D01*
X152001068Y-96638900D01*
X151930000Y-96771858D01*
X151858932Y-96638899D01*
X151679607Y-96420392D01*
X151461100Y-96241068D01*
X151211807Y-96107818D01*
X150941308Y-96025764D01*
X150660000Y-95998057D01*
X150378691Y-96025764D01*
X150108192Y-96107818D01*
X149858899Y-96241068D01*
X149640392Y-96420393D01*
X149461068Y-96638900D01*
X149390000Y-96771858D01*
X149318932Y-96638899D01*
X149139607Y-96420392D01*
X148921100Y-96241068D01*
X148920886Y-96240953D01*
X148859411Y-96125941D01*
X148825811Y-96085000D01*
X148776532Y-96024953D01*
X148776530Y-96024951D01*
X148748817Y-95991183D01*
X148715049Y-95963470D01*
X145156534Y-92404956D01*
X145128817Y-92371183D01*
X144994059Y-92260589D01*
X144840313Y-92178411D01*
X144673490Y-92127805D01*
X144543477Y-92115000D01*
X144543469Y-92115000D01*
X144500000Y-92110719D01*
X144456531Y-92115000D01*
X141166579Y-92115000D01*
X140901579Y-91850000D01*
X169461928Y-91850000D01*
X169465000Y-92414250D01*
X169623750Y-92573000D01*
X170973000Y-92573000D01*
X170973000Y-91373750D01*
X171227000Y-91373750D01*
X171227000Y-92573000D01*
X172576250Y-92573000D01*
X172735000Y-92414250D01*
X172738072Y-91850000D01*
X172725812Y-91725518D01*
X172689502Y-91605820D01*
X172630537Y-91495506D01*
X172551185Y-91398815D01*
X172454494Y-91319463D01*
X172344180Y-91260498D01*
X172224482Y-91224188D01*
X172100000Y-91211928D01*
X171385750Y-91215000D01*
X171227000Y-91373750D01*
X170973000Y-91373750D01*
X170814250Y-91215000D01*
X170100000Y-91211928D01*
X169975518Y-91224188D01*
X169855820Y-91260498D01*
X169745506Y-91319463D01*
X169648815Y-91398815D01*
X169569463Y-91495506D01*
X169510498Y-91605820D01*
X169474188Y-91725518D01*
X169461928Y-91850000D01*
X140901579Y-91850000D01*
X140781820Y-91730241D01*
X140785000Y-91697949D01*
X140785000Y-91302050D01*
X140763513Y-91083889D01*
X140678599Y-90803966D01*
X140540706Y-90545986D01*
X140355134Y-90319866D01*
X140129013Y-90134294D01*
X140127000Y-90133218D01*
X140127000Y-88250000D01*
X155036928Y-88250000D01*
X155049188Y-88374482D01*
X155085498Y-88494180D01*
X155144463Y-88604494D01*
X155223815Y-88701185D01*
X155320506Y-88780537D01*
X155430820Y-88839502D01*
X155550518Y-88875812D01*
X155675000Y-88888072D01*
X155964250Y-88885000D01*
X156123000Y-88726250D01*
X156123000Y-87027000D01*
X156377000Y-87027000D01*
X156377000Y-88726250D01*
X156535750Y-88885000D01*
X156825000Y-88888072D01*
X156949482Y-88875812D01*
X157069180Y-88839502D01*
X157179494Y-88780537D01*
X157276185Y-88701185D01*
X157355537Y-88604494D01*
X157414502Y-88494180D01*
X157450812Y-88374482D01*
X157463072Y-88250000D01*
X157460000Y-87185750D01*
X157301250Y-87027000D01*
X156377000Y-87027000D01*
X156123000Y-87027000D01*
X155198750Y-87027000D01*
X155040000Y-87185750D01*
X155036928Y-88250000D01*
X140127000Y-88250000D01*
X140127000Y-87350000D01*
X140711928Y-87350000D01*
X140724188Y-87474482D01*
X140760498Y-87594180D01*
X140819463Y-87704494D01*
X140898815Y-87801185D01*
X140995506Y-87880537D01*
X141105820Y-87939502D01*
X141225518Y-87975812D01*
X141350000Y-87988072D01*
X142414250Y-87985000D01*
X142573000Y-87826250D01*
X142573000Y-86902000D01*
X140873750Y-86902000D01*
X140715000Y-87060750D01*
X140711928Y-87350000D01*
X140127000Y-87350000D01*
X140127000Y-86200000D01*
X140711928Y-86200000D01*
X140715000Y-86489250D01*
X140873750Y-86648000D01*
X142573000Y-86648000D01*
X142573000Y-85723750D01*
X142414250Y-85565000D01*
X141350000Y-85561928D01*
X141225518Y-85574188D01*
X141105820Y-85610498D01*
X140995506Y-85669463D01*
X140898815Y-85748815D01*
X140819463Y-85845506D01*
X140760498Y-85955820D01*
X140724188Y-86075518D01*
X140711928Y-86200000D01*
X140127000Y-86200000D01*
X140127000Y-83499999D01*
X140711928Y-83499999D01*
X140711928Y-84150001D01*
X140728992Y-84323255D01*
X140779528Y-84489851D01*
X140861595Y-84643387D01*
X140972038Y-84777962D01*
X141106613Y-84888405D01*
X141260149Y-84970472D01*
X141426745Y-85021008D01*
X141599999Y-85038072D01*
X143800001Y-85038072D01*
X143973255Y-85021008D01*
X144139851Y-84970472D01*
X144293387Y-84888405D01*
X144427962Y-84777962D01*
X144521248Y-84664292D01*
X144609294Y-84829014D01*
X144790608Y-85049945D01*
X144755820Y-85060498D01*
X144645506Y-85119463D01*
X144548815Y-85198815D01*
X144469463Y-85295506D01*
X144410498Y-85405820D01*
X144374188Y-85525518D01*
X144362236Y-85646875D01*
X144294180Y-85610498D01*
X144174482Y-85574188D01*
X144050000Y-85561928D01*
X142985750Y-85565000D01*
X142827000Y-85723750D01*
X142827000Y-86648000D01*
X142847000Y-86648000D01*
X142847000Y-86902000D01*
X142827000Y-86902000D01*
X142827000Y-87826250D01*
X142985750Y-87985000D01*
X144050000Y-87988072D01*
X144174482Y-87975812D01*
X144294180Y-87939502D01*
X144404494Y-87880537D01*
X144501185Y-87801185D01*
X144525000Y-87772166D01*
X144548815Y-87801185D01*
X144645506Y-87880537D01*
X144755820Y-87939502D01*
X144875518Y-87975812D01*
X145000000Y-87988072D01*
X145714250Y-87985000D01*
X145873000Y-87826250D01*
X145873000Y-86627000D01*
X146127000Y-86627000D01*
X146127000Y-87826250D01*
X146285750Y-87985000D01*
X147000000Y-87988072D01*
X147124482Y-87975812D01*
X147244180Y-87939502D01*
X147354494Y-87880537D01*
X147451185Y-87801185D01*
X147530537Y-87704494D01*
X147589502Y-87594180D01*
X147625812Y-87474482D01*
X147638072Y-87350000D01*
X147635000Y-86785750D01*
X147476250Y-86627000D01*
X146127000Y-86627000D01*
X145873000Y-86627000D01*
X145853000Y-86627000D01*
X145853000Y-86373000D01*
X145873000Y-86373000D01*
X145873000Y-86353000D01*
X146127000Y-86353000D01*
X146127000Y-86373000D01*
X147476250Y-86373000D01*
X147635000Y-86214250D01*
X147638072Y-85650000D01*
X147625812Y-85525518D01*
X147589502Y-85405820D01*
X147530537Y-85295506D01*
X147451185Y-85198815D01*
X147354494Y-85119463D01*
X147244180Y-85060498D01*
X147209392Y-85049945D01*
X147390706Y-84829014D01*
X147528599Y-84571034D01*
X147539530Y-84535000D01*
X147653856Y-84535000D01*
X147755820Y-84589502D01*
X147875518Y-84625812D01*
X148000000Y-84638072D01*
X148900000Y-84638072D01*
X149024482Y-84625812D01*
X149144180Y-84589502D01*
X149254494Y-84530537D01*
X149351185Y-84451185D01*
X149430537Y-84354494D01*
X149489502Y-84244180D01*
X149525812Y-84124482D01*
X149538072Y-84000000D01*
X149538072Y-83723060D01*
X149568577Y-83622499D01*
X149590491Y-83400000D01*
X149568577Y-83177501D01*
X149538072Y-83076940D01*
X149538072Y-82800000D01*
X150661928Y-82800000D01*
X150661928Y-84000000D01*
X150674188Y-84124482D01*
X150710498Y-84244180D01*
X150769463Y-84354494D01*
X150848815Y-84451185D01*
X150945506Y-84530537D01*
X151055820Y-84589502D01*
X151175518Y-84625812D01*
X151300000Y-84638072D01*
X152200000Y-84638072D01*
X152324482Y-84625812D01*
X152444180Y-84589502D01*
X152554494Y-84530537D01*
X152576807Y-84512225D01*
X152662843Y-84673187D01*
X152835919Y-84884080D01*
X153046812Y-85057157D01*
X153287419Y-85185764D01*
X153548493Y-85264960D01*
X153820000Y-85291701D01*
X154091506Y-85264960D01*
X154352580Y-85185764D01*
X154593187Y-85057157D01*
X154804080Y-84884081D01*
X154977157Y-84673188D01*
X155092486Y-84457422D01*
X155129028Y-84547349D01*
X155278972Y-84775061D01*
X155454763Y-84953235D01*
X155430820Y-84960498D01*
X155320506Y-85019463D01*
X155223815Y-85098815D01*
X155144463Y-85195506D01*
X155085498Y-85305820D01*
X155049188Y-85425518D01*
X155036928Y-85550000D01*
X155040000Y-86614250D01*
X155198750Y-86773000D01*
X156123000Y-86773000D01*
X156123000Y-85182652D01*
X156233000Y-85119656D01*
X156233000Y-85073750D01*
X156377000Y-85073750D01*
X156377000Y-86773000D01*
X157301250Y-86773000D01*
X157460000Y-86614250D01*
X157463072Y-85550000D01*
X157450812Y-85425518D01*
X157414502Y-85305820D01*
X157355537Y-85195506D01*
X157276185Y-85098815D01*
X157179494Y-85019463D01*
X157177160Y-85018216D01*
X157249540Y-84969145D01*
X157441028Y-84775061D01*
X157513418Y-84665126D01*
X157524188Y-84774482D01*
X157560498Y-84894180D01*
X157619463Y-85004494D01*
X157698815Y-85101185D01*
X157795506Y-85180537D01*
X157905820Y-85239502D01*
X158025518Y-85275812D01*
X158150000Y-85288072D01*
X158151811Y-85288072D01*
X158136595Y-85306613D01*
X158054528Y-85460149D01*
X158003992Y-85626745D01*
X157986928Y-85799999D01*
X157986928Y-88000001D01*
X158003992Y-88173255D01*
X158054528Y-88339851D01*
X158136595Y-88493387D01*
X158247038Y-88627962D01*
X158381613Y-88738405D01*
X158535149Y-88820472D01*
X158701745Y-88871008D01*
X158874999Y-88888072D01*
X159525001Y-88888072D01*
X159698255Y-88871008D01*
X159864851Y-88820472D01*
X160018387Y-88738405D01*
X160152962Y-88627962D01*
X160263405Y-88493387D01*
X160345472Y-88339851D01*
X160396008Y-88173255D01*
X160413072Y-88000001D01*
X160413072Y-87466652D01*
X160455820Y-87489502D01*
X160575518Y-87525812D01*
X160700000Y-87538072D01*
X161600000Y-87538072D01*
X161724482Y-87525812D01*
X161844180Y-87489502D01*
X161954494Y-87430537D01*
X162051185Y-87351185D01*
X162130537Y-87254494D01*
X162189502Y-87144180D01*
X162225812Y-87024482D01*
X162238072Y-86900000D01*
X162238072Y-85700000D01*
X163361928Y-85700000D01*
X163361928Y-86900000D01*
X163374188Y-87024482D01*
X163410498Y-87144180D01*
X163469463Y-87254494D01*
X163548815Y-87351185D01*
X163645506Y-87430537D01*
X163755820Y-87489502D01*
X163875518Y-87525812D01*
X164000000Y-87538072D01*
X164900000Y-87538072D01*
X165024482Y-87525812D01*
X165144180Y-87489502D01*
X165254494Y-87430537D01*
X165351185Y-87351185D01*
X165430537Y-87254494D01*
X165467683Y-87185000D01*
X165685768Y-87185000D01*
X165709294Y-87229014D01*
X165894866Y-87455134D01*
X166120986Y-87640706D01*
X166378966Y-87778599D01*
X166658889Y-87863513D01*
X166877050Y-87885000D01*
X167322950Y-87885000D01*
X167541111Y-87863513D01*
X167821034Y-87778599D01*
X167966434Y-87700881D01*
X172478724Y-87700881D01*
X172838912Y-88190548D01*
X173502882Y-88550849D01*
X174224385Y-88774694D01*
X174975695Y-88853480D01*
X175727938Y-88784178D01*
X176452208Y-88569452D01*
X177120670Y-88217555D01*
X177161088Y-88190548D01*
X177521276Y-87700881D01*
X175000000Y-85179605D01*
X172478724Y-87700881D01*
X167966434Y-87700881D01*
X168079014Y-87640706D01*
X168305134Y-87455134D01*
X168490706Y-87229014D01*
X168628599Y-86971034D01*
X168713513Y-86691111D01*
X168742185Y-86400000D01*
X168713513Y-86108889D01*
X168628599Y-85828966D01*
X168490706Y-85570986D01*
X168309392Y-85350055D01*
X168344180Y-85339502D01*
X168454494Y-85280537D01*
X168551185Y-85201185D01*
X168630537Y-85104494D01*
X168689502Y-84994180D01*
X168695109Y-84975695D01*
X171146520Y-84975695D01*
X171215822Y-85727938D01*
X171430548Y-86452208D01*
X171782445Y-87120670D01*
X171809452Y-87161088D01*
X172299119Y-87521276D01*
X174820395Y-85000000D01*
X175179605Y-85000000D01*
X177700881Y-87521276D01*
X178190548Y-87161088D01*
X178550849Y-86497118D01*
X178774694Y-85775615D01*
X178853480Y-85024305D01*
X178784178Y-84272062D01*
X178569452Y-83547792D01*
X178217555Y-82879330D01*
X178190548Y-82838912D01*
X177700881Y-82478724D01*
X175179605Y-85000000D01*
X174820395Y-85000000D01*
X172299119Y-82478724D01*
X171809452Y-82838912D01*
X171449151Y-83502882D01*
X171225306Y-84224385D01*
X171146520Y-84975695D01*
X168695109Y-84975695D01*
X168725812Y-84874482D01*
X168738072Y-84750000D01*
X168735000Y-84185750D01*
X168576250Y-84027000D01*
X167227000Y-84027000D01*
X167227000Y-84047000D01*
X166973000Y-84047000D01*
X166973000Y-84027000D01*
X165623750Y-84027000D01*
X165465000Y-84185750D01*
X165461928Y-84750000D01*
X165474188Y-84874482D01*
X165510498Y-84994180D01*
X165569463Y-85104494D01*
X165648815Y-85201185D01*
X165745506Y-85280537D01*
X165855820Y-85339502D01*
X165890608Y-85350055D01*
X165837308Y-85415000D01*
X165467683Y-85415000D01*
X165430537Y-85345506D01*
X165351185Y-85248815D01*
X165254494Y-85169463D01*
X165144180Y-85110498D01*
X165024482Y-85074188D01*
X164900000Y-85061928D01*
X164000000Y-85061928D01*
X163875518Y-85074188D01*
X163755820Y-85110498D01*
X163645506Y-85169463D01*
X163548815Y-85248815D01*
X163469463Y-85345506D01*
X163410498Y-85455820D01*
X163374188Y-85575518D01*
X163361928Y-85700000D01*
X162238072Y-85700000D01*
X162225812Y-85575518D01*
X162189502Y-85455820D01*
X162130537Y-85345506D01*
X162051185Y-85248815D01*
X161954494Y-85169463D01*
X161844180Y-85110498D01*
X161724482Y-85074188D01*
X161600000Y-85061928D01*
X161185000Y-85061928D01*
X161185000Y-84043465D01*
X161189281Y-83999999D01*
X161185000Y-83956533D01*
X161185000Y-83956523D01*
X161172195Y-83826510D01*
X161121589Y-83659687D01*
X161039411Y-83505941D01*
X160992093Y-83448284D01*
X160956532Y-83404953D01*
X160956530Y-83404951D01*
X160928817Y-83371183D01*
X160895050Y-83343471D01*
X160601579Y-83050000D01*
X165461928Y-83050000D01*
X165465000Y-83614250D01*
X165623750Y-83773000D01*
X166973000Y-83773000D01*
X166973000Y-82573750D01*
X167227000Y-82573750D01*
X167227000Y-83773000D01*
X168576250Y-83773000D01*
X168735000Y-83614250D01*
X168738072Y-83050000D01*
X168725812Y-82925518D01*
X168689502Y-82805820D01*
X168630537Y-82695506D01*
X168551185Y-82598815D01*
X168454494Y-82519463D01*
X168344180Y-82460498D01*
X168224482Y-82424188D01*
X168100000Y-82411928D01*
X167385750Y-82415000D01*
X167227000Y-82573750D01*
X166973000Y-82573750D01*
X166814250Y-82415000D01*
X166100000Y-82411928D01*
X165975518Y-82424188D01*
X165855820Y-82460498D01*
X165745506Y-82519463D01*
X165648815Y-82598815D01*
X165569463Y-82695506D01*
X165510498Y-82805820D01*
X165474188Y-82925518D01*
X165461928Y-83050000D01*
X160601579Y-83050000D01*
X160356534Y-82804956D01*
X160328817Y-82771183D01*
X160288072Y-82737744D01*
X160288072Y-82299119D01*
X172478724Y-82299119D01*
X175000000Y-84820395D01*
X177521276Y-82299119D01*
X177161088Y-81809452D01*
X176497118Y-81449151D01*
X175775615Y-81225306D01*
X175024305Y-81146520D01*
X174272062Y-81215822D01*
X173547792Y-81430548D01*
X172879330Y-81782445D01*
X172838912Y-81809452D01*
X172478724Y-82299119D01*
X160288072Y-82299119D01*
X160288072Y-82150000D01*
X160275812Y-82025518D01*
X160239502Y-81905820D01*
X160180537Y-81795506D01*
X160101185Y-81698815D01*
X160004494Y-81619463D01*
X159894180Y-81560498D01*
X159774482Y-81524188D01*
X159650000Y-81511928D01*
X158150000Y-81511928D01*
X158025518Y-81524188D01*
X157905820Y-81560498D01*
X157795506Y-81619463D01*
X157698815Y-81698815D01*
X157619463Y-81795506D01*
X157560498Y-81905820D01*
X157524188Y-82025518D01*
X157513418Y-82134874D01*
X157441028Y-82024939D01*
X157249540Y-81830855D01*
X157023868Y-81677858D01*
X156772684Y-81571827D01*
X156701185Y-81557682D01*
X156487000Y-81680344D01*
X156487000Y-83273000D01*
X156507000Y-83273000D01*
X156507000Y-83527000D01*
X156487000Y-83527000D01*
X156487000Y-84963750D01*
X156377000Y-85073750D01*
X156233000Y-85073750D01*
X156233000Y-83527000D01*
X156213000Y-83527000D01*
X156213000Y-83273000D01*
X156233000Y-83273000D01*
X156233000Y-81680344D01*
X156018815Y-81557682D01*
X155947316Y-81571827D01*
X155696132Y-81677858D01*
X155470460Y-81830855D01*
X155278972Y-82024939D01*
X155129028Y-82252651D01*
X155092486Y-82342578D01*
X154977157Y-82126812D01*
X154804081Y-81915919D01*
X154593188Y-81742843D01*
X154352581Y-81614236D01*
X154091507Y-81535040D01*
X153820000Y-81508299D01*
X153548494Y-81535040D01*
X153287420Y-81614236D01*
X153046813Y-81742843D01*
X152835920Y-81915919D01*
X152662843Y-82126812D01*
X152576807Y-82287775D01*
X152554494Y-82269463D01*
X152444180Y-82210498D01*
X152324482Y-82174188D01*
X152200000Y-82161928D01*
X151300000Y-82161928D01*
X151175518Y-82174188D01*
X151055820Y-82210498D01*
X150945506Y-82269463D01*
X150848815Y-82348815D01*
X150769463Y-82445506D01*
X150710498Y-82555820D01*
X150674188Y-82675518D01*
X150661928Y-82800000D01*
X149538072Y-82800000D01*
X149525812Y-82675518D01*
X149489502Y-82555820D01*
X149430537Y-82445506D01*
X149351185Y-82348815D01*
X149254494Y-82269463D01*
X149144180Y-82210498D01*
X149024482Y-82174188D01*
X148900000Y-82161928D01*
X148000000Y-82161928D01*
X147875518Y-82174188D01*
X147755820Y-82210498D01*
X147653856Y-82265000D01*
X147114785Y-82265000D01*
X147053676Y-82063553D01*
X146948284Y-81866377D01*
X146806449Y-81693551D01*
X146763135Y-81658004D01*
X146341996Y-81236865D01*
X146306449Y-81193551D01*
X146133623Y-81051716D01*
X145936447Y-80946324D01*
X145722499Y-80881423D01*
X145555752Y-80865000D01*
X145555751Y-80865000D01*
X145500000Y-80859509D01*
X145444249Y-80865000D01*
X143555752Y-80865000D01*
X143500000Y-80859509D01*
X143444248Y-80865000D01*
X143277501Y-80881423D01*
X143063553Y-80946324D01*
X142866377Y-81051716D01*
X142693551Y-81193551D01*
X142658008Y-81236860D01*
X141936860Y-81958009D01*
X141893552Y-81993551D01*
X141751717Y-82166377D01*
X141646324Y-82363553D01*
X141581423Y-82577501D01*
X141579324Y-82598815D01*
X141577817Y-82614113D01*
X141426745Y-82628992D01*
X141260149Y-82679528D01*
X141106613Y-82761595D01*
X140972038Y-82872038D01*
X140861595Y-83006613D01*
X140779528Y-83160149D01*
X140728992Y-83326745D01*
X140711928Y-83499999D01*
X140127000Y-83499999D01*
X140127000Y-80710000D01*
X174968382Y-80710000D01*
X175759192Y-80780578D01*
%TA.AperFunction,Conductor*%
D28*
G36*
X175759192Y-80780578D02*
G01*
X176494389Y-80981705D01*
X177182351Y-81309846D01*
X177801331Y-81754628D01*
X178331761Y-82301988D01*
X178756884Y-82934639D01*
X179063251Y-83632561D01*
X179242499Y-84379183D01*
X179290000Y-85026030D01*
X179290001Y-134968370D01*
X179219422Y-135759193D01*
X179018295Y-136494389D01*
X178690152Y-137182355D01*
X178245374Y-137801328D01*
X177698012Y-138331761D01*
X177065362Y-138756883D01*
X176367439Y-139063251D01*
X175620819Y-139242499D01*
X174973970Y-139290000D01*
X140127000Y-139290000D01*
X140127000Y-138375053D01*
X140169463Y-138454494D01*
X140248815Y-138551185D01*
X140345506Y-138630537D01*
X140455820Y-138689502D01*
X140575518Y-138725812D01*
X140700000Y-138738072D01*
X141600000Y-138738072D01*
X141724482Y-138725812D01*
X141844180Y-138689502D01*
X141943974Y-138636160D01*
X141955751Y-138635000D01*
X141955752Y-138635000D01*
X142122499Y-138618577D01*
X142336447Y-138553676D01*
X142533623Y-138448284D01*
X142706449Y-138306449D01*
X142741996Y-138263135D01*
X143263135Y-137741996D01*
X143306449Y-137706449D01*
X143448284Y-137533623D01*
X143553676Y-137336447D01*
X143608058Y-137157175D01*
X143618577Y-137122500D01*
X143640491Y-136900001D01*
X143635000Y-136844249D01*
X143635000Y-135655751D01*
X143640491Y-135599999D01*
X143618577Y-135377500D01*
X143595067Y-135300000D01*
X143553676Y-135163553D01*
X143448284Y-134966377D01*
X143306449Y-134793551D01*
X143263135Y-134758004D01*
X142741996Y-134236865D01*
X142706449Y-134193551D01*
X142533623Y-134051716D01*
X142336447Y-133946324D01*
X142122499Y-133881423D01*
X141955752Y-133865000D01*
X141955751Y-133865000D01*
X141900000Y-133859509D01*
X141844249Y-133865000D01*
X141612692Y-133865000D01*
X141555134Y-133794866D01*
X141329013Y-133609294D01*
X141071033Y-133471401D01*
X140791110Y-133386487D01*
X140500000Y-133357815D01*
X140208889Y-133386487D01*
X140127000Y-133411328D01*
X140127000Y-132894833D01*
X140170506Y-132930537D01*
X140280820Y-132989502D01*
X140400518Y-133025812D01*
X140525000Y-133038072D01*
X140714250Y-133035000D01*
X140873000Y-132876250D01*
X140873000Y-132002000D01*
X141127000Y-132002000D01*
X141127000Y-132876250D01*
X141285750Y-133035000D01*
X141475000Y-133038072D01*
X141599482Y-133025812D01*
X141719180Y-132989502D01*
X141829494Y-132930537D01*
X141926185Y-132851185D01*
X142005537Y-132754494D01*
X142064502Y-132644180D01*
X142100812Y-132524482D01*
X142113072Y-132400000D01*
X142110000Y-132160750D01*
X141951250Y-132002000D01*
X141127000Y-132002000D01*
X140873000Y-132002000D01*
X140853000Y-132002000D01*
X140853000Y-131748000D01*
X140873000Y-131748000D01*
X140873000Y-131728000D01*
X141127000Y-131728000D01*
X141127000Y-131748000D01*
X141951250Y-131748000D01*
X142110000Y-131589250D01*
X142113072Y-131350000D01*
X142100812Y-131225518D01*
X142064502Y-131105820D01*
X142005537Y-130995506D01*
X141945901Y-130922839D01*
X141965512Y-130898942D01*
X142046423Y-130747567D01*
X142096248Y-130583316D01*
X142113072Y-130412500D01*
X142113072Y-129837500D01*
X142096248Y-129666684D01*
X142046423Y-129502433D01*
X141965512Y-129351058D01*
X141885000Y-129252954D01*
X141885000Y-129143465D01*
X141889281Y-129099999D01*
X141885000Y-129056533D01*
X141885000Y-129056523D01*
X141872195Y-128926510D01*
X141821589Y-128759687D01*
X141739411Y-128605941D01*
X141726534Y-128590251D01*
X142000000Y-128617185D01*
X142291110Y-128588513D01*
X142571033Y-128503599D01*
X142829013Y-128365706D01*
X143049945Y-128184392D01*
X143060498Y-128219180D01*
X143119463Y-128329494D01*
X143198815Y-128426185D01*
X143295506Y-128505537D01*
X143405820Y-128564502D01*
X143525518Y-128600812D01*
X143650000Y-128613072D01*
X144214250Y-128610000D01*
X144373000Y-128451250D01*
X144373000Y-127127000D01*
X144353000Y-127127000D01*
X144353000Y-126873000D01*
X144373000Y-126873000D01*
X144373000Y-125548750D01*
X144627000Y-125548750D01*
X144627000Y-126873000D01*
X145826250Y-126873000D01*
X145985000Y-126714250D01*
X145988072Y-126025000D01*
X145975812Y-125900518D01*
X145939502Y-125780820D01*
X145880537Y-125670506D01*
X145801185Y-125573815D01*
X145704494Y-125494463D01*
X145594180Y-125435498D01*
X145474482Y-125399188D01*
X145350000Y-125386928D01*
X144785750Y-125390000D01*
X144627000Y-125548750D01*
X144373000Y-125548750D01*
X144214250Y-125390000D01*
X143650000Y-125386928D01*
X143525518Y-125399188D01*
X143405820Y-125435498D01*
X143295506Y-125494463D01*
X143198815Y-125573815D01*
X143119463Y-125670506D01*
X143060498Y-125780820D01*
X143049945Y-125815608D01*
X142829014Y-125634294D01*
X142571034Y-125496401D01*
X142291111Y-125411487D01*
X142000000Y-125382815D01*
X141708890Y-125411487D01*
X141428967Y-125496401D01*
X141170987Y-125634294D01*
X140944866Y-125819866D01*
X140759294Y-126045986D01*
X140750000Y-126063374D01*
X140740706Y-126045986D01*
X140555134Y-125819866D01*
X140385000Y-125680241D01*
X140385000Y-125622046D01*
X140465512Y-125523942D01*
X140546423Y-125372567D01*
X140596248Y-125208316D01*
X140613072Y-125037500D01*
X140613072Y-124462500D01*
X140596248Y-124291684D01*
X140546423Y-124127433D01*
X140465512Y-123976058D01*
X140382575Y-123875000D01*
X140465512Y-123773942D01*
X140546423Y-123622567D01*
X140596248Y-123458316D01*
X140613072Y-123287500D01*
X140613072Y-122712500D01*
X140596248Y-122541684D01*
X140546423Y-122377433D01*
X140465512Y-122226058D01*
X140393303Y-122138072D01*
X141500000Y-122138072D01*
X141624482Y-122125812D01*
X141744180Y-122089502D01*
X141854494Y-122030537D01*
X141951185Y-121951185D01*
X142030537Y-121854494D01*
X142077559Y-121766523D01*
X142238900Y-121898932D01*
X142488193Y-122032182D01*
X142758692Y-122114236D01*
X143040000Y-122141943D01*
X143321309Y-122114236D01*
X143591808Y-122032182D01*
X143841101Y-121898932D01*
X144059608Y-121719608D01*
X144238932Y-121501101D01*
X144310000Y-121368142D01*
X144381068Y-121501101D01*
X144560393Y-121719608D01*
X144778900Y-121898932D01*
X145028193Y-122032182D01*
X145298692Y-122114236D01*
X145580000Y-122141943D01*
X145861309Y-122114236D01*
X146131808Y-122032182D01*
X146381101Y-121898932D01*
X146599608Y-121719608D01*
X146778932Y-121501101D01*
X146850000Y-121368142D01*
X146921068Y-121501101D01*
X147100393Y-121719608D01*
X147318900Y-121898932D01*
X147568193Y-122032182D01*
X147838692Y-122114236D01*
X148120000Y-122141943D01*
X148401309Y-122114236D01*
X148671808Y-122032182D01*
X148921101Y-121898932D01*
X149139608Y-121719608D01*
X149318932Y-121501101D01*
X149390000Y-121368142D01*
X149461068Y-121501101D01*
X149640393Y-121719608D01*
X149775000Y-121830077D01*
X149775001Y-123408813D01*
X149627433Y-123453577D01*
X149476058Y-123534488D01*
X149375000Y-123617425D01*
X149273942Y-123534488D01*
X149122567Y-123453577D01*
X148958316Y-123403752D01*
X148787500Y-123386928D01*
X148212500Y-123386928D01*
X148041684Y-123403752D01*
X147877433Y-123453577D01*
X147726058Y-123534488D01*
X147627954Y-123615000D01*
X147268789Y-123615000D01*
X147237624Y-123594176D01*
X147031067Y-123508617D01*
X146811788Y-123465000D01*
X146588212Y-123465000D01*
X146368933Y-123508617D01*
X146162376Y-123594176D01*
X145976480Y-123718388D01*
X145818388Y-123876480D01*
X145694176Y-124062376D01*
X145608617Y-124268933D01*
X145565000Y-124488212D01*
X145565000Y-124711788D01*
X145608617Y-124931067D01*
X145694176Y-125137624D01*
X145818388Y-125323520D01*
X145976480Y-125481612D01*
X146162376Y-125605824D01*
X146368933Y-125691383D01*
X146588212Y-125735000D01*
X146811788Y-125735000D01*
X147031067Y-125691383D01*
X147237624Y-125605824D01*
X147423520Y-125481612D01*
X147520132Y-125385000D01*
X147627954Y-125385000D01*
X147726058Y-125465512D01*
X147877433Y-125546423D01*
X148041684Y-125596248D01*
X148212500Y-125613072D01*
X148787500Y-125613072D01*
X148958316Y-125596248D01*
X149122567Y-125546423D01*
X149273942Y-125465512D01*
X149375000Y-125382575D01*
X149476058Y-125465512D01*
X149615001Y-125539778D01*
X149615001Y-125680241D01*
X149444866Y-125819866D01*
X149259294Y-126045986D01*
X149121401Y-126303966D01*
X149036487Y-126583889D01*
X149015000Y-126802050D01*
X149015000Y-127197949D01*
X149036487Y-127416110D01*
X149121401Y-127696033D01*
X149259294Y-127954013D01*
X149391412Y-128115000D01*
X149343469Y-128115000D01*
X149300000Y-128110719D01*
X149256531Y-128115000D01*
X149256523Y-128115000D01*
X149126510Y-128127805D01*
X148959687Y-128178411D01*
X148805941Y-128260589D01*
X148671183Y-128371183D01*
X148643466Y-128404956D01*
X148560961Y-128487461D01*
X148497567Y-128453577D01*
X148333316Y-128403752D01*
X148162500Y-128386928D01*
X147587500Y-128386928D01*
X147416684Y-128403752D01*
X147252433Y-128453577D01*
X147101058Y-128534488D01*
X147000000Y-128617425D01*
X146898942Y-128534488D01*
X146747567Y-128453577D01*
X146583316Y-128403752D01*
X146412500Y-128386928D01*
X145837500Y-128386928D01*
X145833042Y-128387367D01*
X145880537Y-128329494D01*
X145939502Y-128219180D01*
X145975812Y-128099482D01*
X145988072Y-127975000D01*
X145985000Y-127285750D01*
X145826250Y-127127000D01*
X144627000Y-127127000D01*
X144627000Y-128451250D01*
X144785750Y-128610000D01*
X145185217Y-128612175D01*
X145156533Y-128615000D01*
X145156523Y-128615000D01*
X145026510Y-128627805D01*
X144859687Y-128678411D01*
X144705941Y-128760589D01*
X144571183Y-128871183D01*
X144543468Y-128904954D01*
X144304952Y-129143470D01*
X144271184Y-129171183D01*
X144243471Y-129204951D01*
X144243468Y-129204954D01*
X144160590Y-129305941D01*
X144078412Y-129459687D01*
X144027805Y-129626510D01*
X144023178Y-129673491D01*
X144015000Y-129756523D01*
X144015000Y-129756531D01*
X144010719Y-129800000D01*
X144015000Y-129843469D01*
X144015000Y-130556531D01*
X144010719Y-130600000D01*
X144015000Y-130643469D01*
X144015000Y-130643476D01*
X144025252Y-130747567D01*
X144026526Y-130760498D01*
X144027805Y-130773489D01*
X144078411Y-130940312D01*
X144160589Y-131094058D01*
X144271183Y-131228817D01*
X144304956Y-131256534D01*
X144643466Y-131595044D01*
X144671183Y-131628817D01*
X144805941Y-131739411D01*
X144959687Y-131821589D01*
X145126510Y-131872195D01*
X145179290Y-131877393D01*
X145198815Y-131901185D01*
X145295506Y-131980537D01*
X145405820Y-132039502D01*
X145525518Y-132075812D01*
X145650000Y-132088072D01*
X146161905Y-132088072D01*
X146148815Y-132098815D01*
X146069463Y-132195506D01*
X146010498Y-132305820D01*
X145974188Y-132425518D01*
X145961928Y-132550000D01*
X145961928Y-133450000D01*
X145964925Y-133480427D01*
X145906614Y-133511595D01*
X145772038Y-133622038D01*
X145661595Y-133756614D01*
X145579528Y-133910150D01*
X145528992Y-134076746D01*
X145520805Y-134159871D01*
X145459687Y-134178411D01*
X145305941Y-134260589D01*
X145171183Y-134371183D01*
X145143468Y-134404954D01*
X144904952Y-134643470D01*
X144871184Y-134671183D01*
X144843471Y-134704951D01*
X144843468Y-134704954D01*
X144760590Y-134805941D01*
X144678412Y-134959687D01*
X144627805Y-135126510D01*
X144610719Y-135300000D01*
X144615001Y-135343479D01*
X144615000Y-136956531D01*
X144610719Y-137000000D01*
X144615000Y-137043469D01*
X144615000Y-137043476D01*
X144627805Y-137173489D01*
X144678411Y-137340312D01*
X144760589Y-137494058D01*
X144871183Y-137628817D01*
X144904956Y-137656534D01*
X145343466Y-138095044D01*
X145371183Y-138128817D01*
X145505941Y-138239411D01*
X145659687Y-138321589D01*
X145825272Y-138371819D01*
X145869463Y-138454494D01*
X145948815Y-138551185D01*
X146045506Y-138630537D01*
X146155820Y-138689502D01*
X146275518Y-138725812D01*
X146400000Y-138738072D01*
X147300000Y-138738072D01*
X147424482Y-138725812D01*
X147544180Y-138689502D01*
X147654494Y-138630537D01*
X147751185Y-138551185D01*
X147830537Y-138454494D01*
X147889502Y-138344180D01*
X147925812Y-138224482D01*
X147938072Y-138100000D01*
X147938072Y-136900000D01*
X147925812Y-136775518D01*
X147889502Y-136655820D01*
X147857271Y-136595522D01*
X147939850Y-136570472D01*
X148093386Y-136488405D01*
X148227962Y-136377962D01*
X148338405Y-136243386D01*
X148392777Y-136141663D01*
X148444866Y-136205134D01*
X148670987Y-136390706D01*
X148928967Y-136528599D01*
X149143685Y-136593733D01*
X149110498Y-136655820D01*
X149074188Y-136775518D01*
X149061928Y-136900000D01*
X149061928Y-137176940D01*
X149031423Y-137277501D01*
X149009509Y-137500000D01*
X149031423Y-137722499D01*
X149061928Y-137823060D01*
X149061928Y-138100000D01*
X149074188Y-138224482D01*
X149110498Y-138344180D01*
X149169463Y-138454494D01*
X149248815Y-138551185D01*
X149345506Y-138630537D01*
X149455820Y-138689502D01*
X149575518Y-138725812D01*
X149700000Y-138738072D01*
X150600000Y-138738072D01*
X150724482Y-138725812D01*
X150844180Y-138689502D01*
X150946144Y-138635000D01*
X151144249Y-138635000D01*
X151200000Y-138640491D01*
X151255751Y-138635000D01*
X151255752Y-138635000D01*
X151422499Y-138618577D01*
X151636447Y-138553676D01*
X151833623Y-138448284D01*
X152006449Y-138306449D01*
X152041996Y-138263135D01*
X152663135Y-137641996D01*
X152706449Y-137606449D01*
X152848284Y-137433623D01*
X152953676Y-137236447D01*
X153018577Y-137022499D01*
X153035000Y-136855752D01*
X153035000Y-136855743D01*
X153040490Y-136800001D01*
X153035000Y-136744259D01*
X153035000Y-135455741D01*
X153040490Y-135399999D01*
X153035000Y-135344257D01*
X153035000Y-135344248D01*
X153018577Y-135177501D01*
X152953676Y-134963553D01*
X152848284Y-134766377D01*
X152706449Y-134593551D01*
X152663135Y-134558004D01*
X152341996Y-134236865D01*
X152306449Y-134193551D01*
X152133623Y-134051716D01*
X151936447Y-133946324D01*
X151722499Y-133881423D01*
X151555752Y-133865000D01*
X151555751Y-133865000D01*
X151500000Y-133859509D01*
X151444249Y-133865000D01*
X150612692Y-133865000D01*
X150555134Y-133794866D01*
X150329013Y-133609294D01*
X150071033Y-133471401D01*
X149791110Y-133386487D01*
X149500000Y-133357815D01*
X149208889Y-133386487D01*
X148928966Y-133471401D01*
X148670986Y-133609294D01*
X148444866Y-133794866D01*
X148392777Y-133858337D01*
X148338405Y-133756614D01*
X148227962Y-133622038D01*
X148093386Y-133511595D01*
X148035075Y-133480427D01*
X148038072Y-133450000D01*
X148038072Y-132550000D01*
X148025812Y-132425518D01*
X148018072Y-132400000D01*
X148886928Y-132400000D01*
X148899188Y-132524482D01*
X148935498Y-132644180D01*
X148994463Y-132754494D01*
X149073815Y-132851185D01*
X149170506Y-132930537D01*
X149280820Y-132989502D01*
X149400518Y-133025812D01*
X149525000Y-133038072D01*
X149714250Y-133035000D01*
X149873000Y-132876250D01*
X149873000Y-132002000D01*
X149048750Y-132002000D01*
X148890000Y-132160750D01*
X148886928Y-132400000D01*
X148018072Y-132400000D01*
X147989502Y-132305820D01*
X147930537Y-132195506D01*
X147851185Y-132098815D01*
X147754494Y-132019463D01*
X147738393Y-132010857D01*
X147823000Y-131926250D01*
X147823000Y-131127000D01*
X147803000Y-131127000D01*
X147803000Y-130873000D01*
X147823000Y-130873000D01*
X147823000Y-130853000D01*
X148077000Y-130853000D01*
X148077000Y-130873000D01*
X148826250Y-130873000D01*
X148953136Y-130746114D01*
X148953577Y-130747567D01*
X149034488Y-130898942D01*
X149054099Y-130922839D01*
X148994463Y-130995506D01*
X148935498Y-131105820D01*
X148905142Y-131205892D01*
X148826250Y-131127000D01*
X148077000Y-131127000D01*
X148077000Y-131926250D01*
X148235750Y-132085000D01*
X148350000Y-132088072D01*
X148474482Y-132075812D01*
X148594180Y-132039502D01*
X148704494Y-131980537D01*
X148801185Y-131901185D01*
X148880537Y-131804494D01*
X148939502Y-131694180D01*
X148952403Y-131651653D01*
X149048750Y-131748000D01*
X149873000Y-131748000D01*
X149873000Y-131728000D01*
X150127000Y-131728000D01*
X150127000Y-131748000D01*
X150147000Y-131748000D01*
X150147000Y-132002000D01*
X150127000Y-132002000D01*
X150127000Y-132876250D01*
X150285750Y-133035000D01*
X150475000Y-133038072D01*
X150599482Y-133025812D01*
X150719180Y-132989502D01*
X150829494Y-132930537D01*
X150926185Y-132851185D01*
X151005537Y-132754494D01*
X151064502Y-132644180D01*
X151094317Y-132545895D01*
X151443466Y-132895044D01*
X151471183Y-132928817D01*
X151605941Y-133039411D01*
X151759687Y-133121589D01*
X151926510Y-133172195D01*
X152056523Y-133185000D01*
X152056531Y-133185000D01*
X152100000Y-133189281D01*
X152143469Y-133185000D01*
X152756531Y-133185000D01*
X152800000Y-133189281D01*
X152843469Y-133185000D01*
X152843477Y-133185000D01*
X152973490Y-133172195D01*
X153140313Y-133121589D01*
X153294059Y-133039411D01*
X153428817Y-132928817D01*
X153456534Y-132895044D01*
X153595044Y-132756534D01*
X153628817Y-132728817D01*
X153739411Y-132594059D01*
X153821589Y-132440313D01*
X153872195Y-132273490D01*
X153885000Y-132143477D01*
X153885000Y-132143469D01*
X153889281Y-132100000D01*
X153885000Y-132056531D01*
X153885000Y-131747046D01*
X153897172Y-131732214D01*
X153905941Y-131739411D01*
X154059687Y-131821589D01*
X154157957Y-131851399D01*
X154198815Y-131901185D01*
X154295506Y-131980537D01*
X154405820Y-132039502D01*
X154525518Y-132075812D01*
X154650000Y-132088072D01*
X155161905Y-132088072D01*
X155148815Y-132098815D01*
X155069463Y-132195506D01*
X155010498Y-132305820D01*
X154974188Y-132425518D01*
X154961928Y-132550000D01*
X154961928Y-133450000D01*
X154964925Y-133480427D01*
X154906614Y-133511595D01*
X154772038Y-133622038D01*
X154661595Y-133756614D01*
X154579528Y-133910150D01*
X154528992Y-134076746D01*
X154511928Y-134250000D01*
X154511928Y-134257389D01*
X154505941Y-134260589D01*
X154371183Y-134371183D01*
X154343468Y-134404954D01*
X154004952Y-134743470D01*
X153971184Y-134771183D01*
X153943471Y-134804951D01*
X153943468Y-134804954D01*
X153860590Y-134905941D01*
X153778412Y-135059687D01*
X153727805Y-135226510D01*
X153710719Y-135400000D01*
X153715001Y-135443479D01*
X153715000Y-137056531D01*
X153710719Y-137100000D01*
X153715000Y-137143469D01*
X153715000Y-137143476D01*
X153727805Y-137273489D01*
X153778411Y-137440312D01*
X153860589Y-137594058D01*
X153971183Y-137728817D01*
X154004956Y-137756534D01*
X154343466Y-138095044D01*
X154371183Y-138128817D01*
X154505941Y-138239411D01*
X154659687Y-138321589D01*
X154825272Y-138371819D01*
X154869463Y-138454494D01*
X154948815Y-138551185D01*
X155045506Y-138630537D01*
X155155820Y-138689502D01*
X155275518Y-138725812D01*
X155400000Y-138738072D01*
X156300000Y-138738072D01*
X156424482Y-138725812D01*
X156544180Y-138689502D01*
X156654494Y-138630537D01*
X156751185Y-138551185D01*
X156830537Y-138454494D01*
X156889502Y-138344180D01*
X156925812Y-138224482D01*
X156938072Y-138100000D01*
X156938072Y-136900000D01*
X156925812Y-136775518D01*
X156889502Y-136655820D01*
X156857271Y-136595522D01*
X156939850Y-136570472D01*
X157093386Y-136488405D01*
X157227962Y-136377962D01*
X157338405Y-136243386D01*
X157392777Y-136141663D01*
X157444866Y-136205134D01*
X157670987Y-136390706D01*
X157928967Y-136528599D01*
X158143685Y-136593733D01*
X158110498Y-136655820D01*
X158074188Y-136775518D01*
X158061928Y-136900000D01*
X158061928Y-137176940D01*
X158031423Y-137277501D01*
X158009509Y-137500000D01*
X158031423Y-137722499D01*
X158061928Y-137823060D01*
X158061928Y-138100000D01*
X158074188Y-138224482D01*
X158110498Y-138344180D01*
X158169463Y-138454494D01*
X158248815Y-138551185D01*
X158345506Y-138630537D01*
X158455820Y-138689502D01*
X158575518Y-138725812D01*
X158700000Y-138738072D01*
X159600000Y-138738072D01*
X159724482Y-138725812D01*
X159844180Y-138689502D01*
X159946144Y-138635000D01*
X160144249Y-138635000D01*
X160200000Y-138640491D01*
X160255751Y-138635000D01*
X160255752Y-138635000D01*
X160422499Y-138618577D01*
X160636447Y-138553676D01*
X160833623Y-138448284D01*
X161006449Y-138306449D01*
X161041996Y-138263135D01*
X161604250Y-137700881D01*
X172478724Y-137700881D01*
X172838912Y-138190548D01*
X173502882Y-138550849D01*
X174224385Y-138774694D01*
X174975695Y-138853480D01*
X175727938Y-138784178D01*
X176452208Y-138569452D01*
X177120670Y-138217555D01*
X177161088Y-138190548D01*
X177521276Y-137700881D01*
X175000000Y-135179605D01*
X172478724Y-137700881D01*
X161604250Y-137700881D01*
X161663135Y-137641996D01*
X161706449Y-137606449D01*
X161848284Y-137433623D01*
X161953676Y-137236447D01*
X162018577Y-137022499D01*
X162035000Y-136855752D01*
X162035000Y-136855743D01*
X162040490Y-136800001D01*
X162035000Y-136744259D01*
X162035000Y-135455741D01*
X162040490Y-135399999D01*
X162035000Y-135344257D01*
X162035000Y-135344248D01*
X162018577Y-135177501D01*
X161953676Y-134963553D01*
X161848284Y-134766377D01*
X161706449Y-134593551D01*
X161663135Y-134558004D01*
X161341996Y-134236865D01*
X161306449Y-134193551D01*
X161133623Y-134051716D01*
X160936447Y-133946324D01*
X160722499Y-133881423D01*
X160555752Y-133865000D01*
X160555751Y-133865000D01*
X160500000Y-133859509D01*
X160444249Y-133865000D01*
X159612692Y-133865000D01*
X159555134Y-133794866D01*
X159329013Y-133609294D01*
X159071033Y-133471401D01*
X158791110Y-133386487D01*
X158500000Y-133357815D01*
X158208889Y-133386487D01*
X157928966Y-133471401D01*
X157670986Y-133609294D01*
X157444866Y-133794866D01*
X157392777Y-133858337D01*
X157338405Y-133756614D01*
X157227962Y-133622038D01*
X157093386Y-133511595D01*
X157035075Y-133480427D01*
X157038072Y-133450000D01*
X157038072Y-132550000D01*
X157025812Y-132425518D01*
X157018072Y-132400000D01*
X157886928Y-132400000D01*
X157899188Y-132524482D01*
X157935498Y-132644180D01*
X157994463Y-132754494D01*
X158073815Y-132851185D01*
X158170506Y-132930537D01*
X158280820Y-132989502D01*
X158400518Y-133025812D01*
X158525000Y-133038072D01*
X158714250Y-133035000D01*
X158873000Y-132876250D01*
X158873000Y-132002000D01*
X159127000Y-132002000D01*
X159127000Y-132876250D01*
X159285750Y-133035000D01*
X159475000Y-133038072D01*
X159599482Y-133025812D01*
X159719180Y-132989502D01*
X159829494Y-132930537D01*
X159926185Y-132851185D01*
X160005537Y-132754494D01*
X160064502Y-132644180D01*
X160100812Y-132524482D01*
X160113072Y-132400000D01*
X160110000Y-132160750D01*
X159951250Y-132002000D01*
X159127000Y-132002000D01*
X158873000Y-132002000D01*
X158048750Y-132002000D01*
X157890000Y-132160750D01*
X157886928Y-132400000D01*
X157018072Y-132400000D01*
X156989502Y-132305820D01*
X156930537Y-132195506D01*
X156851185Y-132098815D01*
X156754494Y-132019463D01*
X156738393Y-132010857D01*
X156823000Y-131926250D01*
X156823000Y-131127000D01*
X156803000Y-131127000D01*
X156803000Y-130873000D01*
X156823000Y-130873000D01*
X156823000Y-130853000D01*
X157077000Y-130853000D01*
X157077000Y-130873000D01*
X157826250Y-130873000D01*
X157953136Y-130746114D01*
X157953577Y-130747567D01*
X158034488Y-130898942D01*
X158054099Y-130922839D01*
X157994463Y-130995506D01*
X157935498Y-131105820D01*
X157905142Y-131205892D01*
X157826250Y-131127000D01*
X157077000Y-131127000D01*
X157077000Y-131926250D01*
X157235750Y-132085000D01*
X157350000Y-132088072D01*
X157474482Y-132075812D01*
X157594180Y-132039502D01*
X157704494Y-131980537D01*
X157801185Y-131901185D01*
X157880537Y-131804494D01*
X157939502Y-131694180D01*
X157952403Y-131651653D01*
X158048750Y-131748000D01*
X158873000Y-131748000D01*
X158873000Y-131728000D01*
X159127000Y-131728000D01*
X159127000Y-131748000D01*
X159951250Y-131748000D01*
X160110000Y-131589250D01*
X160113072Y-131350000D01*
X160100812Y-131225518D01*
X160064502Y-131105820D01*
X160005537Y-130995506D01*
X159945901Y-130922839D01*
X159965512Y-130898942D01*
X160046423Y-130747567D01*
X160096248Y-130583316D01*
X160113072Y-130412500D01*
X160113072Y-129837500D01*
X160107901Y-129785000D01*
X162356531Y-129785000D01*
X162400000Y-129789281D01*
X162443469Y-129785000D01*
X162443477Y-129785000D01*
X162573490Y-129772195D01*
X162740313Y-129721589D01*
X162894059Y-129639411D01*
X163028817Y-129528817D01*
X163056534Y-129495044D01*
X163695050Y-128856529D01*
X163728817Y-128828817D01*
X163770185Y-128778411D01*
X163839410Y-128694060D01*
X163839411Y-128694059D01*
X163921589Y-128540313D01*
X163972195Y-128373490D01*
X163985000Y-128243477D01*
X163985000Y-128243467D01*
X163989281Y-128200001D01*
X163985000Y-128156535D01*
X163985000Y-127648986D01*
X164011463Y-127698494D01*
X164090815Y-127795185D01*
X164187506Y-127874537D01*
X164297820Y-127933502D01*
X164417518Y-127969812D01*
X164542000Y-127982072D01*
X165053905Y-127982072D01*
X165040815Y-127992815D01*
X164961463Y-128089506D01*
X164902498Y-128199820D01*
X164866188Y-128319518D01*
X164853928Y-128444000D01*
X164853928Y-129344000D01*
X164866188Y-129468482D01*
X164902498Y-129588180D01*
X164961463Y-129698494D01*
X165007000Y-129753982D01*
X165007001Y-129771954D01*
X164926488Y-129870058D01*
X164845577Y-130021433D01*
X164795752Y-130185684D01*
X164778928Y-130356500D01*
X164778928Y-130931500D01*
X164795752Y-131102316D01*
X164845577Y-131266567D01*
X164926488Y-131417942D01*
X165009425Y-131519000D01*
X164926488Y-131620058D01*
X164845577Y-131771433D01*
X164795752Y-131935684D01*
X164778928Y-132106500D01*
X164778928Y-132681500D01*
X164795752Y-132852316D01*
X164845577Y-133016567D01*
X164926488Y-133167942D01*
X165007001Y-133266046D01*
X165007001Y-133361928D01*
X164400000Y-133361928D01*
X164226746Y-133378992D01*
X164060150Y-133429528D01*
X163906614Y-133511595D01*
X163772038Y-133622038D01*
X163661595Y-133756614D01*
X163579528Y-133910150D01*
X163528992Y-134076746D01*
X163511928Y-134250000D01*
X163511928Y-135750000D01*
X163528992Y-135923254D01*
X163579528Y-136089850D01*
X163661595Y-136243386D01*
X163772038Y-136377962D01*
X163906614Y-136488405D01*
X164060150Y-136570472D01*
X164226746Y-136621008D01*
X164400000Y-136638072D01*
X165600000Y-136638072D01*
X165773254Y-136621008D01*
X165939850Y-136570472D01*
X166093386Y-136488405D01*
X166227962Y-136377962D01*
X166338405Y-136243386D01*
X166392777Y-136141663D01*
X166444866Y-136205134D01*
X166670987Y-136390706D01*
X166928967Y-136528599D01*
X167208890Y-136613513D01*
X167500000Y-136642185D01*
X167791111Y-136613513D01*
X168071034Y-136528599D01*
X168329014Y-136390706D01*
X168555134Y-136205134D01*
X168740706Y-135979014D01*
X168878599Y-135721033D01*
X168963513Y-135441110D01*
X168985000Y-135222949D01*
X168985000Y-134975695D01*
X171146520Y-134975695D01*
X171215822Y-135727938D01*
X171430548Y-136452208D01*
X171782445Y-137120670D01*
X171809452Y-137161088D01*
X172299119Y-137521276D01*
X174820395Y-135000000D01*
X175179605Y-135000000D01*
X177700881Y-137521276D01*
X178190548Y-137161088D01*
X178550849Y-136497118D01*
X178774694Y-135775615D01*
X178853480Y-135024305D01*
X178784178Y-134272062D01*
X178569452Y-133547792D01*
X178217555Y-132879330D01*
X178190548Y-132838912D01*
X177700881Y-132478724D01*
X175179605Y-135000000D01*
X174820395Y-135000000D01*
X172299119Y-132478724D01*
X171809452Y-132838912D01*
X171449151Y-133502882D01*
X171225306Y-134224385D01*
X171146520Y-134975695D01*
X168985000Y-134975695D01*
X168985000Y-134777050D01*
X168963513Y-134558889D01*
X168878599Y-134278966D01*
X168740706Y-134020986D01*
X168555134Y-133794866D01*
X168329013Y-133609294D01*
X168071033Y-133471401D01*
X167791110Y-133386487D01*
X167500000Y-133357815D01*
X167208889Y-133386487D01*
X166928966Y-133471401D01*
X166777000Y-133552628D01*
X166777000Y-133266046D01*
X166857512Y-133167942D01*
X166938423Y-133016567D01*
X166988248Y-132852316D01*
X167005072Y-132681500D01*
X167005072Y-132299119D01*
X172478724Y-132299119D01*
X175000000Y-134820395D01*
X177521276Y-132299119D01*
X177161088Y-131809452D01*
X176497118Y-131449151D01*
X175775615Y-131225306D01*
X175024305Y-131146520D01*
X174272062Y-131215822D01*
X173547792Y-131430548D01*
X172879330Y-131782445D01*
X172838912Y-131809452D01*
X172478724Y-132299119D01*
X167005072Y-132299119D01*
X167005072Y-132106500D01*
X166988248Y-131935684D01*
X166938423Y-131771433D01*
X166857512Y-131620058D01*
X166774575Y-131519000D01*
X166857512Y-131417942D01*
X166938423Y-131266567D01*
X166988248Y-131102316D01*
X167005072Y-130931500D01*
X167005072Y-130356500D01*
X166988248Y-130185684D01*
X166938423Y-130021433D01*
X166857512Y-129870058D01*
X166777000Y-129771954D01*
X166777000Y-129753981D01*
X166822537Y-129698494D01*
X166881502Y-129588180D01*
X166917812Y-129468482D01*
X166930072Y-129344000D01*
X166930072Y-128444000D01*
X166920815Y-128350000D01*
X168386928Y-128350000D01*
X168399188Y-128474482D01*
X168435498Y-128594180D01*
X168494463Y-128704494D01*
X168573815Y-128801185D01*
X168670506Y-128880537D01*
X168780820Y-128939502D01*
X168900518Y-128975812D01*
X169025000Y-128988072D01*
X169714250Y-128985000D01*
X169873000Y-128826250D01*
X169873000Y-127627000D01*
X170127000Y-127627000D01*
X170127000Y-128826250D01*
X170285750Y-128985000D01*
X170975000Y-128988072D01*
X171099482Y-128975812D01*
X171219180Y-128939502D01*
X171329494Y-128880537D01*
X171426185Y-128801185D01*
X171505537Y-128704494D01*
X171564502Y-128594180D01*
X171600812Y-128474482D01*
X171613072Y-128350000D01*
X171610000Y-127785750D01*
X171451250Y-127627000D01*
X170127000Y-127627000D01*
X169873000Y-127627000D01*
X168548750Y-127627000D01*
X168390000Y-127785750D01*
X168386928Y-128350000D01*
X166920815Y-128350000D01*
X166917812Y-128319518D01*
X166881502Y-128199820D01*
X166822537Y-128089506D01*
X166743185Y-127992815D01*
X166646494Y-127913463D01*
X166630393Y-127904857D01*
X166715000Y-127820250D01*
X166715000Y-127021000D01*
X166969000Y-127021000D01*
X166969000Y-127820250D01*
X167127750Y-127979000D01*
X167242000Y-127982072D01*
X167366482Y-127969812D01*
X167486180Y-127933502D01*
X167596494Y-127874537D01*
X167693185Y-127795185D01*
X167772537Y-127698494D01*
X167831502Y-127588180D01*
X167867812Y-127468482D01*
X167880072Y-127344000D01*
X167877000Y-127179750D01*
X167718250Y-127021000D01*
X166969000Y-127021000D01*
X166715000Y-127021000D01*
X166695000Y-127021000D01*
X166695000Y-126767000D01*
X166715000Y-126767000D01*
X166715000Y-125967750D01*
X166623000Y-125875750D01*
X166623000Y-125252000D01*
X166877000Y-125252000D01*
X166877000Y-126126250D01*
X166969000Y-126218250D01*
X166969000Y-126767000D01*
X167718250Y-126767000D01*
X167877000Y-126608250D01*
X167880072Y-126444000D01*
X167867812Y-126319518D01*
X167831502Y-126199820D01*
X167772537Y-126089506D01*
X167729153Y-126036643D01*
X167755537Y-126004494D01*
X167814502Y-125894180D01*
X167850812Y-125774482D01*
X167863072Y-125650000D01*
X167860000Y-125410750D01*
X167701250Y-125252000D01*
X166877000Y-125252000D01*
X166623000Y-125252000D01*
X166603000Y-125252000D01*
X166603000Y-124998000D01*
X166623000Y-124998000D01*
X166623000Y-124978000D01*
X166877000Y-124978000D01*
X166877000Y-124998000D01*
X167701250Y-124998000D01*
X167860000Y-124839250D01*
X167863072Y-124600000D01*
X167850812Y-124475518D01*
X167814502Y-124355820D01*
X167755537Y-124245506D01*
X167695901Y-124172839D01*
X167715512Y-124148942D01*
X167796423Y-123997567D01*
X167846248Y-123833316D01*
X167863072Y-123662500D01*
X167863072Y-123087500D01*
X167846248Y-122916684D01*
X167796423Y-122752433D01*
X167715512Y-122601058D01*
X167635000Y-122502954D01*
X167635000Y-122293466D01*
X167639281Y-122249999D01*
X167635000Y-122206533D01*
X167635000Y-122206523D01*
X167622195Y-122076510D01*
X167571589Y-121909687D01*
X167489411Y-121755941D01*
X167378817Y-121621183D01*
X167345045Y-121593467D01*
X167256534Y-121504956D01*
X167228817Y-121471183D01*
X167094059Y-121360589D01*
X166940313Y-121278411D01*
X166773490Y-121227805D01*
X166643477Y-121215000D01*
X166643469Y-121215000D01*
X166600000Y-121210719D01*
X166556531Y-121215000D01*
X165885000Y-121215000D01*
X165885000Y-117743469D01*
X165889281Y-117700000D01*
X165885000Y-117656531D01*
X165885000Y-117656523D01*
X165872195Y-117526510D01*
X165864512Y-117501183D01*
X165821589Y-117359686D01*
X165739411Y-117205941D01*
X165656532Y-117104953D01*
X165656530Y-117104951D01*
X165628817Y-117071183D01*
X165595049Y-117043470D01*
X154308981Y-105757403D01*
X154291383Y-105668933D01*
X154273018Y-105624597D01*
X157743470Y-109095049D01*
X157771183Y-109128817D01*
X157804951Y-109156530D01*
X157804953Y-109156532D01*
X157876452Y-109215210D01*
X157905941Y-109239411D01*
X158059687Y-109321589D01*
X158175903Y-109356843D01*
X158226509Y-109372195D01*
X158241306Y-109373652D01*
X158356523Y-109385000D01*
X158356531Y-109385000D01*
X158400000Y-109389281D01*
X158443469Y-109385000D01*
X162386928Y-109385000D01*
X162386928Y-109912500D01*
X162403752Y-110083316D01*
X162453577Y-110247567D01*
X162534488Y-110398942D01*
X162617425Y-110500000D01*
X162534488Y-110601058D01*
X162453577Y-110752433D01*
X162403752Y-110916684D01*
X162386928Y-111087500D01*
X162386928Y-111662500D01*
X162403752Y-111833316D01*
X162453577Y-111997567D01*
X162534488Y-112148942D01*
X162615000Y-112247046D01*
X162615000Y-112956531D01*
X162610719Y-113000000D01*
X162615000Y-113043469D01*
X162615000Y-113043476D01*
X162627805Y-113173489D01*
X162678411Y-113340312D01*
X162760589Y-113494058D01*
X162871183Y-113628817D01*
X162904956Y-113656534D01*
X164943470Y-115695049D01*
X164971183Y-115728817D01*
X165004951Y-115756530D01*
X165004953Y-115756532D01*
X165076452Y-115815210D01*
X165105941Y-115839411D01*
X165259687Y-115921589D01*
X165426510Y-115972195D01*
X165556523Y-115985000D01*
X165556533Y-115985000D01*
X165599999Y-115989281D01*
X165643465Y-115985000D01*
X168886928Y-115985000D01*
X168886928Y-116287500D01*
X168903752Y-116458316D01*
X168953577Y-116622567D01*
X169034488Y-116773942D01*
X169117425Y-116875000D01*
X169034488Y-116976058D01*
X168953577Y-117127433D01*
X168903752Y-117291684D01*
X168886928Y-117462500D01*
X168886928Y-118037500D01*
X168903752Y-118208316D01*
X168953577Y-118372567D01*
X169034488Y-118523942D01*
X169115000Y-118622046D01*
X169115000Y-118722405D01*
X169045986Y-118759294D01*
X168819866Y-118944866D01*
X168634294Y-119170986D01*
X168496401Y-119428966D01*
X168411487Y-119708889D01*
X168382815Y-120000000D01*
X168411487Y-120291111D01*
X168496401Y-120571034D01*
X168634294Y-120829014D01*
X168819866Y-121055134D01*
X169045986Y-121240706D01*
X169063374Y-121250000D01*
X169045986Y-121259294D01*
X168819866Y-121444866D01*
X168634294Y-121670986D01*
X168496401Y-121928966D01*
X168411487Y-122208889D01*
X168382815Y-122500000D01*
X168411487Y-122791111D01*
X168496401Y-123071034D01*
X168634294Y-123329014D01*
X168819866Y-123555134D01*
X169045986Y-123740706D01*
X169063374Y-123750000D01*
X169045986Y-123759294D01*
X168819866Y-123944866D01*
X168634294Y-124170986D01*
X168496401Y-124428966D01*
X168411487Y-124708889D01*
X168382815Y-125000000D01*
X168411487Y-125291111D01*
X168496401Y-125571034D01*
X168634294Y-125829014D01*
X168815608Y-126049945D01*
X168780820Y-126060498D01*
X168670506Y-126119463D01*
X168573815Y-126198815D01*
X168494463Y-126295506D01*
X168435498Y-126405820D01*
X168399188Y-126525518D01*
X168386928Y-126650000D01*
X168390000Y-127214250D01*
X168548750Y-127373000D01*
X169873000Y-127373000D01*
X169873000Y-127353000D01*
X170127000Y-127353000D01*
X170127000Y-127373000D01*
X171451250Y-127373000D01*
X171610000Y-127214250D01*
X171613072Y-126650000D01*
X171600812Y-126525518D01*
X171564502Y-126405820D01*
X171505537Y-126295506D01*
X171426185Y-126198815D01*
X171329494Y-126119463D01*
X171219180Y-126060498D01*
X171184392Y-126049945D01*
X171365706Y-125829014D01*
X171503599Y-125571034D01*
X171588513Y-125291111D01*
X171617185Y-125000000D01*
X171588513Y-124708889D01*
X171503599Y-124428966D01*
X171365706Y-124170986D01*
X171180134Y-123944866D01*
X170954014Y-123759294D01*
X170936626Y-123750000D01*
X170954014Y-123740706D01*
X171180134Y-123555134D01*
X171365706Y-123329014D01*
X171503599Y-123071034D01*
X171588513Y-122791111D01*
X171617185Y-122500000D01*
X171588513Y-122208889D01*
X171503599Y-121928966D01*
X171365706Y-121670986D01*
X171180134Y-121444866D01*
X170954014Y-121259294D01*
X170936626Y-121250000D01*
X170954014Y-121240706D01*
X171180134Y-121055134D01*
X171365706Y-120829014D01*
X171503599Y-120571034D01*
X171588513Y-120291111D01*
X171617185Y-120000000D01*
X171588513Y-119708889D01*
X171503599Y-119428966D01*
X171365706Y-119170986D01*
X171180134Y-118944866D01*
X170954014Y-118759294D01*
X170885000Y-118722405D01*
X170885000Y-118622046D01*
X170965512Y-118523942D01*
X171046423Y-118372567D01*
X171096248Y-118208316D01*
X171113072Y-118037500D01*
X171113072Y-117462500D01*
X171096248Y-117291684D01*
X171046423Y-117127433D01*
X170965512Y-116976058D01*
X170882575Y-116875000D01*
X170965512Y-116773942D01*
X171046423Y-116622567D01*
X171096248Y-116458316D01*
X171113072Y-116287500D01*
X171113072Y-115712500D01*
X171096248Y-115541684D01*
X171046423Y-115377433D01*
X170965512Y-115226058D01*
X170886365Y-115129618D01*
X170887399Y-115119123D01*
X170965512Y-115023942D01*
X171046423Y-114872567D01*
X171096248Y-114708316D01*
X171113072Y-114537500D01*
X171113072Y-113962500D01*
X171096248Y-113791684D01*
X171046423Y-113627433D01*
X170965512Y-113476058D01*
X170945901Y-113452161D01*
X171005537Y-113379494D01*
X171064502Y-113269180D01*
X171100812Y-113149482D01*
X171113072Y-113025000D01*
X171110000Y-112785750D01*
X170951250Y-112627000D01*
X170127000Y-112627000D01*
X170127000Y-112647000D01*
X169873000Y-112647000D01*
X169873000Y-112627000D01*
X169048750Y-112627000D01*
X168890000Y-112785750D01*
X168886928Y-113025000D01*
X168899188Y-113149482D01*
X168935498Y-113269180D01*
X168994463Y-113379494D01*
X169054099Y-113452161D01*
X169034488Y-113476058D01*
X168953577Y-113627433D01*
X168903752Y-113791684D01*
X168886928Y-113962500D01*
X168886928Y-114215000D01*
X165966579Y-114215000D01*
X164385000Y-112633422D01*
X164385000Y-112247046D01*
X164465512Y-112148942D01*
X164546423Y-111997567D01*
X164553268Y-111975000D01*
X168886928Y-111975000D01*
X168890000Y-112214250D01*
X169048750Y-112373000D01*
X169873000Y-112373000D01*
X169873000Y-111498750D01*
X170127000Y-111498750D01*
X170127000Y-112373000D01*
X170951250Y-112373000D01*
X171110000Y-112214250D01*
X171113072Y-111975000D01*
X171100812Y-111850518D01*
X171064502Y-111730820D01*
X171005537Y-111620506D01*
X170926185Y-111523815D01*
X170829494Y-111444463D01*
X170719180Y-111385498D01*
X170599482Y-111349188D01*
X170475000Y-111336928D01*
X170285750Y-111340000D01*
X170127000Y-111498750D01*
X169873000Y-111498750D01*
X169714250Y-111340000D01*
X169525000Y-111336928D01*
X169400518Y-111349188D01*
X169280820Y-111385498D01*
X169170506Y-111444463D01*
X169073815Y-111523815D01*
X168994463Y-111620506D01*
X168935498Y-111730820D01*
X168899188Y-111850518D01*
X168886928Y-111975000D01*
X164553268Y-111975000D01*
X164596248Y-111833316D01*
X164613072Y-111662500D01*
X164613072Y-111087500D01*
X164596248Y-110916684D01*
X164546423Y-110752433D01*
X164465512Y-110601058D01*
X164382575Y-110500000D01*
X164465512Y-110398942D01*
X164546423Y-110247567D01*
X164596248Y-110083316D01*
X164613072Y-109912500D01*
X164613072Y-109337500D01*
X164596248Y-109166684D01*
X164546423Y-109002433D01*
X164465512Y-108851058D01*
X164385000Y-108752954D01*
X164385000Y-108543477D01*
X164389282Y-108500000D01*
X164385000Y-108456523D01*
X164385000Y-108372046D01*
X164465512Y-108273942D01*
X164546423Y-108122567D01*
X164596248Y-107958316D01*
X164613072Y-107787500D01*
X164613072Y-107212500D01*
X164596248Y-107041684D01*
X164546423Y-106877433D01*
X164465512Y-106726058D01*
X164382575Y-106625000D01*
X164465512Y-106523942D01*
X164546423Y-106372567D01*
X164596248Y-106208316D01*
X164613072Y-106037500D01*
X164613072Y-105462500D01*
X164596248Y-105291684D01*
X164546423Y-105127433D01*
X164465512Y-104976058D01*
X164385000Y-104877954D01*
X164385000Y-102066578D01*
X170060507Y-96391072D01*
X170120986Y-96440706D01*
X170378966Y-96578599D01*
X170615000Y-96650200D01*
X170615000Y-96752954D01*
X170534488Y-96851058D01*
X170453577Y-97002433D01*
X170403752Y-97166684D01*
X170386928Y-97337500D01*
X170386928Y-97912500D01*
X170403752Y-98083316D01*
X170453577Y-98247567D01*
X170534488Y-98398942D01*
X170617425Y-98500000D01*
X170534488Y-98601058D01*
X170453577Y-98752433D01*
X170403752Y-98916684D01*
X170386928Y-99087500D01*
X170386928Y-99662500D01*
X170403752Y-99833316D01*
X170453577Y-99997567D01*
X170534488Y-100148942D01*
X170615000Y-100247046D01*
X170615001Y-104233420D01*
X167382232Y-107466189D01*
X167168933Y-107508617D01*
X166962376Y-107594176D01*
X166776480Y-107718388D01*
X166618388Y-107876480D01*
X166494176Y-108062376D01*
X166408617Y-108268933D01*
X166365000Y-108488212D01*
X166365000Y-108711788D01*
X166408617Y-108931067D01*
X166494176Y-109137624D01*
X166618388Y-109323520D01*
X166776480Y-109481612D01*
X166962376Y-109605824D01*
X167168933Y-109691383D01*
X167388212Y-109735000D01*
X167611788Y-109735000D01*
X167831067Y-109691383D01*
X168037624Y-109605824D01*
X168223520Y-109481612D01*
X168381612Y-109323520D01*
X168505824Y-109137624D01*
X168591383Y-108931067D01*
X168633811Y-108717768D01*
X172095049Y-105256530D01*
X172128817Y-105228817D01*
X172170185Y-105178411D01*
X172215210Y-105123548D01*
X172239411Y-105094059D01*
X172321589Y-104940313D01*
X172372195Y-104773490D01*
X172385000Y-104643477D01*
X172385000Y-104643467D01*
X172389281Y-104600001D01*
X172385000Y-104556535D01*
X172385000Y-100247046D01*
X172465512Y-100148942D01*
X172546423Y-99997567D01*
X172596248Y-99833316D01*
X172613072Y-99662500D01*
X172613072Y-99087500D01*
X172596248Y-98916684D01*
X172546423Y-98752433D01*
X172465512Y-98601058D01*
X172382575Y-98500000D01*
X172465512Y-98398942D01*
X172546423Y-98247567D01*
X172596248Y-98083316D01*
X172613072Y-97912500D01*
X172613072Y-97337500D01*
X172596248Y-97166684D01*
X172546423Y-97002433D01*
X172465512Y-96851058D01*
X172385000Y-96752954D01*
X172385000Y-96157817D01*
X172490706Y-96029014D01*
X172628599Y-95771034D01*
X172713513Y-95491111D01*
X172742185Y-95200000D01*
X172713513Y-94908889D01*
X172628599Y-94628966D01*
X172490706Y-94370986D01*
X172309392Y-94150055D01*
X172344180Y-94139502D01*
X172454494Y-94080537D01*
X172551185Y-94001185D01*
X172630537Y-93904494D01*
X172689502Y-93794180D01*
X172725812Y-93674482D01*
X172738072Y-93550000D01*
X172735000Y-92985750D01*
X172576250Y-92827000D01*
X171227000Y-92827000D01*
X171227000Y-92847000D01*
X170973000Y-92847000D01*
X170973000Y-92827000D01*
X169623750Y-92827000D01*
X169465000Y-92985750D01*
X169461928Y-93550000D01*
X169474188Y-93674482D01*
X169510498Y-93794180D01*
X169569463Y-93904494D01*
X169648815Y-94001185D01*
X169745506Y-94080537D01*
X169855820Y-94139502D01*
X169890608Y-94150055D01*
X169717624Y-94360836D01*
X169659687Y-94378411D01*
X169505941Y-94460589D01*
X169505939Y-94460590D01*
X169505940Y-94460590D01*
X169404953Y-94543468D01*
X169404951Y-94543470D01*
X169371183Y-94571183D01*
X169343470Y-94604951D01*
X162904952Y-101043470D01*
X162871184Y-101071183D01*
X162843471Y-101104951D01*
X162843468Y-101104954D01*
X162760590Y-101205941D01*
X162678412Y-101359687D01*
X162627805Y-101526510D01*
X162610719Y-101700000D01*
X162615001Y-101743479D01*
X162615000Y-104877954D01*
X162534488Y-104976058D01*
X162453577Y-105127433D01*
X162403752Y-105291684D01*
X162386928Y-105462500D01*
X162386928Y-106037500D01*
X162403752Y-106208316D01*
X162453577Y-106372567D01*
X162534488Y-106523942D01*
X162617425Y-106625000D01*
X162534488Y-106726058D01*
X162453577Y-106877433D01*
X162403752Y-107041684D01*
X162386928Y-107212500D01*
X162386928Y-107615000D01*
X158766579Y-107615000D01*
X151545000Y-100393422D01*
X151545000Y-98970078D01*
X151679608Y-98859608D01*
X151858932Y-98641101D01*
X151930000Y-98508142D01*
X152001068Y-98641101D01*
X152180393Y-98859608D01*
X152398900Y-99038932D01*
X152648193Y-99172182D01*
X152918692Y-99254236D01*
X153200000Y-99281943D01*
X153481309Y-99254236D01*
X153751808Y-99172182D01*
X154001101Y-99038932D01*
X154219608Y-98859608D01*
X154398932Y-98641101D01*
X154468122Y-98511655D01*
X154475570Y-98529227D01*
X154634327Y-98762662D01*
X154835575Y-98960639D01*
X155071579Y-99115551D01*
X155333270Y-99221444D01*
X155390961Y-99231904D01*
X155613000Y-99109915D01*
X155613000Y-97767000D01*
X155593000Y-97767000D01*
X155593000Y-97513000D01*
X155613000Y-97513000D01*
X155613000Y-96170085D01*
X155867000Y-96170085D01*
X155867000Y-97513000D01*
X155887000Y-97513000D01*
X155887000Y-97767000D01*
X155867000Y-97767000D01*
X155867000Y-99109915D01*
X156089039Y-99231904D01*
X156146730Y-99221444D01*
X156408421Y-99115551D01*
X156644425Y-98960639D01*
X156845673Y-98762662D01*
X157004430Y-98529227D01*
X157011878Y-98511655D01*
X157081068Y-98641101D01*
X157260393Y-98859608D01*
X157478900Y-99038932D01*
X157728193Y-99172182D01*
X157998692Y-99254236D01*
X158280000Y-99281943D01*
X158561309Y-99254236D01*
X158831808Y-99172182D01*
X159081101Y-99038932D01*
X159299608Y-98859608D01*
X159478932Y-98641101D01*
X159612182Y-98391807D01*
X159694236Y-98121308D01*
X159715000Y-97910491D01*
X159715000Y-97369508D01*
X159694236Y-97158691D01*
X159612182Y-96888192D01*
X159478932Y-96638899D01*
X159299607Y-96420392D01*
X159081100Y-96241068D01*
X158831807Y-96107818D01*
X158561308Y-96025764D01*
X158280000Y-95998057D01*
X157998691Y-96025764D01*
X157728192Y-96107818D01*
X157478899Y-96241068D01*
X157260392Y-96420393D01*
X157081068Y-96638900D01*
X157011878Y-96768345D01*
X157004430Y-96750773D01*
X156845673Y-96517338D01*
X156644425Y-96319361D01*
X156408421Y-96164449D01*
X156146730Y-96058556D01*
X156089039Y-96048096D01*
X155867000Y-96170085D01*
X155613000Y-96170085D01*
X155390961Y-96048096D01*
X155333270Y-96058556D01*
X155071579Y-96164449D01*
X154835575Y-96319361D01*
X154634327Y-96517338D01*
X154475570Y-96750773D01*
X154468122Y-96768345D01*
X154398932Y-96638899D01*
X154219607Y-96420392D01*
X154001100Y-96241068D01*
X153751807Y-96107818D01*
X153481308Y-96025764D01*
X153200000Y-95998057D01*
X152918691Y-96025764D01*
X152648192Y-96107818D01*
X152398899Y-96241068D01*
X152180392Y-96420393D01*
X152001068Y-96638900D01*
X151930000Y-96771858D01*
X151858932Y-96638899D01*
X151679607Y-96420392D01*
X151461100Y-96241068D01*
X151211807Y-96107818D01*
X150941308Y-96025764D01*
X150660000Y-95998057D01*
X150378691Y-96025764D01*
X150108192Y-96107818D01*
X149858899Y-96241068D01*
X149640392Y-96420393D01*
X149461068Y-96638900D01*
X149390000Y-96771858D01*
X149318932Y-96638899D01*
X149139607Y-96420392D01*
X148921100Y-96241068D01*
X148920886Y-96240953D01*
X148859411Y-96125941D01*
X148825811Y-96085000D01*
X148776532Y-96024953D01*
X148776530Y-96024951D01*
X148748817Y-95991183D01*
X148715049Y-95963470D01*
X145156534Y-92404956D01*
X145128817Y-92371183D01*
X144994059Y-92260589D01*
X144840313Y-92178411D01*
X144673490Y-92127805D01*
X144543477Y-92115000D01*
X144543469Y-92115000D01*
X144500000Y-92110719D01*
X144456531Y-92115000D01*
X141166579Y-92115000D01*
X140901579Y-91850000D01*
X169461928Y-91850000D01*
X169465000Y-92414250D01*
X169623750Y-92573000D01*
X170973000Y-92573000D01*
X170973000Y-91373750D01*
X171227000Y-91373750D01*
X171227000Y-92573000D01*
X172576250Y-92573000D01*
X172735000Y-92414250D01*
X172738072Y-91850000D01*
X172725812Y-91725518D01*
X172689502Y-91605820D01*
X172630537Y-91495506D01*
X172551185Y-91398815D01*
X172454494Y-91319463D01*
X172344180Y-91260498D01*
X172224482Y-91224188D01*
X172100000Y-91211928D01*
X171385750Y-91215000D01*
X171227000Y-91373750D01*
X170973000Y-91373750D01*
X170814250Y-91215000D01*
X170100000Y-91211928D01*
X169975518Y-91224188D01*
X169855820Y-91260498D01*
X169745506Y-91319463D01*
X169648815Y-91398815D01*
X169569463Y-91495506D01*
X169510498Y-91605820D01*
X169474188Y-91725518D01*
X169461928Y-91850000D01*
X140901579Y-91850000D01*
X140781820Y-91730241D01*
X140785000Y-91697949D01*
X140785000Y-91302050D01*
X140763513Y-91083889D01*
X140678599Y-90803966D01*
X140540706Y-90545986D01*
X140355134Y-90319866D01*
X140129013Y-90134294D01*
X140127000Y-90133218D01*
X140127000Y-88250000D01*
X155036928Y-88250000D01*
X155049188Y-88374482D01*
X155085498Y-88494180D01*
X155144463Y-88604494D01*
X155223815Y-88701185D01*
X155320506Y-88780537D01*
X155430820Y-88839502D01*
X155550518Y-88875812D01*
X155675000Y-88888072D01*
X155964250Y-88885000D01*
X156123000Y-88726250D01*
X156123000Y-87027000D01*
X156377000Y-87027000D01*
X156377000Y-88726250D01*
X156535750Y-88885000D01*
X156825000Y-88888072D01*
X156949482Y-88875812D01*
X157069180Y-88839502D01*
X157179494Y-88780537D01*
X157276185Y-88701185D01*
X157355537Y-88604494D01*
X157414502Y-88494180D01*
X157450812Y-88374482D01*
X157463072Y-88250000D01*
X157460000Y-87185750D01*
X157301250Y-87027000D01*
X156377000Y-87027000D01*
X156123000Y-87027000D01*
X155198750Y-87027000D01*
X155040000Y-87185750D01*
X155036928Y-88250000D01*
X140127000Y-88250000D01*
X140127000Y-87350000D01*
X140711928Y-87350000D01*
X140724188Y-87474482D01*
X140760498Y-87594180D01*
X140819463Y-87704494D01*
X140898815Y-87801185D01*
X140995506Y-87880537D01*
X141105820Y-87939502D01*
X141225518Y-87975812D01*
X141350000Y-87988072D01*
X142414250Y-87985000D01*
X142573000Y-87826250D01*
X142573000Y-86902000D01*
X140873750Y-86902000D01*
X140715000Y-87060750D01*
X140711928Y-87350000D01*
X140127000Y-87350000D01*
X140127000Y-86200000D01*
X140711928Y-86200000D01*
X140715000Y-86489250D01*
X140873750Y-86648000D01*
X142573000Y-86648000D01*
X142573000Y-85723750D01*
X142414250Y-85565000D01*
X141350000Y-85561928D01*
X141225518Y-85574188D01*
X141105820Y-85610498D01*
X140995506Y-85669463D01*
X140898815Y-85748815D01*
X140819463Y-85845506D01*
X140760498Y-85955820D01*
X140724188Y-86075518D01*
X140711928Y-86200000D01*
X140127000Y-86200000D01*
X140127000Y-83499999D01*
X140711928Y-83499999D01*
X140711928Y-84150001D01*
X140728992Y-84323255D01*
X140779528Y-84489851D01*
X140861595Y-84643387D01*
X140972038Y-84777962D01*
X141106613Y-84888405D01*
X141260149Y-84970472D01*
X141426745Y-85021008D01*
X141599999Y-85038072D01*
X143800001Y-85038072D01*
X143973255Y-85021008D01*
X144139851Y-84970472D01*
X144293387Y-84888405D01*
X144427962Y-84777962D01*
X144521248Y-84664292D01*
X144609294Y-84829014D01*
X144790608Y-85049945D01*
X144755820Y-85060498D01*
X144645506Y-85119463D01*
X144548815Y-85198815D01*
X144469463Y-85295506D01*
X144410498Y-85405820D01*
X144374188Y-85525518D01*
X144362236Y-85646875D01*
X144294180Y-85610498D01*
X144174482Y-85574188D01*
X144050000Y-85561928D01*
X142985750Y-85565000D01*
X142827000Y-85723750D01*
X142827000Y-86648000D01*
X142847000Y-86648000D01*
X142847000Y-86902000D01*
X142827000Y-86902000D01*
X142827000Y-87826250D01*
X142985750Y-87985000D01*
X144050000Y-87988072D01*
X144174482Y-87975812D01*
X144294180Y-87939502D01*
X144404494Y-87880537D01*
X144501185Y-87801185D01*
X144525000Y-87772166D01*
X144548815Y-87801185D01*
X144645506Y-87880537D01*
X144755820Y-87939502D01*
X144875518Y-87975812D01*
X145000000Y-87988072D01*
X145714250Y-87985000D01*
X145873000Y-87826250D01*
X145873000Y-86627000D01*
X146127000Y-86627000D01*
X146127000Y-87826250D01*
X146285750Y-87985000D01*
X147000000Y-87988072D01*
X147124482Y-87975812D01*
X147244180Y-87939502D01*
X147354494Y-87880537D01*
X147451185Y-87801185D01*
X147530537Y-87704494D01*
X147589502Y-87594180D01*
X147625812Y-87474482D01*
X147638072Y-87350000D01*
X147635000Y-86785750D01*
X147476250Y-86627000D01*
X146127000Y-86627000D01*
X145873000Y-86627000D01*
X145853000Y-86627000D01*
X145853000Y-86373000D01*
X145873000Y-86373000D01*
X145873000Y-86353000D01*
X146127000Y-86353000D01*
X146127000Y-86373000D01*
X147476250Y-86373000D01*
X147635000Y-86214250D01*
X147638072Y-85650000D01*
X147625812Y-85525518D01*
X147589502Y-85405820D01*
X147530537Y-85295506D01*
X147451185Y-85198815D01*
X147354494Y-85119463D01*
X147244180Y-85060498D01*
X147209392Y-85049945D01*
X147390706Y-84829014D01*
X147528599Y-84571034D01*
X147539530Y-84535000D01*
X147653856Y-84535000D01*
X147755820Y-84589502D01*
X147875518Y-84625812D01*
X148000000Y-84638072D01*
X148900000Y-84638072D01*
X149024482Y-84625812D01*
X149144180Y-84589502D01*
X149254494Y-84530537D01*
X149351185Y-84451185D01*
X149430537Y-84354494D01*
X149489502Y-84244180D01*
X149525812Y-84124482D01*
X149538072Y-84000000D01*
X149538072Y-83723060D01*
X149568577Y-83622499D01*
X149590491Y-83400000D01*
X149568577Y-83177501D01*
X149538072Y-83076940D01*
X149538072Y-82800000D01*
X150661928Y-82800000D01*
X150661928Y-84000000D01*
X150674188Y-84124482D01*
X150710498Y-84244180D01*
X150769463Y-84354494D01*
X150848815Y-84451185D01*
X150945506Y-84530537D01*
X151055820Y-84589502D01*
X151175518Y-84625812D01*
X151300000Y-84638072D01*
X152200000Y-84638072D01*
X152324482Y-84625812D01*
X152444180Y-84589502D01*
X152554494Y-84530537D01*
X152576807Y-84512225D01*
X152662843Y-84673187D01*
X152835919Y-84884080D01*
X153046812Y-85057157D01*
X153287419Y-85185764D01*
X153548493Y-85264960D01*
X153820000Y-85291701D01*
X154091506Y-85264960D01*
X154352580Y-85185764D01*
X154593187Y-85057157D01*
X154804080Y-84884081D01*
X154977157Y-84673188D01*
X155092486Y-84457422D01*
X155129028Y-84547349D01*
X155278972Y-84775061D01*
X155454763Y-84953235D01*
X155430820Y-84960498D01*
X155320506Y-85019463D01*
X155223815Y-85098815D01*
X155144463Y-85195506D01*
X155085498Y-85305820D01*
X155049188Y-85425518D01*
X155036928Y-85550000D01*
X155040000Y-86614250D01*
X155198750Y-86773000D01*
X156123000Y-86773000D01*
X156123000Y-85182652D01*
X156233000Y-85119656D01*
X156233000Y-85073750D01*
X156377000Y-85073750D01*
X156377000Y-86773000D01*
X157301250Y-86773000D01*
X157460000Y-86614250D01*
X157463072Y-85550000D01*
X157450812Y-85425518D01*
X157414502Y-85305820D01*
X157355537Y-85195506D01*
X157276185Y-85098815D01*
X157179494Y-85019463D01*
X157177160Y-85018216D01*
X157249540Y-84969145D01*
X157441028Y-84775061D01*
X157513418Y-84665126D01*
X157524188Y-84774482D01*
X157560498Y-84894180D01*
X157619463Y-85004494D01*
X157698815Y-85101185D01*
X157795506Y-85180537D01*
X157905820Y-85239502D01*
X158025518Y-85275812D01*
X158150000Y-85288072D01*
X158151811Y-85288072D01*
X158136595Y-85306613D01*
X158054528Y-85460149D01*
X158003992Y-85626745D01*
X157986928Y-85799999D01*
X157986928Y-88000001D01*
X158003992Y-88173255D01*
X158054528Y-88339851D01*
X158136595Y-88493387D01*
X158247038Y-88627962D01*
X158381613Y-88738405D01*
X158535149Y-88820472D01*
X158701745Y-88871008D01*
X158874999Y-88888072D01*
X159525001Y-88888072D01*
X159698255Y-88871008D01*
X159864851Y-88820472D01*
X160018387Y-88738405D01*
X160152962Y-88627962D01*
X160263405Y-88493387D01*
X160345472Y-88339851D01*
X160396008Y-88173255D01*
X160413072Y-88000001D01*
X160413072Y-87466652D01*
X160455820Y-87489502D01*
X160575518Y-87525812D01*
X160700000Y-87538072D01*
X161600000Y-87538072D01*
X161724482Y-87525812D01*
X161844180Y-87489502D01*
X161954494Y-87430537D01*
X162051185Y-87351185D01*
X162130537Y-87254494D01*
X162189502Y-87144180D01*
X162225812Y-87024482D01*
X162238072Y-86900000D01*
X162238072Y-85700000D01*
X163361928Y-85700000D01*
X163361928Y-86900000D01*
X163374188Y-87024482D01*
X163410498Y-87144180D01*
X163469463Y-87254494D01*
X163548815Y-87351185D01*
X163645506Y-87430537D01*
X163755820Y-87489502D01*
X163875518Y-87525812D01*
X164000000Y-87538072D01*
X164900000Y-87538072D01*
X165024482Y-87525812D01*
X165144180Y-87489502D01*
X165254494Y-87430537D01*
X165351185Y-87351185D01*
X165430537Y-87254494D01*
X165467683Y-87185000D01*
X165685768Y-87185000D01*
X165709294Y-87229014D01*
X165894866Y-87455134D01*
X166120986Y-87640706D01*
X166378966Y-87778599D01*
X166658889Y-87863513D01*
X166877050Y-87885000D01*
X167322950Y-87885000D01*
X167541111Y-87863513D01*
X167821034Y-87778599D01*
X167966434Y-87700881D01*
X172478724Y-87700881D01*
X172838912Y-88190548D01*
X173502882Y-88550849D01*
X174224385Y-88774694D01*
X174975695Y-88853480D01*
X175727938Y-88784178D01*
X176452208Y-88569452D01*
X177120670Y-88217555D01*
X177161088Y-88190548D01*
X177521276Y-87700881D01*
X175000000Y-85179605D01*
X172478724Y-87700881D01*
X167966434Y-87700881D01*
X168079014Y-87640706D01*
X168305134Y-87455134D01*
X168490706Y-87229014D01*
X168628599Y-86971034D01*
X168713513Y-86691111D01*
X168742185Y-86400000D01*
X168713513Y-86108889D01*
X168628599Y-85828966D01*
X168490706Y-85570986D01*
X168309392Y-85350055D01*
X168344180Y-85339502D01*
X168454494Y-85280537D01*
X168551185Y-85201185D01*
X168630537Y-85104494D01*
X168689502Y-84994180D01*
X168695109Y-84975695D01*
X171146520Y-84975695D01*
X171215822Y-85727938D01*
X171430548Y-86452208D01*
X171782445Y-87120670D01*
X171809452Y-87161088D01*
X172299119Y-87521276D01*
X174820395Y-85000000D01*
X175179605Y-85000000D01*
X177700881Y-87521276D01*
X178190548Y-87161088D01*
X178550849Y-86497118D01*
X178774694Y-85775615D01*
X178853480Y-85024305D01*
X178784178Y-84272062D01*
X178569452Y-83547792D01*
X178217555Y-82879330D01*
X178190548Y-82838912D01*
X177700881Y-82478724D01*
X175179605Y-85000000D01*
X174820395Y-85000000D01*
X172299119Y-82478724D01*
X171809452Y-82838912D01*
X171449151Y-83502882D01*
X171225306Y-84224385D01*
X171146520Y-84975695D01*
X168695109Y-84975695D01*
X168725812Y-84874482D01*
X168738072Y-84750000D01*
X168735000Y-84185750D01*
X168576250Y-84027000D01*
X167227000Y-84027000D01*
X167227000Y-84047000D01*
X166973000Y-84047000D01*
X166973000Y-84027000D01*
X165623750Y-84027000D01*
X165465000Y-84185750D01*
X165461928Y-84750000D01*
X165474188Y-84874482D01*
X165510498Y-84994180D01*
X165569463Y-85104494D01*
X165648815Y-85201185D01*
X165745506Y-85280537D01*
X165855820Y-85339502D01*
X165890608Y-85350055D01*
X165837308Y-85415000D01*
X165467683Y-85415000D01*
X165430537Y-85345506D01*
X165351185Y-85248815D01*
X165254494Y-85169463D01*
X165144180Y-85110498D01*
X165024482Y-85074188D01*
X164900000Y-85061928D01*
X164000000Y-85061928D01*
X163875518Y-85074188D01*
X163755820Y-85110498D01*
X163645506Y-85169463D01*
X163548815Y-85248815D01*
X163469463Y-85345506D01*
X163410498Y-85455820D01*
X163374188Y-85575518D01*
X163361928Y-85700000D01*
X162238072Y-85700000D01*
X162225812Y-85575518D01*
X162189502Y-85455820D01*
X162130537Y-85345506D01*
X162051185Y-85248815D01*
X161954494Y-85169463D01*
X161844180Y-85110498D01*
X161724482Y-85074188D01*
X161600000Y-85061928D01*
X161185000Y-85061928D01*
X161185000Y-84043465D01*
X161189281Y-83999999D01*
X161185000Y-83956533D01*
X161185000Y-83956523D01*
X161172195Y-83826510D01*
X161121589Y-83659687D01*
X161039411Y-83505941D01*
X160992093Y-83448284D01*
X160956532Y-83404953D01*
X160956530Y-83404951D01*
X160928817Y-83371183D01*
X160895050Y-83343471D01*
X160601579Y-83050000D01*
X165461928Y-83050000D01*
X165465000Y-83614250D01*
X165623750Y-83773000D01*
X166973000Y-83773000D01*
X166973000Y-82573750D01*
X167227000Y-82573750D01*
X167227000Y-83773000D01*
X168576250Y-83773000D01*
X168735000Y-83614250D01*
X168738072Y-83050000D01*
X168725812Y-82925518D01*
X168689502Y-82805820D01*
X168630537Y-82695506D01*
X168551185Y-82598815D01*
X168454494Y-82519463D01*
X168344180Y-82460498D01*
X168224482Y-82424188D01*
X168100000Y-82411928D01*
X167385750Y-82415000D01*
X167227000Y-82573750D01*
X166973000Y-82573750D01*
X166814250Y-82415000D01*
X166100000Y-82411928D01*
X165975518Y-82424188D01*
X165855820Y-82460498D01*
X165745506Y-82519463D01*
X165648815Y-82598815D01*
X165569463Y-82695506D01*
X165510498Y-82805820D01*
X165474188Y-82925518D01*
X165461928Y-83050000D01*
X160601579Y-83050000D01*
X160356534Y-82804956D01*
X160328817Y-82771183D01*
X160288072Y-82737744D01*
X160288072Y-82299119D01*
X172478724Y-82299119D01*
X175000000Y-84820395D01*
X177521276Y-82299119D01*
X177161088Y-81809452D01*
X176497118Y-81449151D01*
X175775615Y-81225306D01*
X175024305Y-81146520D01*
X174272062Y-81215822D01*
X173547792Y-81430548D01*
X172879330Y-81782445D01*
X172838912Y-81809452D01*
X172478724Y-82299119D01*
X160288072Y-82299119D01*
X160288072Y-82150000D01*
X160275812Y-82025518D01*
X160239502Y-81905820D01*
X160180537Y-81795506D01*
X160101185Y-81698815D01*
X160004494Y-81619463D01*
X159894180Y-81560498D01*
X159774482Y-81524188D01*
X159650000Y-81511928D01*
X158150000Y-81511928D01*
X158025518Y-81524188D01*
X157905820Y-81560498D01*
X157795506Y-81619463D01*
X157698815Y-81698815D01*
X157619463Y-81795506D01*
X157560498Y-81905820D01*
X157524188Y-82025518D01*
X157513418Y-82134874D01*
X157441028Y-82024939D01*
X157249540Y-81830855D01*
X157023868Y-81677858D01*
X156772684Y-81571827D01*
X156701185Y-81557682D01*
X156487000Y-81680344D01*
X156487000Y-83273000D01*
X156507000Y-83273000D01*
X156507000Y-83527000D01*
X156487000Y-83527000D01*
X156487000Y-84963750D01*
X156377000Y-85073750D01*
X156233000Y-85073750D01*
X156233000Y-83527000D01*
X156213000Y-83527000D01*
X156213000Y-83273000D01*
X156233000Y-83273000D01*
X156233000Y-81680344D01*
X156018815Y-81557682D01*
X155947316Y-81571827D01*
X155696132Y-81677858D01*
X155470460Y-81830855D01*
X155278972Y-82024939D01*
X155129028Y-82252651D01*
X155092486Y-82342578D01*
X154977157Y-82126812D01*
X154804081Y-81915919D01*
X154593188Y-81742843D01*
X154352581Y-81614236D01*
X154091507Y-81535040D01*
X153820000Y-81508299D01*
X153548494Y-81535040D01*
X153287420Y-81614236D01*
X153046813Y-81742843D01*
X152835920Y-81915919D01*
X152662843Y-82126812D01*
X152576807Y-82287775D01*
X152554494Y-82269463D01*
X152444180Y-82210498D01*
X152324482Y-82174188D01*
X152200000Y-82161928D01*
X151300000Y-82161928D01*
X151175518Y-82174188D01*
X151055820Y-82210498D01*
X150945506Y-82269463D01*
X150848815Y-82348815D01*
X150769463Y-82445506D01*
X150710498Y-82555820D01*
X150674188Y-82675518D01*
X150661928Y-82800000D01*
X149538072Y-82800000D01*
X149525812Y-82675518D01*
X149489502Y-82555820D01*
X149430537Y-82445506D01*
X149351185Y-82348815D01*
X149254494Y-82269463D01*
X149144180Y-82210498D01*
X149024482Y-82174188D01*
X148900000Y-82161928D01*
X148000000Y-82161928D01*
X147875518Y-82174188D01*
X147755820Y-82210498D01*
X147653856Y-82265000D01*
X147114785Y-82265000D01*
X147053676Y-82063553D01*
X146948284Y-81866377D01*
X146806449Y-81693551D01*
X146763135Y-81658004D01*
X146341996Y-81236865D01*
X146306449Y-81193551D01*
X146133623Y-81051716D01*
X145936447Y-80946324D01*
X145722499Y-80881423D01*
X145555752Y-80865000D01*
X145555751Y-80865000D01*
X145500000Y-80859509D01*
X145444249Y-80865000D01*
X143555752Y-80865000D01*
X143500000Y-80859509D01*
X143444248Y-80865000D01*
X143277501Y-80881423D01*
X143063553Y-80946324D01*
X142866377Y-81051716D01*
X142693551Y-81193551D01*
X142658008Y-81236860D01*
X141936860Y-81958009D01*
X141893552Y-81993551D01*
X141751717Y-82166377D01*
X141646324Y-82363553D01*
X141581423Y-82577501D01*
X141579324Y-82598815D01*
X141577817Y-82614113D01*
X141426745Y-82628992D01*
X141260149Y-82679528D01*
X141106613Y-82761595D01*
X140972038Y-82872038D01*
X140861595Y-83006613D01*
X140779528Y-83160149D01*
X140728992Y-83326745D01*
X140711928Y-83499999D01*
X140127000Y-83499999D01*
X140127000Y-80710000D01*
X174968382Y-80710000D01*
X175759192Y-80780578D01*
G37*
%TD.AperFunction*%
D27*
X140343470Y-104095049D02*
X140371183Y-104128817D01*
X140404951Y-104156530D01*
X140404953Y-104156532D01*
X140424302Y-104172411D01*
X140505941Y-104239411D01*
X140659687Y-104321589D01*
X140826510Y-104372195D01*
X140956523Y-104385000D01*
X140956533Y-104385000D01*
X140999999Y-104389281D01*
X141043465Y-104385000D01*
X145456524Y-104385000D01*
X145500000Y-104389282D01*
X145543477Y-104385000D01*
X147767422Y-104385000D01*
X157146190Y-113763769D01*
X157188617Y-113977067D01*
X157274176Y-114183624D01*
X157395001Y-114364451D01*
X157395000Y-119169922D01*
X157260392Y-119280393D01*
X157081068Y-119498900D01*
X157010000Y-119631858D01*
X156938932Y-119498899D01*
X156759607Y-119280392D01*
X156541100Y-119101068D01*
X156291807Y-118967818D01*
X156021308Y-118885764D01*
X155740000Y-118858057D01*
X155458691Y-118885764D01*
X155188192Y-118967818D01*
X154938899Y-119101068D01*
X154720392Y-119280393D01*
X154541068Y-119498900D01*
X154470000Y-119631858D01*
X154398932Y-119498899D01*
X154219607Y-119280392D01*
X154001100Y-119101068D01*
X153751807Y-118967818D01*
X153481308Y-118885764D01*
X153200000Y-118858057D01*
X152918691Y-118885764D01*
X152648192Y-118967818D01*
X152398899Y-119101068D01*
X152180392Y-119280393D01*
X152001068Y-119498900D01*
X151930000Y-119631858D01*
X151858932Y-119498899D01*
X151679607Y-119280392D01*
X151461100Y-119101068D01*
X151211807Y-118967818D01*
X150941308Y-118885764D01*
X150660000Y-118858057D01*
X150378691Y-118885764D01*
X150108192Y-118967818D01*
X149858899Y-119101068D01*
X149640392Y-119280393D01*
X149461068Y-119498900D01*
X149390000Y-119631858D01*
X149318932Y-119498899D01*
X149139607Y-119280392D01*
X149005000Y-119169923D01*
X149005000Y-118928138D01*
X149090512Y-118823942D01*
X149171423Y-118672567D01*
X149221248Y-118508316D01*
X149238072Y-118337500D01*
X149238072Y-117862500D01*
X149221248Y-117691684D01*
X149171423Y-117527433D01*
X149090512Y-117376058D01*
X148981623Y-117243377D01*
X148848942Y-117134488D01*
X148697567Y-117053577D01*
X148533316Y-117003752D01*
X148362500Y-116986928D01*
X147787500Y-116986928D01*
X147616684Y-117003752D01*
X147452433Y-117053577D01*
X147301058Y-117134488D01*
X147200000Y-117217425D01*
X147098942Y-117134488D01*
X146947567Y-117053577D01*
X146783316Y-117003752D01*
X146612500Y-116986928D01*
X146037500Y-116986928D01*
X145866684Y-117003752D01*
X145702433Y-117053577D01*
X145551058Y-117134488D01*
X145452954Y-117215000D01*
X145366579Y-117215000D01*
X144356534Y-116204956D01*
X144328817Y-116171183D01*
X144194059Y-116060589D01*
X144040313Y-115978411D01*
X143873490Y-115927805D01*
X143743477Y-115915000D01*
X143743469Y-115915000D01*
X143700000Y-115910719D01*
X143656531Y-115915000D01*
X140127000Y-115915000D01*
X140127000Y-103878579D01*
X140343470Y-104095049D01*
%TA.AperFunction,Conductor*%
D28*
G36*
X140343470Y-104095049D02*
G01*
X140371183Y-104128817D01*
X140404951Y-104156530D01*
X140404953Y-104156532D01*
X140424302Y-104172411D01*
X140505941Y-104239411D01*
X140659687Y-104321589D01*
X140826510Y-104372195D01*
X140956523Y-104385000D01*
X140956533Y-104385000D01*
X140999999Y-104389281D01*
X141043465Y-104385000D01*
X145456524Y-104385000D01*
X145500000Y-104389282D01*
X145543477Y-104385000D01*
X147767422Y-104385000D01*
X157146190Y-113763769D01*
X157188617Y-113977067D01*
X157274176Y-114183624D01*
X157395001Y-114364451D01*
X157395000Y-119169922D01*
X157260392Y-119280393D01*
X157081068Y-119498900D01*
X157010000Y-119631858D01*
X156938932Y-119498899D01*
X156759607Y-119280392D01*
X156541100Y-119101068D01*
X156291807Y-118967818D01*
X156021308Y-118885764D01*
X155740000Y-118858057D01*
X155458691Y-118885764D01*
X155188192Y-118967818D01*
X154938899Y-119101068D01*
X154720392Y-119280393D01*
X154541068Y-119498900D01*
X154470000Y-119631858D01*
X154398932Y-119498899D01*
X154219607Y-119280392D01*
X154001100Y-119101068D01*
X153751807Y-118967818D01*
X153481308Y-118885764D01*
X153200000Y-118858057D01*
X152918691Y-118885764D01*
X152648192Y-118967818D01*
X152398899Y-119101068D01*
X152180392Y-119280393D01*
X152001068Y-119498900D01*
X151930000Y-119631858D01*
X151858932Y-119498899D01*
X151679607Y-119280392D01*
X151461100Y-119101068D01*
X151211807Y-118967818D01*
X150941308Y-118885764D01*
X150660000Y-118858057D01*
X150378691Y-118885764D01*
X150108192Y-118967818D01*
X149858899Y-119101068D01*
X149640392Y-119280393D01*
X149461068Y-119498900D01*
X149390000Y-119631858D01*
X149318932Y-119498899D01*
X149139607Y-119280392D01*
X149005000Y-119169923D01*
X149005000Y-118928138D01*
X149090512Y-118823942D01*
X149171423Y-118672567D01*
X149221248Y-118508316D01*
X149238072Y-118337500D01*
X149238072Y-117862500D01*
X149221248Y-117691684D01*
X149171423Y-117527433D01*
X149090512Y-117376058D01*
X148981623Y-117243377D01*
X148848942Y-117134488D01*
X148697567Y-117053577D01*
X148533316Y-117003752D01*
X148362500Y-116986928D01*
X147787500Y-116986928D01*
X147616684Y-117003752D01*
X147452433Y-117053577D01*
X147301058Y-117134488D01*
X147200000Y-117217425D01*
X147098942Y-117134488D01*
X146947567Y-117053577D01*
X146783316Y-117003752D01*
X146612500Y-116986928D01*
X146037500Y-116986928D01*
X145866684Y-117003752D01*
X145702433Y-117053577D01*
X145551058Y-117134488D01*
X145452954Y-117215000D01*
X145366579Y-117215000D01*
X144356534Y-116204956D01*
X144328817Y-116171183D01*
X144194059Y-116060589D01*
X144040313Y-115978411D01*
X143873490Y-115927805D01*
X143743477Y-115915000D01*
X143743469Y-115915000D01*
X143700000Y-115910719D01*
X143656531Y-115915000D01*
X140127000Y-115915000D01*
X140127000Y-103878579D01*
X140343470Y-104095049D01*
G37*
%TD.AperFunction*%
%TD*%
D27*
%TO.N,GND*%
X134873000Y-133373000D02*
X131654175Y-133373000D01*
X131500000Y-133357815D01*
X131345824Y-133373000D01*
X130627000Y-133373000D01*
X130627000Y-130613072D01*
X130662500Y-130613072D01*
X130833316Y-130596248D01*
X130997567Y-130546423D01*
X131148942Y-130465512D01*
X131247046Y-130385000D01*
X131256531Y-130385000D01*
X131300000Y-130389281D01*
X131343469Y-130385000D01*
X131343477Y-130385000D01*
X131386928Y-130380721D01*
X131386928Y-130412500D01*
X131403752Y-130583316D01*
X131453577Y-130747567D01*
X131534488Y-130898942D01*
X131643377Y-131031623D01*
X131776058Y-131140512D01*
X131927433Y-131221423D01*
X132091684Y-131271248D01*
X132262500Y-131288072D01*
X132737500Y-131288072D01*
X132908316Y-131271248D01*
X133072567Y-131221423D01*
X133223942Y-131140512D01*
X133356623Y-131031623D01*
X133465512Y-130898942D01*
X133546423Y-130747567D01*
X133596248Y-130583316D01*
X133613072Y-130412500D01*
X133613072Y-129837500D01*
X133596248Y-129666684D01*
X133546423Y-129502433D01*
X133465512Y-129351058D01*
X133385000Y-129252954D01*
X133385000Y-129243465D01*
X133389281Y-129199999D01*
X133385000Y-129156533D01*
X133385000Y-129156523D01*
X133372195Y-129026510D01*
X133321589Y-128859687D01*
X133239411Y-128705941D01*
X133128817Y-128571183D01*
X133095044Y-128543466D01*
X133056534Y-128504956D01*
X133028817Y-128471183D01*
X132894059Y-128360589D01*
X132740313Y-128278411D01*
X132573490Y-128227805D01*
X132443477Y-128215000D01*
X132443469Y-128215000D01*
X132414124Y-128212110D01*
X132237624Y-128094176D01*
X132154078Y-128059570D01*
X132240706Y-127954014D01*
X132378599Y-127696034D01*
X132463513Y-127416111D01*
X132485000Y-127197950D01*
X132485000Y-127127000D01*
X134873000Y-127127000D01*
X134873000Y-133373000D01*
%TA.AperFunction,Conductor*%
D28*
G36*
X134873000Y-133373000D02*
G01*
X131654175Y-133373000D01*
X131500000Y-133357815D01*
X131345824Y-133373000D01*
X130627000Y-133373000D01*
X130627000Y-130613072D01*
X130662500Y-130613072D01*
X130833316Y-130596248D01*
X130997567Y-130546423D01*
X131148942Y-130465512D01*
X131247046Y-130385000D01*
X131256531Y-130385000D01*
X131300000Y-130389281D01*
X131343469Y-130385000D01*
X131343477Y-130385000D01*
X131386928Y-130380721D01*
X131386928Y-130412500D01*
X131403752Y-130583316D01*
X131453577Y-130747567D01*
X131534488Y-130898942D01*
X131643377Y-131031623D01*
X131776058Y-131140512D01*
X131927433Y-131221423D01*
X132091684Y-131271248D01*
X132262500Y-131288072D01*
X132737500Y-131288072D01*
X132908316Y-131271248D01*
X133072567Y-131221423D01*
X133223942Y-131140512D01*
X133356623Y-131031623D01*
X133465512Y-130898942D01*
X133546423Y-130747567D01*
X133596248Y-130583316D01*
X133613072Y-130412500D01*
X133613072Y-129837500D01*
X133596248Y-129666684D01*
X133546423Y-129502433D01*
X133465512Y-129351058D01*
X133385000Y-129252954D01*
X133385000Y-129243465D01*
X133389281Y-129199999D01*
X133385000Y-129156533D01*
X133385000Y-129156523D01*
X133372195Y-129026510D01*
X133321589Y-128859687D01*
X133239411Y-128705941D01*
X133128817Y-128571183D01*
X133095044Y-128543466D01*
X133056534Y-128504956D01*
X133028817Y-128471183D01*
X132894059Y-128360589D01*
X132740313Y-128278411D01*
X132573490Y-128227805D01*
X132443477Y-128215000D01*
X132443469Y-128215000D01*
X132414124Y-128212110D01*
X132237624Y-128094176D01*
X132154078Y-128059570D01*
X132240706Y-127954014D01*
X132378599Y-127696034D01*
X132463513Y-127416111D01*
X132485000Y-127197950D01*
X132485000Y-127127000D01*
X134873000Y-127127000D01*
X134873000Y-133373000D01*
G37*
%TD.AperFunction*%
%TD*%
D27*
%TO.N,GND*%
X139953577Y-130747567D02*
X140034488Y-130898942D01*
X140143377Y-131031623D01*
X140276058Y-131140512D01*
X140427433Y-131221423D01*
X140591684Y-131271248D01*
X140762500Y-131288072D01*
X140873000Y-131288072D01*
X140873000Y-133373000D01*
X140654175Y-133373000D01*
X140500000Y-133357815D01*
X140345824Y-133373000D01*
X139607585Y-133373000D01*
X139149918Y-130627000D01*
X139917003Y-130627000D01*
X139953577Y-130747567D01*
%TA.AperFunction,Conductor*%
D28*
G36*
X139953577Y-130747567D02*
G01*
X140034488Y-130898942D01*
X140143377Y-131031623D01*
X140276058Y-131140512D01*
X140427433Y-131221423D01*
X140591684Y-131271248D01*
X140762500Y-131288072D01*
X140873000Y-131288072D01*
X140873000Y-133373000D01*
X140654175Y-133373000D01*
X140500000Y-133357815D01*
X140345824Y-133373000D01*
X139607585Y-133373000D01*
X139149918Y-130627000D01*
X139917003Y-130627000D01*
X139953577Y-130747567D01*
G37*
%TD.AperFunction*%
%TD*%
M02*
